M48
;Layer_Color=9474304
;FILE_FORMAT=2:5
INCH,TZ
;TYPE=PLATED
T1F00S00C0.01181
T2F00S00C0.03543
T3F00S00C0.05118
T4F00S00C0.12598
%
T01
X-121653Y-79649
X-117153Y-81795
X-112026Y-67524
X-105851Y-64502
X-102509Y-64422
X-95682Y-59942
X-92652Y-60437
X-86639Y-60630
X-83255Y-60652
X-70622Y-64328
X-60433Y-64355
X-61023Y-77559
X-70276Y-76938
X-73908Y-81776
X-77423Y-79785
X-80315Y-76938
X-86464Y-83641
X-90886Y-48373
X-60547Y-44388
X-10671Y-64367
X-647Y-63533
X19237Y-63373
X29921
X49730Y-62051
X54530Y-79786
X59565Y-83851
X44599Y-81416
X14566Y-80441
X4724Y-81776
X93307Y-72539
X85433Y-56791
X116506Y-15770
X122692Y11388
X109055Y21949
X112754Y66321
X109211Y80495
X89185Y78788
X85433Y37697
X77559Y21949
X93307
X85433Y6201
X69685
X61811Y21949
X46063
X38189Y6201
Y-25295
X49730Y-22126
X53937Y-25295
X69685
X85433
X101181
X100706Y-18438
X93307Y-9547
Y-41043
X22441Y-25295
X15243Y-30372
X5339Y-27197
X-1181Y-41043
Y-9547
X14567
X6693Y6201
X-9055
X-24803
X-40551
X-36899Y36253
X-31727Y38976
Y47775
X-36899
X-47054Y44307
X-47036Y37664
X-26772Y30891
X-22053Y22047
X-16929Y21949
X-18324Y36253
X-12598Y38976
X-7480Y42725
X-1575Y45700
X-1181Y21949
X14567
X37291Y60630
X37126Y65541
X43211Y63324
X-32067Y79250
X-34646Y82537
X-41783Y80029
X-16929Y-9547
X-45590Y-32808
X-70579Y-40089
X-64173Y-9547
X-79921
X-95669
X-111417
X-103543Y6201
X-111417Y21949
X-95669
X-87301Y16400
X-72047Y6201
X-64173Y21949
X-58268Y25197
X-50186Y22047
X-50116Y30891
X-51968Y48142
X-55118Y46364
X-58268Y48798
X-61417
X-64567Y48819
X-64206Y65748
X-61023
X-71016Y65346
X-82073Y63090
X-93110Y65354
X-95669Y53445
X-87402Y54428
X-74199Y80099
X-64567Y82000
X-61417Y77352
X-105808Y-32580
X-111417Y-41043
T02
X87008Y-62992
X118504Y62992
T03
X-118504Y-62992
X-87008Y62992
T04
X108268Y-62992
X-108268Y62992
M30
