G04*
G04 #@! TF.GenerationSoftware,Altium Limited,Altium Designer,21.1.0 (24)*
G04*
G04 Layer_Color=128*
%FSLAX25Y25*%
%MOIN*%
G70*
G04*
G04 #@! TF.SameCoordinates,AE38BD2F-4F15-4591-A29C-99F384BA61F6*
G04*
G04*
G04 #@! TF.FilePolarity,Positive*
G04*
G01*
G75*
%ADD18R,0.02953X0.03937*%
%ADD42R,0.03347X0.03543*%
%ADD43O,0.01968X0.07874*%
%ADD44R,0.01968X0.07874*%
D18*
X-65453Y44289D02*
D03*
X-59547D02*
D03*
X-82147Y44184D02*
D03*
X-88052D02*
D03*
X-87205Y80286D02*
D03*
X-81299D02*
D03*
X-50599Y80234D02*
D03*
X-56505D02*
D03*
X-38382Y30891D02*
D03*
X-44287D02*
D03*
X-38223Y22047D02*
D03*
X-44129D02*
D03*
X-59535Y37665D02*
D03*
X-65440D02*
D03*
D42*
X-65680Y30445D02*
D03*
X-59578D02*
D03*
D43*
X77166Y-71653D02*
D03*
X74016D02*
D03*
X70866D02*
D03*
X67717D02*
D03*
X64567D02*
D03*
X61417D02*
D03*
X58268D02*
D03*
X55118D02*
D03*
X51969D02*
D03*
X48819D02*
D03*
X45669D02*
D03*
X42520D02*
D03*
X26772D02*
D03*
X11024D02*
D03*
X-4724D02*
D03*
X-20472D02*
D03*
X-36220D02*
D03*
X-39370D02*
D03*
X-51969D02*
D03*
X-55118D02*
D03*
X-58268D02*
D03*
X-61417D02*
D03*
X-64567D02*
D03*
X-67717D02*
D03*
X-70866D02*
D03*
X-74016D02*
D03*
X-77165D02*
D03*
X-80315D02*
D03*
X-83465D02*
D03*
X-86614D02*
D03*
X-89764D02*
D03*
X-92914D02*
D03*
X-96063D02*
D03*
X-99213D02*
D03*
X-102362D02*
D03*
X-105512D02*
D03*
X-108661D02*
D03*
X-108661Y-54331D02*
D03*
X-105512D02*
D03*
X-102362D02*
D03*
X-99213D02*
D03*
X-96063D02*
D03*
X-92914D02*
D03*
X-89764D02*
D03*
X-86614D02*
D03*
X-83465D02*
D03*
X-80315D02*
D03*
X-77165D02*
D03*
X-74016D02*
D03*
X-70866D02*
D03*
X-67717D02*
D03*
X-64567D02*
D03*
X-61417D02*
D03*
X-58268D02*
D03*
X-55118D02*
D03*
X-51968D02*
D03*
X-36220D02*
D03*
X-33071D02*
D03*
X-29921D02*
D03*
X-26772D02*
D03*
X-23622D02*
D03*
X-20472D02*
D03*
X-4724D02*
D03*
X11024D02*
D03*
X14173D02*
D03*
X17323D02*
D03*
X20472D02*
D03*
X23622D02*
D03*
X26772D02*
D03*
X29921D02*
D03*
X33071D02*
D03*
X36220D02*
D03*
X39370D02*
D03*
X42520D02*
D03*
X45669D02*
D03*
X48819D02*
D03*
X51969D02*
D03*
X55118D02*
D03*
X58268D02*
D03*
X61417D02*
D03*
X64567D02*
D03*
X70866D02*
D03*
X74016D02*
D03*
X29921Y-71653D02*
D03*
X7874D02*
D03*
X4724D02*
D03*
X1575D02*
D03*
X-1575D02*
D03*
X-7874D02*
D03*
X-11024D02*
D03*
X-14173D02*
D03*
X-17323D02*
D03*
X14173D02*
D03*
X17323D02*
D03*
X20472D02*
D03*
X23622D02*
D03*
X33071D02*
D03*
X36220D02*
D03*
X39370D02*
D03*
X7874Y-54331D02*
D03*
X-7874D02*
D03*
X-11024D02*
D03*
X-14173D02*
D03*
X-17323D02*
D03*
X-1575D02*
D03*
X1575D02*
D03*
X4724D02*
D03*
X-39370D02*
D03*
X-45669D02*
D03*
X-48819D02*
D03*
X-42520D02*
D03*
X-45669Y-71653D02*
D03*
X-48819D02*
D03*
X-42520D02*
D03*
X-23622D02*
D03*
X-29921D02*
D03*
X-33071D02*
D03*
X-26772D02*
D03*
X67717Y-54331D02*
D03*
X-33071Y71653D02*
D03*
X-36220D02*
D03*
X-42520D02*
D03*
X-45669D02*
D03*
X-61417D02*
D03*
X-64567D02*
D03*
X-70866D02*
D03*
X-74016D02*
D03*
X-33071Y54331D02*
D03*
X-36220D02*
D03*
X-42520D02*
D03*
X-45669D02*
D03*
X-51969D02*
D03*
X-55118D02*
D03*
X-70866D02*
D03*
X-74016D02*
D03*
X108661D02*
D03*
X105512D02*
D03*
X102362D02*
D03*
X92914D02*
D03*
X83465D02*
D03*
X80315D02*
D03*
X77165D02*
D03*
X74016D02*
D03*
X70866D02*
D03*
X67717D02*
D03*
X64567D02*
D03*
X61417D02*
D03*
X58268D02*
D03*
X55118D02*
D03*
X51968D02*
D03*
X48819D02*
D03*
X45669D02*
D03*
X42520D02*
D03*
X26772D02*
D03*
X11024D02*
D03*
X-4724D02*
D03*
X-20472D02*
D03*
X-23622D02*
D03*
X-26772D02*
D03*
X-29921D02*
D03*
X-39370D02*
D03*
X-48819D02*
D03*
X-58268D02*
D03*
X-61417D02*
D03*
X-64567D02*
D03*
X-67717D02*
D03*
X-77166D02*
D03*
X-77166Y71653D02*
D03*
X-67717D02*
D03*
X-58268D02*
D03*
X-55118D02*
D03*
X-51969D02*
D03*
X-48819D02*
D03*
X-39370D02*
D03*
X-29921D02*
D03*
X-26772D02*
D03*
X-23622D02*
D03*
X-20472D02*
D03*
X-4724D02*
D03*
X11024D02*
D03*
X26772D02*
D03*
X42520D02*
D03*
X58268D02*
D03*
X61417D02*
D03*
X64567D02*
D03*
X67717D02*
D03*
X70866D02*
D03*
X74016D02*
D03*
X77165D02*
D03*
X80315D02*
D03*
X83465D02*
D03*
X86614D02*
D03*
X92914D02*
D03*
X102362D02*
D03*
X105512D02*
D03*
X89764Y54331D02*
D03*
X86614D02*
D03*
X99213D02*
D03*
X96063D02*
D03*
X89764Y71653D02*
D03*
X99213D02*
D03*
X96063D02*
D03*
X39370Y54331D02*
D03*
X36220D02*
D03*
X17323D02*
D03*
X7874D02*
D03*
X4724D02*
D03*
X1575D02*
D03*
X-1575D02*
D03*
X14173D02*
D03*
X20472D02*
D03*
X23622D02*
D03*
X-11024D02*
D03*
X-14173D02*
D03*
X-17323D02*
D03*
X-7874D02*
D03*
X29921Y71653D02*
D03*
X17323D02*
D03*
X14173D02*
D03*
X7874D02*
D03*
X4724D02*
D03*
X1575D02*
D03*
X-1575D02*
D03*
X-7874D02*
D03*
X-11024D02*
D03*
X-14173D02*
D03*
X-17323D02*
D03*
X20472D02*
D03*
X23622D02*
D03*
X33071D02*
D03*
X36220D02*
D03*
X39370D02*
D03*
X51969D02*
D03*
X55118D02*
D03*
X29921Y54331D02*
D03*
X33071D02*
D03*
X48819Y71653D02*
D03*
X45669D02*
D03*
D44*
X77166Y-54331D02*
D03*
X108661Y71653D02*
D03*
M02*
