G04*
G04 #@! TF.GenerationSoftware,Altium Limited,Altium Designer,21.0.8 (223)*
G04*
G04 Layer_Color=32896*
%FSLAX25Y25*%
%MOIN*%
G70*
G04*
G04 #@! TF.SameCoordinates,19BF406E-31A8-4989-80D5-3CA5337EBE6E*
G04*
G04*
G04 #@! TF.FilePolarity,Positive*
G04*
G01*
G75*
%ADD12C,0.00500*%
%ADD13C,0.00787*%
%ADD16C,0.01000*%
D12*
X-63129Y32445D02*
X-62129D01*
X-63129Y28445D02*
X-62129D01*
D13*
X-62894Y42714D02*
X-62106D01*
X-62894Y45864D02*
X-62106D01*
X-85493Y45759D02*
X-84706D01*
X-85493Y42609D02*
X-84706D01*
X-84646Y78711D02*
X-83858D01*
X-84646Y81861D02*
X-83858D01*
X-53946Y81809D02*
X-53158D01*
X-53946Y78659D02*
X-53158D01*
X-41728Y32466D02*
X-40941D01*
X-41728Y29316D02*
X-40941D01*
X-41569Y23622D02*
X-40782D01*
X-41569Y20472D02*
X-40782D01*
X-62881Y39240D02*
X-62094D01*
X-62881Y36090D02*
X-62094D01*
X79528Y-73228D02*
X87402D01*
Y-60630D01*
X84646D02*
X87402D01*
X84252Y-60236D02*
X84646Y-60630D01*
X84252Y-60236D02*
Y-52756D01*
X79528D02*
X84252D01*
X79528Y-74803D02*
X90158D01*
Y-51181D01*
X79528D02*
X90158D01*
X-121653Y-74803D02*
X-111024D01*
X-121653D02*
Y-51181D01*
X-111024D01*
X-115748Y-52756D02*
X-111024D01*
X-118898Y-73228D02*
X-111024D01*
X-118898D02*
Y-60630D01*
X-116142D01*
X-115748Y-60236D01*
Y-52756D01*
X111024Y52756D02*
X118898D01*
Y65354D01*
X116142D02*
X118898D01*
X115748Y65748D02*
X116142Y65354D01*
X115748Y65748D02*
Y73228D01*
X111024D02*
X115748D01*
X111024Y51181D02*
X121653D01*
Y74803D01*
X111024D02*
X121653D01*
X-90158Y51181D02*
X-79528D01*
X-90158D02*
Y74803D01*
X-79528D01*
X-84252Y73228D02*
X-79528D01*
X-87402Y52756D02*
X-79528D01*
X-87402D02*
Y65354D01*
X-84646D01*
X-84252Y65748D01*
Y73228D01*
D16*
X-69679Y28477D02*
Y32413D01*
X-71647D01*
X-72303Y31757D01*
Y30445D01*
X-71647Y29789D01*
X-69679D01*
X-70991D02*
X-72303Y28477D01*
X-76239D02*
X-73615D01*
X-76239Y31101D01*
Y31757D01*
X-75583Y32413D01*
X-74271D01*
X-73615Y31757D01*
X-80175Y28477D02*
X-77551D01*
X-80175Y31101D01*
Y31757D01*
X-79519Y32413D01*
X-78207D01*
X-77551Y31757D01*
X-23392Y20079D02*
Y24015D01*
X-25360D01*
X-26016Y23359D01*
Y22047D01*
X-25360Y21391D01*
X-23392D01*
X-24704D02*
X-26016Y20079D01*
X-29952D02*
X-27328D01*
X-29952Y22703D01*
Y23359D01*
X-29296Y24015D01*
X-27984D01*
X-27328Y23359D01*
X-31264Y20079D02*
X-32575D01*
X-31919D01*
Y24015D01*
X-31264Y23359D01*
X-23238Y28923D02*
Y32859D01*
X-25206D01*
X-25862Y32203D01*
Y30891D01*
X-25206Y30235D01*
X-23238D01*
X-24550D02*
X-25862Y28923D01*
X-29798D02*
X-27174D01*
X-29798Y31547D01*
Y32203D01*
X-29142Y32859D01*
X-27830D01*
X-27174Y32203D01*
X-31109D02*
X-31765Y32859D01*
X-33077D01*
X-33733Y32203D01*
Y29579D01*
X-33077Y28923D01*
X-31765D01*
X-31109Y29579D01*
Y32203D01*
X-69740Y35560D02*
Y39496D01*
X-71708D01*
X-72364Y38840D01*
Y37528D01*
X-71708Y36872D01*
X-69740D01*
X-71052D02*
X-72364Y35560D01*
X-73676D02*
X-74988D01*
X-74332D01*
Y39496D01*
X-73676Y38840D01*
X-76956Y36216D02*
X-77612Y35560D01*
X-78924D01*
X-79580Y36216D01*
Y38840D01*
X-78924Y39496D01*
X-77612D01*
X-76956Y38840D01*
Y38184D01*
X-77612Y37528D01*
X-79580D01*
X-36863Y78158D02*
Y82093D01*
X-38831D01*
X-39487Y81437D01*
Y80125D01*
X-38831Y79470D01*
X-36863D01*
X-38175D02*
X-39487Y78158D01*
X-40799D02*
X-42111D01*
X-41455D01*
Y82093D01*
X-40799Y81437D01*
X-44079Y82093D02*
X-46703D01*
Y81437D01*
X-44079Y78814D01*
Y78158D01*
X-69096Y42821D02*
Y46757D01*
X-71064D01*
X-71720Y46101D01*
Y44789D01*
X-71064Y44133D01*
X-69096D01*
X-70408D02*
X-71720Y42821D01*
X-73032D02*
X-74344D01*
X-73688D01*
Y46757D01*
X-73032Y46101D01*
X-78935Y46757D02*
X-77624Y46101D01*
X-76312Y44789D01*
Y43477D01*
X-76968Y42821D01*
X-78280D01*
X-78935Y43477D01*
Y44133D01*
X-78280Y44789D01*
X-76312D01*
X-91744Y78193D02*
Y82129D01*
X-93712D01*
X-94368Y81473D01*
Y80161D01*
X-93712Y79505D01*
X-91744D01*
X-93056D02*
X-94368Y78193D01*
X-95680D02*
X-96992D01*
X-96336D01*
Y82129D01*
X-95680Y81473D01*
X-101584Y82129D02*
X-98960D01*
Y80161D01*
X-100272Y80817D01*
X-100928D01*
X-101584Y80161D01*
Y78849D01*
X-100928Y78193D01*
X-99616D01*
X-98960Y78849D01*
X-91788Y42018D02*
Y45954D01*
X-93756D01*
X-94411Y45298D01*
Y43986D01*
X-93756Y43330D01*
X-91788D01*
X-93100D02*
X-94411Y42018D01*
X-95723D02*
X-97035D01*
X-96379D01*
Y45954D01*
X-95723Y45298D01*
X-100971Y42018D02*
Y45954D01*
X-99003Y43986D01*
X-101627D01*
X86132Y-77064D02*
X87444D01*
X86788D01*
Y-80344D01*
X87444Y-81000D01*
X88100D01*
X88756Y-80344D01*
X84820Y-81000D02*
Y-77064D01*
X82852D01*
X82196Y-77720D01*
Y-79032D01*
X82852Y-79688D01*
X84820D01*
X78261Y-81000D02*
X80884D01*
X78261Y-78376D01*
Y-77720D01*
X78917Y-77064D01*
X80229D01*
X80884Y-77720D01*
X119657Y80303D02*
X120969D01*
X120313D01*
Y77023D01*
X120969Y76367D01*
X121625D01*
X122281Y77023D01*
X118345Y76367D02*
Y80303D01*
X116377D01*
X115721Y79647D01*
Y78335D01*
X116377Y77679D01*
X118345D01*
X114410Y76367D02*
X113098D01*
X113754D01*
Y80303D01*
X114410Y79647D01*
M02*
