G04*
G04 #@! TF.GenerationSoftware,Altium Limited,Altium Designer,21.1.1 (26)*
G04*
G04 Layer_Physical_Order=1*
G04 Layer_Color=255*
%FSLAX25Y25*%
%MOIN*%
G70*
G04*
G04 #@! TF.SameCoordinates,66A76A72-44CD-4AFC-A254-82D7FFD66588*
G04*
G04*
G04 #@! TF.FilePolarity,Positive*
G04*
G01*
G75*
%ADD13C,0.00787*%
%ADD17R,0.05000X0.17717*%
%ADD18R,0.02953X0.03937*%
%ADD19R,0.12795X0.09843*%
%ADD20R,0.02756X0.12205*%
%ADD21R,0.04528X0.04134*%
%ADD22R,0.07165X0.04764*%
%ADD23R,0.03543X0.03347*%
%ADD24R,0.03150X0.03150*%
%ADD25R,0.17717X0.05000*%
%ADD26R,0.03937X0.02953*%
%ADD40C,0.03937*%
%ADD41C,0.21654*%
%ADD42C,0.02362*%
G36*
X89929Y77859D02*
X89856Y77770D01*
X89791Y77679D01*
X89734Y77585D01*
X89687Y77488D01*
X89648Y77389D01*
X89617Y77287D01*
X89596Y77183D01*
X89583Y77076D01*
X89578Y76966D01*
X88791D01*
X88787Y77076D01*
X88774Y77183D01*
X88752Y77287D01*
X88722Y77389D01*
X88683Y77488D01*
X88635Y77585D01*
X88579Y77679D01*
X88514Y77770D01*
X88440Y77859D01*
X88358Y77945D01*
X90012D01*
X89929Y77859D01*
D02*
G37*
G36*
X113514Y38741D02*
X113506Y38816D01*
X113482Y38882D01*
X113442Y38941D01*
X113386Y38993D01*
X113314Y39036D01*
X113226Y39071D01*
X113122Y39099D01*
X113002Y39119D01*
X112866Y39130D01*
X112715Y39134D01*
Y39922D01*
X112866Y39926D01*
X113002Y39938D01*
X113122Y39957D01*
X113226Y39985D01*
X113314Y40020D01*
X113386Y40064D01*
X113442Y40115D01*
X113482Y40174D01*
X113506Y40241D01*
X113514Y40315D01*
Y38741D01*
D02*
G37*
G36*
X104813Y40241D02*
X104836Y40174D01*
X104876Y40115D01*
X104932Y40064D01*
X105004Y40020D01*
X105092Y39985D01*
X105196Y39957D01*
X105316Y39938D01*
X105452Y39926D01*
X105604Y39922D01*
Y39134D01*
X105452Y39130D01*
X105316Y39119D01*
X105196Y39099D01*
X105092Y39071D01*
X105004Y39036D01*
X104932Y38993D01*
X104876Y38941D01*
X104836Y38882D01*
X104813Y38816D01*
X104805Y38741D01*
Y40315D01*
X104813Y40241D01*
D02*
G37*
G36*
X100325Y38741D02*
X100317Y38816D01*
X100293Y38882D01*
X100253Y38941D01*
X100197Y38993D01*
X100125Y39036D01*
X100037Y39071D01*
X99933Y39099D01*
X99813Y39119D01*
X99677Y39130D01*
X99525Y39134D01*
Y39922D01*
X99677Y39926D01*
X99813Y39938D01*
X99933Y39957D01*
X100037Y39985D01*
X100125Y40020D01*
X100197Y40064D01*
X100253Y40115D01*
X100293Y40174D01*
X100317Y40241D01*
X100325Y40315D01*
Y38741D01*
D02*
G37*
G36*
X120748Y38624D02*
X120740Y38699D01*
X120716Y38766D01*
X120676Y38825D01*
X120620Y38876D01*
X120548Y38919D01*
X120460Y38955D01*
X120356Y38982D01*
X120236Y39002D01*
X120100Y39014D01*
X119948Y39018D01*
Y39805D01*
X120100Y39809D01*
X120236Y39821D01*
X120356Y39840D01*
X120460Y39868D01*
X120548Y39903D01*
X120620Y39947D01*
X120676Y39998D01*
X120716Y40057D01*
X120740Y40124D01*
X120748Y40199D01*
Y38624D01*
D02*
G37*
G36*
X118001Y40124D02*
X118026Y40057D01*
X118065Y39998D01*
X118121Y39947D01*
X118193Y39903D01*
X118281Y39868D01*
X118385Y39840D01*
X118505Y39821D01*
X118641Y39809D01*
X118793Y39805D01*
Y39018D01*
X118641Y39014D01*
X118505Y39002D01*
X118385Y38982D01*
X118281Y38955D01*
X118193Y38919D01*
X118121Y38876D01*
X118065Y38825D01*
X118026Y38766D01*
X118001Y38699D01*
X117993Y38624D01*
Y40199D01*
X118001Y40124D01*
D02*
G37*
G36*
X123298Y37939D02*
X123231Y37915D01*
X123172Y37876D01*
X123121Y37821D01*
X123077Y37750D01*
X123042Y37663D01*
X123014Y37561D01*
X122995Y37443D01*
X122983Y37309D01*
X122979Y37159D01*
X122192D01*
X122188Y37309D01*
X122176Y37443D01*
X122156Y37561D01*
X122129Y37663D01*
X122093Y37750D01*
X122050Y37821D01*
X121999Y37876D01*
X121940Y37915D01*
X121873Y37939D01*
X121798Y37947D01*
X123373D01*
X123298Y37939D01*
D02*
G37*
G36*
X122983Y23856D02*
X122995Y23720D01*
X123014Y23600D01*
X123042Y23496D01*
X123077Y23408D01*
X123121Y23337D01*
X123172Y23281D01*
X123231Y23241D01*
X123298Y23217D01*
X123373Y23209D01*
X121798D01*
X121873Y23217D01*
X121940Y23241D01*
X121999Y23281D01*
X122050Y23337D01*
X122093Y23408D01*
X122129Y23496D01*
X122156Y23600D01*
X122176Y23720D01*
X122188Y23856D01*
X122192Y24008D01*
X122979D01*
X122983Y23856D01*
D02*
G37*
G36*
X126378Y-84055D02*
X61446D01*
X61279Y-83851D01*
X61148Y-83195D01*
X60796Y-82669D01*
X60783Y-82634D01*
X60714Y-82562D01*
X60665Y-82503D01*
X60624Y-82445D01*
X60590Y-82388D01*
X60562Y-82332D01*
X60540Y-82275D01*
X60523Y-82218D01*
X60510Y-82158D01*
X60503Y-82095D01*
X60499Y-82008D01*
X60476Y-81957D01*
Y-44905D01*
X60407Y-44556D01*
X60209Y-44260D01*
X58059Y-42110D01*
X57764Y-41913D01*
X57533Y-41867D01*
X57500Y-41853D01*
Y-34442D01*
X51500D01*
Y-53158D01*
X57500D01*
Y-44782D01*
X57962Y-44590D01*
X58654Y-45282D01*
Y-81957D01*
X58630Y-82008D01*
X58627Y-82095D01*
X58619Y-82158D01*
X58607Y-82218D01*
X58590Y-82275D01*
X58567Y-82332D01*
X58540Y-82388D01*
X58505Y-82445D01*
X58464Y-82503D01*
X58416Y-82562D01*
X58347Y-82634D01*
X58333Y-82669D01*
X57981Y-83195D01*
X57851Y-83851D01*
X57683Y-84055D01*
X41002D01*
X40762Y-83675D01*
X40735Y-83555D01*
X40776Y-83494D01*
X40845Y-83145D01*
Y-45452D01*
X41345Y-45153D01*
X41500Y-45236D01*
Y-53158D01*
X47500D01*
Y-34442D01*
X41500D01*
Y-42844D01*
X41445Y-42853D01*
X41346Y-42862D01*
X41211Y-42865D01*
X41158Y-42889D01*
X40395D01*
X40046Y-42958D01*
X39751Y-43156D01*
X39290Y-43617D01*
X39092Y-43913D01*
X39023Y-44261D01*
Y-82768D01*
X38851Y-82940D01*
X6499D01*
X6263Y-82499D01*
X6308Y-82432D01*
X6438Y-81776D01*
X6308Y-81121D01*
X5956Y-80594D01*
X5943Y-80559D01*
X5874Y-80487D01*
X5825Y-80428D01*
X5784Y-80370D01*
X5750Y-80313D01*
X5722Y-80257D01*
X5700Y-80200D01*
X5682Y-80143D01*
X5670Y-80083D01*
X5662Y-80020D01*
X5659Y-79933D01*
X5636Y-79883D01*
Y-78697D01*
X5659Y-78645D01*
X5663Y-78509D01*
X5671Y-78410D01*
X5680Y-78355D01*
X7500D01*
Y-60093D01*
X7500Y-59639D01*
X7981Y-59593D01*
X11019D01*
X11500Y-59639D01*
X11500Y-60093D01*
Y-78355D01*
X13244D01*
X13396Y-78485D01*
X13444Y-78542D01*
X13572Y-78749D01*
X13594Y-78855D01*
X13591Y-78865D01*
X13569Y-78922D01*
X13541Y-78978D01*
X13507Y-79035D01*
X13466Y-79093D01*
X13417Y-79151D01*
X13348Y-79224D01*
X13334Y-79259D01*
X12983Y-79785D01*
X12852Y-80441D01*
X12983Y-81097D01*
X13354Y-81653D01*
X13910Y-82025D01*
X14566Y-82155D01*
X15222Y-82025D01*
X15778Y-81653D01*
X16150Y-81097D01*
X16280Y-80441D01*
X16150Y-79785D01*
X15798Y-79259D01*
X15784Y-79224D01*
X15715Y-79151D01*
X15666Y-79093D01*
X15625Y-79035D01*
X15591Y-78978D01*
X15563Y-78922D01*
X15541Y-78865D01*
X15538Y-78855D01*
X15560Y-78749D01*
X15688Y-78542D01*
X15737Y-78485D01*
X15888Y-78355D01*
X17500D01*
Y-64698D01*
X18000Y-64547D01*
X18025Y-64585D01*
X18582Y-64956D01*
X19237Y-65087D01*
X19893Y-64956D01*
X20420Y-64604D01*
X20455Y-64591D01*
X20527Y-64522D01*
X20586Y-64473D01*
X20644Y-64432D01*
X20700Y-64398D01*
X20757Y-64370D01*
X20814Y-64348D01*
X20871Y-64331D01*
X20931Y-64318D01*
X20993Y-64311D01*
X21008Y-64310D01*
X21228Y-64398D01*
X21500Y-64566D01*
Y-78355D01*
X27500D01*
Y-60093D01*
X27500Y-59639D01*
X27981Y-59593D01*
X31019D01*
X31500Y-59639D01*
X31500Y-60093D01*
Y-61782D01*
X31442Y-61855D01*
X31364Y-61920D01*
X31064Y-62049D01*
X31000Y-62050D01*
X30941Y-62032D01*
X30577Y-61789D01*
X29921Y-61659D01*
X29265Y-61789D01*
X28709Y-62161D01*
X28338Y-62717D01*
X28207Y-63373D01*
X28338Y-64029D01*
X28709Y-64585D01*
X29265Y-64956D01*
X29921Y-65087D01*
X30577Y-64956D01*
X31000Y-64674D01*
X31439Y-64844D01*
X31500Y-64895D01*
Y-78355D01*
X37500D01*
Y-59639D01*
X33531D01*
X33323Y-59139D01*
X35144Y-57318D01*
X35342Y-57022D01*
X35411Y-56673D01*
Y-53500D01*
X35435Y-53448D01*
X35438Y-53312D01*
X35447Y-53213D01*
X35456Y-53158D01*
X37500D01*
Y-34442D01*
X31500D01*
Y-53158D01*
X33544D01*
X33553Y-53213D01*
X33562Y-53312D01*
X33565Y-53448D01*
X33589Y-53500D01*
Y-56296D01*
X32114Y-57770D01*
X23968D01*
X23777Y-57309D01*
X25144Y-55941D01*
X25342Y-55645D01*
X25411Y-55296D01*
Y-53500D01*
X25435Y-53448D01*
X25438Y-53312D01*
X25447Y-53213D01*
X25456Y-53158D01*
X27500D01*
Y-34442D01*
X21500D01*
Y-53158D01*
X23544D01*
X23553Y-53213D01*
X23562Y-53312D01*
X23565Y-53448D01*
X23589Y-53500D01*
Y-54919D01*
X22127Y-56380D01*
X-6145D01*
X-6352Y-55880D01*
X-4856Y-54384D01*
X-4658Y-54088D01*
X-4589Y-53739D01*
Y-53500D01*
X-4565Y-53448D01*
X-4562Y-53312D01*
X-4553Y-53213D01*
X-4544Y-53158D01*
X-2500D01*
Y-34442D01*
X-8500D01*
Y-53158D01*
X-6915D01*
X-6707Y-53658D01*
X-7783Y-54734D01*
X-16833D01*
X-17024Y-54272D01*
X-16753Y-54001D01*
X-16555Y-53705D01*
X-16510Y-53477D01*
X-16462Y-53369D01*
X-16459Y-53247D01*
X-16453Y-53158D01*
X-12500D01*
Y-34442D01*
X-18500D01*
Y-52515D01*
X-18520Y-52545D01*
X-18508Y-52600D01*
X-18529Y-52651D01*
X-18500Y-52720D01*
Y-53158D01*
X-18881Y-53447D01*
X-21713D01*
X-22213Y-53446D01*
X-22213Y-52947D01*
Y-44391D01*
X-25500D01*
X-28787D01*
Y-52947D01*
X-28787Y-53446D01*
X-29287Y-53447D01*
X-32119D01*
X-32500Y-53158D01*
X-32500Y-52947D01*
Y-34442D01*
X-34543D01*
X-34553Y-34381D01*
X-34562Y-34285D01*
X-34565Y-34152D01*
X-34589Y-34099D01*
Y-31981D01*
X-34658Y-31632D01*
X-34856Y-31336D01*
X-36464Y-29728D01*
X-36760Y-29530D01*
X-37109Y-29461D01*
X-84178D01*
X-84651Y-29396D01*
X-84651Y-28961D01*
Y-25443D01*
X-86163D01*
X-86173Y-25383D01*
X-86181Y-25286D01*
X-86185Y-25153D01*
X-86208Y-25101D01*
Y-19089D01*
X-82787Y-15667D01*
X-76767D01*
X88814Y-15667D01*
X89163Y-15598D01*
X89458Y-15401D01*
X89920Y-14939D01*
X90117Y-14644D01*
X90186Y-14295D01*
Y18275D01*
X90117Y18624D01*
X90096Y18655D01*
Y38617D01*
X99319D01*
X99801Y38259D01*
X99801Y37055D01*
X99514Y36674D01*
X99514Y36580D01*
Y34410D01*
X105616D01*
X105616Y36674D01*
X105329Y37055D01*
X105329Y37174D01*
Y38572D01*
X105384Y38581D01*
X105482Y38590D01*
X105618Y38593D01*
X105671Y38617D01*
X112508D01*
X112990Y38259D01*
X112990Y37055D01*
X112703Y36674D01*
X112703Y36580D01*
Y34410D01*
X118805D01*
X118805Y36674D01*
X118517Y37055D01*
X118517Y37174D01*
Y38455D01*
X118572Y38464D01*
X118672Y38473D01*
X118807Y38477D01*
X118860Y38500D01*
X119881D01*
X119934Y38477D01*
X120070Y38473D01*
X120169Y38464D01*
X120224Y38455D01*
Y37435D01*
X121629D01*
X121639Y37375D01*
X121647Y37278D01*
X121651Y37145D01*
X121674Y37093D01*
Y24075D01*
X121651Y24022D01*
X121647Y23887D01*
X121639Y23788D01*
X121630Y23733D01*
X120117D01*
Y19780D01*
X125054D01*
Y23733D01*
X123541D01*
X123532Y23788D01*
X123524Y23887D01*
X123520Y24022D01*
X123497Y24075D01*
Y37093D01*
X123520Y37145D01*
X123524Y37278D01*
X123532Y37375D01*
X123542Y37435D01*
X125161D01*
Y41388D01*
X120224D01*
Y40367D01*
X120169Y40358D01*
X120070Y40350D01*
X119934Y40346D01*
X119881Y40323D01*
X118860D01*
X118807Y40346D01*
X118672Y40350D01*
X118572Y40358D01*
X118517Y40367D01*
Y42095D01*
X112990D01*
Y40484D01*
X112935Y40475D01*
X112836Y40466D01*
X112700Y40463D01*
X112648Y40439D01*
X105671D01*
X105618Y40463D01*
X105482Y40466D01*
X105384Y40475D01*
X105329Y40484D01*
Y42095D01*
X99801D01*
Y40484D01*
X99746Y40475D01*
X99647Y40466D01*
X99511Y40463D01*
X99459Y40439D01*
X90096D01*
Y76894D01*
X90119Y76945D01*
X90123Y77032D01*
X90130Y77095D01*
X90143Y77155D01*
X90160Y77212D01*
X90182Y77269D01*
X90210Y77325D01*
X90244Y77382D01*
X90285Y77440D01*
X90334Y77499D01*
X90403Y77571D01*
X90416Y77606D01*
X90768Y78132D01*
X90899Y78788D01*
X90768Y79444D01*
X90397Y80000D01*
X89841Y80372D01*
X89185Y80502D01*
X88529Y80372D01*
X87973Y80000D01*
X87601Y79444D01*
X87471Y78788D01*
X87601Y78132D01*
X87953Y77606D01*
X87967Y77571D01*
X88036Y77499D01*
X88084Y77440D01*
X88125Y77382D01*
X88160Y77325D01*
X88187Y77269D01*
X88210Y77212D01*
X88227Y77155D01*
X88239Y77095D01*
X88247Y77032D01*
X88250Y76945D01*
X88274Y76894D01*
Y39438D01*
Y18366D01*
X88343Y18017D01*
X88364Y17985D01*
Y-13845D01*
X-76767Y-13845D01*
X-83165D01*
X-83513Y-13914D01*
X-83809Y-14112D01*
X-87764Y-18067D01*
X-87961Y-18362D01*
X-88031Y-18711D01*
Y-25101D01*
X-88054Y-25153D01*
X-88058Y-25286D01*
X-88066Y-25383D01*
X-88076Y-25443D01*
X-89588D01*
X-89588Y-29396D01*
X-90061Y-29461D01*
X-100394D01*
X-100742Y-29530D01*
X-101038Y-29728D01*
X-103096Y-31786D01*
X-103294Y-32082D01*
X-103363Y-32430D01*
Y-62505D01*
X-103386Y-62554D01*
X-103385Y-62556D01*
X-103386Y-62559D01*
X-103390Y-62647D01*
X-103398Y-62708D01*
X-103410Y-62765D01*
X-103427Y-62819D01*
X-103449Y-62871D01*
X-103476Y-62923D01*
X-103509Y-62975D01*
X-103549Y-63027D01*
X-103597Y-63081D01*
X-103668Y-63148D01*
X-103684Y-63186D01*
X-103721Y-63210D01*
X-103906Y-63487D01*
X-104508D01*
X-104620Y-63319D01*
X-104633Y-63285D01*
X-104702Y-63212D01*
X-104751Y-63153D01*
X-104792Y-63096D01*
X-104826Y-63039D01*
X-104854Y-62982D01*
X-104876Y-62926D01*
X-104894Y-62868D01*
X-104906Y-62808D01*
X-104913Y-62746D01*
X-104917Y-62658D01*
X-104940Y-62608D01*
Y-34488D01*
X-104917Y-34438D01*
X-104913Y-34351D01*
X-104906Y-34289D01*
X-104894Y-34232D01*
X-104876Y-34177D01*
X-104855Y-34123D01*
X-104827Y-34070D01*
X-104794Y-34017D01*
X-104753Y-33963D01*
X-104705Y-33909D01*
X-104635Y-33840D01*
X-104621Y-33808D01*
X-104596Y-33792D01*
X-104225Y-33236D01*
X-104094Y-32580D01*
X-104225Y-31924D01*
X-104596Y-31368D01*
X-105152Y-30996D01*
X-105808Y-30866D01*
X-106464Y-30996D01*
X-107020Y-31368D01*
X-107392Y-31924D01*
X-107522Y-32580D01*
X-107392Y-33236D01*
X-107094Y-33681D01*
X-107070Y-33752D01*
X-107001Y-33829D01*
X-106953Y-33891D01*
X-106912Y-33953D01*
X-106877Y-34013D01*
X-106849Y-34073D01*
X-106826Y-34133D01*
X-106809Y-34193D01*
X-106797Y-34255D01*
X-106789Y-34319D01*
X-106786Y-34407D01*
X-106763Y-34457D01*
Y-62608D01*
X-106786Y-62658D01*
X-106789Y-62746D01*
X-106797Y-62808D01*
X-106809Y-62868D01*
X-106826Y-62926D01*
X-106849Y-62982D01*
X-106877Y-63039D01*
X-106911Y-63096D01*
X-106952Y-63153D01*
X-107000Y-63212D01*
X-107070Y-63285D01*
X-107083Y-63319D01*
X-107435Y-63846D01*
X-107565Y-64502D01*
X-107435Y-65158D01*
X-107063Y-65714D01*
X-106507Y-66085D01*
X-105851Y-66216D01*
X-105195Y-66085D01*
X-104639Y-65714D01*
X-104454Y-65437D01*
X-103853D01*
X-103721Y-65634D01*
X-103165Y-66005D01*
X-102509Y-66136D01*
X-101853Y-66005D01*
X-101297Y-65634D01*
X-100925Y-65078D01*
X-100795Y-64422D01*
X-100925Y-63766D01*
X-101207Y-63343D01*
X-101234Y-63264D01*
X-101302Y-63186D01*
X-101350Y-63122D01*
X-101392Y-63060D01*
X-101426Y-62998D01*
X-101454Y-62937D01*
X-101477Y-62876D01*
X-101494Y-62815D01*
X-101507Y-62753D01*
X-101514Y-62688D01*
X-101518Y-62601D01*
X-101541Y-62550D01*
Y-32808D01*
X-100016Y-31283D01*
X-90061D01*
X-89588Y-31348D01*
X-89588Y-31783D01*
Y-35301D01*
X-88075D01*
X-88066Y-35356D01*
X-88058Y-35455D01*
X-88054Y-35591D01*
X-88031Y-35644D01*
Y-40762D01*
X-87961Y-41111D01*
X-87764Y-41407D01*
X-84726Y-44444D01*
X-84430Y-44642D01*
X-84082Y-44711D01*
X-78982D01*
X-78500Y-45069D01*
Y-52947D01*
X-78500Y-53158D01*
X-78881Y-53447D01*
X-94788D01*
X-95136Y-53516D01*
X-95432Y-53714D01*
X-96620Y-54902D01*
X-96818Y-55197D01*
X-96887Y-55546D01*
Y-58204D01*
X-96911Y-58256D01*
X-96913Y-58344D01*
X-96920Y-58416D01*
X-96931Y-58490D01*
X-96947Y-58564D01*
X-96968Y-58641D01*
X-96994Y-58719D01*
X-97024Y-58792D01*
X-97110Y-58970D01*
X-97162Y-59060D01*
X-97173Y-59147D01*
X-97266Y-59286D01*
X-97396Y-59942D01*
X-97266Y-60598D01*
X-96894Y-61154D01*
X-96338Y-61525D01*
X-95682Y-61656D01*
X-95026Y-61525D01*
X-94664Y-61283D01*
X-94427Y-61178D01*
X-94032Y-61397D01*
X-93864Y-61649D01*
X-93308Y-62021D01*
X-92652Y-62151D01*
X-91996Y-62021D01*
X-91440Y-61649D01*
X-91068Y-61093D01*
X-90938Y-60437D01*
X-91068Y-59781D01*
X-91420Y-59255D01*
X-91433Y-59220D01*
X-91502Y-59148D01*
X-91551Y-59089D01*
X-91592Y-59031D01*
X-91626Y-58974D01*
X-91654Y-58918D01*
X-91676Y-58861D01*
X-91694Y-58804D01*
X-91706Y-58744D01*
X-91714Y-58681D01*
X-91717Y-58594D01*
X-91740Y-58543D01*
Y-56556D01*
X-86694D01*
X-86486Y-57056D01*
X-87290Y-57860D01*
X-87487Y-58156D01*
X-87557Y-58504D01*
Y-58738D01*
X-87580Y-58789D01*
X-87584Y-58876D01*
X-87591Y-58939D01*
X-87603Y-58999D01*
X-87621Y-59057D01*
X-87643Y-59114D01*
X-87671Y-59171D01*
X-87705Y-59229D01*
X-87746Y-59287D01*
X-87795Y-59346D01*
X-87864Y-59419D01*
X-87880Y-59461D01*
X-88223Y-59974D01*
X-88353Y-60630D01*
X-88223Y-61286D01*
X-87851Y-61842D01*
X-87295Y-62213D01*
X-86639Y-62344D01*
X-85983Y-62213D01*
X-85427Y-61842D01*
X-85255Y-61585D01*
X-84654Y-61585D01*
X-84467Y-61864D01*
X-83911Y-62236D01*
X-83255Y-62366D01*
X-82600Y-62236D01*
X-82043Y-61864D01*
X-81672Y-61308D01*
X-81541Y-60652D01*
X-81653Y-60093D01*
X-81386Y-59593D01*
X-78981D01*
X-78500Y-59639D01*
X-78500Y-60093D01*
Y-68041D01*
X-78555Y-68050D01*
X-78654Y-68059D01*
X-78789Y-68062D01*
X-78842Y-68086D01*
X-90589D01*
X-90938Y-68155D01*
X-91233Y-68353D01*
X-94508Y-71627D01*
X-94705Y-71923D01*
X-94775Y-72271D01*
Y-80194D01*
X-95222Y-80506D01*
X-102699D01*
X-102752Y-80483D01*
X-102884Y-80479D01*
X-102981Y-80471D01*
X-103041Y-80461D01*
Y-79205D01*
X-106994D01*
Y-84055D01*
X-108947D01*
Y-79205D01*
X-112899D01*
Y-80718D01*
X-112954Y-80727D01*
X-113053Y-80735D01*
X-113189Y-80739D01*
X-113242Y-80762D01*
X-115311D01*
X-115362Y-80739D01*
X-115450Y-80736D01*
X-115516Y-80728D01*
X-115581Y-80716D01*
X-115647Y-80699D01*
X-115712Y-80676D01*
X-115778Y-80648D01*
X-115845Y-80614D01*
X-115913Y-80573D01*
X-115983Y-80524D01*
X-116066Y-80460D01*
X-116169Y-80431D01*
X-116208Y-80405D01*
X-116228Y-80385D01*
X-116524Y-80187D01*
X-116872Y-80118D01*
X-116920Y-80128D01*
X-117153Y-80081D01*
X-117809Y-80212D01*
X-118365Y-80583D01*
X-118736Y-81139D01*
X-118867Y-81795D01*
X-118736Y-82451D01*
X-118365Y-83007D01*
X-117809Y-83379D01*
X-117153Y-83509D01*
X-116497Y-83379D01*
X-115941Y-83007D01*
X-115879Y-82914D01*
X-115818Y-82884D01*
X-115757Y-82812D01*
X-115709Y-82765D01*
X-115663Y-82726D01*
X-115616Y-82694D01*
X-115570Y-82669D01*
X-115523Y-82648D01*
X-115472Y-82631D01*
X-115419Y-82619D01*
X-115360Y-82612D01*
X-115272Y-82608D01*
X-115254Y-82600D01*
X-115236Y-82605D01*
X-115199Y-82585D01*
X-113242D01*
X-113189Y-82608D01*
X-113053Y-82612D01*
X-112954Y-82620D01*
X-112899Y-82629D01*
Y-84055D01*
X-125591D01*
Y2721D01*
X-125500Y3184D01*
X-125091Y3184D01*
X-106783D01*
Y9183D01*
X-125091D01*
X-125500Y9183D01*
X-125591Y9646D01*
Y22721D01*
X-125500Y23183D01*
X-125091Y23183D01*
X-106783D01*
Y29184D01*
X-125091D01*
X-125500Y29184D01*
X-125591Y29646D01*
Y85169D01*
X-125523Y85236D01*
X126378D01*
Y-84055D01*
D02*
G37*
G36*
X-86722Y-25317D02*
X-86710Y-25451D01*
X-86690Y-25569D01*
X-86663Y-25671D01*
X-86627Y-25758D01*
X-86584Y-25829D01*
X-86533Y-25884D01*
X-86474Y-25923D01*
X-86407Y-25947D01*
X-86332Y-25955D01*
X-87907D01*
X-87832Y-25947D01*
X-87765Y-25923D01*
X-87706Y-25884D01*
X-87655Y-25829D01*
X-87612Y-25758D01*
X-87576Y-25671D01*
X-87549Y-25569D01*
X-87529Y-25451D01*
X-87517Y-25317D01*
X-87513Y-25168D01*
X-86726D01*
X-86722Y-25317D01*
D02*
G37*
G36*
X-105013Y-33453D02*
X-105097Y-33535D01*
X-105173Y-33621D01*
X-105240Y-33710D01*
X-105298Y-33801D01*
X-105347Y-33896D01*
X-105386Y-33994D01*
X-105418Y-34095D01*
X-105440Y-34199D01*
X-105453Y-34306D01*
X-105458Y-34416D01*
X-106245Y-34386D01*
X-106249Y-34277D01*
X-106262Y-34170D01*
X-106283Y-34065D01*
X-106312Y-33963D01*
X-106350Y-33862D01*
X-106396Y-33764D01*
X-106451Y-33668D01*
X-106514Y-33574D01*
X-106586Y-33482D01*
X-106665Y-33393D01*
X-105013Y-33453D01*
D02*
G37*
G36*
X-35102Y-34316D02*
X-35091Y-34450D01*
X-35071Y-34568D01*
X-35043Y-34670D01*
X-35008Y-34757D01*
X-34965Y-34828D01*
X-34913Y-34883D01*
X-34854Y-34922D01*
X-34787Y-34946D01*
X-34713Y-34954D01*
X-36287D01*
X-36213Y-34946D01*
X-36146Y-34922D01*
X-36087Y-34883D01*
X-36035Y-34828D01*
X-35992Y-34757D01*
X-35957Y-34670D01*
X-35929Y-34568D01*
X-35909Y-34450D01*
X-35898Y-34316D01*
X-35894Y-34166D01*
X-35106D01*
X-35102Y-34316D01*
D02*
G37*
G36*
X-44846Y-33738D02*
X-44919Y-33826D01*
X-44984Y-33918D01*
X-45041Y-34012D01*
X-45088Y-34108D01*
X-45127Y-34207D01*
X-45158Y-34309D01*
X-45179Y-34414D01*
X-45182Y-34436D01*
X-45181Y-34450D01*
X-45161Y-34568D01*
X-45134Y-34670D01*
X-45098Y-34757D01*
X-45055Y-34828D01*
X-45004Y-34883D01*
X-44945Y-34922D01*
X-44878Y-34946D01*
X-44803Y-34954D01*
X-46378D01*
X-46303Y-34946D01*
X-46236Y-34922D01*
X-46177Y-34883D01*
X-46126Y-34828D01*
X-46082Y-34757D01*
X-46047Y-34670D01*
X-46019Y-34568D01*
X-46000Y-34450D01*
X-45998Y-34436D01*
X-46001Y-34414D01*
X-46023Y-34309D01*
X-46053Y-34207D01*
X-46092Y-34108D01*
X-46140Y-34012D01*
X-46196Y-33918D01*
X-46261Y-33826D01*
X-46335Y-33738D01*
X-46417Y-33651D01*
X-44763D01*
X-44846Y-33738D01*
D02*
G37*
G36*
X-86407Y-34785D02*
X-86474Y-34809D01*
X-86533Y-34849D01*
X-86584Y-34905D01*
X-86627Y-34977D01*
X-86663Y-35065D01*
X-86690Y-35169D01*
X-86710Y-35289D01*
X-86722Y-35425D01*
X-86726Y-35577D01*
X-87513D01*
X-87517Y-35425D01*
X-87529Y-35289D01*
X-87549Y-35169D01*
X-87576Y-35065D01*
X-87612Y-34977D01*
X-87655Y-34905D01*
X-87706Y-34849D01*
X-87765Y-34809D01*
X-87832Y-34785D01*
X-87907Y-34777D01*
X-86332D01*
X-86407Y-34785D01*
D02*
G37*
G36*
X-69649Y-39344D02*
X-69560Y-39418D01*
X-69469Y-39483D01*
X-69375Y-39539D01*
X-69278Y-39587D01*
X-69179Y-39626D01*
X-69077Y-39656D01*
X-68973Y-39678D01*
X-68866Y-39691D01*
X-68764Y-39695D01*
X-68624Y-39691D01*
X-68488Y-39679D01*
X-68368Y-39660D01*
X-68264Y-39632D01*
X-68176Y-39597D01*
X-68104Y-39553D01*
X-68048Y-39502D01*
X-68008Y-39443D01*
X-67984Y-39376D01*
X-67976Y-39301D01*
Y-40876D01*
X-67984Y-40802D01*
X-68008Y-40734D01*
X-68048Y-40676D01*
X-68104Y-40624D01*
X-68176Y-40581D01*
X-68264Y-40546D01*
X-68368Y-40518D01*
X-68488Y-40498D01*
X-68624Y-40486D01*
X-68764Y-40483D01*
X-68866Y-40487D01*
X-68973Y-40500D01*
X-69077Y-40522D01*
X-69179Y-40552D01*
X-69278Y-40591D01*
X-69375Y-40639D01*
X-69469Y-40695D01*
X-69560Y-40760D01*
X-69649Y-40833D01*
X-69735Y-40916D01*
Y-39262D01*
X-69649Y-39344D01*
D02*
G37*
G36*
X56980Y-42334D02*
X56994Y-42340D01*
X57016Y-42345D01*
X57046Y-42349D01*
X57134Y-42356D01*
X57415Y-42361D01*
Y-43148D01*
X57332Y-43149D01*
X56994Y-43170D01*
X56980Y-43175D01*
X56976Y-43182D01*
Y-42328D01*
X56980Y-42334D01*
D02*
G37*
G36*
X42024Y-44587D02*
X42016Y-44513D01*
X41992Y-44446D01*
X41952Y-44387D01*
X41896Y-44335D01*
X41824Y-44292D01*
X41736Y-44257D01*
X41632Y-44229D01*
X41512Y-44209D01*
X41377Y-44198D01*
X41225Y-44194D01*
Y-43406D01*
X41377Y-43402D01*
X41512Y-43391D01*
X41632Y-43371D01*
X41736Y-43343D01*
X41824Y-43308D01*
X41896Y-43265D01*
X41952Y-43213D01*
X41992Y-43154D01*
X42016Y-43087D01*
X42024Y-43013D01*
Y-44587D01*
D02*
G37*
G36*
X-77976D02*
X-77984Y-44513D01*
X-78008Y-44446D01*
X-78048Y-44387D01*
X-78104Y-44335D01*
X-78176Y-44292D01*
X-78264Y-44257D01*
X-78368Y-44229D01*
X-78488Y-44209D01*
X-78623Y-44198D01*
X-78775Y-44194D01*
Y-43406D01*
X-78623Y-43402D01*
X-78488Y-43391D01*
X-78368Y-43371D01*
X-78264Y-43343D01*
X-78176Y-43308D01*
X-78104Y-43265D01*
X-78048Y-43213D01*
X-78008Y-43154D01*
X-77984Y-43087D01*
X-77976Y-43013D01*
Y-44587D01*
D02*
G37*
G36*
X-59617Y-43644D02*
X-59528Y-43717D01*
X-59437Y-43782D01*
X-59343Y-43838D01*
X-59246Y-43886D01*
X-59147Y-43925D01*
X-59046Y-43955D01*
X-58941Y-43977D01*
X-58834Y-43990D01*
X-58745Y-43993D01*
X-58623Y-43990D01*
X-58488Y-43979D01*
X-58368Y-43959D01*
X-58264Y-43931D01*
X-58176Y-43896D01*
X-58104Y-43853D01*
X-58048Y-43801D01*
X-58008Y-43742D01*
X-57984Y-43675D01*
X-57976Y-43601D01*
Y-45175D01*
X-57984Y-45101D01*
X-58008Y-45034D01*
X-58048Y-44975D01*
X-58104Y-44923D01*
X-58176Y-44880D01*
X-58264Y-44845D01*
X-58368Y-44817D01*
X-58488Y-44797D01*
X-58623Y-44786D01*
X-58745Y-44783D01*
X-58834Y-44786D01*
X-58941Y-44799D01*
X-59046Y-44821D01*
X-59147Y-44851D01*
X-59246Y-44890D01*
X-59343Y-44938D01*
X-59437Y-44994D01*
X-59528Y-45059D01*
X-59617Y-45132D01*
X-59703Y-45215D01*
Y-43561D01*
X-59617Y-43644D01*
D02*
G37*
G36*
X-16747Y-52642D02*
X-16801Y-52664D01*
X-16848Y-52701D01*
X-16889Y-52751D01*
X-16924Y-52816D01*
X-16953Y-52896D01*
X-16975Y-52990D01*
X-16991Y-53098D01*
X-17000Y-53220D01*
X-17003Y-53357D01*
X-17791D01*
X-17793Y-53222D01*
X-17808Y-52994D01*
X-17822Y-52902D01*
X-17840Y-52824D01*
X-17862Y-52760D01*
X-17887Y-52710D01*
X-17917Y-52675D01*
X-17951Y-52653D01*
X-17988Y-52646D01*
X-16687Y-52634D01*
X-16747Y-52642D01*
D02*
G37*
G36*
X35213Y-52642D02*
X35146Y-52666D01*
X35087Y-52706D01*
X35035Y-52762D01*
X34992Y-52834D01*
X34957Y-52922D01*
X34929Y-53026D01*
X34909Y-53146D01*
X34898Y-53282D01*
X34894Y-53434D01*
X34106D01*
X34102Y-53282D01*
X34091Y-53146D01*
X34071Y-53026D01*
X34043Y-52922D01*
X34008Y-52834D01*
X33965Y-52762D01*
X33913Y-52706D01*
X33854Y-52666D01*
X33787Y-52642D01*
X33713Y-52634D01*
X35287D01*
X35213Y-52642D01*
D02*
G37*
G36*
X25213D02*
X25146Y-52666D01*
X25087Y-52706D01*
X25035Y-52762D01*
X24992Y-52834D01*
X24957Y-52922D01*
X24929Y-53026D01*
X24909Y-53146D01*
X24898Y-53282D01*
X24894Y-53434D01*
X24106D01*
X24102Y-53282D01*
X24091Y-53146D01*
X24071Y-53026D01*
X24043Y-52922D01*
X24008Y-52834D01*
X23965Y-52762D01*
X23913Y-52706D01*
X23854Y-52666D01*
X23787Y-52642D01*
X23713Y-52634D01*
X25287D01*
X25213Y-52642D01*
D02*
G37*
G36*
X-4787D02*
X-4854Y-52666D01*
X-4913Y-52706D01*
X-4965Y-52762D01*
X-5008Y-52834D01*
X-5043Y-52922D01*
X-5071Y-53026D01*
X-5091Y-53146D01*
X-5102Y-53282D01*
X-5106Y-53434D01*
X-5894D01*
X-5898Y-53282D01*
X-5909Y-53146D01*
X-5929Y-53026D01*
X-5957Y-52922D01*
X-5992Y-52834D01*
X-6035Y-52762D01*
X-6087Y-52706D01*
X-6146Y-52666D01*
X-6213Y-52642D01*
X-6287Y-52634D01*
X-4713D01*
X-4787Y-52642D01*
D02*
G37*
G36*
X-36411Y-32358D02*
Y-34099D01*
X-36435Y-34152D01*
X-36438Y-34285D01*
X-36447Y-34381D01*
X-36457Y-34442D01*
X-38500D01*
Y-52947D01*
X-38500Y-53158D01*
X-38881Y-53447D01*
X-42119D01*
X-42500Y-53158D01*
X-42500Y-52947D01*
Y-34442D01*
X-44077D01*
X-44081Y-34438D01*
X-44264Y-34179D01*
X-44271Y-34165D01*
X-44326Y-33942D01*
X-44007Y-33464D01*
X-43876Y-32808D01*
X-44007Y-32152D01*
X-44253Y-31783D01*
X-44015Y-31283D01*
X-37486D01*
X-36411Y-32358D01*
D02*
G37*
G36*
X-46927Y-31783D02*
X-47174Y-32152D01*
X-47304Y-32808D01*
X-47174Y-33464D01*
X-46854Y-33942D01*
X-46909Y-34164D01*
X-46917Y-34179D01*
X-47099Y-34438D01*
X-47103Y-34442D01*
X-48500D01*
Y-52947D01*
X-48500Y-53158D01*
X-48881Y-53447D01*
X-52119D01*
X-52500Y-53158D01*
X-52500Y-52947D01*
Y-34442D01*
X-58500D01*
Y-43055D01*
X-58585Y-43170D01*
X-58647Y-43233D01*
X-58706Y-43276D01*
X-58971Y-43413D01*
X-59027Y-43391D01*
X-59084Y-43363D01*
X-59141Y-43329D01*
X-59198Y-43288D01*
X-59257Y-43239D01*
X-59330Y-43170D01*
X-59364Y-43156D01*
X-59891Y-42804D01*
X-60547Y-42674D01*
X-61203Y-42804D01*
X-61759Y-43176D01*
X-62000Y-43537D01*
X-62500Y-43385D01*
Y-34442D01*
X-68500D01*
Y-38765D01*
X-68621Y-38910D01*
X-68679Y-38961D01*
X-68824Y-39054D01*
X-69000Y-39114D01*
X-69002Y-39114D01*
X-69059Y-39092D01*
X-69116Y-39064D01*
X-69173Y-39030D01*
X-69230Y-38989D01*
X-69289Y-38940D01*
X-69362Y-38871D01*
X-69396Y-38857D01*
X-69923Y-38505D01*
X-70579Y-38375D01*
X-71235Y-38505D01*
X-71791Y-38877D01*
X-72000Y-39190D01*
X-72500Y-39039D01*
Y-34442D01*
X-78500D01*
Y-42844D01*
X-78555Y-42853D01*
X-78654Y-42862D01*
X-78789Y-42865D01*
X-78842Y-42889D01*
X-83704D01*
X-86208Y-40385D01*
Y-35644D01*
X-86185Y-35591D01*
X-86181Y-35455D01*
X-86173Y-35356D01*
X-86164Y-35301D01*
X-84651D01*
X-84651Y-31348D01*
X-84178Y-31283D01*
X-47166D01*
X-46927Y-31783D01*
D02*
G37*
G36*
X-61759Y-45600D02*
X-61203Y-45972D01*
X-60547Y-46102D01*
X-59891Y-45972D01*
X-59364Y-45620D01*
X-59330Y-45606D01*
X-59257Y-45537D01*
X-59198Y-45488D01*
X-59141Y-45447D01*
X-59084Y-45413D01*
X-59027Y-45385D01*
X-58971Y-45363D01*
X-58706Y-45500D01*
X-58647Y-45543D01*
X-58585Y-45606D01*
X-58500Y-45722D01*
Y-52947D01*
X-58500Y-53158D01*
X-58881Y-53447D01*
X-62119D01*
X-62500Y-53158D01*
X-62500Y-52947D01*
Y-45391D01*
X-62000Y-45239D01*
X-61759Y-45600D01*
D02*
G37*
G36*
X-71791Y-41301D02*
X-71235Y-41672D01*
X-70579Y-41803D01*
X-69923Y-41672D01*
X-69396Y-41320D01*
X-69362Y-41307D01*
X-69289Y-41238D01*
X-69230Y-41189D01*
X-69173Y-41148D01*
X-69116Y-41114D01*
X-69059Y-41086D01*
X-69002Y-41064D01*
X-69000Y-41063D01*
X-68824Y-41124D01*
X-68679Y-41217D01*
X-68621Y-41268D01*
X-68500Y-41413D01*
Y-52947D01*
X-68500Y-53158D01*
X-68881Y-53447D01*
X-72119D01*
X-72500Y-53158D01*
X-72500Y-52947D01*
Y-41139D01*
X-72000Y-40988D01*
X-71791Y-41301D01*
D02*
G37*
G36*
X-95577Y-58169D02*
X-95562Y-58276D01*
X-95538Y-58377D01*
X-95504Y-58472D01*
X-95459Y-58561D01*
X-95405Y-58645D01*
X-95341Y-58722D01*
X-95268Y-58794D01*
X-95184Y-58859D01*
X-95091Y-58919D01*
X-96693Y-59330D01*
X-96631Y-59223D01*
X-96528Y-59011D01*
X-96486Y-58904D01*
X-96450Y-58799D01*
X-96421Y-58693D01*
X-96399Y-58587D01*
X-96382Y-58482D01*
X-96373Y-58377D01*
X-96370Y-58272D01*
X-95582Y-58056D01*
X-95577Y-58169D01*
D02*
G37*
G36*
X-92254Y-58725D02*
X-92241Y-58832D01*
X-92219Y-58936D01*
X-92189Y-59038D01*
X-92150Y-59137D01*
X-92102Y-59234D01*
X-92046Y-59328D01*
X-91981Y-59419D01*
X-91907Y-59508D01*
X-91825Y-59594D01*
X-93478D01*
X-93396Y-59508D01*
X-93322Y-59419D01*
X-93257Y-59328D01*
X-93201Y-59234D01*
X-93154Y-59137D01*
X-93115Y-59038D01*
X-93084Y-58936D01*
X-93063Y-58832D01*
X-93050Y-58725D01*
X-93045Y-58615D01*
X-92258D01*
X-92254Y-58725D01*
D02*
G37*
G36*
X-86247Y-58915D02*
X-86234Y-59022D01*
X-86213Y-59126D01*
X-86182Y-59228D01*
X-86143Y-59327D01*
X-86095Y-59423D01*
X-86039Y-59517D01*
X-85974Y-59608D01*
X-85900Y-59696D01*
X-85817Y-59782D01*
X-87471Y-59791D01*
X-87388Y-59704D01*
X-87315Y-59615D01*
X-87251Y-59523D01*
X-87195Y-59429D01*
X-87147Y-59332D01*
X-87108Y-59233D01*
X-87078Y-59131D01*
X-87056Y-59026D01*
X-87044Y-58920D01*
X-87039Y-58810D01*
X-86252Y-58805D01*
X-86247Y-58915D01*
D02*
G37*
G36*
X-1490Y-64360D02*
X-1577Y-64278D01*
X-1665Y-64204D01*
X-1757Y-64139D01*
X-1851Y-64083D01*
X-1947Y-64035D01*
X-2046Y-63996D01*
X-2148Y-63966D01*
X-2253Y-63944D01*
X-2360Y-63931D01*
X-2372Y-63931D01*
X-2376Y-63931D01*
X-2512Y-63943D01*
X-2632Y-63962D01*
X-2736Y-63990D01*
X-2824Y-64025D01*
X-2896Y-64069D01*
X-2952Y-64120D01*
X-2992Y-64179D01*
X-3016Y-64246D01*
X-3024Y-64321D01*
Y-62746D01*
X-3016Y-62821D01*
X-2992Y-62888D01*
X-2952Y-62946D01*
X-2896Y-62998D01*
X-2824Y-63041D01*
X-2736Y-63077D01*
X-2632Y-63104D01*
X-2512Y-63124D01*
X-2376Y-63135D01*
X-2372Y-63136D01*
X-2360Y-63135D01*
X-2253Y-63122D01*
X-2148Y-63100D01*
X-2046Y-63070D01*
X-1947Y-63031D01*
X-1851Y-62984D01*
X-1757Y-62927D01*
X-1665Y-62862D01*
X-1577Y-62789D01*
X-1490Y-62706D01*
Y-64360D01*
D02*
G37*
G36*
X-102058Y-62621D02*
X-102054Y-62730D01*
X-102042Y-62837D01*
X-102021Y-62942D01*
X-101992Y-63044D01*
X-101954Y-63145D01*
X-101909Y-63244D01*
X-101855Y-63341D01*
X-101792Y-63436D01*
X-101722Y-63528D01*
X-101643Y-63619D01*
X-103294Y-63540D01*
X-103209Y-63458D01*
X-103133Y-63374D01*
X-103066Y-63286D01*
X-103007Y-63195D01*
X-102958Y-63100D01*
X-102918Y-63003D01*
X-102886Y-62902D01*
X-102864Y-62799D01*
X-102850Y-62691D01*
X-102846Y-62581D01*
X-102058Y-62621D01*
D02*
G37*
G36*
X-105453Y-62789D02*
X-105440Y-62896D01*
X-105419Y-63001D01*
X-105388Y-63102D01*
X-105349Y-63201D01*
X-105302Y-63298D01*
X-105245Y-63392D01*
X-105181Y-63484D01*
X-105107Y-63572D01*
X-105025Y-63658D01*
X-106678D01*
X-106596Y-63572D01*
X-106522Y-63484D01*
X-106457Y-63392D01*
X-106401Y-63298D01*
X-106353Y-63201D01*
X-106314Y-63102D01*
X-106284Y-63001D01*
X-106262Y-62896D01*
X-106249Y-62789D01*
X-106245Y-62680D01*
X-105458D01*
X-105453Y-62789D01*
D02*
G37*
G36*
X30789Y-62557D02*
X30884Y-62625D01*
X30981Y-62686D01*
X31080Y-62738D01*
X31180Y-62782D01*
X31282Y-62819D01*
X31385Y-62847D01*
X31490Y-62867D01*
X31502Y-62868D01*
X31512Y-62867D01*
X31632Y-62848D01*
X31736Y-62820D01*
X31824Y-62785D01*
X31896Y-62741D01*
X31952Y-62690D01*
X31992Y-62631D01*
X32016Y-62564D01*
X32024Y-62489D01*
Y-64064D01*
X32016Y-63989D01*
X31992Y-63923D01*
X31952Y-63863D01*
X31896Y-63812D01*
X31824Y-63769D01*
X31736Y-63734D01*
X31632Y-63706D01*
X31543Y-63691D01*
X31452Y-63712D01*
X31352Y-63744D01*
X31255Y-63785D01*
X31163Y-63835D01*
X31074Y-63895D01*
X30989Y-63964D01*
X30907Y-64041D01*
X30829Y-64128D01*
X30695Y-62480D01*
X30789Y-62557D01*
D02*
G37*
G36*
X22024Y-64160D02*
X22016Y-64085D01*
X21992Y-64018D01*
X21952Y-63959D01*
X21896Y-63908D01*
X21824Y-63865D01*
X21736Y-63829D01*
X21632Y-63802D01*
X21512Y-63782D01*
X21376Y-63770D01*
X21225Y-63766D01*
Y-62979D01*
X21376Y-62975D01*
X21512Y-62963D01*
X21632Y-62944D01*
X21736Y-62916D01*
X21824Y-62880D01*
X21896Y-62837D01*
X21952Y-62786D01*
X21992Y-62727D01*
X22016Y-62660D01*
X22024Y-62585D01*
Y-64160D01*
D02*
G37*
G36*
X20167Y-62628D02*
X20256Y-62702D01*
X20347Y-62767D01*
X20441Y-62823D01*
X20538Y-62871D01*
X20637Y-62910D01*
X20739Y-62940D01*
X20843Y-62962D01*
X20950Y-62975D01*
X21060Y-62979D01*
Y-63766D01*
X20950Y-63771D01*
X20843Y-63784D01*
X20739Y-63805D01*
X20637Y-63836D01*
X20538Y-63875D01*
X20441Y-63922D01*
X20347Y-63978D01*
X20256Y-64043D01*
X20167Y-64117D01*
X20081Y-64199D01*
Y-62546D01*
X20167Y-62628D01*
D02*
G37*
G36*
X-10824Y-65538D02*
X-10939Y-65528D01*
X-11050Y-65527D01*
X-11158Y-65535D01*
X-11262Y-65554D01*
X-11362Y-65581D01*
X-11459Y-65618D01*
X-11552Y-65665D01*
X-11641Y-65721D01*
X-11727Y-65787D01*
X-11809Y-65863D01*
X-12295Y-65235D01*
X-12221Y-65156D01*
X-12154Y-65073D01*
X-12094Y-64985D01*
X-12039Y-64892D01*
X-11991Y-64794D01*
X-11949Y-64692D01*
X-11914Y-64586D01*
X-11884Y-64474D01*
X-11861Y-64358D01*
X-11845Y-64238D01*
X-10824Y-65538D01*
D02*
G37*
G36*
X-69438Y-64459D02*
X-69427Y-64573D01*
X-69408Y-64684D01*
X-69382Y-64790D01*
X-69347Y-64892D01*
X-69305Y-64990D01*
X-69254Y-65083D01*
X-69195Y-65172D01*
X-69129Y-65257D01*
X-69055Y-65338D01*
X-69612Y-65894D01*
X-69692Y-65820D01*
X-69777Y-65754D01*
X-69866Y-65695D01*
X-69959Y-65645D01*
X-70057Y-65602D01*
X-70159Y-65567D01*
X-70265Y-65541D01*
X-70376Y-65522D01*
X-70491Y-65511D01*
X-70610Y-65509D01*
X-69441Y-64339D01*
X-69438Y-64459D01*
D02*
G37*
G36*
X-13017Y-65109D02*
X-12994Y-65167D01*
X-12957Y-65218D01*
X-12905Y-65262D01*
X-12838Y-65299D01*
X-12756Y-65329D01*
X-12660Y-65353D01*
X-12548Y-65370D01*
X-12421Y-65380D01*
X-12280Y-65383D01*
Y-66171D01*
X-12421Y-66174D01*
X-12548Y-66184D01*
X-12660Y-66201D01*
X-12756Y-66225D01*
X-12838Y-66255D01*
X-12905Y-66292D01*
X-12957Y-66336D01*
X-12994Y-66387D01*
X-13017Y-66445D01*
X-13024Y-66509D01*
Y-65045D01*
X-13017Y-65109D01*
D02*
G37*
G36*
X-67976Y-66509D02*
X-67983Y-66445D01*
X-68006Y-66387D01*
X-68043Y-66336D01*
X-68095Y-66292D01*
X-68162Y-66255D01*
X-68244Y-66225D01*
X-68340Y-66201D01*
X-68452Y-66184D01*
X-68578Y-66174D01*
X-68720Y-66171D01*
Y-65383D01*
X-68578Y-65380D01*
X-68452Y-65370D01*
X-68340Y-65353D01*
X-68244Y-65329D01*
X-68162Y-65299D01*
X-68095Y-65262D01*
X-68043Y-65218D01*
X-68006Y-65167D01*
X-67983Y-65109D01*
X-67976Y-65045D01*
Y-66509D01*
D02*
G37*
G36*
X-59411Y-63757D02*
X-59373Y-63801D01*
X-58939Y-64255D01*
X-58537Y-64661D01*
X-58437Y-64756D01*
X-58340Y-64835D01*
X-58255Y-64892D01*
X-58181Y-64926D01*
X-58118Y-64938D01*
X-58067Y-64926D01*
X-58027Y-64892D01*
X-57999Y-64835D01*
X-57982Y-64756D01*
X-57976Y-64653D01*
Y-66880D01*
X-57982Y-66771D01*
X-57999Y-66662D01*
X-58027Y-66551D01*
X-58067Y-66441D01*
X-58118Y-66330D01*
X-58181Y-66218D01*
X-58255Y-66106D01*
X-58340Y-65993D01*
X-58437Y-65880D01*
X-58545Y-65767D01*
Y-64826D01*
X-58893Y-65418D01*
X-58979Y-65339D01*
X-59065Y-65273D01*
X-59148Y-65223D01*
X-59230Y-65187D01*
X-59311Y-65165D01*
X-59390Y-65158D01*
X-59468Y-65166D01*
X-59544Y-65188D01*
X-59619Y-65224D01*
X-59693Y-65276D01*
X-59431Y-63729D01*
X-59411Y-63757D01*
D02*
G37*
G36*
X-77976Y-69784D02*
X-77984Y-69709D01*
X-78008Y-69643D01*
X-78048Y-69583D01*
X-78104Y-69532D01*
X-78176Y-69489D01*
X-78264Y-69454D01*
X-78368Y-69426D01*
X-78488Y-69406D01*
X-78623Y-69394D01*
X-78775Y-69391D01*
Y-68603D01*
X-78623Y-68599D01*
X-78488Y-68587D01*
X-78368Y-68568D01*
X-78264Y-68540D01*
X-78176Y-68505D01*
X-78104Y-68461D01*
X-78048Y-68410D01*
X-78008Y-68351D01*
X-77984Y-68284D01*
X-77976Y-68209D01*
Y-69784D01*
D02*
G37*
G36*
X-18500Y-59639D02*
X-18500Y-60093D01*
Y-78355D01*
X-12500D01*
Y-66724D01*
X-12486Y-66722D01*
X-12393Y-66715D01*
X-12267Y-66712D01*
X-12160Y-66664D01*
X-11931Y-66619D01*
X-11636Y-66421D01*
X-11516Y-66301D01*
X-11478Y-66291D01*
X-11466Y-66270D01*
X-11443Y-66261D01*
X-11378Y-66202D01*
X-11332Y-66166D01*
X-11286Y-66137D01*
X-11240Y-66114D01*
X-11193Y-66096D01*
X-11143Y-66082D01*
X-11090Y-66073D01*
X-11031Y-66068D01*
X-10966Y-66069D01*
X-10873Y-66077D01*
X-10802Y-66055D01*
X-10671Y-66081D01*
X-10015Y-65951D01*
X-9459Y-65579D01*
X-9087Y-65023D01*
X-9000Y-64585D01*
X-8500Y-64634D01*
Y-78355D01*
X-2500D01*
Y-64936D01*
X-2492Y-64913D01*
X-2462Y-64854D01*
X-2435Y-64815D01*
X-2400Y-64777D01*
X-1923Y-64695D01*
X-1864Y-64751D01*
X-1830Y-64765D01*
X-1303Y-65117D01*
X-647Y-65247D01*
X9Y-65117D01*
X565Y-64745D01*
X937Y-64189D01*
X1000Y-63870D01*
X1500Y-63920D01*
Y-78355D01*
X3768D01*
X3778Y-78410D01*
X3786Y-78509D01*
X3790Y-78645D01*
X3813Y-78697D01*
Y-79882D01*
X3790Y-79933D01*
X3787Y-80020D01*
X3779Y-80083D01*
X3766Y-80143D01*
X3749Y-80200D01*
X3727Y-80257D01*
X3699Y-80313D01*
X3665Y-80370D01*
X3624Y-80428D01*
X3575Y-80487D01*
X3506Y-80559D01*
X3493Y-80594D01*
X3141Y-81121D01*
X3010Y-81776D01*
X3141Y-82432D01*
X3185Y-82499D01*
X2950Y-82940D01*
X-37944D01*
X-38151Y-82440D01*
X-34931Y-79219D01*
X-34733Y-78924D01*
X-34688Y-78695D01*
X-34640Y-78588D01*
X-34637Y-78462D01*
X-34630Y-78369D01*
X-34628Y-78355D01*
X-32500D01*
Y-60093D01*
X-32500Y-59639D01*
X-32019Y-59593D01*
X-28981D01*
X-28500Y-59639D01*
X-28500Y-60093D01*
Y-78355D01*
X-22500D01*
Y-60093D01*
X-22500Y-59639D01*
X-22019Y-59593D01*
X-18981D01*
X-18500Y-59639D01*
D02*
G37*
G36*
X-34907Y-77839D02*
X-34965Y-77861D01*
X-35016Y-77898D01*
X-35060Y-77950D01*
X-35097Y-78017D01*
X-35127Y-78099D01*
X-35151Y-78196D01*
X-35168Y-78307D01*
X-35178Y-78434D01*
X-35181Y-78575D01*
X-35969D01*
X-35972Y-78434D01*
X-35982Y-78307D01*
X-35999Y-78196D01*
X-36023Y-78099D01*
X-36053Y-78017D01*
X-36090Y-77950D01*
X-36134Y-77898D01*
X-36185Y-77861D01*
X-36243Y-77839D01*
X-36307Y-77831D01*
X-34843D01*
X-34907Y-77839D01*
D02*
G37*
G36*
X5437Y-77839D02*
X5370Y-77863D01*
X5311Y-77903D01*
X5260Y-77959D01*
X5217Y-78031D01*
X5181Y-78119D01*
X5153Y-78223D01*
X5134Y-78343D01*
X5122Y-78479D01*
X5118Y-78631D01*
X4331D01*
X4327Y-78479D01*
X4315Y-78343D01*
X4295Y-78223D01*
X4268Y-78119D01*
X4232Y-78031D01*
X4189Y-77959D01*
X4138Y-77903D01*
X4079Y-77863D01*
X4012Y-77839D01*
X3937Y-77831D01*
X5512D01*
X5437Y-77839D01*
D02*
G37*
G36*
X-44787D02*
X-44854Y-77863D01*
X-44913Y-77903D01*
X-44965Y-77959D01*
X-45008Y-78031D01*
X-45043Y-78119D01*
X-45071Y-78223D01*
X-45091Y-78343D01*
X-45102Y-78479D01*
X-45106Y-78631D01*
X-45894D01*
X-45898Y-78479D01*
X-45909Y-78343D01*
X-45929Y-78223D01*
X-45957Y-78119D01*
X-45992Y-78031D01*
X-46035Y-77959D01*
X-46087Y-77903D01*
X-46146Y-77863D01*
X-46213Y-77839D01*
X-46287Y-77831D01*
X-44713D01*
X-44787Y-77839D01*
D02*
G37*
G36*
X-48500Y-59639D02*
X-48500Y-60093D01*
Y-78355D01*
X-48782Y-78738D01*
X-52218D01*
X-52500Y-78355D01*
X-52500Y-78238D01*
Y-60093D01*
X-52500Y-59639D01*
X-52019Y-59593D01*
X-48981D01*
X-48500Y-59639D01*
D02*
G37*
G36*
X-62000Y-65036D02*
X-61645Y-65567D01*
X-61089Y-65939D01*
X-60433Y-66069D01*
X-59777Y-65939D01*
X-59482Y-65741D01*
X-59384Y-65720D01*
X-59378Y-65716D01*
X-59371Y-65721D01*
X-59329Y-65753D01*
X-59260Y-65816D01*
X-59208Y-65835D01*
X-59195Y-65848D01*
X-59168Y-65885D01*
X-59157Y-65886D01*
X-58958Y-66086D01*
X-58937Y-66140D01*
X-58839Y-66243D01*
X-58762Y-66333D01*
X-58697Y-66419D01*
X-58643Y-66500D01*
X-58601Y-66575D01*
X-58568Y-66646D01*
X-58545Y-66711D01*
X-58529Y-66771D01*
X-58521Y-66827D01*
X-58517Y-66909D01*
X-58500Y-66943D01*
Y-78238D01*
X-58500Y-78355D01*
X-58782Y-78738D01*
X-62218D01*
X-62500Y-78355D01*
X-62500Y-78238D01*
Y-65223D01*
X-62037Y-65029D01*
X-62000Y-65036D01*
D02*
G37*
G36*
X-71834Y-65539D02*
X-71277Y-65911D01*
X-70656Y-66035D01*
X-70622Y-66050D01*
X-70522Y-66052D01*
X-70446Y-66059D01*
X-70376Y-66071D01*
X-70312Y-66087D01*
X-70252Y-66107D01*
X-70196Y-66132D01*
X-70144Y-66160D01*
X-70093Y-66194D01*
X-70043Y-66232D01*
X-69979Y-66292D01*
X-69927Y-66311D01*
X-69824Y-66413D01*
X-69529Y-66611D01*
X-69180Y-66680D01*
X-68982D01*
X-68500Y-67054D01*
Y-78238D01*
X-68500Y-78355D01*
X-68782Y-78738D01*
X-72218D01*
X-72500Y-78355D01*
Y-65442D01*
X-72000Y-65290D01*
X-71834Y-65539D01*
D02*
G37*
G36*
X15279Y-77839D02*
X15212Y-77863D01*
X15153Y-77903D01*
X15102Y-77959D01*
X15058Y-78031D01*
X15023Y-78119D01*
X14995Y-78223D01*
X14976Y-78343D01*
X14964Y-78479D01*
X14960Y-78623D01*
X14964Y-78728D01*
X14977Y-78835D01*
X14999Y-78940D01*
X15029Y-79042D01*
X15068Y-79141D01*
X15116Y-79237D01*
X15172Y-79331D01*
X15237Y-79423D01*
X15311Y-79511D01*
X15393Y-79598D01*
X13739D01*
X13822Y-79511D01*
X13895Y-79423D01*
X13960Y-79331D01*
X14017Y-79237D01*
X14064Y-79141D01*
X14103Y-79042D01*
X14133Y-78940D01*
X14155Y-78835D01*
X14168Y-78728D01*
X14172Y-78623D01*
X14168Y-78479D01*
X14157Y-78343D01*
X14137Y-78223D01*
X14109Y-78119D01*
X14074Y-78031D01*
X14031Y-77959D01*
X13980Y-77903D01*
X13920Y-77863D01*
X13853Y-77839D01*
X13779Y-77831D01*
X15353D01*
X15279Y-77839D01*
D02*
G37*
G36*
X-76583Y-78941D02*
X-76486Y-79007D01*
X-76386Y-79065D01*
X-76286Y-79116D01*
X-76185Y-79159D01*
X-76082Y-79194D01*
X-75978Y-79221D01*
X-75873Y-79240D01*
X-75766Y-79252D01*
X-75659Y-79256D01*
X-75562Y-80043D01*
X-75673Y-80048D01*
X-75780Y-80062D01*
X-75883Y-80085D01*
X-75982Y-80118D01*
X-76077Y-80160D01*
X-76168Y-80211D01*
X-76254Y-80272D01*
X-76337Y-80342D01*
X-76416Y-80421D01*
X-76490Y-80510D01*
X-76680Y-78867D01*
X-76583Y-78941D01*
D02*
G37*
G36*
X5122Y-80064D02*
X5135Y-80171D01*
X5157Y-80275D01*
X5187Y-80377D01*
X5226Y-80476D01*
X5274Y-80573D01*
X5330Y-80667D01*
X5395Y-80758D01*
X5469Y-80847D01*
X5551Y-80933D01*
X3898D01*
X3980Y-80847D01*
X4053Y-80758D01*
X4118Y-80667D01*
X4175Y-80573D01*
X4222Y-80476D01*
X4261Y-80377D01*
X4292Y-80275D01*
X4313Y-80171D01*
X4326Y-80064D01*
X4331Y-79954D01*
X5118D01*
X5122Y-80064D01*
D02*
G37*
G36*
X-38500Y-59639D02*
X-38500Y-60093D01*
Y-78355D01*
X-37297D01*
X-37106Y-78817D01*
X-39520Y-81232D01*
X-71889D01*
X-71992Y-81061D01*
X-71709Y-80561D01*
X-45961D01*
X-45612Y-80491D01*
X-45317Y-80294D01*
X-44856Y-79833D01*
X-44658Y-79537D01*
X-44589Y-79188D01*
Y-78697D01*
X-44565Y-78645D01*
X-44562Y-78509D01*
X-44553Y-78410D01*
X-44544Y-78355D01*
X-42500D01*
Y-60093D01*
X-42500Y-59639D01*
X-42019Y-59593D01*
X-38981D01*
X-38500Y-59639D01*
D02*
G37*
G36*
X-103545Y-80705D02*
X-103522Y-80772D01*
X-103482Y-80831D01*
X-103427Y-80882D01*
X-103356Y-80925D01*
X-103270Y-80961D01*
X-103167Y-80988D01*
X-103049Y-81008D01*
X-102915Y-81020D01*
X-102766Y-81024D01*
Y-81811D01*
X-102915Y-81815D01*
X-103049Y-81827D01*
X-103167Y-81846D01*
X-103270Y-81874D01*
X-103356Y-81910D01*
X-103427Y-81953D01*
X-103482Y-82004D01*
X-103522Y-82063D01*
X-103545Y-82130D01*
X-103553Y-82205D01*
Y-80630D01*
X-103545Y-80705D01*
D02*
G37*
G36*
X-112375Y-82461D02*
X-112383Y-82386D01*
X-112407Y-82319D01*
X-112447Y-82260D01*
X-112503Y-82209D01*
X-112575Y-82166D01*
X-112663Y-82130D01*
X-112767Y-82103D01*
X-112887Y-82083D01*
X-113023Y-82071D01*
X-113175Y-82067D01*
Y-81280D01*
X-113023Y-81276D01*
X-112887Y-81264D01*
X-112767Y-81244D01*
X-112663Y-81217D01*
X-112575Y-81181D01*
X-112503Y-81138D01*
X-112447Y-81087D01*
X-112407Y-81028D01*
X-112383Y-80961D01*
X-112375Y-80886D01*
Y-82461D01*
D02*
G37*
G36*
X-116303Y-80961D02*
X-116206Y-81028D01*
X-116108Y-81087D01*
X-116008Y-81138D01*
X-115907Y-81181D01*
X-115805Y-81217D01*
X-115701Y-81244D01*
X-115596Y-81264D01*
X-115489Y-81276D01*
X-115382Y-81280D01*
X-115295Y-82067D01*
X-115406Y-82072D01*
X-115513Y-82086D01*
X-115616Y-82109D01*
X-115716Y-82141D01*
X-115811Y-82183D01*
X-115902Y-82234D01*
X-115990Y-82294D01*
X-116073Y-82364D01*
X-116153Y-82443D01*
X-116229Y-82531D01*
X-116399Y-80886D01*
X-116303Y-80961D01*
D02*
G37*
G36*
X-78789Y-69932D02*
X-78654Y-69935D01*
X-78555Y-69944D01*
X-78500Y-69953D01*
Y-78355D01*
X-78753Y-78750D01*
X-79007Y-79129D01*
X-79137Y-79785D01*
X-79007Y-80441D01*
X-78635Y-80997D01*
X-78079Y-81369D01*
X-77423Y-81499D01*
X-76767Y-81369D01*
X-76211Y-80997D01*
X-76140Y-80891D01*
X-76076Y-80858D01*
X-75892Y-80820D01*
X-75729Y-80942D01*
X-75518Y-81253D01*
X-75622Y-81776D01*
X-75492Y-82432D01*
X-75447Y-82499D01*
X-75683Y-82940D01*
X-84515D01*
X-84565Y-82917D01*
X-84652Y-82913D01*
X-84709Y-82906D01*
X-84759Y-82894D01*
X-84803Y-82879D01*
X-84844Y-82860D01*
X-84882Y-82836D01*
X-84920Y-82807D01*
X-84959Y-82771D01*
X-84998Y-82727D01*
X-85052Y-82655D01*
X-85133Y-82607D01*
X-85252Y-82429D01*
X-85808Y-82058D01*
X-86464Y-81927D01*
X-87120Y-82058D01*
X-87676Y-82429D01*
X-88047Y-82985D01*
X-88178Y-83641D01*
X-88172Y-83669D01*
X-88489Y-84055D01*
X-103041D01*
Y-82374D01*
X-102981Y-82364D01*
X-102884Y-82356D01*
X-102752Y-82352D01*
X-102699Y-82329D01*
X-94345D01*
X-93997Y-82259D01*
X-93701Y-82062D01*
X-93174Y-81535D01*
X-92977Y-81239D01*
X-92908Y-80891D01*
Y-80238D01*
X-92952Y-80013D01*
Y-72649D01*
X-90212Y-69908D01*
X-78842D01*
X-78789Y-69932D01*
D02*
G37*
G36*
X59963Y-82139D02*
X59976Y-82246D01*
X59997Y-82350D01*
X60028Y-82452D01*
X60067Y-82551D01*
X60114Y-82648D01*
X60171Y-82741D01*
X60236Y-82833D01*
X60309Y-82922D01*
X60392Y-83008D01*
X58738D01*
X58820Y-82922D01*
X58894Y-82833D01*
X58959Y-82741D01*
X59015Y-82648D01*
X59063Y-82551D01*
X59102Y-82452D01*
X59132Y-82350D01*
X59154Y-82246D01*
X59167Y-82139D01*
X59171Y-82029D01*
X59958D01*
X59963Y-82139D01*
D02*
G37*
G36*
X-85419Y-83069D02*
X-85346Y-83150D01*
X-85269Y-83222D01*
X-85186Y-83285D01*
X-85099Y-83338D01*
X-85007Y-83381D01*
X-84909Y-83414D01*
X-84807Y-83438D01*
X-84700Y-83453D01*
X-84588Y-83458D01*
X-84593Y-84245D01*
X-84727Y-84249D01*
X-84858Y-84259D01*
X-84985Y-84277D01*
X-85109Y-84303D01*
X-85230Y-84335D01*
X-85347Y-84374D01*
X-85461Y-84421D01*
X-85571Y-84475D01*
X-85677Y-84536D01*
X-85781Y-84605D01*
X-85486Y-82978D01*
X-85419Y-83069D01*
D02*
G37*
%LPC*%
G36*
X-54528Y84573D02*
X-58481D01*
Y83060D01*
X-58536Y83051D01*
X-58635Y83042D01*
X-58771Y83039D01*
X-58824Y83015D01*
X-62716D01*
X-62767Y83039D01*
X-62855Y83042D01*
X-62921Y83049D01*
X-62986Y83062D01*
X-63050Y83079D01*
X-63114Y83102D01*
X-63178Y83130D01*
X-63244Y83164D01*
X-63311Y83206D01*
X-63379Y83254D01*
X-63460Y83319D01*
X-63559Y83349D01*
X-63911Y83584D01*
X-64567Y83714D01*
X-65223Y83584D01*
X-65779Y83212D01*
X-66151Y82656D01*
X-66281Y82000D01*
X-66151Y81344D01*
X-65779Y80788D01*
X-65223Y80416D01*
X-64567Y80286D01*
X-63911Y80416D01*
X-63355Y80788D01*
X-63303Y80866D01*
X-63249Y80892D01*
X-63186Y80963D01*
X-63136Y81011D01*
X-63088Y81050D01*
X-63040Y81082D01*
X-62993Y81109D01*
X-62944Y81130D01*
X-62892Y81146D01*
X-62838Y81159D01*
X-62778Y81166D01*
X-62691Y81170D01*
X-62677Y81176D01*
X-62663Y81172D01*
X-62622Y81193D01*
X-58824D01*
X-58771Y81169D01*
X-58635Y81166D01*
X-58536Y81157D01*
X-58481Y81148D01*
Y79636D01*
X-54528D01*
Y84573D01*
D02*
G37*
G36*
X-74199Y81813D02*
X-74855Y81682D01*
X-75411Y81311D01*
X-75783Y80755D01*
X-75913Y80099D01*
X-75783Y79443D01*
X-75411Y78887D01*
X-74855Y78515D01*
X-74199Y78385D01*
X-73543Y78515D01*
X-72987Y78887D01*
X-72615Y79443D01*
X-72485Y80099D01*
X-72615Y80755D01*
X-72987Y81311D01*
X-73543Y81682D01*
X-74199Y81813D01*
D02*
G37*
G36*
X-61417Y79066D02*
X-62073Y78936D01*
X-62629Y78564D01*
X-63001Y78008D01*
X-63131Y77352D01*
X-63001Y76696D01*
X-62629Y76140D01*
X-62073Y75769D01*
X-61417Y75638D01*
X-60761Y75769D01*
X-60205Y76140D01*
X-59834Y76696D01*
X-59703Y77352D01*
X-59834Y78008D01*
X-60205Y78564D01*
X-60761Y78936D01*
X-61417Y79066D01*
D02*
G37*
G36*
X-74016Y74170D02*
X-74979Y73979D01*
X-75796Y73433D01*
X-76341Y72617D01*
X-76533Y71653D01*
X-76341Y70690D01*
X-75796Y69874D01*
X-75075Y69393D01*
X-75059Y69372D01*
X-75025Y69354D01*
X-75017Y69344D01*
X-75005Y69319D01*
X-74990Y69279D01*
X-74975Y69219D01*
X-74963Y69142D01*
X-74954Y69048D01*
X-74950Y68923D01*
X-74927Y68870D01*
Y68116D01*
X-74858Y67768D01*
X-74660Y67472D01*
X-74264Y67075D01*
X-74471Y66575D01*
X-83664D01*
X-85109Y68020D01*
X-85405Y68218D01*
X-85753Y68287D01*
X-88613D01*
X-88961Y68218D01*
X-89257Y68020D01*
X-90702Y66575D01*
X-91862D01*
X-91900Y66568D01*
X-92454Y66938D01*
X-93110Y67068D01*
X-93766Y66938D01*
X-94322Y66566D01*
X-94694Y66010D01*
X-94824Y65354D01*
X-94694Y64698D01*
X-94322Y64142D01*
X-93766Y63771D01*
X-93110Y63640D01*
X-92454Y63771D01*
X-91898Y64142D01*
X-91527Y64698D01*
X-91516Y64753D01*
X-90324D01*
X-90087Y64800D01*
X-90015Y64753D01*
X-89816Y64540D01*
X-89736Y64399D01*
X-89988Y63791D01*
X-90093Y62992D01*
X-89988Y62194D01*
X-89680Y61449D01*
X-89190Y60810D01*
X-88551Y60320D01*
X-87806Y60012D01*
X-87008Y59907D01*
X-86209Y60012D01*
X-85465Y60320D01*
X-84826Y60810D01*
X-84336Y61449D01*
X-84054Y62129D01*
X-83829Y62207D01*
X-83519Y62228D01*
X-83285Y61879D01*
X-82730Y61507D01*
X-82073Y61377D01*
X-81418Y61507D01*
X-80862Y61879D01*
X-80813Y61951D01*
X-80761Y61976D01*
X-80697Y62048D01*
X-80647Y62095D01*
X-80598Y62135D01*
X-80550Y62167D01*
X-80502Y62193D01*
X-80452Y62214D01*
X-80401Y62231D01*
X-80346Y62243D01*
X-80286Y62251D01*
X-80199Y62255D01*
X-80186Y62260D01*
X-80173Y62256D01*
X-80132Y62278D01*
X-67409D01*
X-67202Y62071D01*
X-66906Y61873D01*
X-66558Y61804D01*
X-59090D01*
X-59038Y61780D01*
X-58902Y61777D01*
X-58803Y61768D01*
X-58748Y61759D01*
Y56587D01*
X-54992D01*
Y69791D01*
X-58748D01*
Y63671D01*
X-58803Y63662D01*
X-58902Y63653D01*
X-59038Y63650D01*
X-59090Y63626D01*
X-60510D01*
X-60559Y64126D01*
X-60368Y64164D01*
X-59812Y64536D01*
X-59440Y65092D01*
X-59310Y65748D01*
X-59440Y66404D01*
X-59792Y66931D01*
X-59805Y66965D01*
X-59874Y67037D01*
X-59923Y67096D01*
X-59964Y67154D01*
X-59998Y67211D01*
X-60026Y67267D01*
X-60048Y67324D01*
X-60066Y67382D01*
X-60078Y67441D01*
X-60086Y67504D01*
X-60089Y67592D01*
X-60112Y67642D01*
Y70437D01*
X-60081Y70595D01*
X-60150Y70944D01*
X-60348Y71240D01*
X-61406Y72298D01*
X-61701Y72495D01*
X-61934Y72542D01*
X-62043Y72588D01*
X-62140Y72590D01*
X-62238Y72596D01*
X-62242Y72617D01*
X-62787Y73433D01*
X-63604Y73979D01*
X-64567Y74170D01*
X-65530Y73979D01*
X-66347Y73433D01*
X-66892Y72617D01*
X-67084Y71653D01*
X-66892Y70690D01*
X-66347Y69874D01*
X-65530Y69328D01*
X-64567Y69137D01*
X-63604Y69328D01*
X-62787Y69874D01*
X-62754Y69923D01*
X-62100Y70003D01*
X-61935Y69851D01*
Y67642D01*
X-61958Y67592D01*
X-61961Y67504D01*
X-61969Y67441D01*
X-61981Y67382D01*
X-61999Y67324D01*
X-62021Y67267D01*
X-62049Y67211D01*
X-62083Y67154D01*
X-62124Y67096D01*
X-62173Y67037D01*
X-62242Y66965D01*
X-62255Y66931D01*
X-62314Y66842D01*
X-62915D01*
X-62994Y66960D01*
X-63550Y67331D01*
X-64206Y67462D01*
X-64862Y67331D01*
X-65418Y66960D01*
X-65448Y66957D01*
X-66557Y68066D01*
X-66853Y68263D01*
X-67202Y68332D01*
X-72943D01*
X-73105Y68494D01*
Y68870D01*
X-73081Y68923D01*
X-73078Y69048D01*
X-73069Y69142D01*
X-73057Y69219D01*
X-73041Y69279D01*
X-73026Y69319D01*
X-73014Y69344D01*
X-73007Y69354D01*
X-72973Y69372D01*
X-72956Y69393D01*
X-72236Y69874D01*
X-71691Y70690D01*
X-71499Y71653D01*
X-71691Y72617D01*
X-72236Y73433D01*
X-73053Y73979D01*
X-74016Y74170D01*
D02*
G37*
G36*
X25325Y68343D02*
X24362Y68152D01*
X23545Y67606D01*
X22999Y66790D01*
X22808Y65826D01*
X22999Y64863D01*
X23545Y64047D01*
X24362Y63501D01*
X25325Y63310D01*
X26288Y63501D01*
X27104Y64047D01*
X27445Y64556D01*
X27458Y64561D01*
X27481Y64610D01*
X27503Y64643D01*
X27558Y64685D01*
X27580Y64721D01*
X27580Y64721D01*
X27585Y64726D01*
X27599Y64735D01*
X27628Y64749D01*
X27673Y64765D01*
X27735Y64780D01*
X27814Y64793D01*
X27910Y64801D01*
X28036Y64805D01*
X28088Y64828D01*
X35132D01*
X35155Y64813D01*
X35193Y64822D01*
X35229Y64805D01*
X35317Y64801D01*
X35373Y64794D01*
X35424Y64782D01*
X35469Y64767D01*
X35510Y64747D01*
X35550Y64724D01*
X35589Y64694D01*
X35629Y64658D01*
X35669Y64613D01*
X35723Y64541D01*
X35803Y64495D01*
X35914Y64329D01*
X36470Y63957D01*
X37126Y63827D01*
X37782Y63957D01*
X38338Y64329D01*
X38709Y64885D01*
X38840Y65541D01*
X38709Y66197D01*
X38338Y66753D01*
X37782Y67124D01*
X37126Y67255D01*
X36470Y67124D01*
X36234Y66966D01*
X36127Y66944D01*
X36038Y66883D01*
X35962Y66837D01*
X35887Y66797D01*
X35814Y66763D01*
X35743Y66735D01*
X35672Y66713D01*
X35603Y66696D01*
X35534Y66684D01*
X35465Y66677D01*
X35377Y66674D01*
X35325Y66651D01*
X28130D01*
X28081Y66674D01*
X27650Y66790D01*
X27104Y67606D01*
X26288Y68152D01*
X25325Y68343D01*
D02*
G37*
G36*
X-107677Y74596D02*
Y63583D01*
X-96664D01*
X-96761Y64815D01*
X-97188Y66592D01*
X-97887Y68281D01*
X-98843Y69840D01*
X-100030Y71230D01*
X-101420Y72417D01*
X-102979Y73372D01*
X-104668Y74072D01*
X-106445Y74499D01*
X-107677Y74596D01*
D02*
G37*
G36*
X-108858D02*
X-110090Y74499D01*
X-111868Y74072D01*
X-113557Y73372D01*
X-115115Y72417D01*
X-116506Y71230D01*
X-117693Y69840D01*
X-118648Y68281D01*
X-119348Y66592D01*
X-119774Y64815D01*
X-119871Y63583D01*
X-108858D01*
Y74596D01*
D02*
G37*
G36*
X118504Y65308D02*
X117618Y65132D01*
X116866Y64630D01*
X116364Y63879D01*
X116188Y62992D01*
X116364Y62106D01*
X116866Y61354D01*
X117618Y60852D01*
X118504Y60676D01*
X119390Y60852D01*
X120142Y61354D01*
X120644Y62106D01*
X120820Y62992D01*
X120644Y63879D01*
X120142Y64630D01*
X119390Y65132D01*
X118504Y65308D01*
D02*
G37*
G36*
X-34646Y84251D02*
X-35302Y84121D01*
X-35858Y83749D01*
X-36229Y83193D01*
X-36360Y82537D01*
X-36229Y81881D01*
X-35858Y81325D01*
X-35302Y80954D01*
X-34646Y80823D01*
X-33990Y80954D01*
X-33434Y81325D01*
X-33421Y81345D01*
X-33392Y81357D01*
X-33322Y81427D01*
X-33267Y81476D01*
X-33213Y81516D01*
X-33159Y81550D01*
X-33105Y81577D01*
X-33051Y81599D01*
X-32996Y81616D01*
X-32938Y81629D01*
X-32877Y81636D01*
X-32789Y81640D01*
X-32739Y81663D01*
X67089D01*
Y70134D01*
X67065Y70081D01*
X67062Y69945D01*
X67053Y69846D01*
X67044Y69791D01*
X65976D01*
Y56587D01*
X69732D01*
Y69791D01*
X68956D01*
X68947Y69846D01*
X68938Y69945D01*
X68935Y70081D01*
X68911Y70134D01*
Y82113D01*
X68842Y82462D01*
X68644Y82757D01*
X68183Y83218D01*
X67888Y83416D01*
X67539Y83485D01*
X-32766D01*
X-32816Y83509D01*
X-32904Y83512D01*
X-32968Y83520D01*
X-33029Y83532D01*
X-33089Y83549D01*
X-33149Y83572D01*
X-33208Y83600D01*
X-33268Y83634D01*
X-33329Y83675D01*
X-33391Y83724D01*
X-33467Y83792D01*
X-33534Y83816D01*
X-33990Y84121D01*
X-34646Y84251D01*
D02*
G37*
G36*
X-32067Y80964D02*
X-32723Y80833D01*
X-33279Y80462D01*
X-33651Y79905D01*
X-33781Y79250D01*
X-33651Y78594D01*
X-33279Y78038D01*
X-32723Y77666D01*
X-32067Y77536D01*
X-31411Y77666D01*
X-30884Y78018D01*
X-30850Y78031D01*
X-30777Y78101D01*
X-30718Y78149D01*
X-30661Y78190D01*
X-30604Y78224D01*
X-30547Y78252D01*
X-30491Y78275D01*
X-30433Y78292D01*
X-30373Y78304D01*
X-30311Y78312D01*
X-30223Y78315D01*
X-30173Y78338D01*
X62089D01*
Y70134D01*
X62065Y70081D01*
X62062Y69945D01*
X62053Y69846D01*
X62044Y69791D01*
X60976D01*
Y56587D01*
X64732D01*
Y69791D01*
X63956D01*
X63947Y69846D01*
X63938Y69945D01*
X63935Y70081D01*
X63911Y70134D01*
Y78788D01*
X63842Y79137D01*
X63644Y79433D01*
X63183Y79894D01*
X62888Y80092D01*
X62539Y80161D01*
X-30173D01*
X-30223Y80184D01*
X-30311Y80188D01*
X-30373Y80195D01*
X-30433Y80208D01*
X-30491Y80225D01*
X-30547Y80247D01*
X-30604Y80275D01*
X-30661Y80309D01*
X-30718Y80350D01*
X-30777Y80399D01*
X-30850Y80468D01*
X-30884Y80481D01*
X-31411Y80833D01*
X-32067Y80964D01*
D02*
G37*
G36*
X-48623Y84573D02*
X-52576D01*
Y79636D01*
X-48623D01*
Y81147D01*
X-48563Y81157D01*
X-48466Y81166D01*
X-48333Y81169D01*
X-48281Y81193D01*
X-43558D01*
X-43322Y80752D01*
X-43367Y80685D01*
X-43497Y80029D01*
X-43367Y79373D01*
X-43014Y78847D01*
X-43001Y78812D01*
X-42932Y78740D01*
X-42883Y78681D01*
X-42842Y78623D01*
X-42808Y78566D01*
X-42780Y78510D01*
X-42758Y78453D01*
X-42741Y78396D01*
X-42728Y78336D01*
X-42721Y78273D01*
X-42717Y78186D01*
X-42694Y78135D01*
Y70134D01*
X-42718Y70081D01*
X-42721Y69945D01*
X-42730Y69846D01*
X-42739Y69791D01*
X-43748D01*
Y56587D01*
X-39992D01*
Y69791D01*
X-40827D01*
X-40836Y69846D01*
X-40845Y69945D01*
X-40848Y70081D01*
X-40872Y70134D01*
Y78135D01*
X-40848Y78186D01*
X-40845Y78273D01*
X-40837Y78336D01*
X-40825Y78396D01*
X-40808Y78453D01*
X-40786Y78510D01*
X-40758Y78566D01*
X-40724Y78623D01*
X-40683Y78681D01*
X-40634Y78740D01*
X-40565Y78812D01*
X-40551Y78847D01*
X-40199Y79373D01*
X-40069Y80029D01*
X-40199Y80685D01*
X-40244Y80752D01*
X-40008Y81193D01*
X-39450D01*
X-37984Y79727D01*
Y70134D01*
X-38008Y70081D01*
X-38011Y69945D01*
X-38020Y69846D01*
X-38029Y69791D01*
X-38748D01*
Y56587D01*
X-34992D01*
Y69791D01*
X-36117D01*
X-36126Y69846D01*
X-36135Y69945D01*
X-36138Y70081D01*
X-36162Y70134D01*
Y80104D01*
X-36231Y80453D01*
X-36429Y80749D01*
X-38429Y82749D01*
X-38724Y82946D01*
X-39073Y83015D01*
X-48281D01*
X-48333Y83039D01*
X-48466Y83042D01*
X-48563Y83051D01*
X-48623Y83061D01*
Y84573D01*
D02*
G37*
G36*
X54732Y69791D02*
X50976D01*
Y56587D01*
X50556Y56394D01*
X50152D01*
X49732Y56587D01*
X49732Y56894D01*
Y69791D01*
X45976D01*
Y64280D01*
X45921Y64271D01*
X45822Y64262D01*
X45687Y64258D01*
X45634Y64235D01*
X45105D01*
X45055Y64258D01*
X44967Y64262D01*
X44905Y64269D01*
X44845Y64282D01*
X44787Y64299D01*
X44730Y64321D01*
X44674Y64349D01*
X44617Y64383D01*
X44559Y64424D01*
X44501Y64473D01*
X44428Y64542D01*
X44394Y64555D01*
X43867Y64907D01*
X43211Y65038D01*
X42555Y64907D01*
X41999Y64536D01*
X41627Y63980D01*
X41497Y63324D01*
X41627Y62668D01*
X41999Y62112D01*
X42555Y61740D01*
X43211Y61610D01*
X43867Y61740D01*
X44394Y62092D01*
X44428Y62105D01*
X44501Y62175D01*
X44559Y62223D01*
X44617Y62264D01*
X44674Y62298D01*
X44730Y62326D01*
X44787Y62349D01*
X44845Y62366D01*
X44905Y62378D01*
X44967Y62386D01*
X45055Y62389D01*
X45105Y62412D01*
X45495D01*
X45976Y62054D01*
Y56894D01*
X45976Y56587D01*
X45556Y56394D01*
X38202D01*
Y58736D01*
X38225Y58786D01*
X38228Y58874D01*
X38236Y58936D01*
X38249Y58996D01*
X38266Y59054D01*
X38288Y59110D01*
X38316Y59167D01*
X38350Y59224D01*
X38391Y59281D01*
X38440Y59340D01*
X38509Y59413D01*
X38522Y59447D01*
X38874Y59974D01*
X39005Y60630D01*
X38874Y61286D01*
X38503Y61842D01*
X37947Y62213D01*
X37291Y62344D01*
X36635Y62213D01*
X36079Y61842D01*
X35707Y61286D01*
X35577Y60630D01*
X35707Y59974D01*
X36059Y59447D01*
X36072Y59413D01*
X36141Y59340D01*
X36190Y59281D01*
X36231Y59224D01*
X36265Y59167D01*
X36293Y59110D01*
X36316Y59054D01*
X36333Y58996D01*
X36345Y58936D01*
X36353Y58874D01*
X36356Y58786D01*
X36379Y58736D01*
Y55944D01*
X36449Y55595D01*
X36646Y55300D01*
X37108Y54838D01*
X37403Y54641D01*
X37752Y54571D01*
X52402D01*
X52750Y54641D01*
X53046Y54838D01*
X53507Y55300D01*
X53705Y55595D01*
X53774Y55944D01*
Y56244D01*
X53798Y56297D01*
X53801Y56430D01*
X53810Y56526D01*
X53820Y56587D01*
X54732D01*
Y69791D01*
D02*
G37*
G36*
X-49992D02*
X-53748D01*
Y56587D01*
X-52827D01*
X-52817Y56526D01*
X-52808Y56430D01*
X-52805Y56297D01*
X-52781Y56244D01*
Y55790D01*
X-53232Y55339D01*
X-85508D01*
X-85558Y55362D01*
X-85646Y55366D01*
X-85708Y55374D01*
X-85768Y55386D01*
X-85825Y55403D01*
X-85882Y55426D01*
X-85939Y55453D01*
X-85996Y55487D01*
X-86053Y55528D01*
X-86112Y55577D01*
X-86184Y55646D01*
X-86219Y55660D01*
X-86746Y56012D01*
X-87402Y56142D01*
X-88058Y56012D01*
X-88614Y55640D01*
X-88985Y55084D01*
X-89116Y54428D01*
X-88985Y53772D01*
X-88614Y53216D01*
X-88058Y52845D01*
X-87402Y52714D01*
X-86746Y52845D01*
X-86219Y53196D01*
X-86184Y53210D01*
X-86112Y53279D01*
X-86053Y53328D01*
X-85996Y53369D01*
X-85939Y53403D01*
X-85882Y53431D01*
X-85825Y53453D01*
X-85768Y53470D01*
X-85708Y53483D01*
X-85646Y53490D01*
X-85558Y53494D01*
X-85508Y53517D01*
X-52854D01*
X-52506Y53586D01*
X-52210Y53784D01*
X-51226Y54768D01*
X-51028Y55064D01*
X-50959Y55412D01*
Y56244D01*
X-50935Y56297D01*
X-50932Y56430D01*
X-50923Y56526D01*
X-50913Y56587D01*
X-49992D01*
Y69791D01*
D02*
G37*
G36*
X-96664Y62402D02*
X-107677D01*
Y51389D01*
X-106445Y51486D01*
X-104668Y51912D01*
X-102979Y52612D01*
X-101420Y53567D01*
X-100030Y54754D01*
X-98843Y56144D01*
X-97887Y57703D01*
X-97188Y59392D01*
X-96761Y61170D01*
X-96664Y62402D01*
D02*
G37*
G36*
X-108858D02*
X-119871D01*
X-119774Y61170D01*
X-119348Y59392D01*
X-118648Y57703D01*
X-117693Y56144D01*
X-116506Y54754D01*
X-115115Y53567D01*
X-113557Y52612D01*
X-111868Y51912D01*
X-110090Y51486D01*
X-108858Y51389D01*
Y62402D01*
D02*
G37*
G36*
X-51968Y49856D02*
X-52624Y49725D01*
X-53180Y49354D01*
X-53552Y48798D01*
X-53683Y48142D01*
X-53656Y48010D01*
X-54106Y47709D01*
X-54462Y47947D01*
X-55118Y48078D01*
X-55774Y47947D01*
X-56330Y47576D01*
X-56702Y47019D01*
X-56832Y46364D01*
X-56702Y45708D01*
X-56350Y45181D01*
X-56336Y45146D01*
X-56267Y45074D01*
X-56218Y45015D01*
X-56177Y44958D01*
X-56143Y44901D01*
X-56116Y44844D01*
X-56093Y44787D01*
X-56076Y44730D01*
X-56064Y44670D01*
X-56056Y44608D01*
X-56053Y44520D01*
X-56029Y44470D01*
Y22509D01*
X-55960Y22160D01*
X-55762Y21864D01*
X-55301Y21403D01*
X-55006Y21205D01*
X-54657Y21136D01*
X-52079D01*
X-52029Y21113D01*
X-51942Y21109D01*
X-51879Y21102D01*
X-51819Y21089D01*
X-51762Y21072D01*
X-51705Y21050D01*
X-51649Y21022D01*
X-51592Y20988D01*
X-51534Y20947D01*
X-51475Y20898D01*
X-51403Y20829D01*
X-51368Y20816D01*
X-50841Y20464D01*
X-50186Y20333D01*
X-49530Y20464D01*
X-48974Y20835D01*
X-48602Y21391D01*
X-48472Y22047D01*
X-48602Y22703D01*
X-48974Y23259D01*
X-49530Y23631D01*
X-50186Y23761D01*
X-50841Y23631D01*
X-51368Y23279D01*
X-51403Y23266D01*
X-51475Y23196D01*
X-51534Y23148D01*
X-51592Y23107D01*
X-51648Y23072D01*
X-51705Y23045D01*
X-51762Y23022D01*
X-51819Y23005D01*
X-51879Y22993D01*
X-51942Y22985D01*
X-52029Y22982D01*
X-52079Y22958D01*
X-54207D01*
Y44469D01*
X-54184Y44520D01*
X-54180Y44608D01*
X-54173Y44670D01*
X-54160Y44730D01*
X-54143Y44787D01*
X-54121Y44844D01*
X-54093Y44901D01*
X-54059Y44958D01*
X-54018Y45015D01*
X-53969Y45074D01*
X-53900Y45146D01*
X-53886Y45181D01*
X-53535Y45708D01*
X-53505Y45857D01*
X-52961Y46029D01*
X-52880Y45952D01*
Y31961D01*
X-52810Y31612D01*
X-52613Y31317D01*
X-52254Y30957D01*
X-52252Y30947D01*
X-52215Y30918D01*
X-52200Y30904D01*
X-52180Y30851D01*
X-52041Y30702D01*
X-51991Y30645D01*
X-51827Y30424D01*
X-51790Y30366D01*
X-51704Y30216D01*
X-51666Y30139D01*
X-51664Y30138D01*
X-51664Y30136D01*
X-51592Y30075D01*
X-51328Y29679D01*
X-50772Y29307D01*
X-50116Y29177D01*
X-49460Y29307D01*
X-48904Y29679D01*
X-48532Y30235D01*
X-48402Y30891D01*
X-48532Y31547D01*
X-48904Y32103D01*
X-49460Y32475D01*
X-50116Y32605D01*
X-50557Y32517D01*
X-51000Y32802D01*
X-51057Y32885D01*
Y46248D01*
X-51034Y46298D01*
X-51031Y46386D01*
X-51023Y46448D01*
X-51011Y46508D01*
X-50993Y46566D01*
X-50971Y46622D01*
X-50943Y46679D01*
X-50909Y46736D01*
X-50868Y46793D01*
X-50819Y46852D01*
X-50750Y46925D01*
X-50737Y46959D01*
X-50385Y47486D01*
X-50254Y48142D01*
X-50385Y48798D01*
X-50757Y49354D01*
X-51313Y49725D01*
X-51968Y49856D01*
D02*
G37*
G36*
X125448Y47581D02*
X123283D01*
Y45907D01*
X125448D01*
Y47581D01*
D02*
G37*
G36*
X122102D02*
X119936D01*
Y45907D01*
X122102D01*
Y47581D01*
D02*
G37*
G36*
X74732Y69791D02*
X70976D01*
Y56587D01*
X72043D01*
X72053Y56526D01*
X72062Y56430D01*
X72065Y56297D01*
X72089Y56244D01*
Y43637D01*
X-635D01*
X-894Y44100D01*
X-889Y44137D01*
X-392Y44468D01*
X-358Y44482D01*
X-285Y44551D01*
X-226Y44600D01*
X-169Y44641D01*
X-112Y44675D01*
X-55Y44703D01*
X1Y44725D01*
X59Y44742D01*
X119Y44754D01*
X181Y44762D01*
X269Y44765D01*
X319Y44789D01*
X57539D01*
X57888Y44858D01*
X58183Y45056D01*
X58644Y45517D01*
X58842Y45812D01*
X58911Y46161D01*
Y56244D01*
X58935Y56297D01*
X58938Y56430D01*
X58947Y56526D01*
X58957Y56587D01*
X59732D01*
Y69791D01*
X55976D01*
Y56587D01*
X57043D01*
X57053Y56526D01*
X57062Y56430D01*
X57065Y56297D01*
X57089Y56244D01*
Y46611D01*
X319D01*
X269Y46635D01*
X181Y46638D01*
X119Y46646D01*
X59Y46658D01*
X1Y46675D01*
X-55Y46697D01*
X-112Y46725D01*
X-169Y46759D01*
X-226Y46800D01*
X-285Y46849D01*
X-358Y46918D01*
X-392Y46932D01*
X-919Y47284D01*
X-1575Y47414D01*
X-2231Y47284D01*
X-2787Y46912D01*
X-3158Y46356D01*
X-3289Y45700D01*
X-3158Y45044D01*
X-2787Y44488D01*
X-2261Y44137D01*
X-2255Y44100D01*
X-2515Y43637D01*
X-5586D01*
X-5637Y43660D01*
X-5724Y43663D01*
X-5787Y43671D01*
X-5847Y43683D01*
X-5904Y43701D01*
X-5961Y43723D01*
X-6017Y43751D01*
X-6074Y43785D01*
X-6132Y43826D01*
X-6191Y43874D01*
X-6263Y43944D01*
X-6298Y43957D01*
X-6825Y44309D01*
X-7480Y44439D01*
X-8136Y44309D01*
X-8692Y43937D01*
X-9064Y43381D01*
X-9194Y42725D01*
X-9064Y42070D01*
X-8692Y41513D01*
X-8136Y41142D01*
X-7480Y41011D01*
X-6825Y41142D01*
X-6298Y41494D01*
X-6263Y41507D01*
X-6191Y41576D01*
X-6132Y41625D01*
X-6074Y41666D01*
X-6017Y41700D01*
X-5961Y41728D01*
X-5904Y41750D01*
X-5847Y41767D01*
X-5787Y41780D01*
X-5724Y41787D01*
X-5637Y41791D01*
X-5586Y41814D01*
X72539D01*
X72887Y41884D01*
X73183Y42081D01*
X73644Y42542D01*
X73842Y42838D01*
X73911Y43187D01*
Y56244D01*
X73935Y56297D01*
X73938Y56430D01*
X73947Y56526D01*
X73957Y56587D01*
X74732D01*
Y69791D01*
D02*
G37*
G36*
X125448Y44726D02*
X123283D01*
Y43053D01*
X125448D01*
Y44726D01*
D02*
G37*
G36*
X122102D02*
X119936D01*
Y43053D01*
X122102D01*
Y44726D01*
D02*
G37*
G36*
X-44992Y69791D02*
X-48748D01*
Y56587D01*
X-48011D01*
X-48001Y56526D01*
X-47993Y56430D01*
X-47989Y56297D01*
X-47965Y56244D01*
Y46201D01*
X-47989Y46151D01*
X-47992Y46063D01*
X-48000Y46001D01*
X-48012Y45941D01*
X-48029Y45883D01*
X-48052Y45827D01*
X-48079Y45770D01*
X-48114Y45713D01*
X-48155Y45656D01*
X-48203Y45597D01*
X-48272Y45524D01*
X-48286Y45490D01*
X-48638Y44963D01*
X-48768Y44307D01*
X-48638Y43651D01*
X-48266Y43095D01*
X-47710Y42724D01*
X-47054Y42593D01*
X-46398Y42724D01*
X-45842Y43095D01*
X-45471Y43651D01*
X-45340Y44307D01*
X-45471Y44963D01*
X-45823Y45490D01*
X-45836Y45524D01*
X-45905Y45597D01*
X-45954Y45656D01*
X-45995Y45713D01*
X-46029Y45770D01*
X-46057Y45827D01*
X-46079Y45883D01*
X-46096Y45941D01*
X-46109Y46001D01*
X-46116Y46063D01*
X-46120Y46151D01*
X-46143Y46201D01*
Y56244D01*
X-46119Y56297D01*
X-46116Y56430D01*
X-46108Y56526D01*
X-46097Y56587D01*
X-44992D01*
Y69791D01*
D02*
G37*
G36*
X-29992D02*
X-33748D01*
Y56587D01*
X-32827D01*
X-32817Y56526D01*
X-32808Y56430D01*
X-32805Y56297D01*
X-32781Y56244D01*
Y54497D01*
X-39006D01*
X-39354Y54428D01*
X-39650Y54230D01*
X-41585Y52295D01*
X-41783Y51999D01*
X-41852Y51651D01*
Y38622D01*
X-45160D01*
X-45211Y38646D01*
X-45298Y38649D01*
X-45362Y38657D01*
X-45424Y38669D01*
X-45485Y38686D01*
X-45545Y38709D01*
X-45605Y38737D01*
X-45666Y38772D01*
X-45728Y38813D01*
X-45791Y38862D01*
X-45867Y38929D01*
X-45941Y38955D01*
X-46380Y39248D01*
X-47036Y39378D01*
X-47692Y39248D01*
X-48248Y38876D01*
X-48619Y38320D01*
X-48750Y37664D01*
X-48619Y37008D01*
X-48248Y36452D01*
X-47692Y36081D01*
X-47036Y35950D01*
X-46380Y36081D01*
X-45824Y36452D01*
X-45805Y36480D01*
X-45772Y36495D01*
X-45704Y36565D01*
X-45649Y36613D01*
X-45596Y36654D01*
X-45543Y36687D01*
X-45490Y36715D01*
X-45437Y36736D01*
X-45382Y36753D01*
X-45325Y36766D01*
X-45264Y36773D01*
X-45176Y36777D01*
X-45176Y36777D01*
X-45175Y36777D01*
X-45125Y36800D01*
X-41402D01*
X-41054Y36869D01*
X-40758Y37067D01*
X-40297Y37528D01*
X-40099Y37824D01*
X-40030Y38173D01*
Y51273D01*
X-38628Y52675D01*
X-32331D01*
X-31983Y52744D01*
X-31687Y52942D01*
X-31226Y53403D01*
X-31028Y53699D01*
X-30959Y54048D01*
Y56244D01*
X-30935Y56297D01*
X-30932Y56430D01*
X-30923Y56526D01*
X-30913Y56587D01*
X-29992D01*
Y69791D01*
D02*
G37*
G36*
X-31727Y49489D02*
X-32383Y49358D01*
X-32939Y48987D01*
X-33310Y48431D01*
X-33441Y47775D01*
X-33310Y47119D01*
X-32958Y46592D01*
X-32945Y46558D01*
X-32876Y46485D01*
X-32827Y46426D01*
X-32786Y46369D01*
X-32752Y46312D01*
X-32724Y46255D01*
X-32702Y46199D01*
X-32685Y46141D01*
X-32672Y46081D01*
X-32665Y46019D01*
X-32661Y45931D01*
X-32638Y45881D01*
Y40870D01*
X-32661Y40820D01*
X-32665Y40732D01*
X-32672Y40670D01*
X-32685Y40610D01*
X-32702Y40552D01*
X-32724Y40496D01*
X-32752Y40439D01*
X-32786Y40383D01*
X-32827Y40325D01*
X-32876Y40266D01*
X-32945Y40194D01*
X-32958Y40159D01*
X-33310Y39632D01*
X-33441Y38976D01*
X-33310Y38320D01*
X-32939Y37764D01*
X-32383Y37393D01*
X-31727Y37262D01*
X-31071Y37393D01*
X-30515Y37764D01*
X-30143Y38320D01*
X-30013Y38976D01*
X-30143Y39632D01*
X-30495Y40159D01*
X-30509Y40194D01*
X-30578Y40266D01*
X-30626Y40325D01*
X-30668Y40383D01*
X-30702Y40439D01*
X-30729Y40496D01*
X-30752Y40552D01*
X-30769Y40610D01*
X-30781Y40670D01*
X-30789Y40732D01*
X-30792Y40820D01*
X-30816Y40870D01*
Y45881D01*
X-30792Y45931D01*
X-30789Y46019D01*
X-30781Y46081D01*
X-30769Y46141D01*
X-30752Y46199D01*
X-30729Y46255D01*
X-30702Y46312D01*
X-30667Y46369D01*
X-30626Y46426D01*
X-30578Y46485D01*
X-30509Y46558D01*
X-30495Y46592D01*
X-30143Y47119D01*
X-30013Y47775D01*
X-30143Y48431D01*
X-30515Y48987D01*
X-31071Y49358D01*
X-31727Y49489D01*
D02*
G37*
G36*
X84732Y69791D02*
X80976D01*
Y56587D01*
X82043D01*
X82053Y56526D01*
X82062Y56430D01*
X82065Y56297D01*
X82089Y56244D01*
Y36972D01*
X-11688D01*
X-11823Y37473D01*
X-11416Y37745D01*
X-11381Y37758D01*
X-11309Y37827D01*
X-11250Y37876D01*
X-11192Y37917D01*
X-11135Y37951D01*
X-11079Y37979D01*
X-11022Y38001D01*
X-10965Y38018D01*
X-10905Y38031D01*
X-10842Y38038D01*
X-10755Y38042D01*
X-10704Y38065D01*
X77539Y38065D01*
X77887Y38135D01*
X78183Y38332D01*
X78644Y38793D01*
X78842Y39089D01*
X78911Y39438D01*
Y56244D01*
X78935Y56297D01*
X78938Y56430D01*
X78947Y56526D01*
X78957Y56587D01*
X79732D01*
Y69791D01*
X75976D01*
Y56587D01*
X77043D01*
X77053Y56526D01*
X77062Y56430D01*
X77065Y56297D01*
X77089Y56244D01*
Y39888D01*
X-10704Y39888D01*
X-10755Y39911D01*
X-10842Y39914D01*
X-10905Y39922D01*
X-10965Y39934D01*
X-11022Y39951D01*
X-11079Y39974D01*
X-11135Y40002D01*
X-11192Y40036D01*
X-11250Y40077D01*
X-11309Y40126D01*
X-11381Y40195D01*
X-11416Y40208D01*
X-11942Y40560D01*
X-12598Y40690D01*
X-13254Y40560D01*
X-13810Y40188D01*
X-14182Y39632D01*
X-14312Y38976D01*
X-14182Y38320D01*
X-13810Y37764D01*
X-13374Y37473D01*
X-13509Y36972D01*
X-16333D01*
X-16358Y36988D01*
X-16395Y36980D01*
X-16428Y36996D01*
X-16516Y36999D01*
X-16573Y37007D01*
X-16623Y37019D01*
X-16669Y37034D01*
X-16711Y37054D01*
X-16751Y37078D01*
X-16791Y37107D01*
X-16831Y37144D01*
X-16872Y37189D01*
X-16927Y37261D01*
X-17006Y37306D01*
X-17112Y37465D01*
X-17668Y37837D01*
X-18324Y37967D01*
X-18980Y37837D01*
X-19536Y37465D01*
X-19907Y36909D01*
X-20038Y36253D01*
X-19907Y35597D01*
X-19536Y35041D01*
X-18980Y34670D01*
X-18324Y34539D01*
X-17668Y34670D01*
X-17424Y34832D01*
X-17317Y34856D01*
X-17229Y34917D01*
X-17153Y34964D01*
X-17079Y35004D01*
X-17006Y35037D01*
X-16935Y35065D01*
X-16865Y35087D01*
X-16796Y35105D01*
X-16728Y35116D01*
X-16659Y35124D01*
X-16571Y35127D01*
X-16520Y35150D01*
X82539D01*
X82888Y35219D01*
X83183Y35417D01*
X83644Y35878D01*
X83842Y36174D01*
X83911Y36522D01*
Y56244D01*
X83935Y56297D01*
X83938Y56430D01*
X83947Y56526D01*
X83957Y56587D01*
X84732D01*
Y69791D01*
D02*
G37*
G36*
X-90748Y39471D02*
X-99803D01*
Y36774D01*
X-90748D01*
Y39471D01*
D02*
G37*
G36*
X-100984D02*
X-110039D01*
Y36774D01*
X-100984D01*
Y39471D01*
D02*
G37*
G36*
X-36899Y49489D02*
X-37555Y49358D01*
X-38111Y48987D01*
X-38483Y48431D01*
X-38613Y47775D01*
X-38483Y47119D01*
X-38131Y46592D01*
X-38117Y46558D01*
X-38048Y46485D01*
X-37999Y46426D01*
X-37958Y46369D01*
X-37924Y46312D01*
X-37897Y46255D01*
X-37874Y46199D01*
X-37857Y46141D01*
X-37845Y46081D01*
X-37837Y46019D01*
X-37834Y45931D01*
X-37810Y45881D01*
Y38147D01*
X-37834Y38097D01*
X-37837Y38009D01*
X-37845Y37947D01*
X-37857Y37887D01*
X-37874Y37829D01*
X-37897Y37773D01*
X-37924Y37716D01*
X-37958Y37659D01*
X-37999Y37602D01*
X-38048Y37543D01*
X-38117Y37470D01*
X-38131Y37436D01*
X-38483Y36909D01*
X-38613Y36253D01*
X-38483Y35597D01*
X-38111Y35041D01*
X-37555Y34670D01*
X-36899Y34539D01*
X-36243Y34670D01*
X-35687Y35041D01*
X-35316Y35597D01*
X-35185Y36253D01*
X-35316Y36909D01*
X-35667Y37436D01*
X-35681Y37470D01*
X-35750Y37543D01*
X-35799Y37602D01*
X-35840Y37659D01*
X-35874Y37716D01*
X-35902Y37773D01*
X-35924Y37829D01*
X-35941Y37887D01*
X-35954Y37947D01*
X-35961Y38009D01*
X-35965Y38097D01*
X-35988Y38147D01*
Y45881D01*
X-35965Y45931D01*
X-35961Y46019D01*
X-35954Y46081D01*
X-35941Y46141D01*
X-35924Y46199D01*
X-35902Y46255D01*
X-35874Y46312D01*
X-35840Y46369D01*
X-35799Y46426D01*
X-35750Y46485D01*
X-35681Y46558D01*
X-35668Y46592D01*
X-35316Y47119D01*
X-35185Y47775D01*
X-35316Y48431D01*
X-35687Y48987D01*
X-36243Y49358D01*
X-36899Y49489D01*
D02*
G37*
G36*
X-90748Y35593D02*
X-99803D01*
Y32896D01*
X-90748D01*
Y35593D01*
D02*
G37*
G36*
X-100984D02*
X-110039D01*
Y32896D01*
X-100984D01*
Y35593D01*
D02*
G37*
G36*
X118805Y33229D02*
X116344D01*
Y30965D01*
X118805D01*
Y33229D01*
D02*
G37*
G36*
X115163D02*
X112703D01*
Y30965D01*
X115163D01*
Y33229D01*
D02*
G37*
G36*
X105616D02*
X103155D01*
Y30965D01*
X105616D01*
Y33229D01*
D02*
G37*
G36*
X101974D02*
X99514D01*
Y30965D01*
X101974D01*
Y33229D01*
D02*
G37*
G36*
X-24992Y69791D02*
X-28748D01*
Y56587D01*
X-27728D01*
X-27718Y56526D01*
X-27710Y56430D01*
X-27706Y56297D01*
X-27683Y56244D01*
Y32785D01*
X-27706Y32735D01*
X-27710Y32647D01*
X-27717Y32585D01*
X-27730Y32525D01*
X-27747Y32467D01*
X-27769Y32410D01*
X-27797Y32354D01*
X-27831Y32297D01*
X-27872Y32239D01*
X-27921Y32181D01*
X-27990Y32108D01*
X-28003Y32074D01*
X-28355Y31547D01*
X-28486Y30891D01*
X-28355Y30235D01*
X-27984Y29679D01*
X-27428Y29307D01*
X-26772Y29177D01*
X-26116Y29307D01*
X-25560Y29679D01*
X-25188Y30235D01*
X-25058Y30891D01*
X-25188Y31547D01*
X-25540Y32074D01*
X-25553Y32108D01*
X-25623Y32181D01*
X-25671Y32239D01*
X-25712Y32297D01*
X-25746Y32354D01*
X-25774Y32410D01*
X-25797Y32467D01*
X-25814Y32525D01*
X-25826Y32585D01*
X-25834Y32647D01*
X-25837Y32735D01*
X-25860Y32785D01*
Y56244D01*
X-25837Y56297D01*
X-25833Y56430D01*
X-25825Y56526D01*
X-25815Y56587D01*
X-24992D01*
Y69791D01*
D02*
G37*
G36*
X-64567Y50533D02*
X-65223Y50402D01*
X-65779Y50031D01*
X-66019Y49672D01*
X-66095Y49611D01*
X-66135Y49542D01*
X-66161Y49505D01*
X-66185Y49477D01*
X-66209Y49456D01*
X-66234Y49439D01*
X-66262Y49425D01*
X-66296Y49412D01*
X-66339Y49402D01*
X-66392Y49394D01*
X-66480Y49390D01*
X-66530Y49367D01*
X-67902D01*
X-68251Y49298D01*
X-68546Y49100D01*
X-70528Y47119D01*
X-70725Y46823D01*
X-70795Y46474D01*
Y41417D01*
X-73236Y38976D01*
X-83081D01*
X-83134Y39000D01*
X-83259Y39003D01*
X-83354Y39012D01*
X-83431Y39024D01*
X-83490Y39039D01*
X-83531Y39055D01*
X-83555Y39067D01*
X-83565Y39074D01*
X-83583Y39108D01*
X-83604Y39125D01*
X-84085Y39845D01*
X-84902Y40390D01*
X-85865Y40582D01*
X-86828Y40390D01*
X-87644Y39845D01*
X-88190Y39028D01*
X-88382Y38065D01*
X-88190Y37102D01*
X-87644Y36285D01*
X-86828Y35740D01*
X-85865Y35548D01*
X-84902Y35740D01*
X-84085Y36285D01*
X-83604Y37006D01*
X-83583Y37022D01*
X-83565Y37056D01*
X-83555Y37064D01*
X-83531Y37076D01*
X-83490Y37091D01*
X-83431Y37106D01*
X-83354Y37119D01*
X-83259Y37127D01*
X-83134Y37130D01*
X-83081Y37154D01*
X-72858D01*
X-72510Y37223D01*
X-72214Y37421D01*
X-69239Y40396D01*
X-69042Y40691D01*
X-68972Y41040D01*
Y46097D01*
X-67525Y47545D01*
X-66250D01*
X-66198Y47521D01*
X-66109Y47519D01*
X-66034Y47513D01*
X-65958Y47502D01*
X-65886Y47488D01*
X-65711Y47441D01*
X-65639Y47415D01*
X-65452Y47336D01*
X-65358Y47289D01*
X-65296Y47284D01*
X-65223Y47235D01*
X-64567Y47105D01*
X-64470Y47124D01*
X-64043Y46723D01*
X-64040Y46700D01*
Y32823D01*
X-64635Y32228D01*
X-83406D01*
X-83459Y32251D01*
X-83584Y32255D01*
X-83678Y32263D01*
X-83755Y32276D01*
X-83815Y32291D01*
X-83855Y32306D01*
X-83880Y32318D01*
X-83890Y32325D01*
X-83908Y32359D01*
X-83929Y32376D01*
X-84410Y33096D01*
X-85226Y33642D01*
X-86190Y33834D01*
X-87153Y33642D01*
X-87969Y33096D01*
X-88515Y32280D01*
X-88706Y31317D01*
X-88515Y30354D01*
X-87969Y29537D01*
X-87153Y28991D01*
X-86190Y28800D01*
X-85226Y28991D01*
X-84410Y29537D01*
X-83929Y30257D01*
X-83908Y30274D01*
X-83890Y30308D01*
X-83880Y30315D01*
X-83855Y30327D01*
X-83815Y30342D01*
X-83755Y30357D01*
X-83678Y30370D01*
X-83584Y30378D01*
X-83459Y30382D01*
X-83406Y30406D01*
X-64258D01*
X-63909Y30475D01*
X-63613Y30672D01*
X-62485Y31801D01*
X-62287Y32096D01*
X-62218Y32445D01*
Y46343D01*
X-61837Y46724D01*
X-61784Y46744D01*
X-61720Y46805D01*
X-61665Y46850D01*
X-61606Y46893D01*
X-61543Y46933D01*
X-61475Y46970D01*
X-61402Y47004D01*
X-61331Y47033D01*
X-61146Y47092D01*
X-61046Y47116D01*
X-60966Y47173D01*
X-60761Y47214D01*
X-60205Y47586D01*
X-60093Y47754D01*
X-59593D01*
X-59499Y47615D01*
X-59486Y47581D01*
X-59417Y47508D01*
X-59368Y47449D01*
X-59327Y47392D01*
X-59293Y47335D01*
X-59265Y47278D01*
X-59243Y47221D01*
X-59226Y47164D01*
X-59213Y47104D01*
X-59206Y47042D01*
X-59202Y46954D01*
X-59179Y46904D01*
Y27091D01*
X-59202Y27040D01*
X-59206Y26953D01*
X-59213Y26890D01*
X-59226Y26831D01*
X-59243Y26773D01*
X-59265Y26716D01*
X-59293Y26660D01*
X-59327Y26603D01*
X-59368Y26545D01*
X-59417Y26487D01*
X-59486Y26414D01*
X-59499Y26379D01*
X-59851Y25853D01*
X-59982Y25197D01*
X-59851Y24541D01*
X-59480Y23985D01*
X-58924Y23613D01*
X-58268Y23483D01*
X-57612Y23613D01*
X-57056Y23985D01*
X-56684Y24541D01*
X-56554Y25197D01*
X-56684Y25853D01*
X-57036Y26379D01*
X-57050Y26414D01*
X-57119Y26487D01*
X-57168Y26545D01*
X-57209Y26603D01*
X-57243Y26660D01*
X-57270Y26716D01*
X-57293Y26773D01*
X-57310Y26831D01*
X-57322Y26890D01*
X-57330Y26953D01*
X-57333Y27040D01*
X-57357Y27091D01*
Y46904D01*
X-57333Y46954D01*
X-57330Y47042D01*
X-57322Y47104D01*
X-57310Y47164D01*
X-57293Y47221D01*
X-57270Y47278D01*
X-57243Y47335D01*
X-57209Y47392D01*
X-57168Y47449D01*
X-57119Y47508D01*
X-57050Y47581D01*
X-57036Y47615D01*
X-56684Y48142D01*
X-56554Y48798D01*
X-56684Y49454D01*
X-57056Y50010D01*
X-57612Y50381D01*
X-58268Y50512D01*
X-58924Y50381D01*
X-59480Y50010D01*
X-59593Y49841D01*
X-60093D01*
X-60205Y50010D01*
X-60761Y50381D01*
X-61417Y50512D01*
X-62073Y50381D01*
X-62629Y50010D01*
X-62735Y49852D01*
X-63235D01*
X-63355Y50031D01*
X-63911Y50402D01*
X-64567Y50533D01*
D02*
G37*
G36*
X30294Y23351D02*
X26515D01*
Y20772D01*
X30294D01*
Y23351D01*
D02*
G37*
G36*
X25333D02*
X21554D01*
Y20772D01*
X25333D01*
Y23351D01*
D02*
G37*
G36*
X-73621Y23091D02*
X-77400D01*
Y20512D01*
X-73621D01*
Y23091D01*
D02*
G37*
G36*
X-78581D02*
X-82361D01*
Y20512D01*
X-78581D01*
Y23091D01*
D02*
G37*
G36*
X-19992Y69791D02*
X-23748D01*
Y56587D01*
X-23010D01*
X-23000Y56526D01*
X-22991Y56430D01*
X-22988Y56297D01*
X-22964Y56244D01*
Y23941D01*
X-22988Y23891D01*
X-22991Y23803D01*
X-22999Y23741D01*
X-23011Y23681D01*
X-23028Y23623D01*
X-23051Y23567D01*
X-23078Y23510D01*
X-23112Y23453D01*
X-23154Y23396D01*
X-23202Y23337D01*
X-23271Y23264D01*
X-23285Y23230D01*
X-23637Y22703D01*
X-23767Y22047D01*
X-23637Y21391D01*
X-23265Y20835D01*
X-22709Y20464D01*
X-22053Y20333D01*
X-21397Y20464D01*
X-20841Y20835D01*
X-20470Y21391D01*
X-20339Y22047D01*
X-20470Y22703D01*
X-20821Y23230D01*
X-20835Y23264D01*
X-20904Y23337D01*
X-20953Y23396D01*
X-20994Y23453D01*
X-21028Y23510D01*
X-21056Y23567D01*
X-21078Y23623D01*
X-21095Y23681D01*
X-21108Y23741D01*
X-21115Y23803D01*
X-21119Y23891D01*
X-21142Y23941D01*
Y56244D01*
X-21118Y56297D01*
X-21115Y56430D01*
X-21106Y56526D01*
X-21096Y56587D01*
X-19992D01*
Y69791D01*
D02*
G37*
G36*
X30294Y19591D02*
X26515D01*
Y17012D01*
X30294D01*
Y19591D01*
D02*
G37*
G36*
X25333D02*
X21554D01*
Y17012D01*
X25333D01*
Y19591D01*
D02*
G37*
G36*
X-73621Y19331D02*
X-77400D01*
Y16752D01*
X-73621D01*
Y19331D01*
D02*
G37*
G36*
X-78581D02*
X-82361D01*
Y16752D01*
X-78581D01*
Y19331D01*
D02*
G37*
G36*
X-91035Y19184D02*
X-109752D01*
Y13183D01*
X-91035D01*
Y15443D01*
X-90975Y15454D01*
X-90879Y15462D01*
X-90746Y15466D01*
X-90693Y15489D01*
X-89196D01*
X-89145Y15466D01*
X-89057Y15462D01*
X-88995Y15455D01*
X-88935Y15442D01*
X-88878Y15425D01*
X-88821Y15403D01*
X-88765Y15375D01*
X-88708Y15341D01*
X-88650Y15300D01*
X-88591Y15251D01*
X-88519Y15182D01*
X-88484Y15169D01*
X-87957Y14817D01*
X-87301Y14686D01*
X-86646Y14817D01*
X-86089Y15188D01*
X-85718Y15744D01*
X-85588Y16400D01*
X-85718Y17056D01*
X-86089Y17612D01*
X-86646Y17984D01*
X-87301Y18114D01*
X-87957Y17984D01*
X-88484Y17632D01*
X-88519Y17618D01*
X-88591Y17549D01*
X-88650Y17501D01*
X-88708Y17460D01*
X-88765Y17425D01*
X-88821Y17398D01*
X-88878Y17375D01*
X-88935Y17358D01*
X-88995Y17346D01*
X-89057Y17338D01*
X-89145Y17335D01*
X-89196Y17312D01*
X-90693D01*
X-90746Y17335D01*
X-90879Y17338D01*
X-90975Y17347D01*
X-91035Y17357D01*
Y19184D01*
D02*
G37*
G36*
X125054Y17827D02*
X120117D01*
Y13874D01*
X121735D01*
X121746Y13814D01*
X121754Y13718D01*
X121757Y13585D01*
X121781Y13532D01*
Y13283D01*
X121758Y13232D01*
X121754Y13144D01*
X121747Y13082D01*
X121734Y13022D01*
X121717Y12965D01*
X121695Y12908D01*
X121667Y12852D01*
X121633Y12795D01*
X121592Y12737D01*
X121543Y12678D01*
X121475Y12606D01*
X121403Y12538D01*
X121344Y12489D01*
X121286Y12448D01*
X121229Y12414D01*
X121173Y12386D01*
X121116Y12364D01*
X121058Y12346D01*
X120999Y12334D01*
X120936Y12326D01*
X120849Y12323D01*
X120798Y12300D01*
X109285D01*
X109265Y12313D01*
X109199Y12300D01*
X109120D01*
X109053Y12313D01*
X109033Y12300D01*
X101676D01*
X101327Y12230D01*
X101032Y12033D01*
X100062Y11063D01*
X99864Y10767D01*
X99795Y10419D01*
Y-16544D01*
X99772Y-16595D01*
X99768Y-16682D01*
X99761Y-16745D01*
X99748Y-16804D01*
X99731Y-16862D01*
X99709Y-16919D01*
X99681Y-16975D01*
X99647Y-17032D01*
X99606Y-17090D01*
X99557Y-17149D01*
X99488Y-17221D01*
X99475Y-17255D01*
X99123Y-17782D01*
X98992Y-18438D01*
X99123Y-19094D01*
X99494Y-19650D01*
X100050Y-20022D01*
X100706Y-20152D01*
X101362Y-20022D01*
X101918Y-19650D01*
X102290Y-19094D01*
X102420Y-18438D01*
X102290Y-17782D01*
X101938Y-17255D01*
X101924Y-17221D01*
X101855Y-17149D01*
X101806Y-17090D01*
X101765Y-17032D01*
X101731Y-16975D01*
X101704Y-16919D01*
X101681Y-16862D01*
X101664Y-16804D01*
X101652Y-16745D01*
X101644Y-16682D01*
X101641Y-16595D01*
X101617Y-16544D01*
Y10041D01*
X102053Y10477D01*
X107058D01*
X107084Y9988D01*
X107084D01*
Y5838D01*
X111234D01*
Y9988D01*
X111234D01*
X111260Y10477D01*
X114065D01*
X114091Y9988D01*
X114091Y9977D01*
Y5838D01*
X118240D01*
Y6957D01*
X118301Y6967D01*
X118397Y6976D01*
X118530Y6979D01*
X118583Y7003D01*
X121877D01*
Y6916D01*
X121946Y6567D01*
X121954Y6556D01*
Y-44536D01*
X120381Y-46109D01*
X94045D01*
X93696Y-46178D01*
X93401Y-46376D01*
X90694Y-49082D01*
X90497Y-49378D01*
X90427Y-49726D01*
Y-62595D01*
X89758Y-63265D01*
X89317Y-63029D01*
X89324Y-62992D01*
X89148Y-62106D01*
X88646Y-61354D01*
X87894Y-60852D01*
X87008Y-60676D01*
X86121Y-60852D01*
X85370Y-61354D01*
X84868Y-62106D01*
X84692Y-62992D01*
X84868Y-63879D01*
X85194Y-64366D01*
X84926Y-64866D01*
X67500D01*
Y-59639D01*
X61500D01*
Y-78355D01*
X67500D01*
Y-66688D01*
X88534D01*
X88883Y-66619D01*
X89179Y-66421D01*
X91983Y-63617D01*
X92180Y-63322D01*
X92250Y-62973D01*
Y-50104D01*
X94423Y-47931D01*
X120759D01*
X121107Y-47862D01*
X121403Y-47664D01*
X123509Y-45558D01*
X123707Y-45262D01*
X123776Y-44914D01*
Y6839D01*
X123707Y7188D01*
X123699Y7199D01*
Y7439D01*
X123630Y7788D01*
X123432Y8084D01*
X122958Y8558D01*
X122662Y8756D01*
X122313Y8825D01*
X118721D01*
X118240Y9183D01*
Y9977D01*
X118240Y9988D01*
X118267Y10477D01*
X120798D01*
X120849Y10454D01*
X120936Y10451D01*
X120999Y10443D01*
X121058Y10430D01*
X121116Y10413D01*
X121173Y10391D01*
X121229Y10363D01*
X121286Y10329D01*
X121344Y10288D01*
X121403Y10239D01*
X121475Y10170D01*
X121510Y10157D01*
X122036Y9805D01*
X122692Y9674D01*
X123348Y9805D01*
X123904Y10176D01*
X124276Y10733D01*
X124406Y11388D01*
X124276Y12044D01*
X123924Y12571D01*
X123910Y12606D01*
X123841Y12678D01*
X123793Y12737D01*
X123751Y12795D01*
X123717Y12851D01*
X123690Y12908D01*
X123667Y12965D01*
X123650Y13022D01*
X123638Y13082D01*
X123630Y13144D01*
X123627Y13232D01*
X123603Y13282D01*
Y13532D01*
X123627Y13585D01*
X123630Y13718D01*
X123639Y13814D01*
X123649Y13874D01*
X125054D01*
Y17827D01*
D02*
G37*
G36*
X-75708Y-1019D02*
X-77676D01*
Y-2889D01*
X-75708D01*
Y-1019D01*
D02*
G37*
G36*
X-78857D02*
X-80826D01*
Y-2889D01*
X-78857D01*
Y-1019D01*
D02*
G37*
G36*
X28484Y-2520D02*
X26515D01*
Y-4390D01*
X28484D01*
Y-2520D01*
D02*
G37*
G36*
X25334D02*
X23366D01*
Y-4390D01*
X25334D01*
Y-2520D01*
D02*
G37*
G36*
X-75708Y-4070D02*
X-77676D01*
Y-5940D01*
X-75708D01*
Y-4070D01*
D02*
G37*
G36*
X-78857D02*
X-80826D01*
Y-5940D01*
X-78857D01*
Y-4070D01*
D02*
G37*
G36*
X118240Y3689D02*
X114091D01*
Y-461D01*
X115210D01*
X115219Y-516D01*
X115227Y-615D01*
X115231Y-750D01*
X115254Y-803D01*
Y-2527D01*
X115231Y-2580D01*
X115227Y-2713D01*
X115219Y-2810D01*
X115209Y-2870D01*
X113697D01*
Y-6823D01*
X118634D01*
Y-2870D01*
X117122D01*
X117112Y-2810D01*
X117104Y-2713D01*
X117100Y-2580D01*
X117077Y-2527D01*
Y-803D01*
X117100Y-750D01*
X117104Y-615D01*
X117112Y-516D01*
X117122Y-461D01*
X118240D01*
Y3689D01*
D02*
G37*
G36*
X111234D02*
X107084D01*
Y-461D01*
X108123D01*
X108132Y-516D01*
X108141Y-615D01*
X108144Y-750D01*
X108168Y-803D01*
Y-2527D01*
X108144Y-2580D01*
X108141Y-2713D01*
X108132Y-2810D01*
X108122Y-2870D01*
X106611D01*
Y-6823D01*
X111548D01*
Y-2870D01*
X110036D01*
X110026Y-2810D01*
X110017Y-2713D01*
X110014Y-2580D01*
X109990Y-2527D01*
Y-803D01*
X110014Y-750D01*
X110017Y-615D01*
X110026Y-516D01*
X110035Y-461D01*
X111234D01*
Y3689D01*
D02*
G37*
G36*
X28484Y-5571D02*
X26515D01*
Y-7441D01*
X28484D01*
Y-5571D01*
D02*
G37*
G36*
X25334D02*
X23366D01*
Y-7441D01*
X25334D01*
Y-5571D01*
D02*
G37*
G36*
X118921Y-8488D02*
X116756D01*
Y-10161D01*
X118921D01*
Y-8488D01*
D02*
G37*
G36*
X111835D02*
X109670D01*
Y-10161D01*
X111835D01*
Y-8488D01*
D02*
G37*
G36*
X108488D02*
X106323D01*
Y-10161D01*
X108488D01*
Y-8488D01*
D02*
G37*
G36*
X115575D02*
X113410D01*
Y-10161D01*
X115575D01*
Y-8488D01*
D02*
G37*
G36*
X118921Y-11342D02*
X116756D01*
Y-13015D01*
X118921D01*
Y-11342D01*
D02*
G37*
G36*
X115575D02*
X113410D01*
Y-13015D01*
X115575D01*
Y-11342D01*
D02*
G37*
G36*
X111835D02*
X109670D01*
Y-13015D01*
X111835D01*
Y-11342D01*
D02*
G37*
G36*
X108488D02*
X106323D01*
Y-13015D01*
X108488D01*
Y-11342D01*
D02*
G37*
G36*
X30007Y11646D02*
X21841D01*
Y5882D01*
X24969D01*
X24978Y5827D01*
X24986Y5728D01*
X24990Y5593D01*
X25013Y5540D01*
Y3638D01*
X24990Y3585D01*
X24986Y3452D01*
X24978Y3355D01*
X24968Y3295D01*
X23653D01*
Y-1051D01*
X28196D01*
Y3295D01*
X26881D01*
X26871Y3355D01*
X26863Y3452D01*
X26859Y3585D01*
X26836Y3638D01*
Y5540D01*
X26859Y5593D01*
X26863Y5728D01*
X26871Y5827D01*
X26880Y5882D01*
X30007D01*
Y7808D01*
X30062Y7817D01*
X30161Y7826D01*
X30296Y7829D01*
X30349Y7853D01*
X50331D01*
X53407Y4777D01*
Y-1914D01*
X53384Y-1966D01*
X53380Y-2102D01*
X53372Y-2201D01*
X53363Y-2256D01*
X46154D01*
Y-13098D01*
X59949D01*
Y-8633D01*
X60004Y-8624D01*
X60103Y-8615D01*
X60238Y-8612D01*
X60291Y-8588D01*
X70418D01*
X70470Y-8612D01*
X70606Y-8615D01*
X70705Y-8624D01*
X70760Y-8633D01*
Y-13098D01*
X84555D01*
Y-2256D01*
X70760D01*
Y-6721D01*
X70705Y-6730D01*
X70606Y-6739D01*
X70470Y-6742D01*
X70418Y-6766D01*
X60291D01*
X60238Y-6742D01*
X60103Y-6739D01*
X60004Y-6730D01*
X59949Y-6721D01*
Y-2256D01*
X55274D01*
X55265Y-2201D01*
X55257Y-2102D01*
X55253Y-1966D01*
X55230Y-1914D01*
Y5154D01*
X55160Y5503D01*
X54963Y5799D01*
X51353Y9409D01*
X51057Y9606D01*
X50709Y9675D01*
X30349D01*
X30296Y9699D01*
X30161Y9702D01*
X30062Y9711D01*
X30007Y9720D01*
Y11646D01*
D02*
G37*
G36*
X-73908Y11386D02*
X-82073D01*
Y5622D01*
X-79223D01*
X-79214Y5567D01*
X-79205Y5468D01*
X-79201Y5333D01*
X-79178Y5280D01*
Y5139D01*
X-79201Y5086D01*
X-79205Y4953D01*
X-79214Y4857D01*
X-79224Y4796D01*
X-80538D01*
Y450D01*
X-75995D01*
Y4796D01*
X-77310D01*
X-77320Y4857D01*
X-77328Y4953D01*
X-77332Y5086D01*
X-77355Y5139D01*
Y5280D01*
X-77332Y5333D01*
X-77328Y5468D01*
X-77320Y5567D01*
X-77311Y5622D01*
X-73908D01*
Y7548D01*
X-73853Y7557D01*
X-73754Y7566D01*
X-73619Y7569D01*
X-73566Y7593D01*
X-56071D01*
X-52584Y4107D01*
Y-1914D01*
X-52608Y-1966D01*
X-52612Y-2102D01*
X-52620Y-2201D01*
X-52629Y-2256D01*
X-58571D01*
Y-13098D01*
X-44776D01*
Y-8633D01*
X-44721Y-8624D01*
X-44622Y-8615D01*
X-44486Y-8612D01*
X-44433Y-8588D01*
X-34307D01*
X-34254Y-8612D01*
X-34119Y-8615D01*
X-34020Y-8624D01*
X-33965Y-8633D01*
Y-13098D01*
X-20169D01*
Y-2256D01*
X-33965D01*
Y-6721D01*
X-34020Y-6730D01*
X-34119Y-6739D01*
X-34254Y-6742D01*
X-34307Y-6766D01*
X-44433D01*
X-44486Y-6742D01*
X-44622Y-6739D01*
X-44721Y-6730D01*
X-44776Y-6721D01*
Y-2256D01*
X-50717D01*
X-50726Y-2201D01*
X-50735Y-2102D01*
X-50739Y-1966D01*
X-50762Y-1914D01*
Y4484D01*
X-50832Y4833D01*
X-51029Y5128D01*
X-55049Y9148D01*
X-55345Y9346D01*
X-55693Y9415D01*
X-73566D01*
X-73619Y9439D01*
X-73754Y9442D01*
X-73853Y9451D01*
X-73908Y9460D01*
Y11386D01*
D02*
G37*
G36*
X116506Y-14056D02*
X115850Y-14186D01*
X115294Y-14558D01*
X114923Y-15114D01*
X114792Y-15770D01*
X114923Y-16426D01*
X115220Y-16870D01*
X115245Y-16942D01*
X115313Y-17018D01*
X115361Y-17081D01*
X115403Y-17142D01*
X115437Y-17203D01*
X115465Y-17263D01*
X115488Y-17323D01*
X115505Y-17383D01*
X115518Y-17445D01*
X115525Y-17509D01*
X115529Y-17596D01*
X115552Y-17647D01*
Y-20087D01*
X115528Y-20139D01*
X115525Y-20275D01*
X115516Y-20374D01*
X115507Y-20429D01*
X114388D01*
Y-24578D01*
X118538D01*
Y-20429D01*
X117419D01*
X117410Y-20374D01*
X117401Y-20275D01*
X117398Y-20139D01*
X117374Y-20087D01*
Y-17678D01*
X117398Y-17628D01*
X117401Y-17541D01*
X117409Y-17479D01*
X117421Y-17422D01*
X117438Y-17367D01*
X117460Y-17313D01*
X117487Y-17260D01*
X117521Y-17207D01*
X117561Y-17154D01*
X117610Y-17099D01*
X117680Y-17030D01*
X117693Y-16998D01*
X117718Y-16982D01*
X118090Y-16426D01*
X118220Y-15770D01*
X118090Y-15114D01*
X117718Y-14558D01*
X117162Y-14186D01*
X116506Y-14056D01*
D02*
G37*
G36*
X49730Y-20412D02*
X49074Y-20542D01*
X48518Y-20914D01*
X48147Y-21470D01*
X48016Y-22126D01*
X48147Y-22782D01*
X48499Y-23309D01*
X48512Y-23343D01*
X48581Y-23416D01*
X48630Y-23474D01*
X48671Y-23532D01*
X48705Y-23589D01*
X48733Y-23645D01*
X48755Y-23702D01*
X48772Y-23760D01*
X48785Y-23820D01*
X48792Y-23882D01*
X48796Y-23969D01*
X48819Y-24020D01*
Y-60157D01*
X48796Y-60208D01*
X48792Y-60295D01*
X48785Y-60358D01*
X48772Y-60417D01*
X48755Y-60475D01*
X48733Y-60532D01*
X48705Y-60588D01*
X48671Y-60645D01*
X48630Y-60703D01*
X48581Y-60762D01*
X48512Y-60834D01*
X48499Y-60869D01*
X48147Y-61395D01*
X48016Y-62051D01*
X48147Y-62707D01*
X48518Y-63263D01*
X49074Y-63635D01*
X49730Y-63765D01*
X50386Y-63635D01*
X50942Y-63263D01*
X51000Y-63177D01*
X51500Y-63328D01*
Y-78355D01*
X52877D01*
X53130Y-78855D01*
X52946Y-79131D01*
X52816Y-79786D01*
X52946Y-80442D01*
X53318Y-80998D01*
X53874Y-81370D01*
X54530Y-81501D01*
X55186Y-81370D01*
X55742Y-80998D01*
X56113Y-80442D01*
X56244Y-79786D01*
X56113Y-79131D01*
X55929Y-78855D01*
X56196Y-78355D01*
X57500D01*
Y-59639D01*
X51500D01*
Y-60774D01*
X51000Y-60926D01*
X50962Y-60869D01*
X50948Y-60834D01*
X50879Y-60762D01*
X50831Y-60703D01*
X50789Y-60645D01*
X50755Y-60588D01*
X50728Y-60532D01*
X50705Y-60475D01*
X50688Y-60417D01*
X50676Y-60358D01*
X50668Y-60295D01*
X50665Y-60208D01*
X50641Y-60157D01*
Y-24020D01*
X50665Y-23969D01*
X50668Y-23882D01*
X50676Y-23819D01*
X50688Y-23760D01*
X50705Y-23702D01*
X50728Y-23645D01*
X50755Y-23589D01*
X50789Y-23532D01*
X50831Y-23474D01*
X50879Y-23416D01*
X50948Y-23344D01*
X51020Y-23275D01*
X51079Y-23226D01*
X51136Y-23185D01*
X51193Y-23151D01*
X51250Y-23123D01*
X51306Y-23101D01*
X51364Y-23084D01*
X51424Y-23071D01*
X51486Y-23064D01*
X51574Y-23060D01*
X51624Y-23037D01*
X106152D01*
X106204Y-23061D01*
X106340Y-23064D01*
X106439Y-23073D01*
X106494Y-23082D01*
Y-24578D01*
X110643D01*
Y-20429D01*
X106494D01*
Y-21170D01*
X106439Y-21179D01*
X106340Y-21188D01*
X106204Y-21191D01*
X106152Y-21215D01*
X51624D01*
X51574Y-21191D01*
X51486Y-21188D01*
X51424Y-21180D01*
X51364Y-21168D01*
X51306Y-21151D01*
X51250Y-21128D01*
X51193Y-21101D01*
X51136Y-21067D01*
X51079Y-21026D01*
X51020Y-20977D01*
X50947Y-20908D01*
X50913Y-20894D01*
X50386Y-20542D01*
X49730Y-20412D01*
D02*
G37*
G36*
X65323Y-23776D02*
Y-25887D01*
X67434D01*
X67417Y-25758D01*
X67140Y-25088D01*
X66698Y-24512D01*
X66122Y-24070D01*
X65452Y-23793D01*
X65323Y-23776D01*
D02*
G37*
G36*
X64142D02*
X64013Y-23793D01*
X63342Y-24070D01*
X62767Y-24512D01*
X62325Y-25088D01*
X62047Y-25758D01*
X62030Y-25887D01*
X64142D01*
Y-23776D01*
D02*
G37*
G36*
X67434Y-27068D02*
X65323D01*
Y-29180D01*
X65452Y-29163D01*
X66122Y-28885D01*
X66698Y-28443D01*
X67140Y-27868D01*
X67417Y-27197D01*
X67434Y-27068D01*
D02*
G37*
G36*
X64142D02*
X62030D01*
X62047Y-27197D01*
X62325Y-27868D01*
X62767Y-28443D01*
X63342Y-28885D01*
X64013Y-29163D01*
X64142Y-29180D01*
Y-27068D01*
D02*
G37*
G36*
X118538Y-26728D02*
X114388D01*
Y-30878D01*
X115391D01*
X115400Y-30933D01*
X115408Y-31032D01*
X115412Y-31167D01*
X115435Y-31220D01*
Y-34204D01*
X115412Y-34257D01*
X115408Y-34390D01*
X115400Y-34486D01*
X115390Y-34547D01*
X113878D01*
Y-38500D01*
X118815D01*
Y-34547D01*
X117303D01*
X117293Y-34486D01*
X117285Y-34390D01*
X117281Y-34257D01*
X117258Y-34204D01*
Y-31220D01*
X117281Y-31167D01*
X117285Y-31032D01*
X117293Y-30933D01*
X117302Y-30878D01*
X118538D01*
Y-26728D01*
D02*
G37*
G36*
X110643D02*
X106494D01*
Y-30878D01*
X107613D01*
X107622Y-30933D01*
X107631Y-31032D01*
X107634Y-31167D01*
X107658Y-31220D01*
Y-34204D01*
X107634Y-34257D01*
X107631Y-34390D01*
X107622Y-34486D01*
X107612Y-34547D01*
X106100D01*
Y-38500D01*
X111037D01*
Y-34547D01*
X109526D01*
X109515Y-34486D01*
X109507Y-34390D01*
X109503Y-34257D01*
X109480Y-34204D01*
Y-31220D01*
X109503Y-31167D01*
X109507Y-31032D01*
X109516Y-30933D01*
X109525Y-30878D01*
X110643D01*
Y-26728D01*
D02*
G37*
G36*
X119102Y-40165D02*
X116937D01*
Y-41838D01*
X119102D01*
Y-40165D01*
D02*
G37*
G36*
X111325D02*
X109159D01*
Y-41838D01*
X111325D01*
Y-40165D01*
D02*
G37*
G36*
X107978D02*
X105813D01*
Y-41838D01*
X107978D01*
Y-40165D01*
D02*
G37*
G36*
X115756D02*
X113591D01*
Y-41838D01*
X115756D01*
Y-40165D01*
D02*
G37*
G36*
X67787Y-34154D02*
X65091D01*
Y-43209D01*
X67787D01*
Y-34154D01*
D02*
G37*
G36*
X-22213D02*
X-24909D01*
Y-43209D01*
X-22213D01*
Y-34154D01*
D02*
G37*
G36*
X63910D02*
X61213D01*
Y-43209D01*
X63910D01*
Y-34154D01*
D02*
G37*
G36*
X-26091D02*
X-28787D01*
Y-43209D01*
X-26091D01*
Y-34154D01*
D02*
G37*
G36*
X119102Y-43019D02*
X116937D01*
Y-44692D01*
X119102D01*
Y-43019D01*
D02*
G37*
G36*
X115756D02*
X113591D01*
Y-44692D01*
X115756D01*
Y-43019D01*
D02*
G37*
G36*
X111325D02*
X109159D01*
Y-44692D01*
X111325D01*
Y-43019D01*
D02*
G37*
G36*
X107978D02*
X105813D01*
Y-44692D01*
X107978D01*
Y-43019D01*
D02*
G37*
G36*
X15243Y-28658D02*
X14587Y-28789D01*
X14031Y-29160D01*
X13660Y-29716D01*
X13529Y-30372D01*
X13660Y-31028D01*
X14012Y-31555D01*
X14025Y-31589D01*
X14094Y-31662D01*
X14143Y-31721D01*
X14184Y-31778D01*
X14218Y-31835D01*
X14246Y-31892D01*
X14268Y-31948D01*
X14285Y-32006D01*
X14298Y-32066D01*
X14305Y-32128D01*
X14309Y-32216D01*
X14332Y-32266D01*
Y-34099D01*
X14309Y-34152D01*
X14305Y-34285D01*
X14297Y-34381D01*
X14287Y-34442D01*
X11500D01*
Y-53158D01*
X17500D01*
Y-34442D01*
X16200D01*
X16190Y-34381D01*
X16182Y-34285D01*
X16178Y-34152D01*
X16155Y-34099D01*
Y-32266D01*
X16178Y-32216D01*
X16181Y-32128D01*
X16189Y-32066D01*
X16201Y-32006D01*
X16218Y-31948D01*
X16241Y-31892D01*
X16269Y-31835D01*
X16303Y-31778D01*
X16344Y-31721D01*
X16392Y-31662D01*
X16462Y-31589D01*
X16475Y-31555D01*
X16827Y-31028D01*
X16957Y-30372D01*
X16827Y-29716D01*
X16455Y-29160D01*
X15899Y-28789D01*
X15243Y-28658D01*
D02*
G37*
G36*
X5339Y-25483D02*
X4683Y-25614D01*
X4127Y-25985D01*
X3755Y-26541D01*
X3625Y-27197D01*
X3755Y-27853D01*
X4107Y-28380D01*
X4121Y-28414D01*
X4190Y-28487D01*
X4239Y-28546D01*
X4280Y-28603D01*
X4314Y-28660D01*
X4342Y-28717D01*
X4364Y-28773D01*
X4381Y-28831D01*
X4394Y-28891D01*
X4401Y-28953D01*
X4405Y-29041D01*
X4428Y-29091D01*
Y-34099D01*
X4404Y-34152D01*
X4401Y-34285D01*
X4392Y-34381D01*
X4382Y-34442D01*
X1500D01*
Y-53158D01*
X7500D01*
Y-34442D01*
X6296D01*
X6286Y-34381D01*
X6277Y-34285D01*
X6274Y-34152D01*
X6250Y-34099D01*
Y-29091D01*
X6273Y-29041D01*
X6277Y-28953D01*
X6284Y-28891D01*
X6297Y-28831D01*
X6314Y-28773D01*
X6336Y-28717D01*
X6364Y-28660D01*
X6398Y-28603D01*
X6439Y-28546D01*
X6488Y-28487D01*
X6557Y-28414D01*
X6571Y-28380D01*
X6923Y-27853D01*
X7053Y-27197D01*
X6923Y-26541D01*
X6551Y-25985D01*
X5995Y-25614D01*
X5339Y-25483D01*
D02*
G37*
G36*
X67787Y-44391D02*
X65091D01*
Y-53446D01*
X67787D01*
Y-44391D01*
D02*
G37*
G36*
X63910D02*
X61213D01*
Y-53446D01*
X63910D01*
Y-44391D01*
D02*
G37*
G36*
X108858Y-51389D02*
Y-62402D01*
X119871D01*
X119774Y-61170D01*
X119348Y-59392D01*
X118648Y-57703D01*
X117693Y-56144D01*
X116506Y-54754D01*
X115115Y-53567D01*
X113557Y-52612D01*
X111868Y-51912D01*
X110090Y-51486D01*
X108858Y-51389D01*
D02*
G37*
G36*
X107677D02*
X106445Y-51486D01*
X104668Y-51912D01*
X102979Y-52612D01*
X101420Y-53567D01*
X100030Y-54754D01*
X98843Y-56144D01*
X97887Y-57703D01*
X97188Y-59392D01*
X96761Y-61170D01*
X96664Y-62402D01*
X107677D01*
Y-51389D01*
D02*
G37*
G36*
X-118504Y-59907D02*
X-119302Y-60012D01*
X-120047Y-60320D01*
X-120686Y-60810D01*
X-121176Y-61449D01*
X-121484Y-62194D01*
X-121589Y-62992D01*
X-121484Y-63791D01*
X-121176Y-64535D01*
X-120686Y-65174D01*
X-120047Y-65664D01*
X-119302Y-65973D01*
X-118504Y-66078D01*
X-117705Y-65973D01*
X-116961Y-65664D01*
X-116322Y-65174D01*
X-115832Y-64535D01*
X-115524Y-63791D01*
X-115419Y-62992D01*
X-115524Y-62194D01*
X-115832Y-61449D01*
X-116322Y-60810D01*
X-116961Y-60320D01*
X-117705Y-60012D01*
X-118504Y-59907D01*
D02*
G37*
G36*
X119871Y-63583D02*
X108858D01*
Y-74596D01*
X110090Y-74499D01*
X111868Y-74072D01*
X113557Y-73372D01*
X115115Y-72417D01*
X116506Y-71230D01*
X117693Y-69840D01*
X118648Y-68281D01*
X119348Y-66592D01*
X119774Y-64815D01*
X119871Y-63583D01*
D02*
G37*
G36*
X107677D02*
X96664D01*
X96761Y-64815D01*
X97188Y-66592D01*
X97887Y-68281D01*
X98843Y-69840D01*
X100030Y-71230D01*
X101420Y-72417D01*
X102979Y-73372D01*
X104668Y-74072D01*
X106445Y-74499D01*
X107677Y-74596D01*
Y-63583D01*
D02*
G37*
G36*
X-121653Y-77935D02*
X-122310Y-78066D01*
X-122865Y-78437D01*
X-123237Y-78993D01*
X-123368Y-79649D01*
X-123237Y-80305D01*
X-122865Y-80861D01*
X-122310Y-81233D01*
X-121653Y-81363D01*
X-120998Y-81233D01*
X-120441Y-80861D01*
X-120070Y-80305D01*
X-119939Y-79649D01*
X-120070Y-78993D01*
X-120441Y-78437D01*
X-120998Y-78066D01*
X-121653Y-77935D01*
D02*
G37*
G36*
X47500Y-59639D02*
X41500D01*
Y-78355D01*
X43643D01*
X43652Y-78410D01*
X43661Y-78509D01*
X43665Y-78645D01*
X43688Y-78697D01*
Y-79522D01*
X43665Y-79572D01*
X43661Y-79660D01*
X43654Y-79722D01*
X43641Y-79782D01*
X43624Y-79839D01*
X43602Y-79896D01*
X43574Y-79953D01*
X43540Y-80010D01*
X43499Y-80067D01*
X43450Y-80126D01*
X43381Y-80199D01*
X43368Y-80233D01*
X43016Y-80760D01*
X42885Y-81416D01*
X43016Y-82072D01*
X43387Y-82628D01*
X43943Y-82999D01*
X44599Y-83130D01*
X45255Y-82999D01*
X45811Y-82628D01*
X46183Y-82072D01*
X46313Y-81416D01*
X46183Y-80760D01*
X45831Y-80233D01*
X45818Y-80199D01*
X45748Y-80126D01*
X45700Y-80067D01*
X45659Y-80010D01*
X45625Y-79953D01*
X45597Y-79896D01*
X45574Y-79839D01*
X45557Y-79782D01*
X45545Y-79722D01*
X45537Y-79660D01*
X45534Y-79572D01*
X45511Y-79522D01*
Y-78697D01*
X45534Y-78645D01*
X45537Y-78509D01*
X45546Y-78410D01*
X45555Y-78355D01*
X47500D01*
Y-59639D01*
D02*
G37*
%LPD*%
G36*
X-57957Y81317D02*
X-57965Y81392D01*
X-57989Y81458D01*
X-58029Y81518D01*
X-58085Y81569D01*
X-58157Y81612D01*
X-58245Y81647D01*
X-58349Y81675D01*
X-58469Y81695D01*
X-58605Y81707D01*
X-58757Y81710D01*
Y82498D01*
X-58605Y82502D01*
X-58469Y82514D01*
X-58349Y82533D01*
X-58245Y82561D01*
X-58157Y82596D01*
X-58085Y82640D01*
X-58029Y82691D01*
X-57989Y82750D01*
X-57965Y82817D01*
X-57957Y82892D01*
Y81317D01*
D02*
G37*
G36*
X-63705Y82822D02*
X-63609Y82754D01*
X-63512Y82694D01*
X-63413Y82642D01*
X-63313Y82598D01*
X-63210Y82562D01*
X-63107Y82534D01*
X-63002Y82514D01*
X-62895Y82502D01*
X-62787Y82498D01*
X-62713Y81710D01*
X-62824Y81706D01*
X-62931Y81692D01*
X-63035Y81669D01*
X-63134Y81637D01*
X-63230Y81596D01*
X-63322Y81545D01*
X-63411Y81485D01*
X-63496Y81416D01*
X-63577Y81338D01*
X-63654Y81251D01*
X-63800Y82898D01*
X-63705Y82822D01*
D02*
G37*
G36*
X-62662Y72172D02*
X-62637Y72146D01*
X-62601Y72123D01*
X-62555Y72103D01*
X-62497Y72086D01*
X-62429Y72072D01*
X-62351Y72061D01*
X-62161Y72049D01*
X-62050Y72047D01*
Y71260D01*
X-62161Y71258D01*
X-62429Y71235D01*
X-62497Y71221D01*
X-62555Y71204D01*
X-62601Y71184D01*
X-62637Y71161D01*
X-62662Y71135D01*
X-62676Y71105D01*
Y72202D01*
X-62662Y72172D01*
D02*
G37*
G36*
X-73303Y69809D02*
X-73370Y69758D01*
X-73429Y69695D01*
X-73480Y69621D01*
X-73524Y69535D01*
X-73559Y69439D01*
X-73587Y69330D01*
X-73606Y69211D01*
X-73618Y69080D01*
X-73622Y68937D01*
X-74410D01*
X-74414Y69080D01*
X-74425Y69211D01*
X-74445Y69330D01*
X-74472Y69439D01*
X-74508Y69535D01*
X-74551Y69621D01*
X-74603Y69695D01*
X-74661Y69758D01*
X-74728Y69809D01*
X-74803Y69849D01*
X-73228D01*
X-73303Y69809D01*
D02*
G37*
G36*
X-60625Y67461D02*
X-60612Y67354D01*
X-60591Y67249D01*
X-60561Y67147D01*
X-60522Y67048D01*
X-60474Y66952D01*
X-60418Y66858D01*
X-60353Y66766D01*
X-60279Y66678D01*
X-60197Y66591D01*
X-61850D01*
X-61768Y66678D01*
X-61694Y66766D01*
X-61629Y66858D01*
X-61573Y66952D01*
X-61525Y67048D01*
X-61487Y67147D01*
X-61456Y67249D01*
X-61435Y67354D01*
X-61422Y67461D01*
X-61417Y67570D01*
X-60630D01*
X-60625Y67461D01*
D02*
G37*
G36*
X-65364Y65513D02*
X-65370Y65525D01*
X-65383Y65536D01*
X-65404Y65545D01*
X-65432Y65553D01*
X-65467Y65560D01*
X-65509Y65566D01*
X-65615Y65574D01*
X-65750Y65576D01*
Y66364D01*
X-65195Y66393D01*
X-65364Y65513D01*
D02*
G37*
G36*
X-81208Y63908D02*
X-81112Y63840D01*
X-81015Y63780D01*
X-80917Y63727D01*
X-80816Y63683D01*
X-80714Y63647D01*
X-80611Y63619D01*
X-80506Y63599D01*
X-80399Y63587D01*
X-80291Y63583D01*
X-80221Y62795D01*
X-80332Y62791D01*
X-80439Y62777D01*
X-80543Y62754D01*
X-80642Y62722D01*
X-80739Y62681D01*
X-80831Y62630D01*
X-80920Y62571D01*
X-81005Y62502D01*
X-81086Y62424D01*
X-81164Y62337D01*
X-81302Y63985D01*
X-81208Y63908D01*
D02*
G37*
G36*
X-58224Y61928D02*
X-58232Y62002D01*
X-58256Y62069D01*
X-58296Y62129D01*
X-58352Y62180D01*
X-58424Y62223D01*
X-58512Y62258D01*
X-58616Y62286D01*
X-58736Y62306D01*
X-58872Y62318D01*
X-59023Y62321D01*
Y63109D01*
X-58872Y63113D01*
X-58736Y63125D01*
X-58616Y63144D01*
X-58512Y63172D01*
X-58424Y63207D01*
X-58352Y63250D01*
X-58296Y63302D01*
X-58256Y63361D01*
X-58232Y63428D01*
X-58224Y63503D01*
Y61928D01*
D02*
G37*
G36*
X27199Y66457D02*
X27247Y66389D01*
X27307Y66329D01*
X27379Y66277D01*
X27463Y66233D01*
X27558Y66197D01*
X27665Y66169D01*
X27784Y66149D01*
X27914Y66137D01*
X28057Y66133D01*
X28021Y65346D01*
X27879Y65342D01*
X27747Y65330D01*
X27627Y65311D01*
X27517Y65284D01*
X27419Y65249D01*
X27332Y65207D01*
X27255Y65157D01*
X27190Y65099D01*
X27136Y65033D01*
X27092Y64960D01*
X27162Y66533D01*
X27199Y66457D01*
D02*
G37*
G36*
X36155Y64868D02*
X36086Y64959D01*
X36013Y65040D01*
X35934Y65112D01*
X35851Y65174D01*
X35763Y65226D01*
X35671Y65269D01*
X35573Y65303D01*
X35471Y65327D01*
X35364Y65341D01*
X35252Y65346D01*
X35395Y66133D01*
X35502Y66137D01*
X35608Y66148D01*
X35713Y66166D01*
X35818Y66192D01*
X35922Y66224D01*
X36026Y66264D01*
X36128Y66312D01*
X36231Y66366D01*
X36332Y66428D01*
X36433Y66498D01*
X36155Y64868D01*
D02*
G37*
G36*
X-33739Y83310D02*
X-33648Y83238D01*
X-33554Y83175D01*
X-33459Y83120D01*
X-33360Y83073D01*
X-33260Y83035D01*
X-33158Y83006D01*
X-33053Y82985D01*
X-32946Y82972D01*
X-32837Y82968D01*
X-32811Y82180D01*
X-32921Y82176D01*
X-33028Y82163D01*
X-33132Y82140D01*
X-33233Y82109D01*
X-33331Y82070D01*
X-33426Y82021D01*
X-33518Y81963D01*
X-33608Y81897D01*
X-33694Y81821D01*
X-33777Y81737D01*
X-33829Y83390D01*
X-33739Y83310D01*
D02*
G37*
G36*
X68398Y69915D02*
X68410Y69779D01*
X68429Y69659D01*
X68457Y69555D01*
X68492Y69467D01*
X68535Y69395D01*
X68587Y69339D01*
X68646Y69299D01*
X68713Y69275D01*
X68787Y69267D01*
X67213D01*
X67287Y69275D01*
X67354Y69299D01*
X67413Y69339D01*
X67465Y69395D01*
X67508Y69467D01*
X67543Y69555D01*
X67571Y69659D01*
X67590Y69779D01*
X67602Y69915D01*
X67606Y70067D01*
X68394D01*
X68398Y69915D01*
D02*
G37*
G36*
X-31137Y79994D02*
X-31049Y79921D01*
X-30957Y79856D01*
X-30863Y79799D01*
X-30767Y79752D01*
X-30667Y79713D01*
X-30566Y79682D01*
X-30461Y79661D01*
X-30354Y79648D01*
X-30245Y79643D01*
X-30245Y78856D01*
X-30354Y78852D01*
X-30461Y78839D01*
X-30566Y78817D01*
X-30667Y78787D01*
X-30767Y78748D01*
X-30863Y78700D01*
X-30957Y78644D01*
X-31049Y78579D01*
X-31137Y78505D01*
X-31223Y78423D01*
X-31224Y80076D01*
X-31137Y79994D01*
D02*
G37*
G36*
X63398Y69915D02*
X63410Y69779D01*
X63429Y69659D01*
X63457Y69555D01*
X63492Y69467D01*
X63535Y69395D01*
X63587Y69339D01*
X63646Y69299D01*
X63713Y69275D01*
X63787Y69267D01*
X62213D01*
X62287Y69275D01*
X62354Y69299D01*
X62413Y69339D01*
X62465Y69395D01*
X62508Y69467D01*
X62543Y69555D01*
X62571Y69659D01*
X62590Y69779D01*
X62602Y69915D01*
X62606Y70067D01*
X63394D01*
X63398Y69915D01*
D02*
G37*
G36*
X-49127Y82817D02*
X-49103Y82750D01*
X-49064Y82691D01*
X-49009Y82640D01*
X-48938Y82596D01*
X-48851Y82561D01*
X-48749Y82533D01*
X-48631Y82514D01*
X-48497Y82502D01*
X-48348Y82498D01*
Y81710D01*
X-48497Y81707D01*
X-48631Y81695D01*
X-48749Y81675D01*
X-48851Y81647D01*
X-48938Y81612D01*
X-49009Y81569D01*
X-49064Y81518D01*
X-49103Y81458D01*
X-49127Y81392D01*
X-49135Y81317D01*
Y82892D01*
X-49127Y82817D01*
D02*
G37*
G36*
X-41038Y79100D02*
X-41112Y79011D01*
X-41177Y78920D01*
X-41233Y78825D01*
X-41281Y78729D01*
X-41320Y78630D01*
X-41350Y78528D01*
X-41372Y78424D01*
X-41385Y78317D01*
X-41389Y78207D01*
X-42177D01*
X-42181Y78317D01*
X-42194Y78424D01*
X-42216Y78528D01*
X-42246Y78630D01*
X-42285Y78729D01*
X-42333Y78825D01*
X-42389Y78920D01*
X-42454Y79011D01*
X-42527Y79100D01*
X-42610Y79186D01*
X-40956D01*
X-41038Y79100D01*
D02*
G37*
G36*
X-36675Y69915D02*
X-36663Y69779D01*
X-36644Y69659D01*
X-36616Y69555D01*
X-36581Y69467D01*
X-36538Y69395D01*
X-36486Y69339D01*
X-36427Y69299D01*
X-36360Y69275D01*
X-36285Y69267D01*
X-37860D01*
X-37786Y69275D01*
X-37719Y69299D01*
X-37659Y69339D01*
X-37608Y69395D01*
X-37565Y69467D01*
X-37530Y69555D01*
X-37502Y69659D01*
X-37482Y69779D01*
X-37470Y69915D01*
X-37467Y70067D01*
X-36679D01*
X-36675Y69915D01*
D02*
G37*
G36*
X-41385D02*
X-41374Y69779D01*
X-41354Y69659D01*
X-41326Y69555D01*
X-41291Y69467D01*
X-41247Y69395D01*
X-41196Y69339D01*
X-41137Y69299D01*
X-41070Y69275D01*
X-40995Y69267D01*
X-42570D01*
X-42496Y69275D01*
X-42429Y69299D01*
X-42369Y69339D01*
X-42318Y69395D01*
X-42275Y69467D01*
X-42240Y69555D01*
X-42212Y69659D01*
X-42192Y69779D01*
X-42180Y69915D01*
X-42177Y70067D01*
X-41389D01*
X-41385Y69915D01*
D02*
G37*
G36*
X46500Y62536D02*
X46492Y62611D01*
X46468Y62678D01*
X46428Y62737D01*
X46373Y62788D01*
X46301Y62831D01*
X46213Y62867D01*
X46109Y62894D01*
X45989Y62914D01*
X45853Y62926D01*
X45701Y62930D01*
Y63717D01*
X45853Y63721D01*
X45989Y63733D01*
X46109Y63753D01*
X46213Y63780D01*
X46301Y63816D01*
X46373Y63859D01*
X46428Y63910D01*
X46468Y63969D01*
X46492Y64036D01*
X46500Y64111D01*
Y62536D01*
D02*
G37*
G36*
X44141Y64068D02*
X44229Y63994D01*
X44321Y63929D01*
X44415Y63873D01*
X44511Y63826D01*
X44611Y63787D01*
X44712Y63756D01*
X44817Y63735D01*
X44924Y63722D01*
X45033Y63717D01*
Y62930D01*
X44924Y62926D01*
X44817Y62913D01*
X44712Y62891D01*
X44611Y62861D01*
X44511Y62822D01*
X44415Y62774D01*
X44321Y62718D01*
X44229Y62653D01*
X44141Y62579D01*
X44054Y62497D01*
Y64150D01*
X44141Y64068D01*
D02*
G37*
G36*
X38035Y59700D02*
X37962Y59611D01*
X37896Y59520D01*
X37840Y59426D01*
X37793Y59329D01*
X37754Y59230D01*
X37723Y59128D01*
X37702Y59024D01*
X37689Y58917D01*
X37684Y58808D01*
X36897D01*
X36893Y58917D01*
X36880Y59024D01*
X36858Y59128D01*
X36828Y59230D01*
X36789Y59329D01*
X36741Y59426D01*
X36685Y59520D01*
X36620Y59611D01*
X36546Y59700D01*
X36464Y59786D01*
X38117D01*
X38035Y59700D01*
D02*
G37*
G36*
X53575Y57091D02*
X53509Y57067D01*
X53449Y57028D01*
X53398Y56973D01*
X53355Y56902D01*
X53320Y56815D01*
X53292Y56713D01*
X53272Y56595D01*
X53261Y56461D01*
X53257Y56311D01*
X52469D01*
X52465Y56461D01*
X52454Y56595D01*
X52434Y56713D01*
X52406Y56815D01*
X52371Y56902D01*
X52328Y56973D01*
X52276Y57028D01*
X52217Y57067D01*
X52150Y57091D01*
X52075Y57099D01*
X53650D01*
X53575Y57091D01*
D02*
G37*
G36*
X-51157D02*
X-51224Y57067D01*
X-51284Y57028D01*
X-51335Y56973D01*
X-51378Y56902D01*
X-51413Y56815D01*
X-51441Y56713D01*
X-51461Y56595D01*
X-51472Y56461D01*
X-51476Y56311D01*
X-52264D01*
X-52268Y56461D01*
X-52280Y56595D01*
X-52299Y56713D01*
X-52327Y56815D01*
X-52362Y56902D01*
X-52406Y56973D01*
X-52457Y57028D01*
X-52516Y57067D01*
X-52583Y57091D01*
X-52658Y57099D01*
X-51083D01*
X-51157Y57091D01*
D02*
G37*
G36*
X-86472Y55173D02*
X-86383Y55099D01*
X-86292Y55034D01*
X-86198Y54978D01*
X-86101Y54930D01*
X-86002Y54891D01*
X-85900Y54861D01*
X-85796Y54839D01*
X-85689Y54826D01*
X-85579Y54822D01*
Y54034D01*
X-85689Y54030D01*
X-85796Y54017D01*
X-85900Y53995D01*
X-86002Y53965D01*
X-86101Y53926D01*
X-86198Y53878D01*
X-86292Y53822D01*
X-86383Y53757D01*
X-86472Y53684D01*
X-86558Y53601D01*
Y55255D01*
X-86472Y55173D01*
D02*
G37*
G36*
X-51224Y47212D02*
X-51298Y47123D01*
X-51363Y47032D01*
X-51419Y46938D01*
X-51467Y46841D01*
X-51506Y46742D01*
X-51536Y46640D01*
X-51557Y46536D01*
X-51570Y46429D01*
X-51575Y46319D01*
X-52362D01*
X-52367Y46429D01*
X-52380Y46536D01*
X-52401Y46640D01*
X-52431Y46742D01*
X-52470Y46841D01*
X-52518Y46938D01*
X-52574Y47032D01*
X-52639Y47123D01*
X-52713Y47212D01*
X-52795Y47298D01*
X-51142D01*
X-51224Y47212D01*
D02*
G37*
G36*
X-54374Y45434D02*
X-54447Y45345D01*
X-54512Y45254D01*
X-54568Y45160D01*
X-54616Y45063D01*
X-54655Y44964D01*
X-54685Y44862D01*
X-54707Y44758D01*
X-54720Y44651D01*
X-54724Y44541D01*
X-55512D01*
X-55516Y44651D01*
X-55529Y44758D01*
X-55551Y44862D01*
X-55581Y44964D01*
X-55620Y45063D01*
X-55668Y45160D01*
X-55724Y45254D01*
X-55789Y45345D01*
X-55863Y45434D01*
X-55945Y45520D01*
X-54291D01*
X-54374Y45434D01*
D02*
G37*
G36*
X-51472Y32029D02*
X-51387Y31964D01*
X-51300Y31913D01*
X-51213Y31875D01*
X-51126Y31850D01*
X-51038Y31839D01*
X-50949Y31841D01*
X-50860Y31857D01*
X-50770Y31886D01*
X-50680Y31929D01*
X-51182Y30382D01*
X-51227Y30471D01*
X-51327Y30647D01*
X-51382Y30733D01*
X-51568Y30983D01*
X-51637Y31064D01*
X-51786Y31222D01*
X-51557Y32107D01*
X-51472Y32029D01*
D02*
G37*
G36*
X-51029Y21220D02*
X-51115Y21303D01*
X-51204Y21376D01*
X-51295Y21441D01*
X-51389Y21498D01*
X-51486Y21545D01*
X-51585Y21584D01*
X-51687Y21615D01*
X-51791Y21636D01*
X-51898Y21649D01*
X-52008Y21654D01*
X-52008Y22441D01*
X-51898Y22445D01*
X-51791Y22458D01*
X-51687Y22480D01*
X-51585Y22510D01*
X-51486Y22549D01*
X-51389Y22597D01*
X-51295Y22653D01*
X-51204Y22718D01*
X-51115Y22792D01*
X-51029Y22874D01*
X-51029Y21220D01*
D02*
G37*
G36*
X73713Y57091D02*
X73646Y57067D01*
X73587Y57028D01*
X73535Y56973D01*
X73492Y56902D01*
X73457Y56815D01*
X73429Y56713D01*
X73409Y56595D01*
X73398Y56461D01*
X73394Y56311D01*
X72606D01*
X72602Y56461D01*
X72591Y56595D01*
X72571Y56713D01*
X72543Y56815D01*
X72508Y56902D01*
X72465Y56973D01*
X72413Y57028D01*
X72354Y57067D01*
X72287Y57091D01*
X72213Y57099D01*
X73787D01*
X73713Y57091D01*
D02*
G37*
G36*
X58713D02*
X58646Y57067D01*
X58587Y57028D01*
X58535Y56973D01*
X58492Y56902D01*
X58457Y56815D01*
X58429Y56713D01*
X58410Y56595D01*
X58398Y56461D01*
X58394Y56311D01*
X57606D01*
X57602Y56461D01*
X57591Y56595D01*
X57571Y56713D01*
X57543Y56815D01*
X57508Y56902D01*
X57465Y56973D01*
X57413Y57028D01*
X57354Y57067D01*
X57287Y57091D01*
X57213Y57099D01*
X58787D01*
X58713Y57091D01*
D02*
G37*
G36*
X-645Y46444D02*
X-556Y46371D01*
X-465Y46306D01*
X-371Y46250D01*
X-274Y46202D01*
X-175Y46163D01*
X-74Y46133D01*
X31Y46111D01*
X138Y46098D01*
X247Y46094D01*
Y45306D01*
X138Y45302D01*
X31Y45289D01*
X-74Y45267D01*
X-175Y45237D01*
X-274Y45198D01*
X-371Y45150D01*
X-465Y45094D01*
X-556Y45029D01*
X-645Y44956D01*
X-731Y44873D01*
Y46527D01*
X-645Y46444D01*
D02*
G37*
G36*
X-6551Y43470D02*
X-6462Y43396D01*
X-6370Y43331D01*
X-6277Y43275D01*
X-6180Y43227D01*
X-6081Y43188D01*
X-5979Y43158D01*
X-5875Y43136D01*
X-5768Y43123D01*
X-5658Y43119D01*
Y42332D01*
X-5768Y42327D01*
X-5875Y42314D01*
X-5979Y42293D01*
X-6081Y42262D01*
X-6180Y42223D01*
X-6277Y42176D01*
X-6370Y42120D01*
X-6462Y42055D01*
X-6551Y41981D01*
X-6637Y41899D01*
Y43552D01*
X-6551Y43470D01*
D02*
G37*
G36*
X-46342Y57091D02*
X-46409Y57067D01*
X-46468Y57028D01*
X-46519Y56973D01*
X-46562Y56902D01*
X-46598Y56815D01*
X-46625Y56713D01*
X-46645Y56595D01*
X-46657Y56461D01*
X-46661Y56311D01*
X-47448D01*
X-47452Y56461D01*
X-47464Y56595D01*
X-47483Y56713D01*
X-47511Y56815D01*
X-47546Y56902D01*
X-47590Y56973D01*
X-47641Y57028D01*
X-47700Y57067D01*
X-47767Y57091D01*
X-47842Y57099D01*
X-46267D01*
X-46342Y57091D01*
D02*
G37*
G36*
X-46656Y46020D02*
X-46643Y45913D01*
X-46622Y45809D01*
X-46591Y45707D01*
X-46552Y45608D01*
X-46505Y45511D01*
X-46448Y45417D01*
X-46383Y45326D01*
X-46310Y45237D01*
X-46227Y45151D01*
X-47881D01*
X-47799Y45237D01*
X-47725Y45326D01*
X-47660Y45417D01*
X-47604Y45511D01*
X-47556Y45608D01*
X-47517Y45707D01*
X-47487Y45809D01*
X-47465Y45913D01*
X-47452Y46020D01*
X-47448Y46129D01*
X-46661D01*
X-46656Y46020D01*
D02*
G37*
G36*
X-31157Y57091D02*
X-31224Y57067D01*
X-31284Y57028D01*
X-31335Y56973D01*
X-31378Y56902D01*
X-31413Y56815D01*
X-31441Y56713D01*
X-31461Y56595D01*
X-31472Y56461D01*
X-31476Y56311D01*
X-32264D01*
X-32268Y56461D01*
X-32280Y56595D01*
X-32299Y56713D01*
X-32327Y56815D01*
X-32362Y56902D01*
X-32405Y56973D01*
X-32457Y57028D01*
X-32516Y57067D01*
X-32583Y57091D01*
X-32658Y57099D01*
X-31083D01*
X-31157Y57091D01*
D02*
G37*
G36*
X-46136Y38444D02*
X-46044Y38373D01*
X-45950Y38310D01*
X-45853Y38256D01*
X-45755Y38210D01*
X-45654Y38172D01*
X-45552Y38143D01*
X-45447Y38122D01*
X-45340Y38109D01*
X-45231Y38105D01*
X-45198Y37318D01*
X-45308Y37313D01*
X-45415Y37300D01*
X-45519Y37277D01*
X-45620Y37246D01*
X-45718Y37206D01*
X-45813Y37157D01*
X-45904Y37099D01*
X-45993Y37032D01*
X-46078Y36957D01*
X-46160Y36872D01*
X-46226Y38524D01*
X-46136Y38444D01*
D02*
G37*
G36*
X-30982Y46845D02*
X-31056Y46756D01*
X-31121Y46665D01*
X-31177Y46571D01*
X-31225Y46474D01*
X-31264Y46375D01*
X-31294Y46273D01*
X-31316Y46169D01*
X-31329Y46062D01*
X-31333Y45953D01*
X-32121D01*
X-32125Y46062D01*
X-32138Y46169D01*
X-32160Y46273D01*
X-32190Y46375D01*
X-32229Y46474D01*
X-32276Y46571D01*
X-32333Y46665D01*
X-32398Y46756D01*
X-32471Y46845D01*
X-32554Y46931D01*
X-30900D01*
X-30982Y46845D01*
D02*
G37*
G36*
X-31329Y40689D02*
X-31316Y40582D01*
X-31294Y40478D01*
X-31264Y40376D01*
X-31225Y40277D01*
X-31177Y40180D01*
X-31121Y40086D01*
X-31056Y39995D01*
X-30982Y39906D01*
X-30900Y39820D01*
X-32554D01*
X-32471Y39906D01*
X-32398Y39995D01*
X-32333Y40086D01*
X-32276Y40180D01*
X-32229Y40277D01*
X-32190Y40376D01*
X-32160Y40478D01*
X-32138Y40582D01*
X-32125Y40689D01*
X-32121Y40799D01*
X-31333D01*
X-31329Y40689D01*
D02*
G37*
G36*
X83713Y57091D02*
X83646Y57067D01*
X83587Y57028D01*
X83535Y56973D01*
X83492Y56902D01*
X83457Y56815D01*
X83429Y56713D01*
X83410Y56595D01*
X83398Y56461D01*
X83394Y56311D01*
X82606D01*
X82602Y56461D01*
X82591Y56595D01*
X82571Y56713D01*
X82543Y56815D01*
X82508Y56902D01*
X82465Y56973D01*
X82413Y57028D01*
X82354Y57067D01*
X82287Y57091D01*
X82213Y57099D01*
X83787D01*
X83713Y57091D01*
D02*
G37*
G36*
X78713D02*
X78646Y57067D01*
X78587Y57028D01*
X78535Y56973D01*
X78492Y56902D01*
X78457Y56815D01*
X78429Y56713D01*
X78409Y56595D01*
X78398Y56461D01*
X78394Y56311D01*
X77606D01*
X77602Y56461D01*
X77591Y56595D01*
X77571Y56713D01*
X77543Y56815D01*
X77508Y56902D01*
X77465Y56973D01*
X77413Y57028D01*
X77354Y57067D01*
X77287Y57091D01*
X77213Y57099D01*
X78787D01*
X78713Y57091D01*
D02*
G37*
G36*
X-11669Y39721D02*
X-11580Y39647D01*
X-11489Y39582D01*
X-11395Y39526D01*
X-11298Y39478D01*
X-11199Y39439D01*
X-11097Y39409D01*
X-10993Y39387D01*
X-10886Y39374D01*
X-10776Y39370D01*
X-10776Y38583D01*
X-10886Y38578D01*
X-10993Y38565D01*
X-11097Y38544D01*
X-11199Y38513D01*
X-11298Y38474D01*
X-11395Y38427D01*
X-11489Y38370D01*
X-11580Y38306D01*
X-11669Y38232D01*
X-11755Y38150D01*
X-11755Y39803D01*
X-11669Y39721D01*
D02*
G37*
G36*
X-17288Y36841D02*
X-17214Y36760D01*
X-17135Y36689D01*
X-17052Y36627D01*
X-16963Y36574D01*
X-16870Y36531D01*
X-16773Y36498D01*
X-16670Y36474D01*
X-16563Y36460D01*
X-16451Y36455D01*
X-16590Y35667D01*
X-16696Y35664D01*
X-16802Y35653D01*
X-16907Y35634D01*
X-17012Y35609D01*
X-17116Y35576D01*
X-17219Y35535D01*
X-17322Y35488D01*
X-17424Y35432D01*
X-17525Y35370D01*
X-17626Y35300D01*
X-17357Y36932D01*
X-17288Y36841D01*
D02*
G37*
G36*
X-36155Y46845D02*
X-36228Y46756D01*
X-36293Y46665D01*
X-36350Y46571D01*
X-36397Y46474D01*
X-36436Y46375D01*
X-36467Y46273D01*
X-36488Y46169D01*
X-36501Y46062D01*
X-36505Y45953D01*
X-37293D01*
X-37297Y46062D01*
X-37310Y46169D01*
X-37332Y46273D01*
X-37362Y46375D01*
X-37401Y46474D01*
X-37449Y46571D01*
X-37505Y46665D01*
X-37570Y46756D01*
X-37644Y46845D01*
X-37726Y46931D01*
X-36072D01*
X-36155Y46845D01*
D02*
G37*
G36*
X-36501Y37966D02*
X-36488Y37859D01*
X-36467Y37754D01*
X-36436Y37653D01*
X-36397Y37554D01*
X-36350Y37457D01*
X-36293Y37363D01*
X-36228Y37272D01*
X-36155Y37183D01*
X-36072Y37097D01*
X-37726D01*
X-37644Y37183D01*
X-37570Y37272D01*
X-37505Y37363D01*
X-37449Y37457D01*
X-37401Y37554D01*
X-37362Y37653D01*
X-37332Y37754D01*
X-37310Y37859D01*
X-37297Y37966D01*
X-37293Y38075D01*
X-36505D01*
X-36501Y37966D01*
D02*
G37*
G36*
X-26059Y57091D02*
X-26126Y57067D01*
X-26185Y57028D01*
X-26236Y56973D01*
X-26280Y56902D01*
X-26315Y56815D01*
X-26342Y56713D01*
X-26362Y56595D01*
X-26374Y56461D01*
X-26378Y56311D01*
X-27165D01*
X-27169Y56461D01*
X-27181Y56595D01*
X-27201Y56713D01*
X-27228Y56815D01*
X-27264Y56902D01*
X-27307Y56973D01*
X-27358Y57028D01*
X-27417Y57067D01*
X-27484Y57091D01*
X-27559Y57099D01*
X-25984D01*
X-26059Y57091D01*
D02*
G37*
G36*
X-26374Y32604D02*
X-26361Y32497D01*
X-26339Y32392D01*
X-26309Y32291D01*
X-26270Y32191D01*
X-26222Y32095D01*
X-26166Y32001D01*
X-26101Y31909D01*
X-26027Y31821D01*
X-25945Y31734D01*
X-27598D01*
X-27516Y31821D01*
X-27442Y31909D01*
X-27378Y32001D01*
X-27321Y32095D01*
X-27274Y32191D01*
X-27235Y32291D01*
X-27204Y32392D01*
X-27183Y32497D01*
X-27170Y32604D01*
X-27165Y32713D01*
X-26378D01*
X-26374Y32604D01*
D02*
G37*
G36*
X-65115Y47773D02*
X-65225Y47828D01*
X-65443Y47920D01*
X-65551Y47958D01*
X-65764Y48016D01*
X-65870Y48036D01*
X-65975Y48051D01*
X-66079Y48059D01*
X-66182Y48062D01*
X-66456Y48850D01*
X-66343Y48855D01*
X-66236Y48869D01*
X-66136Y48894D01*
X-66042Y48929D01*
X-65956Y48974D01*
X-65876Y49029D01*
X-65803Y49093D01*
X-65736Y49168D01*
X-65676Y49252D01*
X-65623Y49346D01*
X-65115Y47773D01*
D02*
G37*
G36*
X-61171Y47642D02*
X-61291Y47614D01*
X-61516Y47543D01*
X-61621Y47499D01*
X-61722Y47452D01*
X-61818Y47399D01*
X-61909Y47341D01*
X-61995Y47279D01*
X-62077Y47211D01*
X-62154Y47139D01*
X-62844Y47563D01*
X-62768Y47646D01*
X-62703Y47732D01*
X-62648Y47821D01*
X-62604Y47913D01*
X-62571Y48008D01*
X-62549Y48106D01*
X-62537Y48207D01*
X-62537Y48311D01*
X-62546Y48418D01*
X-62567Y48528D01*
X-61171Y47642D01*
D02*
G37*
G36*
X-57523Y47868D02*
X-57597Y47779D01*
X-57662Y47688D01*
X-57718Y47594D01*
X-57766Y47497D01*
X-57805Y47398D01*
X-57835Y47296D01*
X-57857Y47192D01*
X-57870Y47085D01*
X-57874Y46975D01*
X-58662D01*
X-58666Y47085D01*
X-58679Y47192D01*
X-58701Y47296D01*
X-58731Y47398D01*
X-58770Y47497D01*
X-58817Y47594D01*
X-58874Y47688D01*
X-58939Y47779D01*
X-59012Y47868D01*
X-59095Y47954D01*
X-57441D01*
X-57523Y47868D01*
D02*
G37*
G36*
X-84021Y38778D02*
X-83969Y38711D01*
X-83906Y38652D01*
X-83832Y38601D01*
X-83747Y38557D01*
X-83650Y38522D01*
X-83542Y38494D01*
X-83422Y38475D01*
X-83291Y38463D01*
X-83149Y38459D01*
Y37672D01*
X-83291Y37668D01*
X-83422Y37656D01*
X-83542Y37636D01*
X-83650Y37609D01*
X-83747Y37573D01*
X-83832Y37530D01*
X-83906Y37479D01*
X-83969Y37420D01*
X-84021Y37353D01*
X-84061Y37278D01*
Y38853D01*
X-84021Y38778D01*
D02*
G37*
G36*
X-84345Y32029D02*
X-84294Y31962D01*
X-84231Y31903D01*
X-84157Y31852D01*
X-84071Y31809D01*
X-83975Y31773D01*
X-83866Y31746D01*
X-83747Y31726D01*
X-83616Y31714D01*
X-83473Y31710D01*
Y30923D01*
X-83616Y30919D01*
X-83747Y30907D01*
X-83866Y30888D01*
X-83975Y30860D01*
X-84071Y30825D01*
X-84157Y30781D01*
X-84231Y30730D01*
X-84294Y30671D01*
X-84345Y30604D01*
X-84385Y30529D01*
Y32104D01*
X-84345Y32029D01*
D02*
G37*
G36*
X-57870Y26910D02*
X-57857Y26803D01*
X-57835Y26698D01*
X-57805Y26596D01*
X-57766Y26497D01*
X-57718Y26401D01*
X-57662Y26307D01*
X-57597Y26215D01*
X-57523Y26127D01*
X-57441Y26040D01*
X-59095D01*
X-59012Y26127D01*
X-58939Y26215D01*
X-58874Y26307D01*
X-58817Y26401D01*
X-58770Y26497D01*
X-58731Y26596D01*
X-58701Y26698D01*
X-58679Y26803D01*
X-58666Y26910D01*
X-58662Y27019D01*
X-57874D01*
X-57870Y26910D01*
D02*
G37*
G36*
X-21340Y57091D02*
X-21407Y57067D01*
X-21466Y57028D01*
X-21518Y56973D01*
X-21561Y56902D01*
X-21597Y56815D01*
X-21624Y56713D01*
X-21644Y56595D01*
X-21655Y56461D01*
X-21659Y56311D01*
X-22447D01*
X-22451Y56461D01*
X-22463Y56595D01*
X-22482Y56713D01*
X-22510Y56815D01*
X-22545Y56902D01*
X-22589Y56973D01*
X-22640Y57028D01*
X-22699Y57067D01*
X-22766Y57091D01*
X-22840Y57099D01*
X-21266D01*
X-21340Y57091D01*
D02*
G37*
G36*
X-21655Y23760D02*
X-21642Y23653D01*
X-21621Y23549D01*
X-21590Y23447D01*
X-21551Y23348D01*
X-21504Y23251D01*
X-21447Y23157D01*
X-21382Y23066D01*
X-21309Y22977D01*
X-21226Y22891D01*
X-22880D01*
X-22798Y22977D01*
X-22724Y23066D01*
X-22659Y23157D01*
X-22603Y23251D01*
X-22555Y23348D01*
X-22516Y23447D01*
X-22486Y23549D01*
X-22464Y23653D01*
X-22451Y23760D01*
X-22447Y23869D01*
X-21659D01*
X-21655Y23760D01*
D02*
G37*
G36*
X-91540Y17113D02*
X-91516Y17046D01*
X-91477Y16987D01*
X-91422Y16936D01*
X-91351Y16892D01*
X-91264Y16857D01*
X-91162Y16829D01*
X-91044Y16810D01*
X-90910Y16798D01*
X-90760Y16794D01*
Y16007D01*
X-90910Y16003D01*
X-91044Y15991D01*
X-91162Y15971D01*
X-91264Y15944D01*
X-91351Y15908D01*
X-91422Y15865D01*
X-91477Y15814D01*
X-91516Y15755D01*
X-91540Y15688D01*
X-91547Y15613D01*
Y17188D01*
X-91540Y17113D01*
D02*
G37*
G36*
X-88145Y15574D02*
X-88231Y15656D01*
X-88320Y15729D01*
X-88411Y15794D01*
X-88505Y15851D01*
X-88602Y15898D01*
X-88701Y15937D01*
X-88803Y15968D01*
X-88907Y15989D01*
X-89014Y16002D01*
X-89124Y16007D01*
Y16794D01*
X-89014Y16798D01*
X-88907Y16811D01*
X-88803Y16833D01*
X-88701Y16863D01*
X-88602Y16902D01*
X-88505Y16950D01*
X-88411Y17006D01*
X-88320Y17071D01*
X-88231Y17145D01*
X-88145Y17227D01*
Y15574D01*
D02*
G37*
G36*
X123405Y14379D02*
X123338Y14355D01*
X123279Y14316D01*
X123228Y14261D01*
X123184Y14190D01*
X123149Y14103D01*
X123121Y14001D01*
X123102Y13882D01*
X123090Y13749D01*
X123086Y13599D01*
X122299D01*
X122295Y13749D01*
X122283Y13882D01*
X122263Y14001D01*
X122236Y14103D01*
X122200Y14190D01*
X122157Y14261D01*
X122106Y14316D01*
X122046Y14355D01*
X121980Y14379D01*
X121905Y14386D01*
X123480D01*
X123405Y14379D01*
D02*
G37*
G36*
X123090Y13101D02*
X123103Y12994D01*
X123125Y12890D01*
X123155Y12788D01*
X123194Y12689D01*
X123242Y12592D01*
X123298Y12498D01*
X123363Y12407D01*
X123437Y12318D01*
X123519Y12232D01*
X121865D01*
X121948Y12318D01*
X122021Y12407D01*
X122086Y12498D01*
X122143Y12592D01*
X122190Y12689D01*
X122229Y12788D01*
X122259Y12890D01*
X122281Y12994D01*
X122294Y13101D01*
X122299Y13211D01*
X123086D01*
X123090Y13101D01*
D02*
G37*
G36*
X121849Y10562D02*
X121763Y10644D01*
X121674Y10718D01*
X121582Y10783D01*
X121488Y10839D01*
X121392Y10886D01*
X121293Y10925D01*
X121191Y10956D01*
X121087Y10977D01*
X120979Y10990D01*
X120870Y10995D01*
Y11782D01*
X120979Y11786D01*
X121087Y11799D01*
X121191Y11821D01*
X121293Y11851D01*
X121392Y11890D01*
X121488Y11938D01*
X121582Y11994D01*
X121674Y12059D01*
X121763Y12133D01*
X121849Y12215D01*
Y10562D01*
D02*
G37*
G36*
X110340Y10995D02*
X110191Y10987D01*
X110057Y10963D01*
X109939Y10924D01*
X109836Y10869D01*
X109750Y10798D01*
X109679Y10711D01*
X109624Y10609D01*
X109584Y10491D01*
X109561Y10357D01*
X109554Y10226D01*
X109557Y10112D01*
X109569Y9976D01*
X109588Y9856D01*
X109616Y9752D01*
X109651Y9664D01*
X109695Y9592D01*
X109746Y9536D01*
X109805Y9496D01*
X109872Y9472D01*
X109947Y9464D01*
X108372D01*
X108447Y9472D01*
X108514Y9496D01*
X108573Y9536D01*
X108624Y9592D01*
X108667Y9664D01*
X108703Y9752D01*
X108730Y9856D01*
X108750Y9976D01*
X108762Y10112D01*
X108765Y10226D01*
X108758Y10357D01*
X108734Y10491D01*
X108695Y10609D01*
X108640Y10711D01*
X108569Y10798D01*
X108482Y10869D01*
X108380Y10924D01*
X108262Y10963D01*
X108128Y10987D01*
X107978Y10995D01*
X109159Y11782D01*
X110340Y10995D01*
D02*
G37*
G36*
X117736Y8627D02*
X117760Y8560D01*
X117799Y8501D01*
X117854Y8450D01*
X117925Y8406D01*
X118012Y8371D01*
X118114Y8343D01*
X118232Y8324D01*
X118366Y8312D01*
X118516Y8308D01*
Y7520D01*
X118366Y7516D01*
X118232Y7505D01*
X118114Y7485D01*
X118012Y7457D01*
X117925Y7422D01*
X117854Y7379D01*
X117799Y7327D01*
X117760Y7268D01*
X117736Y7202D01*
X117728Y7127D01*
Y8702D01*
X117736Y8627D01*
D02*
G37*
G36*
X101104Y-16725D02*
X101117Y-16833D01*
X101139Y-16937D01*
X101169Y-17039D01*
X101208Y-17138D01*
X101256Y-17234D01*
X101312Y-17328D01*
X101377Y-17420D01*
X101451Y-17508D01*
X101533Y-17595D01*
X99879D01*
X99962Y-17508D01*
X100035Y-17420D01*
X100100Y-17328D01*
X100156Y-17234D01*
X100204Y-17138D01*
X100243Y-17039D01*
X100273Y-16937D01*
X100295Y-16833D01*
X100308Y-16725D01*
X100312Y-16616D01*
X101100D01*
X101104Y-16725D01*
D02*
G37*
G36*
X116878Y55D02*
X116811Y31D01*
X116752Y-9D01*
X116701Y-65D01*
X116658Y-137D01*
X116622Y-225D01*
X116595Y-328D01*
X116575Y-448D01*
X116563Y-584D01*
X116559Y-736D01*
X115772D01*
X115768Y-584D01*
X115756Y-448D01*
X115736Y-328D01*
X115709Y-225D01*
X115673Y-137D01*
X115630Y-65D01*
X115579Y-9D01*
X115520Y31D01*
X115453Y55D01*
X115378Y63D01*
X116953D01*
X116878Y55D01*
D02*
G37*
G36*
X116563Y-2744D02*
X116575Y-2878D01*
X116595Y-2996D01*
X116622Y-3098D01*
X116658Y-3185D01*
X116701Y-3256D01*
X116752Y-3311D01*
X116811Y-3350D01*
X116878Y-3374D01*
X116953Y-3382D01*
X115378D01*
X115453Y-3374D01*
X115520Y-3350D01*
X115579Y-3311D01*
X115630Y-3256D01*
X115673Y-3185D01*
X115709Y-3098D01*
X115736Y-2996D01*
X115756Y-2878D01*
X115768Y-2744D01*
X115772Y-2594D01*
X116559D01*
X116563Y-2744D01*
D02*
G37*
G36*
X109792Y55D02*
X109725Y31D01*
X109666Y-9D01*
X109614Y-65D01*
X109571Y-137D01*
X109536Y-225D01*
X109508Y-328D01*
X109488Y-448D01*
X109477Y-584D01*
X109473Y-736D01*
X108685D01*
X108681Y-584D01*
X108670Y-448D01*
X108650Y-328D01*
X108622Y-225D01*
X108587Y-137D01*
X108544Y-65D01*
X108492Y-9D01*
X108433Y31D01*
X108366Y55D01*
X108292Y63D01*
X109866D01*
X109792Y55D01*
D02*
G37*
G36*
X109477Y-2744D02*
X109488Y-2878D01*
X109508Y-2996D01*
X109536Y-3098D01*
X109571Y-3185D01*
X109614Y-3256D01*
X109666Y-3311D01*
X109725Y-3350D01*
X109792Y-3374D01*
X109866Y-3382D01*
X108292D01*
X108366Y-3374D01*
X108433Y-3350D01*
X108492Y-3311D01*
X108544Y-3256D01*
X108587Y-3185D01*
X108622Y-3098D01*
X108650Y-2996D01*
X108670Y-2878D01*
X108681Y-2744D01*
X108685Y-2594D01*
X109473D01*
X109477Y-2744D01*
D02*
G37*
G36*
X29491Y9477D02*
X29515Y9410D01*
X29555Y9351D01*
X29611Y9300D01*
X29682Y9256D01*
X29770Y9221D01*
X29874Y9193D01*
X29994Y9174D01*
X30130Y9162D01*
X30282Y9158D01*
Y8371D01*
X30130Y8366D01*
X29994Y8355D01*
X29874Y8335D01*
X29770Y8308D01*
X29682Y8272D01*
X29611Y8229D01*
X29555Y8178D01*
X29515Y8118D01*
X29491Y8052D01*
X29483Y7977D01*
Y9552D01*
X29491Y9477D01*
D02*
G37*
G36*
X26637Y6398D02*
X26570Y6374D01*
X26511Y6334D01*
X26460Y6278D01*
X26417Y6207D01*
X26381Y6118D01*
X26354Y6015D01*
X26334Y5895D01*
X26322Y5759D01*
X26318Y5607D01*
X25531D01*
X25527Y5759D01*
X25515Y5895D01*
X25495Y6015D01*
X25468Y6118D01*
X25432Y6207D01*
X25389Y6278D01*
X25338Y6334D01*
X25279Y6374D01*
X25212Y6398D01*
X25137Y6406D01*
X26712D01*
X26637Y6398D01*
D02*
G37*
G36*
X26322Y3421D02*
X26334Y3287D01*
X26354Y3169D01*
X26381Y3067D01*
X26417Y2980D01*
X26460Y2909D01*
X26511Y2854D01*
X26570Y2815D01*
X26637Y2791D01*
X26712Y2783D01*
X25137D01*
X25212Y2791D01*
X25279Y2815D01*
X25338Y2854D01*
X25389Y2909D01*
X25432Y2980D01*
X25468Y3067D01*
X25495Y3169D01*
X25515Y3287D01*
X25527Y3421D01*
X25531Y3571D01*
X26318D01*
X26322Y3421D01*
D02*
G37*
G36*
X54716Y-2132D02*
X54728Y-2268D01*
X54747Y-2388D01*
X54775Y-2492D01*
X54811Y-2580D01*
X54854Y-2652D01*
X54905Y-2708D01*
X54964Y-2748D01*
X55031Y-2772D01*
X55106Y-2780D01*
X53531D01*
X53606Y-2772D01*
X53673Y-2748D01*
X53732Y-2708D01*
X53783Y-2652D01*
X53826Y-2580D01*
X53862Y-2492D01*
X53889Y-2388D01*
X53909Y-2268D01*
X53921Y-2132D01*
X53925Y-1980D01*
X54712D01*
X54716Y-2132D01*
D02*
G37*
G36*
X71284Y-8465D02*
X71276Y-8390D01*
X71252Y-8323D01*
X71212Y-8264D01*
X71156Y-8213D01*
X71084Y-8169D01*
X70996Y-8134D01*
X70892Y-8106D01*
X70772Y-8087D01*
X70636Y-8075D01*
X70484Y-8071D01*
Y-7283D01*
X70636Y-7280D01*
X70772Y-7268D01*
X70892Y-7248D01*
X70996Y-7220D01*
X71084Y-7185D01*
X71156Y-7142D01*
X71212Y-7091D01*
X71252Y-7032D01*
X71276Y-6965D01*
X71284Y-6890D01*
Y-8465D01*
D02*
G37*
G36*
X59433Y-6965D02*
X59457Y-7032D01*
X59497Y-7091D01*
X59553Y-7142D01*
X59625Y-7185D01*
X59713Y-7220D01*
X59816Y-7248D01*
X59936Y-7268D01*
X60072Y-7280D01*
X60224Y-7283D01*
Y-8071D01*
X60072Y-8075D01*
X59936Y-8087D01*
X59816Y-8106D01*
X59713Y-8134D01*
X59625Y-8169D01*
X59553Y-8213D01*
X59497Y-8264D01*
X59457Y-8323D01*
X59433Y-8390D01*
X59425Y-8465D01*
Y-6890D01*
X59433Y-6965D01*
D02*
G37*
G36*
X-74424Y9217D02*
X-74400Y9150D01*
X-74360Y9091D01*
X-74304Y9040D01*
X-74232Y8996D01*
X-74144Y8961D01*
X-74041Y8933D01*
X-73921Y8914D01*
X-73785Y8902D01*
X-73633Y8898D01*
Y8110D01*
X-73785Y8106D01*
X-73921Y8095D01*
X-74041Y8075D01*
X-74144Y8047D01*
X-74232Y8012D01*
X-74304Y7969D01*
X-74360Y7918D01*
X-74400Y7858D01*
X-74424Y7791D01*
X-74432Y7717D01*
Y9291D01*
X-74424Y9217D01*
D02*
G37*
G36*
X-77554Y6138D02*
X-77621Y6114D01*
X-77680Y6074D01*
X-77731Y6018D01*
X-77775Y5946D01*
X-77810Y5858D01*
X-77838Y5754D01*
X-77857Y5635D01*
X-77869Y5499D01*
X-77873Y5347D01*
X-78660D01*
X-78664Y5499D01*
X-78676Y5635D01*
X-78696Y5754D01*
X-78723Y5858D01*
X-78759Y5946D01*
X-78802Y6018D01*
X-78853Y6074D01*
X-78912Y6114D01*
X-78979Y6138D01*
X-79054Y6146D01*
X-77479D01*
X-77554Y6138D01*
D02*
G37*
G36*
X-77869Y4922D02*
X-77857Y4788D01*
X-77838Y4670D01*
X-77810Y4568D01*
X-77775Y4481D01*
X-77731Y4410D01*
X-77680Y4355D01*
X-77621Y4316D01*
X-77554Y4292D01*
X-77479Y4284D01*
X-79054D01*
X-78979Y4292D01*
X-78912Y4316D01*
X-78853Y4355D01*
X-78802Y4410D01*
X-78759Y4481D01*
X-78723Y4568D01*
X-78696Y4670D01*
X-78676Y4788D01*
X-78664Y4922D01*
X-78660Y5072D01*
X-77873D01*
X-77869Y4922D01*
D02*
G37*
G36*
X-51276Y-2132D02*
X-51264Y-2268D01*
X-51244Y-2388D01*
X-51217Y-2492D01*
X-51181Y-2580D01*
X-51138Y-2652D01*
X-51087Y-2708D01*
X-51028Y-2748D01*
X-50961Y-2772D01*
X-50886Y-2780D01*
X-52461D01*
X-52386Y-2772D01*
X-52319Y-2748D01*
X-52260Y-2708D01*
X-52209Y-2652D01*
X-52165Y-2580D01*
X-52130Y-2492D01*
X-52102Y-2388D01*
X-52083Y-2268D01*
X-52071Y-2132D01*
X-52067Y-1980D01*
X-51280D01*
X-51276Y-2132D01*
D02*
G37*
G36*
X-33441Y-8465D02*
X-33449Y-8390D01*
X-33473Y-8323D01*
X-33512Y-8264D01*
X-33569Y-8213D01*
X-33640Y-8169D01*
X-33728Y-8134D01*
X-33832Y-8106D01*
X-33952Y-8087D01*
X-34088Y-8075D01*
X-34240Y-8071D01*
Y-7283D01*
X-34088Y-7280D01*
X-33952Y-7268D01*
X-33832Y-7248D01*
X-33728Y-7220D01*
X-33640Y-7185D01*
X-33569Y-7142D01*
X-33512Y-7091D01*
X-33473Y-7032D01*
X-33449Y-6965D01*
X-33441Y-6890D01*
Y-8465D01*
D02*
G37*
G36*
X-45292Y-6965D02*
X-45268Y-7032D01*
X-45228Y-7091D01*
X-45172Y-7142D01*
X-45100Y-7185D01*
X-45012Y-7220D01*
X-44908Y-7248D01*
X-44788Y-7268D01*
X-44652Y-7280D01*
X-44500Y-7283D01*
Y-8071D01*
X-44652Y-8075D01*
X-44788Y-8087D01*
X-44908Y-8106D01*
X-45012Y-8134D01*
X-45100Y-8169D01*
X-45172Y-8213D01*
X-45228Y-8264D01*
X-45268Y-8323D01*
X-45292Y-8390D01*
X-45300Y-8465D01*
Y-6890D01*
X-45292Y-6965D01*
D02*
G37*
G36*
X117302Y-16643D02*
X117217Y-16725D01*
X117141Y-16811D01*
X117075Y-16900D01*
X117017Y-16992D01*
X116968Y-17086D01*
X116928Y-17184D01*
X116897Y-17285D01*
X116875Y-17389D01*
X116861Y-17496D01*
X116857Y-17606D01*
X116069Y-17576D01*
X116065Y-17467D01*
X116053Y-17360D01*
X116032Y-17255D01*
X116002Y-17153D01*
X115964Y-17052D01*
X115918Y-16954D01*
X115864Y-16858D01*
X115800Y-16764D01*
X115729Y-16672D01*
X115649Y-16582D01*
X117302Y-16643D01*
D02*
G37*
G36*
X116861Y-20305D02*
X116873Y-20441D01*
X116892Y-20561D01*
X116920Y-20665D01*
X116955Y-20753D01*
X116999Y-20825D01*
X117050Y-20881D01*
X117109Y-20921D01*
X117176Y-20945D01*
X117251Y-20953D01*
X115676D01*
X115751Y-20945D01*
X115817Y-20921D01*
X115876Y-20881D01*
X115928Y-20825D01*
X115971Y-20753D01*
X116006Y-20665D01*
X116034Y-20561D01*
X116054Y-20441D01*
X116066Y-20305D01*
X116069Y-20153D01*
X116857D01*
X116861Y-20305D01*
D02*
G37*
G36*
X107018Y-22913D02*
X107010Y-22839D01*
X106986Y-22772D01*
X106946Y-22713D01*
X106890Y-22661D01*
X106818Y-22618D01*
X106730Y-22583D01*
X106626Y-22555D01*
X106506Y-22535D01*
X106370Y-22524D01*
X106219Y-22520D01*
Y-21732D01*
X106370Y-21728D01*
X106506Y-21716D01*
X106626Y-21697D01*
X106730Y-21669D01*
X106818Y-21634D01*
X106890Y-21590D01*
X106946Y-21539D01*
X106986Y-21480D01*
X107010Y-21413D01*
X107018Y-21339D01*
Y-22913D01*
D02*
G37*
G36*
X50660Y-21381D02*
X50749Y-21455D01*
X50840Y-21520D01*
X50934Y-21576D01*
X51031Y-21624D01*
X51130Y-21663D01*
X51231Y-21693D01*
X51336Y-21715D01*
X51443Y-21728D01*
X51552Y-21732D01*
Y-22520D01*
X51443Y-22524D01*
X51336Y-22537D01*
X51231Y-22559D01*
X51130Y-22589D01*
X51031Y-22628D01*
X50934Y-22675D01*
X50840Y-22732D01*
X50749Y-22797D01*
X50660Y-22870D01*
X50574Y-22953D01*
Y-21299D01*
X50660Y-21381D01*
D02*
G37*
G36*
X50475Y-23056D02*
X50401Y-23144D01*
X50336Y-23236D01*
X50280Y-23330D01*
X50232Y-23426D01*
X50193Y-23526D01*
X50163Y-23627D01*
X50141Y-23732D01*
X50128Y-23839D01*
X50124Y-23948D01*
X49336D01*
X49332Y-23839D01*
X49319Y-23732D01*
X49297Y-23627D01*
X49267Y-23526D01*
X49228Y-23426D01*
X49181Y-23330D01*
X49124Y-23236D01*
X49059Y-23144D01*
X48986Y-23056D01*
X48903Y-22969D01*
X50557D01*
X50475Y-23056D01*
D02*
G37*
G36*
X50128Y-60339D02*
X50141Y-60446D01*
X50163Y-60550D01*
X50193Y-60652D01*
X50232Y-60751D01*
X50280Y-60847D01*
X50336Y-60941D01*
X50401Y-61033D01*
X50475Y-61122D01*
X50557Y-61208D01*
X48903D01*
X48986Y-61122D01*
X49059Y-61033D01*
X49124Y-60941D01*
X49181Y-60847D01*
X49228Y-60751D01*
X49267Y-60652D01*
X49297Y-60550D01*
X49319Y-60446D01*
X49332Y-60339D01*
X49336Y-60229D01*
X50124D01*
X50128Y-60339D01*
D02*
G37*
G36*
X55219Y-77839D02*
X55152Y-77863D01*
X55093Y-77903D01*
X55042Y-77959D01*
X54999Y-78031D01*
X54963Y-78119D01*
X54936Y-78223D01*
X54932Y-78242D01*
X54940Y-78277D01*
X54971Y-78379D01*
X55010Y-78477D01*
X55058Y-78573D01*
X55115Y-78666D01*
X55181Y-78755D01*
X55256Y-78843D01*
X55340Y-78927D01*
X53686Y-78959D01*
X53768Y-78871D01*
X53840Y-78781D01*
X53904Y-78688D01*
X53959Y-78593D01*
X54006Y-78495D01*
X54045Y-78396D01*
X54074Y-78293D01*
X54082Y-78254D01*
X54077Y-78223D01*
X54050Y-78119D01*
X54014Y-78031D01*
X53971Y-77959D01*
X53920Y-77903D01*
X53861Y-77863D01*
X53794Y-77839D01*
X53719Y-77831D01*
X55294D01*
X55219Y-77839D01*
D02*
G37*
G36*
X117059Y-30362D02*
X116992Y-30386D01*
X116933Y-30426D01*
X116882Y-30481D01*
X116839Y-30553D01*
X116803Y-30641D01*
X116776Y-30745D01*
X116756Y-30865D01*
X116744Y-31001D01*
X116740Y-31153D01*
X115953D01*
X115949Y-31001D01*
X115937Y-30865D01*
X115917Y-30745D01*
X115890Y-30641D01*
X115854Y-30553D01*
X115811Y-30481D01*
X115760Y-30426D01*
X115701Y-30386D01*
X115634Y-30362D01*
X115559Y-30354D01*
X117134D01*
X117059Y-30362D01*
D02*
G37*
G36*
X116744Y-34421D02*
X116756Y-34555D01*
X116776Y-34673D01*
X116803Y-34775D01*
X116839Y-34862D01*
X116882Y-34933D01*
X116933Y-34988D01*
X116992Y-35027D01*
X117059Y-35051D01*
X117134Y-35059D01*
X115559D01*
X115634Y-35051D01*
X115701Y-35027D01*
X115760Y-34988D01*
X115811Y-34933D01*
X115854Y-34862D01*
X115890Y-34775D01*
X115917Y-34673D01*
X115937Y-34555D01*
X115949Y-34421D01*
X115953Y-34271D01*
X116740D01*
X116744Y-34421D01*
D02*
G37*
G36*
X109281Y-30362D02*
X109214Y-30386D01*
X109155Y-30426D01*
X109104Y-30481D01*
X109061Y-30553D01*
X109025Y-30641D01*
X108998Y-30745D01*
X108978Y-30865D01*
X108966Y-31001D01*
X108962Y-31153D01*
X108175D01*
X108171Y-31001D01*
X108159Y-30865D01*
X108140Y-30745D01*
X108112Y-30641D01*
X108077Y-30553D01*
X108033Y-30481D01*
X107982Y-30426D01*
X107923Y-30386D01*
X107856Y-30362D01*
X107781Y-30354D01*
X109356D01*
X109281Y-30362D01*
D02*
G37*
G36*
X108966Y-34421D02*
X108978Y-34555D01*
X108998Y-34673D01*
X109025Y-34775D01*
X109061Y-34862D01*
X109104Y-34933D01*
X109155Y-34988D01*
X109214Y-35027D01*
X109281Y-35051D01*
X109356Y-35059D01*
X107781D01*
X107856Y-35051D01*
X107923Y-35027D01*
X107982Y-34988D01*
X108033Y-34933D01*
X108077Y-34862D01*
X108112Y-34775D01*
X108140Y-34673D01*
X108159Y-34555D01*
X108171Y-34421D01*
X108175Y-34271D01*
X108962D01*
X108966Y-34421D01*
D02*
G37*
G36*
X15988Y-31302D02*
X15914Y-31391D01*
X15849Y-31482D01*
X15793Y-31576D01*
X15745Y-31672D01*
X15706Y-31772D01*
X15676Y-31874D01*
X15654Y-31978D01*
X15641Y-32085D01*
X15637Y-32194D01*
X14850D01*
X14845Y-32085D01*
X14832Y-31978D01*
X14811Y-31874D01*
X14780Y-31772D01*
X14741Y-31672D01*
X14694Y-31576D01*
X14638Y-31482D01*
X14572Y-31391D01*
X14499Y-31302D01*
X14417Y-31216D01*
X16070D01*
X15988Y-31302D01*
D02*
G37*
G36*
X15641Y-34316D02*
X15653Y-34450D01*
X15673Y-34568D01*
X15700Y-34670D01*
X15735Y-34757D01*
X15779Y-34828D01*
X15830Y-34883D01*
X15889Y-34922D01*
X15956Y-34946D01*
X16031Y-34954D01*
X14456D01*
X14531Y-34946D01*
X14598Y-34922D01*
X14657Y-34883D01*
X14708Y-34828D01*
X14751Y-34757D01*
X14787Y-34670D01*
X14814Y-34568D01*
X14834Y-34450D01*
X14846Y-34316D01*
X14850Y-34166D01*
X15637D01*
X15641Y-34316D01*
D02*
G37*
G36*
X6084Y-28127D02*
X6010Y-28216D01*
X5945Y-28307D01*
X5889Y-28401D01*
X5841Y-28498D01*
X5802Y-28597D01*
X5772Y-28699D01*
X5750Y-28803D01*
X5737Y-28910D01*
X5733Y-29019D01*
X4945D01*
X4941Y-28910D01*
X4928Y-28803D01*
X4906Y-28699D01*
X4876Y-28597D01*
X4837Y-28498D01*
X4789Y-28401D01*
X4733Y-28307D01*
X4668Y-28216D01*
X4594Y-28127D01*
X4512Y-28041D01*
X6166D01*
X6084Y-28127D01*
D02*
G37*
G36*
X5737Y-34316D02*
X5748Y-34450D01*
X5768Y-34568D01*
X5796Y-34670D01*
X5831Y-34757D01*
X5874Y-34828D01*
X5926Y-34883D01*
X5985Y-34922D01*
X6052Y-34946D01*
X6126Y-34954D01*
X4552D01*
X4626Y-34946D01*
X4693Y-34922D01*
X4752Y-34883D01*
X4804Y-34828D01*
X4847Y-34757D01*
X4882Y-34670D01*
X4910Y-34568D01*
X4930Y-34450D01*
X4941Y-34316D01*
X4945Y-34166D01*
X5733D01*
X5737Y-34316D01*
D02*
G37*
G36*
X45312Y-77839D02*
X45245Y-77863D01*
X45186Y-77903D01*
X45135Y-77959D01*
X45091Y-78031D01*
X45056Y-78119D01*
X45028Y-78223D01*
X45009Y-78343D01*
X44997Y-78479D01*
X44993Y-78631D01*
X44206D01*
X44202Y-78479D01*
X44190Y-78343D01*
X44170Y-78223D01*
X44143Y-78119D01*
X44107Y-78031D01*
X44064Y-77959D01*
X44013Y-77903D01*
X43954Y-77863D01*
X43887Y-77839D01*
X43812Y-77831D01*
X45387D01*
X45312Y-77839D01*
D02*
G37*
G36*
X44997Y-79703D02*
X45010Y-79810D01*
X45032Y-79914D01*
X45062Y-80016D01*
X45101Y-80115D01*
X45149Y-80212D01*
X45205Y-80306D01*
X45270Y-80397D01*
X45344Y-80486D01*
X45426Y-80572D01*
X43773D01*
X43855Y-80486D01*
X43928Y-80397D01*
X43993Y-80306D01*
X44050Y-80212D01*
X44097Y-80115D01*
X44136Y-80016D01*
X44167Y-79914D01*
X44188Y-79810D01*
X44201Y-79703D01*
X44206Y-79593D01*
X44993D01*
X44997Y-79703D01*
D02*
G37*
D13*
X-92809Y65656D02*
X-91870D01*
X-90324Y65664D02*
X-88613Y67376D01*
X-91862Y65664D02*
X-90324D01*
X-88613Y67376D02*
X-85753D01*
X-93110Y65354D02*
X-92809Y65656D01*
X-91870D02*
X-91862Y65664D01*
X-85753Y67376D02*
X-84042Y65664D01*
X-71334D01*
X64500Y-68997D02*
Y-67883D01*
X88534Y-65777D02*
X91339Y-62973D01*
X64500Y-67883D02*
X66606Y-65777D01*
X88534D01*
X-71103Y65434D02*
X-71016Y65346D01*
X-71334Y65664D02*
X-71103Y65434D01*
X-74016Y68116D02*
X-73321Y67421D01*
X-74016Y68116D02*
Y71653D01*
X-73321Y67421D02*
X-67202D01*
X-65750Y65970D02*
X-64428D01*
X-67202Y67421D02*
X-65750Y65970D01*
X-102452Y-64478D02*
Y-32430D01*
X-105851Y-64502D02*
Y-32623D01*
X-105808Y-32580D01*
X-95976Y-59648D02*
X-95682Y-59942D01*
X-95976Y-59648D02*
Y-55546D01*
X-102452Y-32430D02*
X-100394Y-30372D01*
X-59400Y-64355D02*
X-55500Y-68255D01*
X-60433Y-64355D02*
X-59400D01*
X-55500Y-68997D02*
Y-68255D01*
X-83255Y-59398D02*
X-82539Y-58682D01*
X24500Y-55296D02*
Y-43800D01*
X22505Y-57292D02*
X24500Y-55296D01*
X-86646Y-58504D02*
X-85433Y-57292D01*
X-86646Y-59721D02*
Y-58504D01*
X-85433Y-57292D02*
X22505Y-57292D01*
X32492Y-58682D02*
X34500Y-56673D01*
X-82539Y-58682D02*
X32492D01*
X-83255Y-60652D02*
Y-59398D01*
X-10870Y-64367D02*
X-10671D01*
X-15500Y-68997D02*
Y-67883D01*
X-13394Y-65777D01*
X-12280D01*
X-10870Y-64367D01*
X-45500Y-79188D02*
Y-68997D01*
X34500Y-56673D02*
Y-43800D01*
X30017Y-63277D02*
X32394D01*
X24500Y-68997D02*
Y-65479D01*
X-70622Y-64328D02*
X-69180Y-65769D01*
X-45590Y-43710D02*
X-45500Y-43800D01*
X-94788Y-54358D02*
X-18398D01*
X-86464Y-83641D02*
X-85576D01*
X-77423Y-79785D02*
X-77287Y-79649D01*
X-95976Y-55546D02*
X-94788Y-54358D01*
X39228Y-83851D02*
X39934Y-83145D01*
X14566Y-80441D02*
Y-69063D01*
X4724Y-81776D02*
Y-69221D01*
X-72725Y-82078D02*
X-72660Y-82143D01*
X-17397Y-45697D02*
X-15500Y-43800D01*
X14500D02*
X15243Y-43057D01*
X-60547Y-44388D02*
X-56088D01*
X-55500Y-43800D01*
X-68728Y-65769D02*
X-68720Y-65777D01*
X-45590Y-43710D02*
Y-32808D01*
X-5500Y-53739D02*
Y-43800D01*
X-65500Y-68997D02*
Y-67883D01*
X54506Y-79689D02*
X54604Y-79786D01*
X34500Y-68997D02*
Y-65383D01*
X-67606Y-65777D02*
X-65500Y-67883D01*
X-70579Y-40089D02*
X-67606D01*
X-92652Y-60437D02*
Y-56107D01*
X57415Y-42755D02*
X59565Y-44905D01*
X-73908Y-81776D02*
X-73607Y-82078D01*
X-5500Y-65639D02*
X-3394Y-63533D01*
X54506Y-79689D02*
Y-69003D01*
X-7406Y-55645D02*
X-5500Y-53739D01*
X5339Y-42961D02*
Y-27197D01*
X-35575Y-78575D02*
Y-69072D01*
X-92190Y-55645D02*
X-7406D01*
X54500Y-43800D02*
X55545Y-42755D01*
X-77287Y-79649D02*
X-45961D01*
X-100394Y-30372D02*
X-37109D01*
X39934Y-83145D02*
Y-44261D01*
X-35500Y-43800D02*
Y-31981D01*
X-18398Y-54358D02*
X-17397Y-53357D01*
X44599Y-81416D02*
Y-69096D01*
X14500Y-68997D02*
X14566Y-69063D01*
X-85576Y-83641D02*
X-85366Y-83851D01*
X39228D01*
X55545Y-42755D02*
X57415D01*
X32394Y-63277D02*
X34500Y-65383D01*
X4500Y-68997D02*
X4724Y-69221D01*
X19237Y-63373D02*
X22394D01*
X59565Y-83851D02*
Y-44905D01*
X-68720Y-65777D02*
X-67606D01*
X-5500Y-68997D02*
Y-65639D01*
X-17397Y-53357D02*
Y-45697D01*
X4500Y-43800D02*
X5339Y-42961D01*
X-35575Y-69072D02*
X-35500Y-68997D01*
X-45961Y-79649D02*
X-45500Y-79188D01*
X39934Y-44261D02*
X40395Y-43800D01*
X-73607Y-82078D02*
X-72725D01*
X15243Y-43057D02*
Y-30372D01*
X44500Y-68997D02*
X44599Y-69096D01*
X29921Y-63373D02*
X30017Y-63277D01*
X-72660Y-82143D02*
X-39143D01*
X22394Y-63373D02*
X24500Y-65479D01*
X54500Y-68997D02*
X54506Y-69003D01*
X-37109Y-30372D02*
X-35500Y-31981D01*
X-3394Y-63533D02*
X-647D01*
X-39143Y-82143D02*
X-35575Y-78575D01*
X-92652Y-56107D02*
X-92190Y-55645D01*
X-65500Y-43800D02*
Y-42195D01*
X40395Y-43800D02*
X44500D01*
X-67606Y-40089D02*
X-65500Y-42195D01*
X-69180Y-65769D02*
X-68728D01*
X-84082Y-43800D02*
X-75500D01*
X-87120Y-40762D02*
X-84082Y-43800D01*
X-87120Y-40762D02*
Y-33325D01*
Y-18711D02*
X-83165Y-14756D01*
X-76767D01*
X-87120Y-27419D02*
Y-18711D01*
X-117153Y-81795D02*
Y-81310D01*
X-116872Y-81029D01*
X-116228Y-81674D01*
X-110923D01*
X-93864Y-80194D02*
Y-72271D01*
X-94345Y-81417D02*
X-93819Y-80891D01*
X-93864Y-80194D02*
X-93819Y-80238D01*
Y-80891D02*
Y-80238D01*
X-105011Y-81417D02*
X-94345D01*
X-90589Y-68997D02*
X-75500D01*
X-93864Y-72271D02*
X-90589Y-68997D01*
X49730Y-22126D02*
X108191D01*
X49730Y-62051D02*
Y-22126D01*
X-39073Y82104D02*
X-37073Y80104D01*
X-50599Y82104D02*
X-39073D01*
X-63129Y32445D02*
Y46721D01*
X-67902Y48456D02*
X-64930D01*
X-64567Y48819D01*
X-86190Y31317D02*
X-64258D01*
X-63129Y32445D01*
X-72858Y38065D02*
X-69884Y41040D01*
Y46474D01*
X-85865Y38065D02*
X-72858D01*
X-69884Y46474D02*
X-67902Y48456D01*
X-63129Y46721D02*
X-61417Y48433D01*
Y48798D01*
X-61023Y65748D02*
Y70564D01*
X-64428Y65970D02*
X-64206Y65748D01*
X-61023Y70564D02*
X-60992Y70595D01*
X-64567Y71653D02*
X-62050D01*
X-60992Y70595D01*
X-66558Y62715D02*
X-57344D01*
X-56870Y63189D01*
X-67031D02*
X-66558Y62715D01*
X-81975Y63189D02*
X-67031D01*
X-64567Y82000D02*
X-64463Y82104D01*
X-56505D01*
X26090Y65740D02*
X37108D01*
X25440Y65090D02*
X26090Y65740D01*
X-34609Y82574D02*
X67539D01*
X68000Y63324D02*
Y82113D01*
X67539Y82574D02*
X68000Y82113D01*
X-34646Y82537D02*
X-34609Y82574D01*
X122313Y7914D02*
X122788Y7439D01*
Y6916D02*
Y7439D01*
Y6916D02*
X122865Y6839D01*
Y-44914D02*
Y6839D01*
X94045Y-47020D02*
X120759D01*
X122865Y-44914D01*
X91339Y-49726D02*
X94045Y-47020D01*
X91339Y-62973D02*
Y-49726D01*
X-41783Y63276D02*
Y79150D01*
X-51069Y22047D02*
X-51069Y22047D01*
X-50186D01*
X-55118Y22509D02*
Y46364D01*
X-54657Y22047D02*
X-51069D01*
X-55118Y22509D02*
X-54657Y22047D01*
X-50898Y30891D02*
X-50116D01*
X-51968Y31961D02*
Y48142D01*
Y31961D02*
X-50898Y30891D01*
X-47036Y37664D02*
X-46989Y37711D01*
X-41402D01*
X-40941Y38173D01*
X-58268Y25197D02*
Y48798D01*
X-40941Y38173D02*
Y51651D01*
X-41870Y63189D02*
X-41783Y63276D01*
X-32067Y79250D02*
X-32067Y79250D01*
X62539D01*
X-87402Y54428D02*
X-52854D01*
X-51870Y55412D01*
X-82073Y63090D02*
X-81975Y63189D01*
X-47054Y63005D02*
X-46870Y63189D01*
X-47054Y44307D02*
Y63005D01*
X-51870Y55412D02*
Y63189D01*
X-31870Y54048D02*
Y63189D01*
X-32331Y53586D02*
X-31870Y54048D01*
X-39006Y53586D02*
X-32331D01*
X-40941Y51651D02*
X-39006Y53586D01*
X-22053Y63006D02*
X-21870Y63189D01*
X-22053Y22047D02*
Y63006D01*
X-26772Y30891D02*
Y63090D01*
X-26870Y63189D02*
X-26772Y63090D01*
X-37073Y63392D02*
X-36870Y63189D01*
X-37073Y63392D02*
Y80104D01*
X-51673Y-8691D02*
Y-7677D01*
X-51673D02*
X-27067D01*
X-51673D02*
Y4484D01*
Y-7677D02*
Y4484D01*
X-36899Y36253D02*
Y47775D01*
X37291Y55944D02*
Y60630D01*
X52402Y55483D02*
X52863Y55944D01*
Y63180D01*
X37752Y55483D02*
X52402D01*
X37291Y55944D02*
X37752Y55483D01*
X52854Y63189D02*
X52863Y63180D01*
X-31727Y38976D02*
Y47775D01*
X101676Y11388D02*
X109159D01*
X122692D01*
X100706Y10419D02*
X101676Y11388D01*
X100706Y-18438D02*
Y10419D01*
X109159Y7913D02*
Y11388D01*
X122585Y15851D02*
X122692Y15744D01*
Y11388D02*
Y15744D01*
X47720Y63324D02*
X47854Y63189D01*
X43211Y63324D02*
X47720D01*
X-100394Y16183D02*
X-100177Y16400D01*
X-87301D01*
X-76767Y-14756D02*
X88814Y-14756D01*
X89185Y18366D02*
X89275Y18275D01*
X88814Y-14756D02*
X89275Y-14295D01*
Y18275D01*
X89185Y39438D02*
Y78788D01*
Y18366D02*
Y39438D01*
X89275Y39528D02*
X102565D01*
X89185Y39438D02*
X89275Y39528D01*
X-78267Y2623D02*
Y8228D01*
X-77991Y8504D01*
X115871Y39411D02*
X122692D01*
X115754Y39528D02*
X115871Y39411D01*
X122585Y21756D02*
Y38861D01*
X116166Y7913D02*
X116166Y7914D01*
X122313D01*
X102565Y39528D02*
X115754D01*
X25925Y1122D02*
Y8764D01*
X25924Y8764D02*
X25925Y8764D01*
X53051Y-7677D02*
X77658D01*
X53051D02*
X54318Y-6410D01*
Y5154D01*
X25924Y8764D02*
X50709D01*
X54318Y5154D01*
X-77991Y8504D02*
X-55693D01*
X-51673Y4484D01*
X116463Y-15813D02*
X116506Y-15770D01*
X116463Y-22504D02*
Y-15813D01*
X116347Y-36523D02*
Y-28919D01*
X116463Y-28803D01*
X108569Y-36523D02*
Y-28803D01*
X108191Y-22126D02*
X108569Y-22504D01*
X82539Y36061D02*
X83000Y36522D01*
X-18324Y36253D02*
X-18132Y36061D01*
X82539D01*
X83000Y36522D02*
Y63324D01*
X-12598Y38976D02*
X77539Y38976D01*
X58000Y46161D02*
Y63324D01*
X-6693Y42725D02*
X72539D01*
X-1475Y45700D02*
X57539D01*
X73000Y43187D02*
Y63324D01*
X-7406Y42725D02*
X-6693D01*
X72539D02*
X73000Y43187D01*
X-1575Y45800D02*
X-1475Y45700D01*
X-7480Y42800D02*
X-6693D01*
X-7480D02*
X-7406Y42725D01*
X57539Y45700D02*
X58000Y46161D01*
X62539Y79250D02*
X63000Y78788D01*
Y65231D02*
Y78788D01*
X77539Y38976D02*
X78000Y39438D01*
Y63324D01*
X63000D02*
Y65231D01*
X116166Y-4846D02*
Y1614D01*
X109079Y-4846D02*
Y1534D01*
X109159Y1614D01*
D17*
X-75500Y-68997D02*
D03*
X-65500D02*
D03*
X-55500D02*
D03*
X-45500D02*
D03*
X-35500D02*
D03*
X-25500D02*
D03*
X-15500D02*
D03*
X-5500D02*
D03*
X4500D02*
D03*
X14500D02*
D03*
X24500D02*
D03*
X34500D02*
D03*
X44500D02*
D03*
X54500D02*
D03*
X64500D02*
D03*
X-75500Y-43800D02*
D03*
X-65500D02*
D03*
X-45500D02*
D03*
X-35500D02*
D03*
X-25500D02*
D03*
X-15500D02*
D03*
X-5500D02*
D03*
X4500D02*
D03*
X14500D02*
D03*
X24500D02*
D03*
X34500D02*
D03*
X44500D02*
D03*
X54500D02*
D03*
X64500D02*
D03*
X-55500D02*
D03*
D18*
X-105017Y-81674D02*
D03*
X-110923D02*
D03*
X-56505Y82104D02*
D03*
X-50599D02*
D03*
D19*
X-27067Y-7677D02*
D03*
X-51673D02*
D03*
X53051D02*
D03*
X77658D02*
D03*
D20*
X-21870Y63189D02*
D03*
X-26870D02*
D03*
X-31870D02*
D03*
X-36870D02*
D03*
X-41870D02*
D03*
X-46870D02*
D03*
X-51870D02*
D03*
X-56870D02*
D03*
X47854D02*
D03*
X52854D02*
D03*
X57854D02*
D03*
X62854D02*
D03*
X67854D02*
D03*
X72854D02*
D03*
X77854D02*
D03*
X82854D02*
D03*
D21*
X115754Y33819D02*
D03*
Y39528D02*
D03*
X102565Y33819D02*
D03*
Y39528D02*
D03*
D22*
X25924Y8764D02*
D03*
Y20181D02*
D03*
X-77991Y8504D02*
D03*
Y19921D02*
D03*
D23*
X-78267Y-3479D02*
D03*
Y2623D02*
D03*
X25925Y-4980D02*
D03*
Y1122D02*
D03*
D24*
X109159Y7913D02*
D03*
Y1614D02*
D03*
X108569Y-28803D02*
D03*
Y-22504D02*
D03*
X116463Y-28803D02*
D03*
Y-22504D02*
D03*
X116166Y1614D02*
D03*
Y7913D02*
D03*
D25*
X-100394Y36184D02*
D03*
Y16183D02*
D03*
X-116142Y6183D02*
D03*
Y26184D02*
D03*
D26*
X-87120Y-33325D02*
D03*
Y-27419D02*
D03*
X122692Y45317D02*
D03*
Y39411D02*
D03*
X122585Y21756D02*
D03*
Y15851D02*
D03*
X116347Y-42429D02*
D03*
Y-36523D02*
D03*
X108569Y-42429D02*
D03*
Y-36523D02*
D03*
X109079Y-10752D02*
D03*
Y-4846D02*
D03*
X116166Y-10752D02*
D03*
Y-4846D02*
D03*
D40*
X25325Y65826D02*
D03*
X-86190Y31317D02*
D03*
X-85865Y38065D02*
D03*
X-64567Y71653D02*
D03*
X-74016Y71653D02*
D03*
X64732Y-26478D02*
D03*
D41*
X108268Y-62992D02*
D03*
X-108268Y62992D02*
D03*
D42*
X-93110Y65354D02*
D03*
X-90886Y-48373D02*
D03*
X112754Y66321D02*
D03*
X109211Y80495D02*
D03*
X109055Y21949D02*
D03*
X93307D02*
D03*
Y-9547D02*
D03*
X101181Y-25295D02*
D03*
X93307Y-41043D02*
D03*
Y-72539D02*
D03*
X85433Y37697D02*
D03*
X77559Y21949D02*
D03*
X85433Y6201D02*
D03*
Y-25295D02*
D03*
Y-56791D02*
D03*
X61811Y21949D02*
D03*
X69685Y6201D02*
D03*
Y-25295D02*
D03*
X46063Y21949D02*
D03*
X53937Y-25295D02*
D03*
X38189Y6201D02*
D03*
Y-25295D02*
D03*
X14567Y21949D02*
D03*
Y-9547D02*
D03*
X22441Y-25295D02*
D03*
X-1181Y21949D02*
D03*
X6693Y6201D02*
D03*
X-1181Y-9547D02*
D03*
Y-41043D02*
D03*
X-16929Y21949D02*
D03*
X-9055Y6201D02*
D03*
X-16929Y-9547D02*
D03*
X-24803Y6201D02*
D03*
X-40551D02*
D03*
X-64173Y21949D02*
D03*
Y-9547D02*
D03*
X-72047Y6201D02*
D03*
X-79921Y-9547D02*
D03*
X-95669Y53445D02*
D03*
Y21949D02*
D03*
Y-9547D02*
D03*
X-111417Y21949D02*
D03*
X-103543Y6201D02*
D03*
X-111417Y-9547D02*
D03*
Y-41043D02*
D03*
X-102509Y-64422D02*
D03*
X-105808Y-32580D02*
D03*
X-105851Y-64502D02*
D03*
X-95682Y-59942D02*
D03*
X-112026Y-67524D02*
D03*
X-60433Y-64355D02*
D03*
X-10671Y-64367D02*
D03*
X44599Y-81416D02*
D03*
X29921Y-63373D02*
D03*
X19237D02*
D03*
X-70579Y-40089D02*
D03*
X14566Y-80441D02*
D03*
X59565Y-83851D02*
D03*
X-647Y-63533D02*
D03*
X-92652Y-60437D02*
D03*
X-73908Y-81776D02*
D03*
X-86464Y-83641D02*
D03*
X4724Y-81776D02*
D03*
X54530Y-79786D02*
D03*
X15243Y-30372D02*
D03*
X-86639Y-60630D02*
D03*
X-77423Y-79785D02*
D03*
X-70622Y-64328D02*
D03*
X-45590Y-32808D02*
D03*
X-83255Y-60652D02*
D03*
X5339Y-27197D02*
D03*
X-60547Y-44388D02*
D03*
X-117153Y-81795D02*
D03*
X-70276Y-76938D02*
D03*
X-61023Y-77559D02*
D03*
X-80315Y-76938D02*
D03*
X-41783Y80029D02*
D03*
X-61417Y77352D02*
D03*
X-64567Y48819D02*
D03*
X-61417Y48798D02*
D03*
X-61023Y65748D02*
D03*
X-64206D02*
D03*
X-71016Y65346D02*
D03*
X-64567Y82000D02*
D03*
X-121653Y-79649D02*
D03*
X37126Y65541D02*
D03*
X-51968Y48142D02*
D03*
X-47036Y37664D02*
D03*
X-58268Y25197D02*
D03*
X-55118Y46364D02*
D03*
X-58268Y48798D02*
D03*
X-34646Y82537D02*
D03*
X-32067Y79250D02*
D03*
X-74199Y80099D02*
D03*
X-82073Y63090D02*
D03*
X-47054Y44307D02*
D03*
X-87402Y54428D02*
D03*
X-22053Y22047D02*
D03*
X-50186Y22047D02*
D03*
X-26772Y30891D02*
D03*
X-50116D02*
D03*
X-36899Y36253D02*
D03*
X37291Y60630D02*
D03*
X-31727Y47775D02*
D03*
X-36899D02*
D03*
X100706Y-18438D02*
D03*
X122692Y11388D02*
D03*
X43211Y63324D02*
D03*
X-87301Y16400D02*
D03*
X116506Y-15770D02*
D03*
X49730Y-22126D02*
D03*
Y-62051D02*
D03*
X89185Y78788D02*
D03*
X-12598Y38976D02*
D03*
X-7480Y42725D02*
D03*
X-18324Y36253D02*
D03*
X-1575Y45700D02*
D03*
X-31727Y38976D02*
D03*
M02*
