G04*
G04 #@! TF.GenerationSoftware,Altium Limited,Altium Designer,21.0.8 (223)*
G04*
G04 Layer_Physical_Order=2*
G04 Layer_Color=16711680*
%FSLAX25Y25*%
%MOIN*%
G70*
G04*
G04 #@! TF.SameCoordinates,19BF406E-31A8-4989-80D5-3CA5337EBE6E*
G04*
G04*
G04 #@! TF.FilePolarity,Positive*
G04*
G01*
G75*
%ADD13C,0.00787*%
%ADD18R,0.02953X0.03937*%
%ADD40C,0.21654*%
%ADD41C,0.02362*%
%ADD42R,0.03347X0.03543*%
%ADD43O,0.01968X0.07874*%
%ADD44R,0.01968X0.07874*%
%ADD45C,0.00984*%
G36*
X48887Y-22953D02*
X48801Y-22870D01*
X48712Y-22797D01*
X48620Y-22732D01*
X48526Y-22675D01*
X48430Y-22628D01*
X48331Y-22589D01*
X48229Y-22559D01*
X48125Y-22537D01*
X48017Y-22524D01*
X47908Y-22520D01*
Y-21732D01*
X48017Y-21728D01*
X48125Y-21715D01*
X48229Y-21693D01*
X48331Y-21663D01*
X48430Y-21624D01*
X48526Y-21576D01*
X48620Y-21520D01*
X48712Y-21455D01*
X48801Y-21381D01*
X48887Y-21299D01*
Y-22953D01*
D02*
G37*
G36*
X126469Y-83657D02*
X61240D01*
X61148Y-83195D01*
X60777Y-82639D01*
X60221Y-82268D01*
X59565Y-82137D01*
X58909Y-82268D01*
X58382Y-82620D01*
X58348Y-82633D01*
X58275Y-82702D01*
X58216Y-82751D01*
X58159Y-82792D01*
X58102Y-82826D01*
X58045Y-82854D01*
X57989Y-82876D01*
X57931Y-82893D01*
X57871Y-82906D01*
X57809Y-82913D01*
X57721Y-82917D01*
X57671Y-82940D01*
X46175D01*
X45937Y-82440D01*
X46183Y-82072D01*
X46313Y-81416D01*
X46183Y-80760D01*
X45811Y-80204D01*
X45255Y-79832D01*
X44599Y-79702D01*
X44437Y-79734D01*
X44356Y-79711D01*
X44265Y-79721D01*
X44202Y-79723D01*
X44146Y-79720D01*
X44095Y-79712D01*
X44047Y-79699D01*
X44002Y-79682D01*
X43958Y-79660D01*
X43913Y-79632D01*
X43867Y-79597D01*
X43802Y-79538D01*
X43773Y-79527D01*
X43756Y-79500D01*
X43724Y-79492D01*
X42127Y-77895D01*
X42335Y-77395D01*
X49252D01*
X52240Y-80384D01*
X52536Y-80582D01*
X52761Y-80626D01*
X52867Y-80674D01*
X53034Y-80680D01*
X53081Y-80685D01*
X53111Y-80689D01*
X53318Y-80998D01*
X53874Y-81370D01*
X54530Y-81501D01*
X55186Y-81370D01*
X55742Y-80998D01*
X56113Y-80442D01*
X56244Y-79786D01*
X56113Y-79131D01*
X55742Y-78575D01*
X55186Y-78203D01*
X54530Y-78072D01*
X53874Y-78203D01*
X53318Y-78574D01*
X53036Y-78602D01*
X51204Y-76770D01*
X51378Y-76445D01*
Y-71653D01*
Y-67012D01*
X51277Y-67032D01*
X50691Y-67423D01*
X50522Y-67677D01*
X50440Y-67709D01*
X50275Y-67753D01*
X49920Y-67677D01*
X49889Y-67631D01*
X49795Y-67568D01*
X49784Y-67511D01*
X49757Y-67194D01*
X49754Y-66997D01*
X49730Y-66943D01*
Y-66680D01*
X50042Y-66368D01*
X50240Y-66072D01*
X50309Y-65723D01*
Y-64013D01*
X50332Y-63963D01*
X50336Y-63875D01*
X50344Y-63821D01*
X50355Y-63777D01*
X50368Y-63741D01*
X50384Y-63710D01*
X50402Y-63683D01*
X50425Y-63656D01*
X50454Y-63629D01*
X50493Y-63600D01*
X50564Y-63558D01*
X50626Y-63475D01*
X50942Y-63263D01*
X51314Y-62707D01*
X51444Y-62051D01*
X51314Y-61395D01*
X50942Y-60839D01*
X50386Y-60468D01*
X49730Y-60337D01*
X49074Y-60468D01*
X48518Y-60839D01*
X48147Y-61395D01*
X48016Y-62051D01*
X48147Y-62707D01*
X48212Y-62804D01*
X48217Y-62873D01*
X48318Y-63073D01*
X48349Y-63146D01*
X48409Y-63322D01*
X48428Y-63394D01*
X48443Y-63470D01*
X48454Y-63546D01*
X48461Y-63619D01*
X48463Y-63708D01*
X48487Y-63760D01*
Y-65346D01*
X48175Y-65658D01*
X47977Y-65954D01*
X47908Y-66302D01*
Y-66943D01*
X47884Y-66997D01*
X47881Y-67200D01*
X47870Y-67367D01*
X47855Y-67504D01*
X47843Y-67568D01*
X47749Y-67631D01*
X47670Y-67748D01*
X47659Y-67753D01*
X47646Y-67785D01*
X47639Y-67796D01*
X47605Y-67816D01*
X47593Y-67864D01*
X47522Y-67970D01*
X47475Y-67986D01*
X47013D01*
X46966Y-67970D01*
X46739Y-67631D01*
X46248Y-67303D01*
X45669Y-67188D01*
X45090Y-67303D01*
X44599Y-67631D01*
X44568Y-67677D01*
X43967D01*
X43797Y-67423D01*
X43211Y-67032D01*
X43110Y-67012D01*
Y-71653D01*
X41929D01*
Y-67012D01*
X41829Y-67032D01*
X41243Y-67423D01*
X41073Y-67677D01*
X40471D01*
X40440Y-67631D01*
X39949Y-67303D01*
X39370Y-67188D01*
X38791Y-67303D01*
X38300Y-67631D01*
X38073Y-67970D01*
X38026Y-67986D01*
X37565D01*
X37517Y-67970D01*
X37291Y-67631D01*
X36800Y-67303D01*
X36220Y-67188D01*
X35641Y-67303D01*
X35150Y-67631D01*
X34923Y-67970D01*
X34876Y-67986D01*
X34415D01*
X34368Y-67970D01*
X34141Y-67631D01*
X33650Y-67303D01*
X33071Y-67188D01*
X32492Y-67303D01*
X32001Y-67631D01*
X31774Y-67970D01*
X31727Y-67986D01*
X31265D01*
X31218Y-67970D01*
X30991Y-67631D01*
X30500Y-67303D01*
X29921Y-67188D01*
X29342Y-67303D01*
X28851Y-67631D01*
X28820Y-67677D01*
X28219D01*
X28049Y-67423D01*
X27463Y-67032D01*
X27362Y-67012D01*
Y-71653D01*
X26181D01*
Y-67012D01*
X26080Y-67032D01*
X25494Y-67423D01*
X25325Y-67677D01*
X24723D01*
X24692Y-67631D01*
X24201Y-67303D01*
X23622Y-67188D01*
X23043Y-67303D01*
X22552Y-67631D01*
X22325Y-67970D01*
X22278Y-67986D01*
X21816D01*
X21769Y-67970D01*
X21543Y-67631D01*
X21052Y-67303D01*
X20472Y-67188D01*
X19893Y-67303D01*
X19402Y-67631D01*
X19175Y-67970D01*
X19128Y-67986D01*
X18667D01*
X18620Y-67970D01*
X18393Y-67631D01*
X17902Y-67303D01*
X17323Y-67188D01*
X16744Y-67303D01*
X16253Y-67631D01*
X16026Y-67970D01*
X15979Y-67986D01*
X15517D01*
X15470Y-67970D01*
X15243Y-67631D01*
X14752Y-67303D01*
X14173Y-67188D01*
X13594Y-67303D01*
X13103Y-67631D01*
X13072Y-67677D01*
X12471D01*
X12301Y-67423D01*
X11715Y-67032D01*
X11614Y-67012D01*
Y-71654D01*
X10433D01*
Y-67012D01*
X10332Y-67032D01*
X9746Y-67423D01*
X9577Y-67677D01*
X8975D01*
X8944Y-67631D01*
X8453Y-67303D01*
X7874Y-67188D01*
X7295Y-67303D01*
X6804Y-67631D01*
X6577Y-67970D01*
X6530Y-67986D01*
X6068D01*
X6022Y-67970D01*
X5794Y-67631D01*
X5304Y-67303D01*
X4724Y-67188D01*
X4145Y-67303D01*
X3654Y-67631D01*
X3427Y-67970D01*
X3380Y-67986D01*
X2919D01*
X2872Y-67970D01*
X2645Y-67631D01*
X2154Y-67303D01*
X1575Y-67188D01*
X996Y-67303D01*
X505Y-67631D01*
X278Y-67970D01*
X231Y-67986D01*
X-231D01*
X-278Y-67970D01*
X-505Y-67631D01*
X-996Y-67303D01*
X-1575Y-67188D01*
X-2154Y-67303D01*
X-2645Y-67631D01*
X-2676Y-67677D01*
X-3277D01*
X-3447Y-67423D01*
X-4033Y-67032D01*
X-4134Y-67012D01*
Y-71653D01*
X-5315D01*
Y-67012D01*
X-5416Y-67032D01*
X-6002Y-67423D01*
X-6171Y-67677D01*
X-6773D01*
X-6804Y-67631D01*
X-7295Y-67303D01*
X-7874Y-67188D01*
X-8453Y-67303D01*
X-8944Y-67631D01*
X-9171Y-67970D01*
X-9218Y-67986D01*
X-9680D01*
X-9727Y-67970D01*
X-9954Y-67631D01*
X-10445Y-67303D01*
X-11024Y-67188D01*
X-11603Y-67303D01*
X-12094Y-67631D01*
X-12321Y-67970D01*
X-12368Y-67986D01*
X-12829D01*
X-12876Y-67970D01*
X-13103Y-67631D01*
X-13594Y-67303D01*
X-14173Y-67188D01*
X-14752Y-67303D01*
X-15243Y-67631D01*
X-15470Y-67970D01*
X-15517Y-67986D01*
X-15979D01*
X-16026Y-67970D01*
X-16253Y-67631D01*
X-16744Y-67303D01*
X-17323Y-67188D01*
X-17902Y-67303D01*
X-18393Y-67631D01*
X-18424Y-67677D01*
X-19026D01*
X-19195Y-67423D01*
X-19781Y-67032D01*
X-19882Y-67012D01*
Y-71653D01*
X-21063D01*
Y-67012D01*
X-21164Y-67032D01*
X-21750Y-67423D01*
X-21919Y-67677D01*
X-22521D01*
X-22552Y-67631D01*
X-23043Y-67303D01*
X-23622Y-67188D01*
X-24201Y-67303D01*
X-24692Y-67631D01*
X-24919Y-67970D01*
X-24966Y-67986D01*
X-25428D01*
X-25475Y-67970D01*
X-25702Y-67631D01*
X-26193Y-67303D01*
X-26772Y-67188D01*
X-27351Y-67303D01*
X-27842Y-67631D01*
X-28069Y-67970D01*
X-28116Y-67986D01*
X-28577D01*
X-28624Y-67970D01*
X-28851Y-67631D01*
X-29342Y-67303D01*
X-29921Y-67188D01*
X-30500Y-67303D01*
X-30991Y-67631D01*
X-31218Y-67970D01*
X-31265Y-67986D01*
X-31727D01*
X-31774Y-67970D01*
X-32001Y-67631D01*
X-32492Y-67303D01*
X-33071Y-67188D01*
X-33650Y-67303D01*
X-34141Y-67631D01*
X-34172Y-67677D01*
X-34773D01*
X-34943Y-67423D01*
X-35529Y-67032D01*
X-35630Y-67012D01*
Y-71653D01*
X-36811D01*
Y-67012D01*
X-36912Y-67032D01*
X-37498Y-67423D01*
X-37668Y-67677D01*
X-38269D01*
X-38300Y-67631D01*
X-38791Y-67303D01*
X-39370Y-67188D01*
X-39949Y-67303D01*
X-40440Y-67631D01*
X-40667Y-67970D01*
X-40714Y-67986D01*
X-41176D01*
X-41223Y-67970D01*
X-41450Y-67631D01*
X-41941Y-67303D01*
X-42520Y-67188D01*
X-43099Y-67303D01*
X-43590Y-67631D01*
X-43817Y-67970D01*
X-43864Y-67986D01*
X-44325D01*
X-44372Y-67970D01*
X-44599Y-67631D01*
X-45090Y-67303D01*
X-45669Y-67188D01*
X-46248Y-67303D01*
X-46739Y-67631D01*
X-46966Y-67970D01*
X-47013Y-67986D01*
X-47475D01*
X-47522Y-67970D01*
X-47749Y-67631D01*
X-48240Y-67303D01*
X-48819Y-67188D01*
X-49398Y-67303D01*
X-49889Y-67631D01*
X-49920Y-67677D01*
X-50522D01*
X-50691Y-67423D01*
X-51277Y-67032D01*
X-51378Y-67012D01*
Y-71653D01*
X-52559D01*
Y-67012D01*
X-52660Y-67032D01*
X-53246Y-67423D01*
X-53416Y-67677D01*
X-54017D01*
X-54048Y-67631D01*
X-54539Y-67303D01*
X-55118Y-67188D01*
X-55697Y-67303D01*
X-56188Y-67631D01*
X-56415Y-67970D01*
X-56462Y-67986D01*
X-56924D01*
X-56971Y-67970D01*
X-57198Y-67631D01*
X-57689Y-67303D01*
X-58268Y-67188D01*
X-58847Y-67303D01*
X-59338Y-67631D01*
X-59369Y-67677D01*
X-59970D01*
X-60140Y-67423D01*
X-60726Y-67032D01*
X-60827Y-67012D01*
Y-71653D01*
X-62008D01*
Y-67012D01*
X-62109Y-67032D01*
X-62695Y-67423D01*
X-62864Y-67677D01*
X-63466D01*
X-63497Y-67631D01*
X-63988Y-67303D01*
X-64567Y-67188D01*
X-65146Y-67303D01*
X-65637Y-67631D01*
X-65864Y-67970D01*
X-65911Y-67986D01*
X-66373D01*
X-66420Y-67970D01*
X-66646Y-67631D01*
X-67137Y-67303D01*
X-67717Y-67188D01*
X-68296Y-67303D01*
X-68787Y-67631D01*
X-68818Y-67677D01*
X-69419D01*
X-69589Y-67423D01*
X-70175Y-67032D01*
X-70276Y-67012D01*
Y-71653D01*
Y-75059D01*
X-70246Y-75048D01*
X-70241Y-75162D01*
X-70239Y-75182D01*
X-70056Y-75122D01*
X-70092Y-75143D01*
X-70124Y-75183D01*
X-70153Y-75241D01*
X-70178Y-75316D01*
X-70194Y-75389D01*
X-70167Y-75462D01*
X-70122Y-75549D01*
X-70068Y-75629D01*
X-70003Y-75702D01*
X-69928Y-75768D01*
X-69844Y-75827D01*
X-69750Y-75880D01*
X-70244Y-76041D01*
X-70246Y-76147D01*
X-70276D01*
Y-76295D01*
X-70175Y-76275D01*
X-69589Y-75884D01*
X-69419Y-75630D01*
X-69338Y-75598D01*
X-69172Y-75554D01*
X-68818Y-75630D01*
X-68787Y-75676D01*
X-68692Y-75740D01*
X-68682Y-75796D01*
X-68655Y-76113D01*
X-68651Y-76310D01*
X-68628Y-76364D01*
Y-80908D01*
X-68559Y-81256D01*
X-68361Y-81552D01*
X-67900Y-82013D01*
X-67604Y-82211D01*
X-67255Y-82280D01*
X2710D01*
X2827Y-82362D01*
X2872Y-82440D01*
X2581Y-82940D01*
X-72133D01*
X-72369Y-82499D01*
X-72325Y-82432D01*
X-72194Y-81776D01*
X-72325Y-81121D01*
X-72677Y-80594D01*
X-72690Y-80559D01*
X-72759Y-80487D01*
X-72808Y-80428D01*
X-72849Y-80370D01*
X-72883Y-80313D01*
X-72911Y-80257D01*
X-72933Y-80200D01*
X-72950Y-80143D01*
X-72963Y-80083D01*
X-72970Y-80020D01*
X-72974Y-79933D01*
X-72997Y-79883D01*
Y-76299D01*
X-72974Y-76248D01*
X-72959Y-75853D01*
X-72944Y-75714D01*
X-72934Y-75659D01*
X-72914Y-75630D01*
X-72313D01*
X-72144Y-75884D01*
X-71557Y-76275D01*
X-71457Y-76295D01*
Y-71653D01*
Y-67012D01*
X-71557Y-67032D01*
X-72144Y-67423D01*
X-72313Y-67677D01*
X-72914D01*
X-72946Y-67631D01*
X-73437Y-67303D01*
X-74016Y-67188D01*
X-74595Y-67303D01*
X-75086Y-67631D01*
X-75313Y-67970D01*
X-75360Y-67986D01*
X-75821D01*
X-75868Y-67970D01*
X-76095Y-67631D01*
X-76586Y-67303D01*
X-77165Y-67188D01*
X-77745Y-67303D01*
X-78236Y-67631D01*
X-78267Y-67677D01*
X-78868D01*
X-79038Y-67423D01*
X-79624Y-67032D01*
X-79725Y-67012D01*
Y-71653D01*
Y-75171D01*
X-79538D01*
X-79611Y-75182D01*
X-79676Y-75216D01*
X-79725Y-75264D01*
Y-75802D01*
X-79709Y-75828D01*
X-79644Y-75919D01*
X-79571Y-76008D01*
X-79488Y-76094D01*
X-79725D01*
Y-76295D01*
X-79624Y-76275D01*
X-79038Y-75884D01*
X-78905Y-75685D01*
X-78601Y-75687D01*
X-78430Y-75753D01*
X-78377Y-75795D01*
X-78360Y-76008D01*
X-78358Y-76138D01*
X-78334Y-76192D01*
Y-77891D01*
X-78357Y-77942D01*
X-78361Y-78029D01*
X-78369Y-78092D01*
X-78381Y-78152D01*
X-78398Y-78209D01*
X-78421Y-78266D01*
X-78448Y-78322D01*
X-78482Y-78379D01*
X-78523Y-78437D01*
X-78572Y-78496D01*
X-78641Y-78568D01*
X-78655Y-78603D01*
X-79007Y-79129D01*
X-79137Y-79785D01*
X-79007Y-80441D01*
X-78635Y-80997D01*
X-78079Y-81369D01*
X-77423Y-81499D01*
X-76767Y-81369D01*
X-76211Y-80997D01*
X-75840Y-80441D01*
X-75709Y-79785D01*
X-75840Y-79129D01*
X-76191Y-78603D01*
X-76205Y-78568D01*
X-76274Y-78496D01*
X-76323Y-78437D01*
X-76364Y-78379D01*
X-76398Y-78322D01*
X-76426Y-78266D01*
X-76448Y-78209D01*
X-76465Y-78152D01*
X-76477Y-78092D01*
X-76485Y-78029D01*
X-76489Y-77942D01*
X-76512Y-77891D01*
Y-76512D01*
X-76510Y-76510D01*
X-76512Y-76492D01*
Y-76422D01*
X-76488Y-76368D01*
X-76485Y-76180D01*
X-76475Y-76032D01*
X-76461Y-75921D01*
X-76416Y-75891D01*
X-76384Y-75887D01*
X-76359Y-75857D01*
X-76321Y-75847D01*
X-76301Y-75814D01*
X-76095Y-75676D01*
X-75868Y-75337D01*
X-75821Y-75321D01*
X-75360D01*
X-75313Y-75337D01*
X-75086Y-75676D01*
X-75063Y-75692D01*
X-75054Y-75711D01*
X-75015Y-75725D01*
X-74992Y-75760D01*
X-74947Y-75769D01*
X-74882Y-75813D01*
X-74873Y-75855D01*
X-74847Y-76151D01*
X-74843Y-76338D01*
X-74831Y-76367D01*
X-74839Y-76396D01*
X-74819Y-76430D01*
Y-79882D01*
X-74843Y-79933D01*
X-74846Y-80020D01*
X-74854Y-80083D01*
X-74866Y-80143D01*
X-74883Y-80200D01*
X-74906Y-80257D01*
X-74933Y-80313D01*
X-74967Y-80370D01*
X-75008Y-80428D01*
X-75057Y-80487D01*
X-75126Y-80559D01*
X-75140Y-80594D01*
X-75492Y-81121D01*
X-75622Y-81776D01*
X-75492Y-82432D01*
X-75447Y-82499D01*
X-75683Y-82940D01*
X-81097D01*
X-82698Y-81339D01*
X-82623Y-81226D01*
X-82553Y-80877D01*
Y-76364D01*
X-82530Y-76310D01*
X-82526Y-76107D01*
X-82516Y-75940D01*
X-82501Y-75804D01*
X-82489Y-75740D01*
X-82395Y-75676D01*
X-82363Y-75630D01*
X-82009Y-75554D01*
X-81844Y-75598D01*
X-81762Y-75630D01*
X-81592Y-75884D01*
X-81006Y-76275D01*
X-80906Y-76295D01*
Y-76094D01*
X-81142D01*
X-81059Y-76008D01*
X-80986Y-75919D01*
X-80921Y-75828D01*
X-80906Y-75802D01*
Y-75264D01*
X-80954Y-75216D01*
X-81020Y-75182D01*
X-81093Y-75171D01*
X-80906D01*
Y-71653D01*
Y-67012D01*
X-81006Y-67032D01*
X-81592Y-67423D01*
X-81762Y-67677D01*
X-82363D01*
X-82395Y-67631D01*
X-82885Y-67303D01*
X-83465Y-67188D01*
X-84044Y-67303D01*
X-84535Y-67631D01*
X-84762Y-67970D01*
X-84809Y-67986D01*
X-85270D01*
X-85317Y-67970D01*
X-85544Y-67631D01*
X-86035Y-67303D01*
X-86614Y-67188D01*
X-87193Y-67303D01*
X-87684Y-67631D01*
X-87716Y-67677D01*
X-88317D01*
X-88487Y-67423D01*
X-89073Y-67032D01*
X-89173Y-67012D01*
Y-71653D01*
Y-76295D01*
X-89073Y-76275D01*
X-88487Y-75884D01*
X-88317Y-75630D01*
X-87716D01*
X-87684Y-75676D01*
X-87607Y-75728D01*
X-87594Y-75753D01*
X-87555Y-75765D01*
X-87532Y-75799D01*
X-87491Y-75806D01*
X-87433Y-75844D01*
X-87428Y-75869D01*
X-87402Y-76161D01*
X-87398Y-76347D01*
X-87381Y-76387D01*
X-87390Y-76430D01*
X-87375Y-76454D01*
Y-81747D01*
X-87398Y-81797D01*
X-87401Y-81885D01*
X-87409Y-81948D01*
X-87422Y-82007D01*
X-87439Y-82065D01*
X-87461Y-82122D01*
X-87489Y-82178D01*
X-87523Y-82235D01*
X-87564Y-82293D01*
X-87613Y-82351D01*
X-87682Y-82424D01*
X-87695Y-82459D01*
X-88047Y-82985D01*
X-88178Y-83641D01*
X-88191Y-83657D01*
X-116014D01*
X-116165Y-83157D01*
X-115941Y-83007D01*
X-115569Y-82451D01*
X-115439Y-81795D01*
X-115569Y-81139D01*
X-115912Y-80626D01*
X-115928Y-80585D01*
X-115997Y-80511D01*
X-116046Y-80452D01*
X-116087Y-80394D01*
X-116121Y-80336D01*
X-116149Y-80279D01*
X-116171Y-80222D01*
X-116189Y-80164D01*
X-116201Y-80104D01*
X-116209Y-80041D01*
X-116212Y-79954D01*
X-116235Y-79904D01*
Y-62510D01*
X-115735Y-62303D01*
X-115627Y-62411D01*
X-115332Y-62608D01*
X-114983Y-62678D01*
X-107047D01*
X-106895Y-63178D01*
X-107063Y-63290D01*
X-107435Y-63846D01*
X-107565Y-64502D01*
X-107435Y-65158D01*
X-107063Y-65714D01*
X-106977Y-65771D01*
X-106949Y-65829D01*
X-106878Y-65891D01*
X-106830Y-65939D01*
X-106791Y-65987D01*
X-106759Y-66034D01*
X-106733Y-66081D01*
X-106712Y-66129D01*
X-106696Y-66180D01*
X-106684Y-66234D01*
X-106676Y-66293D01*
X-106672Y-66381D01*
X-106665Y-66396D01*
X-106670Y-66413D01*
X-106649Y-66452D01*
Y-67093D01*
X-106673Y-67147D01*
X-106675Y-67270D01*
X-106695Y-67497D01*
X-106703Y-67543D01*
X-106831Y-67617D01*
X-107011Y-67663D01*
X-107161Y-67657D01*
X-107242Y-67637D01*
X-107384Y-67423D01*
X-107970Y-67032D01*
X-108071Y-67012D01*
Y-71653D01*
Y-76295D01*
X-107970Y-76275D01*
X-107384Y-75884D01*
X-107215Y-75630D01*
X-106613D01*
X-106582Y-75676D01*
X-106091Y-76004D01*
X-105512Y-76120D01*
X-104933Y-76004D01*
X-104442Y-75676D01*
X-104215Y-75337D01*
X-104168Y-75321D01*
X-103706D01*
X-103659Y-75337D01*
X-103432Y-75676D01*
X-102941Y-76004D01*
X-102362Y-76120D01*
X-101783Y-76004D01*
X-101292Y-75676D01*
X-101261Y-75630D01*
X-100660D01*
X-100490Y-75884D01*
X-99904Y-76275D01*
X-99803Y-76295D01*
Y-71653D01*
X-98622D01*
Y-76295D01*
X-98521Y-76275D01*
X-97935Y-75884D01*
X-97766Y-75630D01*
X-97164D01*
X-97133Y-75676D01*
X-96642Y-76004D01*
X-96063Y-76120D01*
X-95484Y-76004D01*
X-94993Y-75676D01*
X-94766Y-75337D01*
X-94719Y-75321D01*
X-94257D01*
X-94210Y-75337D01*
X-93984Y-75676D01*
X-93493Y-76004D01*
X-92914Y-76120D01*
X-92334Y-76004D01*
X-91843Y-75676D01*
X-91812Y-75630D01*
X-91211D01*
X-91041Y-75884D01*
X-90455Y-76275D01*
X-90354Y-76295D01*
Y-71653D01*
Y-67012D01*
X-90455Y-67032D01*
X-91041Y-67423D01*
X-91211Y-67677D01*
X-91293Y-67709D01*
X-91458Y-67753D01*
X-91812Y-67677D01*
X-91843Y-67631D01*
X-91938Y-67568D01*
X-91948Y-67511D01*
X-91975Y-67194D01*
X-91979Y-66997D01*
X-92002Y-66943D01*
Y-65645D01*
X-92072Y-65296D01*
X-92269Y-65000D01*
X-95250Y-62019D01*
X-95105Y-61541D01*
X-95026Y-61525D01*
X-94664Y-61283D01*
X-94427Y-61178D01*
X-94032Y-61397D01*
X-93864Y-61649D01*
X-93308Y-62021D01*
X-92652Y-62151D01*
X-91996Y-62021D01*
X-91440Y-61649D01*
X-91068Y-61093D01*
X-90938Y-60437D01*
X-91068Y-59781D01*
X-91440Y-59225D01*
X-91541Y-59158D01*
X-91574Y-59095D01*
X-91645Y-59034D01*
X-91692Y-58987D01*
X-91731Y-58941D01*
X-91762Y-58896D01*
X-91788Y-58850D01*
X-91790Y-58846D01*
X-91701Y-58533D01*
X-91524Y-58443D01*
X-91111Y-58457D01*
X-91041Y-58561D01*
X-90455Y-58952D01*
X-90354Y-58972D01*
Y-54331D01*
Y-50908D01*
X-90680Y-50999D01*
X-90635Y-50922D01*
X-90595Y-50833D01*
X-90560Y-50732D01*
X-90529Y-50618D01*
X-90503Y-50493D01*
X-90465Y-50204D01*
X-90454Y-50042D01*
X-90449Y-49866D01*
X-90541Y-49767D01*
X-91041Y-50101D01*
X-91211Y-50355D01*
X-91812D01*
X-91843Y-50308D01*
X-92334Y-49980D01*
X-92914Y-49865D01*
X-93493Y-49980D01*
X-93984Y-50308D01*
X-94210Y-50647D01*
X-94257Y-50663D01*
X-94719D01*
X-94766Y-50647D01*
X-94993Y-50308D01*
X-95484Y-49980D01*
X-96063Y-49865D01*
X-96642Y-49980D01*
X-97133Y-50308D01*
X-97164Y-50355D01*
X-97766D01*
X-97935Y-50101D01*
X-98521Y-49709D01*
X-98622Y-49689D01*
Y-54331D01*
X-99803D01*
Y-49689D01*
X-99904Y-49709D01*
X-100490Y-50101D01*
X-100660Y-50355D01*
X-100741Y-50387D01*
X-100907Y-50430D01*
X-101261Y-50355D01*
X-101292Y-50308D01*
X-101387Y-50245D01*
X-101397Y-50188D01*
X-101424Y-49871D01*
X-101427Y-49675D01*
X-101451Y-49620D01*
Y-47089D01*
X-99664Y-45302D01*
X-62440D01*
X-62389Y-45325D01*
X-62302Y-45329D01*
X-62239Y-45336D01*
X-62180Y-45349D01*
X-62122Y-45366D01*
X-62065Y-45388D01*
X-62008Y-45416D01*
X-61951Y-45450D01*
X-61893Y-45491D01*
X-61834Y-45540D01*
X-61761Y-45609D01*
X-61724Y-45623D01*
X-61203Y-45972D01*
X-60547Y-46102D01*
X-59891Y-45972D01*
X-59335Y-45600D01*
X-58963Y-45044D01*
X-58833Y-44388D01*
X-58963Y-43732D01*
X-59335Y-43176D01*
X-59891Y-42804D01*
X-60547Y-42674D01*
X-61203Y-42804D01*
X-61735Y-43160D01*
X-61767Y-43172D01*
X-61839Y-43242D01*
X-61897Y-43290D01*
X-61955Y-43331D01*
X-62012Y-43365D01*
X-62068Y-43393D01*
X-62124Y-43415D01*
X-62182Y-43433D01*
X-62241Y-43445D01*
X-62304Y-43453D01*
X-62391Y-43456D01*
X-62442Y-43479D01*
X-100041D01*
X-100390Y-43549D01*
X-100685Y-43746D01*
X-103007Y-46068D01*
X-103204Y-46363D01*
X-103273Y-46712D01*
Y-49620D01*
X-103297Y-49675D01*
X-103301Y-49878D01*
X-103311Y-50044D01*
X-103326Y-50181D01*
X-103338Y-50245D01*
X-103432Y-50308D01*
X-103511Y-50426D01*
X-103522Y-50430D01*
X-103536Y-50463D01*
X-103543Y-50473D01*
X-103577Y-50493D01*
X-103588Y-50541D01*
X-103659Y-50647D01*
X-103706Y-50663D01*
X-104168D01*
X-104215Y-50647D01*
X-104286Y-50541D01*
X-104298Y-50493D01*
X-104332Y-50473D01*
X-104339Y-50463D01*
X-104352Y-50430D01*
X-104363Y-50426D01*
X-104442Y-50308D01*
X-104536Y-50245D01*
X-104547Y-50188D01*
X-104574Y-49871D01*
X-104577Y-49675D01*
X-104601Y-49620D01*
Y-42274D01*
X-103329Y-41003D01*
X-72472D01*
X-72421Y-41026D01*
X-72334Y-41029D01*
X-72271Y-41037D01*
X-72211Y-41049D01*
X-72153Y-41067D01*
X-72097Y-41089D01*
X-72040Y-41117D01*
X-71983Y-41151D01*
X-71925Y-41192D01*
X-71866Y-41241D01*
X-71793Y-41310D01*
X-71756Y-41324D01*
X-71235Y-41672D01*
X-70579Y-41803D01*
X-69923Y-41672D01*
X-69367Y-41301D01*
X-68995Y-40745D01*
X-68865Y-40089D01*
X-68995Y-39433D01*
X-69367Y-38877D01*
X-69923Y-38505D01*
X-70579Y-38375D01*
X-71235Y-38505D01*
X-71767Y-38861D01*
X-71798Y-38873D01*
X-71871Y-38943D01*
X-71929Y-38991D01*
X-71987Y-39032D01*
X-72043Y-39066D01*
X-72100Y-39094D01*
X-72156Y-39116D01*
X-72214Y-39134D01*
X-72273Y-39146D01*
X-72335Y-39154D01*
X-72423Y-39157D01*
X-72474Y-39180D01*
X-103706D01*
X-104055Y-39250D01*
X-104351Y-39447D01*
X-106156Y-41253D01*
X-106354Y-41548D01*
X-106423Y-41897D01*
Y-49620D01*
X-106447Y-49675D01*
X-106450Y-49878D01*
X-106460Y-50044D01*
X-106476Y-50181D01*
X-106488Y-50245D01*
X-106582Y-50308D01*
X-106613Y-50355D01*
X-106968Y-50430D01*
X-107133Y-50387D01*
X-107215Y-50355D01*
X-107384Y-50101D01*
X-107970Y-49709D01*
X-108071Y-49689D01*
Y-54331D01*
X-108661D01*
Y-54921D01*
X-110468D01*
Y-57284D01*
X-110330Y-57975D01*
X-109959Y-58530D01*
X-109994Y-58693D01*
X-110136Y-59030D01*
X-112645D01*
Y-31283D01*
X-107565D01*
X-107298Y-31783D01*
X-107392Y-31924D01*
X-107522Y-32580D01*
X-107392Y-33236D01*
X-107020Y-33792D01*
X-106464Y-34163D01*
X-105808Y-34294D01*
X-105152Y-34163D01*
X-104626Y-33811D01*
X-104591Y-33798D01*
X-104519Y-33729D01*
X-104460Y-33680D01*
X-104402Y-33639D01*
X-104345Y-33605D01*
X-104289Y-33577D01*
X-104232Y-33555D01*
X-104175Y-33538D01*
X-104115Y-33525D01*
X-104052Y-33518D01*
X-103965Y-33514D01*
X-103914Y-33491D01*
X-47554D01*
X-47165Y-33880D01*
X-46870Y-34078D01*
X-46651Y-34121D01*
X-46246Y-34391D01*
X-45590Y-34522D01*
X-44934Y-34391D01*
X-44378Y-34020D01*
X-44007Y-33464D01*
X-43876Y-32808D01*
X-44007Y-32152D01*
X-44253Y-31783D01*
X-44015Y-31283D01*
X13349D01*
X13400Y-31307D01*
X13487Y-31310D01*
X13550Y-31318D01*
X13610Y-31330D01*
X13667Y-31347D01*
X13724Y-31370D01*
X13780Y-31397D01*
X13837Y-31431D01*
X13895Y-31473D01*
X13954Y-31521D01*
X14026Y-31590D01*
X14061Y-31604D01*
X14587Y-31956D01*
X15243Y-32086D01*
X15899Y-31956D01*
X16455Y-31584D01*
X16827Y-31028D01*
X16957Y-30372D01*
X16827Y-29716D01*
X16455Y-29160D01*
X15899Y-28789D01*
X15243Y-28658D01*
X14587Y-28789D01*
X14061Y-29140D01*
X14026Y-29154D01*
X13954Y-29223D01*
X13895Y-29272D01*
X13837Y-29313D01*
X13780Y-29347D01*
X13724Y-29375D01*
X13667Y-29397D01*
X13610Y-29414D01*
X13550Y-29427D01*
X13487Y-29434D01*
X13400Y-29438D01*
X13349Y-29461D01*
X-113095D01*
X-113444Y-29530D01*
X-113740Y-29728D01*
X-114033Y-30021D01*
X-114533Y-29814D01*
Y-29093D01*
X-113548Y-28108D01*
X3445D01*
X3495Y-28132D01*
X3583Y-28135D01*
X3646Y-28143D01*
X3705Y-28155D01*
X3763Y-28172D01*
X3820Y-28195D01*
X3876Y-28222D01*
X3933Y-28257D01*
X3991Y-28298D01*
X4049Y-28346D01*
X4122Y-28416D01*
X4156Y-28429D01*
X4683Y-28781D01*
X5339Y-28911D01*
X5995Y-28781D01*
X6551Y-28409D01*
X6923Y-27853D01*
X7053Y-27197D01*
X6923Y-26541D01*
X6551Y-25985D01*
X5995Y-25614D01*
X5339Y-25483D01*
X4683Y-25614D01*
X4156Y-25966D01*
X4122Y-25979D01*
X4049Y-26048D01*
X3991Y-26097D01*
X3933Y-26138D01*
X3876Y-26172D01*
X3819Y-26200D01*
X3763Y-26222D01*
X3705Y-26239D01*
X3646Y-26252D01*
X3583Y-26259D01*
X3495Y-26263D01*
X3445Y-26286D01*
X-113926D01*
X-114274Y-26355D01*
X-114570Y-26553D01*
X-115735Y-27718D01*
X-116235Y-27511D01*
Y-23037D01*
X47836D01*
X47887Y-23060D01*
X47974Y-23064D01*
X48037Y-23071D01*
X48096Y-23084D01*
X48154Y-23101D01*
X48211Y-23123D01*
X48267Y-23151D01*
X48324Y-23185D01*
X48382Y-23226D01*
X48441Y-23275D01*
X48513Y-23344D01*
X48548Y-23358D01*
X49074Y-23709D01*
X49730Y-23840D01*
X50386Y-23709D01*
X50942Y-23338D01*
X51314Y-22782D01*
X51444Y-22126D01*
X51314Y-21470D01*
X50942Y-20914D01*
X50386Y-20542D01*
X49730Y-20412D01*
X49074Y-20542D01*
X48548Y-20894D01*
X48513Y-20908D01*
X48441Y-20977D01*
X48382Y-21026D01*
X48324Y-21067D01*
X48267Y-21101D01*
X48211Y-21128D01*
X48154Y-21151D01*
X48096Y-21168D01*
X48037Y-21180D01*
X47974Y-21188D01*
X47887Y-21191D01*
X47836Y-21215D01*
X-116685D01*
X-117034Y-21284D01*
X-117330Y-21482D01*
X-117791Y-21943D01*
X-117988Y-22239D01*
X-118058Y-22587D01*
Y-79899D01*
X-118081Y-79949D01*
X-118084Y-80037D01*
X-118092Y-80099D01*
X-118104Y-80159D01*
X-118122Y-80216D01*
X-118144Y-80272D01*
X-118172Y-80328D01*
X-118206Y-80384D01*
X-118247Y-80441D01*
X-118295Y-80500D01*
X-118365Y-80572D01*
X-118375Y-80599D01*
X-118736Y-81139D01*
X-118867Y-81795D01*
X-118736Y-82451D01*
X-118365Y-83007D01*
X-118140Y-83157D01*
X-118292Y-83657D01*
X-125500D01*
Y85567D01*
X-125432Y85634D01*
X126469D01*
Y-83657D01*
D02*
G37*
G36*
X4496Y-28024D02*
X4409Y-27942D01*
X4321Y-27868D01*
X4229Y-27803D01*
X4135Y-27747D01*
X4039Y-27699D01*
X3939Y-27660D01*
X3838Y-27630D01*
X3733Y-27608D01*
X3626Y-27595D01*
X3517Y-27591D01*
Y-26803D01*
X3626Y-26799D01*
X3733Y-26786D01*
X3838Y-26765D01*
X3939Y-26734D01*
X4039Y-26695D01*
X4135Y-26648D01*
X4229Y-26591D01*
X4321Y-26526D01*
X4409Y-26453D01*
X4496Y-26370D01*
Y-28024D01*
D02*
G37*
G36*
X14400Y-31199D02*
X14314Y-31117D01*
X14225Y-31043D01*
X14133Y-30978D01*
X14040Y-30922D01*
X13943Y-30874D01*
X13844Y-30835D01*
X13742Y-30805D01*
X13638Y-30783D01*
X13531Y-30770D01*
X13421Y-30766D01*
Y-29978D01*
X13531Y-29974D01*
X13638Y-29961D01*
X13742Y-29939D01*
X13844Y-29909D01*
X13943Y-29870D01*
X14040Y-29822D01*
X14133Y-29766D01*
X14225Y-29701D01*
X14314Y-29628D01*
X14400Y-29545D01*
Y-31199D01*
D02*
G37*
G36*
X-46439Y-33629D02*
X-47455Y-32858D01*
X-46898Y-32301D01*
X-46867Y-32330D01*
X-46837Y-32352D01*
X-46808Y-32367D01*
X-46781Y-32375D01*
X-46755Y-32376D01*
X-46731Y-32370D01*
X-46707Y-32357D01*
X-46685Y-32338D01*
X-46665Y-32311D01*
X-46646Y-32278D01*
X-46439Y-33629D01*
D02*
G37*
G36*
X-104879Y-31835D02*
X-104790Y-31909D01*
X-104699Y-31974D01*
X-104604Y-32030D01*
X-104508Y-32078D01*
X-104409Y-32117D01*
X-104307Y-32147D01*
X-104203Y-32169D01*
X-104096Y-32182D01*
X-103986Y-32186D01*
Y-32973D01*
X-104096Y-32978D01*
X-104203Y-32991D01*
X-104307Y-33012D01*
X-104409Y-33043D01*
X-104508Y-33082D01*
X-104604Y-33129D01*
X-104699Y-33186D01*
X-104790Y-33251D01*
X-104879Y-33324D01*
X-104965Y-33406D01*
Y-31753D01*
X-104879Y-31835D01*
D02*
G37*
G36*
X-71420Y-40918D02*
X-71507Y-40835D01*
X-71596Y-40762D01*
X-71687Y-40697D01*
X-71781Y-40641D01*
X-71878Y-40593D01*
X-71977Y-40554D01*
X-72079Y-40524D01*
X-72183Y-40502D01*
X-72290Y-40489D01*
X-72400Y-40485D01*
X-72402Y-39698D01*
X-72292Y-39693D01*
X-72185Y-39680D01*
X-72081Y-39659D01*
X-71979Y-39628D01*
X-71880Y-39589D01*
X-71784Y-39542D01*
X-71690Y-39485D01*
X-71599Y-39420D01*
X-71510Y-39346D01*
X-71424Y-39264D01*
X-71420Y-40918D01*
D02*
G37*
G36*
X-61389Y-45217D02*
X-61475Y-45134D01*
X-61564Y-45061D01*
X-61655Y-44996D01*
X-61750Y-44940D01*
X-61846Y-44892D01*
X-61946Y-44853D01*
X-62047Y-44823D01*
X-62152Y-44802D01*
X-62259Y-44789D01*
X-62368Y-44784D01*
X-62370Y-43997D01*
X-62260Y-43992D01*
X-62154Y-43979D01*
X-62049Y-43958D01*
X-61947Y-43927D01*
X-61848Y-43888D01*
X-61752Y-43841D01*
X-61658Y-43784D01*
X-61567Y-43719D01*
X-61478Y-43646D01*
X-61392Y-43563D01*
X-61389Y-45217D01*
D02*
G37*
G36*
X-101965Y-49899D02*
X-101934Y-50260D01*
X-101907Y-50407D01*
X-101873Y-50531D01*
X-101830Y-50633D01*
X-101781Y-50712D01*
X-101723Y-50768D01*
X-101658Y-50802D01*
X-101585Y-50813D01*
X-103140D01*
X-103067Y-50802D01*
X-103002Y-50768D01*
X-102944Y-50712D01*
X-102894Y-50633D01*
X-102852Y-50531D01*
X-102817Y-50407D01*
X-102790Y-50260D01*
X-102771Y-50091D01*
X-102760Y-49899D01*
X-102756Y-49684D01*
X-101969D01*
X-101965Y-49899D01*
D02*
G37*
G36*
X-105114D02*
X-105084Y-50260D01*
X-105057Y-50407D01*
X-105022Y-50531D01*
X-104980Y-50633D01*
X-104930Y-50712D01*
X-104873Y-50768D01*
X-104807Y-50802D01*
X-104735Y-50813D01*
X-106289D01*
X-106216Y-50802D01*
X-106151Y-50768D01*
X-106094Y-50712D01*
X-106044Y-50633D01*
X-106001Y-50531D01*
X-105967Y-50407D01*
X-105940Y-50260D01*
X-105921Y-50091D01*
X-105909Y-49899D01*
X-105906Y-49684D01*
X-105118D01*
X-105114Y-49899D01*
D02*
G37*
G36*
X-95271Y-57742D02*
X-95337Y-57787D01*
X-95394Y-57853D01*
X-95444Y-57941D01*
X-95486Y-58051D01*
X-95521Y-58182D01*
X-95548Y-58334D01*
X-95548Y-58336D01*
X-95538Y-58377D01*
X-95504Y-58472D01*
X-95459Y-58561D01*
X-95405Y-58645D01*
X-95341Y-58722D01*
X-95268Y-58794D01*
X-95184Y-58859D01*
X-95091Y-58919D01*
X-96693Y-59330D01*
X-96631Y-59223D01*
X-96528Y-59011D01*
X-96486Y-58904D01*
X-96450Y-58799D01*
X-96421Y-58693D01*
X-96403Y-58607D01*
X-96405Y-58593D01*
X-96433Y-58477D01*
X-96468Y-58370D01*
X-96512Y-58274D01*
X-96563Y-58187D01*
X-96622Y-58109D01*
X-96689Y-58042D01*
X-96764Y-57984D01*
X-95198Y-57718D01*
X-95271Y-57742D01*
D02*
G37*
G36*
X-92072Y-57780D02*
X-92138Y-57899D01*
X-92197Y-58019D01*
X-92248Y-58140D01*
X-92291Y-58262D01*
X-92326Y-58385D01*
X-92354Y-58510D01*
X-92373Y-58635D01*
X-92381Y-58716D01*
X-92370Y-58795D01*
X-92347Y-58899D01*
X-92314Y-58998D01*
X-92273Y-59093D01*
X-92221Y-59184D01*
X-92161Y-59271D01*
X-92091Y-59354D01*
X-92012Y-59433D01*
X-91923Y-59508D01*
X-93567Y-59691D01*
X-93493Y-59594D01*
X-93426Y-59497D01*
X-93368Y-59398D01*
X-93317Y-59298D01*
X-93274Y-59196D01*
X-93239Y-59094D01*
X-93211Y-58990D01*
X-93192Y-58885D01*
X-93181Y-58789D01*
X-93211Y-58461D01*
X-93238Y-58326D01*
X-93273Y-58213D01*
X-93316Y-58125D01*
X-93366Y-58059D01*
X-93424Y-58017D01*
X-93490Y-57999D01*
X-93563Y-58004D01*
X-91998Y-57663D01*
X-92072Y-57780D01*
D02*
G37*
G36*
X50287Y-63093D02*
X50192Y-63149D01*
X50108Y-63212D01*
X50034Y-63280D01*
X49970Y-63355D01*
X49916Y-63437D01*
X49871Y-63525D01*
X49836Y-63619D01*
X49812Y-63719D01*
X49797Y-63826D01*
X49792Y-63939D01*
X49004Y-63692D01*
X49001Y-63588D01*
X48992Y-63483D01*
X48977Y-63378D01*
X48956Y-63272D01*
X48928Y-63166D01*
X48855Y-62953D01*
X48809Y-62845D01*
X48700Y-62628D01*
X50287Y-63093D01*
D02*
G37*
G36*
X-101722Y-65315D02*
X-101792Y-65408D01*
X-101855Y-65503D01*
X-101909Y-65600D01*
X-101954Y-65698D01*
X-101992Y-65799D01*
X-102021Y-65902D01*
X-102042Y-66007D01*
X-102054Y-66114D01*
X-102058Y-66222D01*
X-102846Y-66263D01*
X-102850Y-66152D01*
X-102864Y-66045D01*
X-102886Y-65941D01*
X-102918Y-65841D01*
X-102958Y-65743D01*
X-103007Y-65649D01*
X-103066Y-65558D01*
X-103133Y-65470D01*
X-103209Y-65386D01*
X-103294Y-65304D01*
X-101643Y-65225D01*
X-101722Y-65315D01*
D02*
G37*
G36*
X-105023Y-65357D02*
X-105090Y-65454D01*
X-105150Y-65552D01*
X-105201Y-65651D01*
X-105245Y-65752D01*
X-105281Y-65854D01*
X-105308Y-65958D01*
X-105328Y-66063D01*
X-105340Y-66169D01*
X-105344Y-66277D01*
X-106132Y-66358D01*
X-106136Y-66247D01*
X-106150Y-66140D01*
X-106173Y-66037D01*
X-106205Y-65937D01*
X-106247Y-65842D01*
X-106298Y-65750D01*
X-106358Y-65662D01*
X-106427Y-65578D01*
X-106506Y-65497D01*
X-106593Y-65421D01*
X-104947Y-65262D01*
X-105023Y-65357D01*
D02*
G37*
G36*
X49216Y-67222D02*
X49247Y-67583D01*
X49274Y-67730D01*
X49309Y-67854D01*
X49351Y-67955D01*
X49401Y-68034D01*
X49458Y-68091D01*
X49523Y-68125D01*
X49596Y-68136D01*
X48042D01*
X48114Y-68125D01*
X48180Y-68091D01*
X48237Y-68034D01*
X48287Y-67955D01*
X48329Y-67854D01*
X48364Y-67730D01*
X48391Y-67583D01*
X48410Y-67414D01*
X48421Y-67222D01*
X48425Y-67007D01*
X49213D01*
X49216Y-67222D01*
D02*
G37*
G36*
X-92516D02*
X-92485Y-67583D01*
X-92458Y-67730D01*
X-92424Y-67854D01*
X-92382Y-67955D01*
X-92332Y-68034D01*
X-92274Y-68091D01*
X-92209Y-68125D01*
X-92136Y-68136D01*
X-93691D01*
X-93618Y-68125D01*
X-93553Y-68091D01*
X-93495Y-68034D01*
X-93445Y-67955D01*
X-93403Y-67854D01*
X-93369Y-67730D01*
X-93342Y-67583D01*
X-93322Y-67414D01*
X-93311Y-67222D01*
X-93307Y-67007D01*
X-92520D01*
X-92516Y-67222D01*
D02*
G37*
G36*
X-95666D02*
X-95635Y-67583D01*
X-95608Y-67730D01*
X-95574Y-67854D01*
X-95531Y-67955D01*
X-95481Y-68034D01*
X-95424Y-68091D01*
X-95359Y-68125D01*
X-95286Y-68136D01*
X-96841D01*
X-96768Y-68125D01*
X-96702Y-68091D01*
X-96645Y-68034D01*
X-96595Y-67955D01*
X-96553Y-67854D01*
X-96518Y-67730D01*
X-96491Y-67583D01*
X-96472Y-67414D01*
X-96461Y-67222D01*
X-96457Y-67007D01*
X-95669D01*
X-95666Y-67222D01*
D02*
G37*
G36*
X-102055Y-67189D02*
X-102023Y-67533D01*
X-101996Y-67670D01*
X-101962Y-67784D01*
X-101919Y-67875D01*
X-101869Y-67943D01*
X-101811Y-67988D01*
X-101745Y-68009D01*
X-101671Y-68008D01*
X-103229Y-68270D01*
X-103157Y-68247D01*
X-103091Y-68201D01*
X-103034Y-68135D01*
X-102984Y-68047D01*
X-102942Y-67937D01*
X-102907Y-67806D01*
X-102880Y-67654D01*
X-102861Y-67479D01*
X-102846Y-67067D01*
X-102058Y-66983D01*
X-102055Y-67189D01*
D02*
G37*
G36*
X-105340Y-67157D02*
X-105309Y-67490D01*
X-105282Y-67622D01*
X-105247Y-67730D01*
X-105205Y-67814D01*
X-105155Y-67875D01*
X-105096Y-67912D01*
X-105031Y-67926D01*
X-104957Y-67917D01*
X-106428Y-68321D01*
X-106371Y-68230D01*
X-106321Y-68133D01*
X-106277Y-68031D01*
X-106238Y-67923D01*
X-106206Y-67809D01*
X-106179Y-67690D01*
X-106158Y-67565D01*
X-106135Y-67299D01*
X-106132Y-67158D01*
X-105344Y-66955D01*
X-105340Y-67157D01*
D02*
G37*
G36*
X-76642Y-75412D02*
X-76716Y-75401D01*
X-76782Y-75413D01*
X-76840Y-75449D01*
X-76890Y-75508D01*
X-76933Y-75591D01*
X-76967Y-75697D01*
X-76995Y-75827D01*
X-77014Y-75981D01*
X-77026Y-76157D01*
X-77029Y-76358D01*
X-77817Y-76128D01*
X-77819Y-75982D01*
X-77841Y-75712D01*
X-77859Y-75587D01*
X-77912Y-75358D01*
X-77946Y-75255D01*
X-77986Y-75158D01*
X-78031Y-75068D01*
X-78081Y-74986D01*
X-76642Y-75412D01*
D02*
G37*
G36*
X-57563Y-75182D02*
X-57629Y-75216D01*
X-57686Y-75273D01*
X-57736Y-75352D01*
X-57778Y-75453D01*
X-57813Y-75578D01*
X-57840Y-75724D01*
X-57859Y-75894D01*
X-57870Y-76086D01*
X-57874Y-76300D01*
X-58662D01*
X-58665Y-76086D01*
X-58696Y-75724D01*
X-58723Y-75578D01*
X-58757Y-75453D01*
X-58800Y-75352D01*
X-58850Y-75273D01*
X-58907Y-75216D01*
X-58972Y-75182D01*
X-59045Y-75171D01*
X-57490D01*
X-57563Y-75182D01*
D02*
G37*
G36*
X-63863D02*
X-63928Y-75216D01*
X-63985Y-75273D01*
X-64035Y-75352D01*
X-64077Y-75453D01*
X-64112Y-75578D01*
X-64139Y-75724D01*
X-64158Y-75894D01*
X-64169Y-76086D01*
X-64173Y-76300D01*
X-64961D01*
X-64964Y-76086D01*
X-64995Y-75724D01*
X-65022Y-75578D01*
X-65057Y-75453D01*
X-65099Y-75352D01*
X-65149Y-75273D01*
X-65206Y-75216D01*
X-65272Y-75182D01*
X-65344Y-75171D01*
X-63790D01*
X-63863Y-75182D01*
D02*
G37*
G36*
X-67012D02*
X-67077Y-75216D01*
X-67135Y-75273D01*
X-67185Y-75352D01*
X-67227Y-75453D01*
X-67261Y-75578D01*
X-67288Y-75724D01*
X-67308Y-75894D01*
X-67319Y-76086D01*
X-67323Y-76300D01*
X-68110D01*
X-68114Y-76086D01*
X-68145Y-75724D01*
X-68172Y-75578D01*
X-68206Y-75453D01*
X-68248Y-75352D01*
X-68298Y-75273D01*
X-68356Y-75216D01*
X-68421Y-75182D01*
X-68494Y-75171D01*
X-66939D01*
X-67012Y-75182D01*
D02*
G37*
G36*
X-82760D02*
X-82825Y-75216D01*
X-82883Y-75273D01*
X-82933Y-75352D01*
X-82975Y-75453D01*
X-83010Y-75578D01*
X-83036Y-75724D01*
X-83056Y-75894D01*
X-83067Y-76086D01*
X-83071Y-76300D01*
X-83858D01*
X-83862Y-76086D01*
X-83893Y-75724D01*
X-83920Y-75578D01*
X-83954Y-75453D01*
X-83996Y-75352D01*
X-84046Y-75273D01*
X-84104Y-75216D01*
X-84169Y-75182D01*
X-84242Y-75171D01*
X-82687D01*
X-82760Y-75182D01*
D02*
G37*
G36*
X-73204Y-75036D02*
X-73269Y-75083D01*
X-73326Y-75151D01*
X-73376Y-75241D01*
X-73419Y-75352D01*
X-73453Y-75484D01*
X-73480Y-75638D01*
X-73499Y-75813D01*
X-73514Y-76228D01*
X-74302Y-76328D01*
X-74306Y-76121D01*
X-74337Y-75778D01*
X-74364Y-75642D01*
X-74399Y-75528D01*
X-74441Y-75438D01*
X-74492Y-75371D01*
X-74550Y-75328D01*
X-74615Y-75308D01*
X-74689Y-75311D01*
X-73131Y-75010D01*
X-73204Y-75036D01*
D02*
G37*
G36*
X-85769Y-75098D02*
X-85832Y-75212D01*
X-85888Y-75328D01*
X-85936Y-75447D01*
X-85977Y-75567D01*
X-86010Y-75689D01*
X-86036Y-75814D01*
X-86055Y-75940D01*
X-86066Y-76069D01*
X-86070Y-76199D01*
X-86857Y-76337D01*
X-86861Y-76131D01*
X-86892Y-75791D01*
X-86919Y-75656D01*
X-86954Y-75545D01*
X-86997Y-75457D01*
X-87047Y-75393D01*
X-87105Y-75352D01*
X-87171Y-75334D01*
X-87244Y-75340D01*
X-85698Y-74986D01*
X-85769Y-75098D01*
D02*
G37*
G36*
X-54296Y-75041D02*
X-54341Y-75090D01*
X-54363Y-75150D01*
X-54364Y-75222D01*
X-54342Y-75304D01*
X-54297Y-75399D01*
X-54231Y-75504D01*
X-54141Y-75621D01*
X-54030Y-75749D01*
X-53896Y-75888D01*
X-54527Y-76371D01*
X-54684Y-76215D01*
X-55461Y-75536D01*
X-55497Y-75522D01*
X-54228Y-75003D01*
X-54296Y-75041D01*
D02*
G37*
G36*
X-60526Y-75030D02*
X-60548Y-75086D01*
X-60567Y-75154D01*
X-60584Y-75235D01*
X-60598Y-75327D01*
X-60618Y-75546D01*
X-60628Y-75791D01*
X-60625Y-75846D01*
X-60612Y-75953D01*
X-60591Y-76058D01*
X-60561Y-76159D01*
X-60522Y-76258D01*
X-60474Y-76355D01*
X-60418Y-76449D01*
X-60353Y-76540D01*
X-60279Y-76629D01*
X-60197Y-76715D01*
X-61850D01*
X-61768Y-76629D01*
X-61694Y-76540D01*
X-61629Y-76449D01*
X-61573Y-76355D01*
X-61525Y-76258D01*
X-61487Y-76159D01*
X-61456Y-76058D01*
X-61441Y-75985D01*
X-61452Y-75871D01*
X-61479Y-75747D01*
X-61514Y-75647D01*
X-61557Y-75570D01*
X-61607Y-75518D01*
X-61665Y-75489D01*
X-61731Y-75484D01*
X-61804Y-75503D01*
X-60501Y-74986D01*
X-60526Y-75030D01*
D02*
G37*
G36*
X-77025Y-78073D02*
X-77012Y-78180D01*
X-76990Y-78284D01*
X-76960Y-78386D01*
X-76921Y-78485D01*
X-76873Y-78581D01*
X-76817Y-78675D01*
X-76752Y-78767D01*
X-76679Y-78856D01*
X-76596Y-78942D01*
X-78250D01*
X-78168Y-78856D01*
X-78094Y-78767D01*
X-78029Y-78675D01*
X-77973Y-78581D01*
X-77925Y-78485D01*
X-77886Y-78386D01*
X-77856Y-78284D01*
X-77834Y-78180D01*
X-77821Y-78073D01*
X-77817Y-77963D01*
X-77029D01*
X-77025Y-78073D01*
D02*
G37*
G36*
X53460Y-80287D02*
X53441Y-80258D01*
X53414Y-80232D01*
X53378Y-80209D01*
X53333Y-80189D01*
X53280Y-80172D01*
X53218Y-80158D01*
X53148Y-80147D01*
X53069Y-80140D01*
X52885Y-80134D01*
Y-79346D01*
X52987Y-79345D01*
X53241Y-79323D01*
X53308Y-79311D01*
X53365Y-79295D01*
X53413Y-79276D01*
X53452Y-79255D01*
X53482Y-79230D01*
X53503Y-79203D01*
X53460Y-80287D01*
D02*
G37*
G36*
X-73510Y-80064D02*
X-73497Y-80171D01*
X-73475Y-80275D01*
X-73445Y-80377D01*
X-73406Y-80476D01*
X-73359Y-80573D01*
X-73302Y-80667D01*
X-73237Y-80758D01*
X-73164Y-80847D01*
X-73081Y-80933D01*
X-74735D01*
X-74653Y-80847D01*
X-74579Y-80758D01*
X-74514Y-80667D01*
X-74458Y-80573D01*
X-74410Y-80476D01*
X-74371Y-80377D01*
X-74341Y-80275D01*
X-74319Y-80171D01*
X-74306Y-80064D01*
X-74302Y-79954D01*
X-73514D01*
X-73510Y-80064D01*
D02*
G37*
G36*
X-116753Y-79975D02*
X-116748Y-80085D01*
X-116735Y-80192D01*
X-116714Y-80296D01*
X-116684Y-80398D01*
X-116645Y-80497D01*
X-116598Y-80594D01*
X-116542Y-80689D01*
X-116477Y-80780D01*
X-116403Y-80870D01*
X-116322Y-80956D01*
X-117975Y-80947D01*
X-117893Y-80862D01*
X-117818Y-80773D01*
X-117753Y-80682D01*
X-117697Y-80589D01*
X-117649Y-80492D01*
X-117610Y-80393D01*
X-117579Y-80292D01*
X-117558Y-80187D01*
X-117545Y-80080D01*
X-117540Y-79971D01*
X-116753Y-79975D01*
D02*
G37*
G36*
X43519Y-80012D02*
X43604Y-80077D01*
X43694Y-80133D01*
X43786Y-80179D01*
X43883Y-80216D01*
X43983Y-80242D01*
X44086Y-80258D01*
X44193Y-80265D01*
X44304Y-80262D01*
X44418Y-80249D01*
X43429Y-81574D01*
X43409Y-81453D01*
X43384Y-81337D01*
X43352Y-81226D01*
X43315Y-81120D01*
X43271Y-81018D01*
X43222Y-80921D01*
X43167Y-80828D01*
X43106Y-80740D01*
X43039Y-80658D01*
X42966Y-80579D01*
X43436Y-79936D01*
X43519Y-80012D01*
D02*
G37*
G36*
X42550Y-80895D02*
X42570Y-80948D01*
X42630Y-81012D01*
X42673Y-81066D01*
X42712Y-81122D01*
X42748Y-81182D01*
X42781Y-81246D01*
X42810Y-81315D01*
X42836Y-81390D01*
X42859Y-81469D01*
X42877Y-81555D01*
X42895Y-81661D01*
X42953Y-81754D01*
X43016Y-82072D01*
X43262Y-82440D01*
X43023Y-82940D01*
X6499D01*
X6263Y-82499D01*
X6308Y-82432D01*
X6438Y-81776D01*
X6308Y-81121D01*
X6263Y-81054D01*
X6499Y-80613D01*
X12522D01*
X12694Y-80784D01*
X12955Y-80959D01*
X12983Y-81097D01*
X13354Y-81653D01*
X13910Y-82025D01*
X14566Y-82155D01*
X15222Y-82025D01*
X15778Y-81653D01*
X16150Y-81097D01*
X16280Y-80441D01*
X16150Y-79785D01*
X16064Y-79657D01*
X16331Y-79157D01*
X40812D01*
X42550Y-80895D01*
D02*
G37*
G36*
X-86066Y-81928D02*
X-86053Y-82035D01*
X-86031Y-82140D01*
X-86001Y-82241D01*
X-85962Y-82341D01*
X-85914Y-82437D01*
X-85858Y-82531D01*
X-85793Y-82623D01*
X-85719Y-82711D01*
X-85637Y-82798D01*
X-87290D01*
X-87208Y-82711D01*
X-87134Y-82623D01*
X-87069Y-82531D01*
X-87013Y-82437D01*
X-86966Y-82341D01*
X-86927Y-82241D01*
X-86896Y-82140D01*
X-86875Y-82035D01*
X-86862Y-81928D01*
X-86857Y-81819D01*
X-86070D01*
X-86066Y-81928D01*
D02*
G37*
G36*
X58721Y-84678D02*
X58635Y-84596D01*
X58546Y-84522D01*
X58455Y-84457D01*
X58361Y-84401D01*
X58264Y-84353D01*
X58165Y-84314D01*
X58064Y-84284D01*
X57959Y-84262D01*
X57852Y-84249D01*
X57743Y-84245D01*
Y-83458D01*
X57852Y-83453D01*
X57959Y-83440D01*
X58064Y-83419D01*
X58165Y-83388D01*
X58264Y-83349D01*
X58361Y-83302D01*
X58455Y-83245D01*
X58546Y-83180D01*
X58635Y-83107D01*
X58721Y-83025D01*
Y-84678D01*
D02*
G37*
%LPC*%
G36*
X89185Y80502D02*
X88529Y80372D01*
X88002Y80020D01*
X87968Y80007D01*
X87895Y79937D01*
X87836Y79889D01*
X87779Y79848D01*
X87722Y79814D01*
X87665Y79786D01*
X87609Y79764D01*
X87551Y79746D01*
X87491Y79734D01*
X87429Y79726D01*
X87341Y79723D01*
X87291Y79700D01*
X65542D01*
X65193Y79630D01*
X64898Y79433D01*
X64088Y78623D01*
X63890Y78328D01*
X63821Y77979D01*
Y76462D01*
X63807Y76441D01*
X63817Y76394D01*
X63797Y76350D01*
X63794Y76157D01*
X63784Y76004D01*
X63769Y75883D01*
X63763Y75854D01*
X63708Y75817D01*
X63668Y75811D01*
X63644Y75778D01*
X63605Y75766D01*
X63591Y75740D01*
X63497Y75676D01*
X63270Y75337D01*
X63223Y75321D01*
X62761D01*
X62714Y75337D01*
X62488Y75676D01*
X61997Y76004D01*
X61417Y76120D01*
X60838Y76004D01*
X60347Y75676D01*
X60316Y75630D01*
X59715D01*
X59545Y75884D01*
X58959Y76275D01*
X58858Y76295D01*
Y71653D01*
Y67012D01*
X58959Y67032D01*
X59545Y67423D01*
X59715Y67677D01*
X59796Y67709D01*
X59961Y67753D01*
X60316Y67677D01*
X60347Y67631D01*
X60442Y67568D01*
X60452Y67511D01*
X60479Y67194D01*
X60483Y66997D01*
X60506Y66943D01*
Y65413D01*
X60575Y65065D01*
X60773Y64769D01*
X63194Y62348D01*
X63490Y62150D01*
X63839Y62081D01*
X115125D01*
X115595Y61611D01*
Y-13876D01*
X115572Y-13926D01*
X115568Y-14014D01*
X115561Y-14076D01*
X115549Y-14136D01*
X115531Y-14194D01*
X115509Y-14250D01*
X115481Y-14307D01*
X115447Y-14364D01*
X115406Y-14421D01*
X115357Y-14480D01*
X115289Y-14552D01*
X115217Y-14621D01*
X115158Y-14669D01*
X115100Y-14710D01*
X115043Y-14744D01*
X114987Y-14772D01*
X114930Y-14795D01*
X114873Y-14812D01*
X114813Y-14824D01*
X114750Y-14832D01*
X114663Y-14835D01*
X114612Y-14858D01*
X-85386D01*
X-86510Y-13734D01*
Y14447D01*
X-86489Y14485D01*
X-86494Y14503D01*
X-86486Y14520D01*
X-86483Y14608D01*
X-86475Y14667D01*
X-86463Y14721D01*
X-86447Y14771D01*
X-86426Y14818D01*
X-86400Y14865D01*
X-86368Y14911D01*
X-86329Y14958D01*
X-86282Y15006D01*
X-86211Y15068D01*
X-86181Y15127D01*
X-86089Y15188D01*
X-85718Y15744D01*
X-85588Y16400D01*
X-85718Y17056D01*
X-86089Y17612D01*
X-86646Y17984D01*
X-87301Y18114D01*
X-87957Y17984D01*
X-88513Y17612D01*
X-88885Y17056D01*
X-89016Y16400D01*
X-88885Y15744D01*
X-88664Y15413D01*
X-88635Y15311D01*
X-88570Y15228D01*
X-88522Y15158D01*
X-88481Y15090D01*
X-88446Y15023D01*
X-88418Y14957D01*
X-88396Y14892D01*
X-88378Y14828D01*
X-88366Y14762D01*
X-88359Y14696D01*
X-88355Y14608D01*
X-88332Y14557D01*
Y-14112D01*
X-88263Y-14460D01*
X-88065Y-14756D01*
X-86407Y-16414D01*
X-86112Y-16612D01*
X-85763Y-16681D01*
X99410D01*
X99562Y-17181D01*
X99524Y-17207D01*
X99489Y-17220D01*
X99416Y-17289D01*
X99358Y-17338D01*
X99300Y-17379D01*
X99243Y-17413D01*
X99187Y-17441D01*
X99130Y-17463D01*
X99072Y-17480D01*
X99013Y-17493D01*
X98950Y-17500D01*
X98862Y-17504D01*
X98812Y-17527D01*
X79235D01*
X78886Y-17596D01*
X78591Y-17794D01*
X76521Y-19863D01*
X76324Y-20159D01*
X76254Y-20508D01*
Y-49551D01*
X76231Y-49604D01*
X76227Y-49740D01*
X76219Y-49839D01*
X76210Y-49894D01*
X75681D01*
Y-50299D01*
X75181Y-50450D01*
X75086Y-50308D01*
X74595Y-49980D01*
X74016Y-49865D01*
X73437Y-49980D01*
X72946Y-50308D01*
X72719Y-50647D01*
X72672Y-50663D01*
X72210D01*
X72163Y-50647D01*
X71936Y-50308D01*
X71445Y-49980D01*
X70866Y-49865D01*
X70287Y-49980D01*
X69796Y-50308D01*
X69569Y-50647D01*
X69522Y-50663D01*
X69061D01*
X69014Y-50647D01*
X68787Y-50308D01*
X68296Y-49980D01*
X67717Y-49865D01*
X67137Y-49980D01*
X66647Y-50308D01*
X66420Y-50647D01*
X66373Y-50663D01*
X65911D01*
X65864Y-50647D01*
X65637Y-50308D01*
X65146Y-49980D01*
X64567Y-49865D01*
X63988Y-49980D01*
X63497Y-50308D01*
X63466Y-50355D01*
X62864D01*
X62695Y-50101D01*
X62109Y-49709D01*
X62008Y-49689D01*
Y-54331D01*
Y-58972D01*
X62109Y-58952D01*
X62695Y-58561D01*
X62864Y-58307D01*
X63466D01*
X63497Y-58354D01*
X63988Y-58682D01*
X64567Y-58797D01*
X65146Y-58682D01*
X65637Y-58354D01*
X65864Y-58014D01*
X65911Y-57998D01*
X66373D01*
X66420Y-58014D01*
X66647Y-58354D01*
X67137Y-58682D01*
X67717Y-58797D01*
X68296Y-58682D01*
X68787Y-58354D01*
X69014Y-58014D01*
X69061Y-57998D01*
X69522D01*
X69569Y-58014D01*
X69796Y-58354D01*
X70287Y-58682D01*
X70866Y-58797D01*
X71445Y-58682D01*
X71936Y-58354D01*
X72163Y-58014D01*
X72210Y-57998D01*
X72672D01*
X72719Y-58014D01*
X72946Y-58354D01*
X73437Y-58682D01*
X74016Y-58797D01*
X74595Y-58682D01*
X75086Y-58354D01*
X75181Y-58211D01*
X75681Y-58363D01*
Y-58768D01*
X78650D01*
Y-49894D01*
X78121D01*
X78112Y-49839D01*
X78104Y-49740D01*
X78100Y-49604D01*
X78077Y-49551D01*
Y-20885D01*
X79613Y-19349D01*
X98812D01*
X98862Y-19373D01*
X98950Y-19376D01*
X99013Y-19384D01*
X99072Y-19396D01*
X99130Y-19413D01*
X99187Y-19436D01*
X99243Y-19463D01*
X99300Y-19498D01*
X99358Y-19538D01*
X99416Y-19587D01*
X99489Y-19656D01*
X99523Y-19670D01*
X100050Y-20022D01*
X100706Y-20152D01*
X101362Y-20022D01*
X101918Y-19650D01*
X102290Y-19094D01*
X102420Y-18438D01*
X102290Y-17782D01*
X101918Y-17226D01*
X101850Y-17181D01*
X102002Y-16681D01*
X114612D01*
X114663Y-16704D01*
X114750Y-16708D01*
X114813Y-16715D01*
X114873Y-16728D01*
X114930Y-16745D01*
X114987Y-16767D01*
X115043Y-16795D01*
X115100Y-16829D01*
X115158Y-16870D01*
X115217Y-16919D01*
X115289Y-16988D01*
X115324Y-17001D01*
X115850Y-17353D01*
X116506Y-17484D01*
X117162Y-17353D01*
X117718Y-16982D01*
X118090Y-16426D01*
X118220Y-15770D01*
X118090Y-15114D01*
X117738Y-14587D01*
X117725Y-14552D01*
X117655Y-14480D01*
X117607Y-14421D01*
X117566Y-14364D01*
X117532Y-14307D01*
X117504Y-14250D01*
X117482Y-14194D01*
X117464Y-14136D01*
X117452Y-14076D01*
X117444Y-14014D01*
X117441Y-13926D01*
X117418Y-13876D01*
Y12758D01*
X117918Y12965D01*
X120138Y10744D01*
X120434Y10547D01*
X120782Y10477D01*
X120798D01*
X120849Y10454D01*
X120936Y10451D01*
X120999Y10443D01*
X121058Y10430D01*
X121116Y10413D01*
X121173Y10391D01*
X121229Y10363D01*
X121286Y10329D01*
X121344Y10288D01*
X121403Y10239D01*
X121475Y10170D01*
X121510Y10157D01*
X122036Y9805D01*
X122692Y9674D01*
X123348Y9805D01*
X123904Y10176D01*
X124276Y10733D01*
X124406Y11388D01*
X124276Y12044D01*
X123904Y12600D01*
X123348Y12972D01*
X122692Y13102D01*
X122036Y12972D01*
X121510Y12620D01*
X121475Y12607D01*
X121403Y12538D01*
X121344Y12489D01*
X121286Y12448D01*
X121229Y12414D01*
X121173Y12386D01*
X121116Y12364D01*
X121101Y12359D01*
X119152Y14308D01*
Y70267D01*
X119082Y70616D01*
X118885Y70912D01*
X117499Y72298D01*
X117203Y72495D01*
X116854Y72565D01*
X110488D01*
X110435Y72588D01*
X110303Y72592D01*
X110206Y72600D01*
X110146Y72610D01*
Y76091D01*
X107177D01*
Y75686D01*
X106677Y75534D01*
X106582Y75676D01*
X106091Y76004D01*
X105512Y76120D01*
X104933Y76004D01*
X104442Y75676D01*
X104215Y75337D01*
X104168Y75321D01*
X103706D01*
X103659Y75337D01*
X103432Y75676D01*
X102941Y76004D01*
X102362Y76120D01*
X101783Y76004D01*
X101292Y75676D01*
X101065Y75337D01*
X101018Y75321D01*
X100557D01*
X100510Y75337D01*
X100283Y75676D01*
X99792Y76004D01*
X99213Y76120D01*
X98634Y76004D01*
X98143Y75676D01*
X97916Y75337D01*
X97869Y75321D01*
X97407D01*
X97360Y75337D01*
X97133Y75676D01*
X96642Y76004D01*
X96063Y76120D01*
X95484Y76004D01*
X94993Y75676D01*
X94766Y75337D01*
X94719Y75321D01*
X94257D01*
X94210Y75337D01*
X93984Y75676D01*
X93493Y76004D01*
X92914Y76120D01*
X92334Y76004D01*
X91843Y75676D01*
X91616Y75337D01*
X91570Y75321D01*
X91108D01*
X91061Y75337D01*
X90834Y75676D01*
X90343Y76004D01*
X89764Y76120D01*
X89185Y76004D01*
X88694Y75676D01*
X88467Y75337D01*
X88420Y75321D01*
X87958D01*
X87911Y75337D01*
X87684Y75676D01*
X87193Y76004D01*
X86614Y76120D01*
X86035Y76004D01*
X85544Y75676D01*
X85513Y75630D01*
X84912D01*
X84742Y75884D01*
X84156Y76275D01*
X84055Y76295D01*
Y71653D01*
Y67012D01*
X84156Y67032D01*
X84742Y67423D01*
X84912Y67677D01*
X85513D01*
X85544Y67631D01*
X86035Y67303D01*
X86614Y67188D01*
X87193Y67303D01*
X87684Y67631D01*
X87911Y67970D01*
X87958Y67986D01*
X88420D01*
X88467Y67970D01*
X88694Y67631D01*
X89185Y67303D01*
X89764Y67188D01*
X90343Y67303D01*
X90834Y67631D01*
X91061Y67970D01*
X91108Y67986D01*
X91570D01*
X91616Y67970D01*
X91843Y67631D01*
X92334Y67303D01*
X92914Y67188D01*
X93493Y67303D01*
X93984Y67631D01*
X94210Y67970D01*
X94257Y67986D01*
X94719D01*
X94766Y67970D01*
X94993Y67631D01*
X95484Y67303D01*
X96063Y67188D01*
X96642Y67303D01*
X97133Y67631D01*
X97360Y67970D01*
X97407Y67986D01*
X97869D01*
X97916Y67970D01*
X98143Y67631D01*
X98634Y67303D01*
X99213Y67188D01*
X99792Y67303D01*
X100283Y67631D01*
X100510Y67970D01*
X100557Y67986D01*
X101018D01*
X101065Y67970D01*
X101292Y67631D01*
X101783Y67303D01*
X102362Y67188D01*
X102941Y67303D01*
X103432Y67631D01*
X103659Y67970D01*
X103706Y67986D01*
X104168D01*
X104215Y67970D01*
X104442Y67631D01*
X104933Y67303D01*
X105512Y67188D01*
X106091Y67303D01*
X106582Y67631D01*
X106677Y67773D01*
X107177Y67622D01*
Y67216D01*
X110146D01*
Y70697D01*
X110206Y70707D01*
X110303Y70715D01*
X110435Y70719D01*
X110488Y70742D01*
X116477D01*
X117329Y69890D01*
Y63161D01*
X116829Y62954D01*
X116147Y63636D01*
X115851Y63834D01*
X115502Y63903D01*
X64216D01*
X62329Y65791D01*
Y66943D01*
X62352Y66997D01*
X62356Y67200D01*
X62366Y67367D01*
X62381Y67504D01*
X62393Y67568D01*
X62488Y67631D01*
X62566Y67748D01*
X62577Y67753D01*
X62591Y67785D01*
X62598Y67796D01*
X62632Y67816D01*
X62643Y67864D01*
X62714Y67970D01*
X62761Y67986D01*
X63223D01*
X63270Y67970D01*
X63497Y67631D01*
X63988Y67303D01*
X64567Y67188D01*
X65146Y67303D01*
X65637Y67631D01*
X65864Y67970D01*
X65911Y67986D01*
X66373D01*
X66420Y67970D01*
X66646Y67631D01*
X67137Y67303D01*
X67717Y67188D01*
X68296Y67303D01*
X68787Y67631D01*
X69014Y67970D01*
X69061Y67986D01*
X69522D01*
X69569Y67970D01*
X69796Y67631D01*
X70287Y67303D01*
X70866Y67188D01*
X71445Y67303D01*
X71936Y67631D01*
X71968Y67677D01*
X72569D01*
X72738Y67423D01*
X73325Y67032D01*
X73425Y67012D01*
Y71653D01*
Y76295D01*
X73325Y76275D01*
X72738Y75884D01*
X72569Y75630D01*
X71968D01*
X71936Y75676D01*
X71445Y76004D01*
X70866Y76120D01*
X70287Y76004D01*
X69796Y75676D01*
X69569Y75337D01*
X69522Y75321D01*
X69061D01*
X69014Y75337D01*
X68787Y75676D01*
X68296Y76004D01*
X67717Y76120D01*
X67137Y76004D01*
X66646Y75676D01*
X66434Y75358D01*
X66257Y75327D01*
X65883Y75366D01*
X65882Y75368D01*
X65837Y75450D01*
X65797Y75534D01*
X65763Y75620D01*
X65734Y75708D01*
X65711Y75798D01*
X65692Y75891D01*
X65678Y75987D01*
X65670Y76086D01*
X65667Y76204D01*
X65644Y76257D01*
Y77601D01*
X65919Y77877D01*
X87291D01*
X87341Y77854D01*
X87429Y77850D01*
X87491Y77843D01*
X87551Y77830D01*
X87609Y77813D01*
X87665Y77791D01*
X87722Y77763D01*
X87779Y77729D01*
X87836Y77688D01*
X87895Y77639D01*
X87968Y77570D01*
X88002Y77557D01*
X88529Y77205D01*
X89185Y77074D01*
X89841Y77205D01*
X90397Y77576D01*
X90768Y78132D01*
X90899Y78788D01*
X90768Y79444D01*
X90397Y80000D01*
X89841Y80372D01*
X89185Y80502D01*
D02*
G37*
G36*
X-34646Y84251D02*
X-35302Y84121D01*
X-35858Y83749D01*
X-36229Y83193D01*
X-36341Y82632D01*
X-36367Y82576D01*
X-36372Y82474D01*
X-36381Y82397D01*
X-36394Y82325D01*
X-36411Y82259D01*
X-36433Y82197D01*
X-36459Y82140D01*
X-36488Y82086D01*
X-36523Y82034D01*
X-36562Y81984D01*
X-36622Y81920D01*
X-36641Y81868D01*
X-36699Y81810D01*
X-36896Y81514D01*
X-36966Y81165D01*
Y76463D01*
X-36980Y76442D01*
X-36970Y76394D01*
X-36989Y76350D01*
X-36993Y76158D01*
X-37003Y76004D01*
X-37018Y75883D01*
X-37023Y75855D01*
X-37079Y75818D01*
X-37119Y75811D01*
X-37143Y75779D01*
X-37181Y75766D01*
X-37195Y75740D01*
X-37291Y75676D01*
X-37517Y75337D01*
X-37565Y75321D01*
X-38026D01*
X-38073Y75337D01*
X-38144Y75444D01*
X-38156Y75491D01*
X-38190Y75511D01*
X-38197Y75522D01*
X-38210Y75554D01*
X-38221Y75559D01*
X-38300Y75676D01*
X-38394Y75740D01*
X-38405Y75796D01*
X-38432Y76113D01*
X-38435Y76310D01*
X-38459Y76364D01*
Y76717D01*
X-38528Y77066D01*
X-38726Y77361D01*
X-39187Y77823D01*
X-39483Y78020D01*
X-39831Y78089D01*
X-40760D01*
X-40912Y78589D01*
X-40571Y78817D01*
X-40199Y79373D01*
X-40069Y80029D01*
X-40199Y80685D01*
X-40571Y81241D01*
X-41127Y81613D01*
X-41783Y81743D01*
X-42439Y81613D01*
X-42668Y81459D01*
X-42774Y81438D01*
X-42864Y81377D01*
X-42940Y81331D01*
X-43016Y81291D01*
X-43089Y81257D01*
X-43161Y81230D01*
X-43232Y81208D01*
X-43302Y81191D01*
X-43371Y81179D01*
X-43440Y81172D01*
X-43528Y81169D01*
X-43580Y81145D01*
X-48281D01*
X-48333Y81169D01*
X-48469Y81172D01*
X-48568Y81181D01*
X-48623Y81190D01*
Y82703D01*
X-52576D01*
Y78089D01*
X-54528D01*
Y82703D01*
X-58481D01*
Y81019D01*
X-58540Y81009D01*
X-58636Y81001D01*
X-58768Y80997D01*
X-58875Y80950D01*
X-59103Y80905D01*
X-59398Y80707D01*
X-60755Y79351D01*
X-60807Y79331D01*
X-60871Y79272D01*
X-60922Y79232D01*
X-60974Y79198D01*
X-61028Y79167D01*
X-61086Y79142D01*
X-61148Y79120D01*
X-61214Y79102D01*
X-61286Y79088D01*
X-61364Y79079D01*
X-61466Y79074D01*
X-61528Y79044D01*
X-62073Y78936D01*
X-62629Y78564D01*
X-63001Y78008D01*
X-63131Y77352D01*
X-63001Y76696D01*
X-62649Y76170D01*
X-62636Y76135D01*
X-62547Y75861D01*
X-62552Y75809D01*
X-62626Y75494D01*
X-62632Y75491D01*
X-62643Y75444D01*
X-62714Y75337D01*
X-62761Y75321D01*
X-63223D01*
X-63270Y75337D01*
X-63341Y75444D01*
X-63353Y75491D01*
X-63387Y75511D01*
X-63394Y75522D01*
X-63407Y75554D01*
X-63418Y75559D01*
X-63497Y75676D01*
X-63591Y75740D01*
X-63602Y75796D01*
X-63629Y76113D01*
X-63632Y76310D01*
X-63656Y76364D01*
Y80106D01*
X-63633Y80156D01*
X-63629Y80244D01*
X-63621Y80307D01*
X-63609Y80366D01*
X-63592Y80424D01*
X-63570Y80481D01*
X-63542Y80537D01*
X-63508Y80594D01*
X-63467Y80652D01*
X-63418Y80710D01*
X-63349Y80783D01*
X-63335Y80817D01*
X-62984Y81344D01*
X-62853Y82000D01*
X-62984Y82656D01*
X-63355Y83212D01*
X-63911Y83584D01*
X-64567Y83714D01*
X-65223Y83584D01*
X-65779Y83212D01*
X-66151Y82656D01*
X-66281Y82000D01*
X-66151Y81344D01*
X-65799Y80817D01*
X-65785Y80783D01*
X-65716Y80710D01*
X-65667Y80652D01*
X-65626Y80594D01*
X-65592Y80537D01*
X-65564Y80480D01*
X-65542Y80424D01*
X-65525Y80366D01*
X-65513Y80307D01*
X-65505Y80244D01*
X-65501Y80156D01*
X-65478Y80106D01*
Y76364D01*
X-65502Y76310D01*
X-65505Y76107D01*
X-65515Y75940D01*
X-65531Y75804D01*
X-65543Y75740D01*
X-65637Y75676D01*
X-65716Y75559D01*
X-65727Y75554D01*
X-65741Y75522D01*
X-65747Y75511D01*
X-65781Y75491D01*
X-65793Y75444D01*
X-65864Y75337D01*
X-65911Y75321D01*
X-66373D01*
X-66420Y75337D01*
X-66646Y75676D01*
X-67137Y76004D01*
X-67717Y76120D01*
X-68296Y76004D01*
X-68787Y75676D01*
X-69014Y75337D01*
X-69061Y75321D01*
X-69522D01*
X-69569Y75337D01*
X-69796Y75676D01*
X-70287Y76004D01*
X-70866Y76120D01*
X-71445Y76004D01*
X-71936Y75676D01*
X-72163Y75337D01*
X-72210Y75321D01*
X-72672D01*
X-72719Y75337D01*
X-72790Y75444D01*
X-72802Y75491D01*
X-72835Y75511D01*
X-72842Y75522D01*
X-72856Y75554D01*
X-72867Y75559D01*
X-72946Y75676D01*
X-73040Y75740D01*
X-73051Y75796D01*
X-73077Y76113D01*
X-73081Y76310D01*
X-73105Y76364D01*
Y78289D01*
X-73081Y78341D01*
X-73078Y78429D01*
X-73071Y78497D01*
X-73059Y78565D01*
X-73042Y78634D01*
X-73020Y78703D01*
X-72992Y78774D01*
X-72958Y78846D01*
X-72918Y78919D01*
X-72871Y78994D01*
X-72809Y79082D01*
X-72785Y79189D01*
X-72615Y79443D01*
X-72485Y80099D01*
X-72615Y80755D01*
X-72987Y81311D01*
X-73543Y81682D01*
X-74199Y81813D01*
X-74855Y81682D01*
X-75382Y81330D01*
X-75416Y81317D01*
X-75489Y81248D01*
X-75547Y81199D01*
X-75605Y81158D01*
X-75662Y81124D01*
X-75718Y81096D01*
X-75775Y81074D01*
X-75833Y81057D01*
X-75893Y81044D01*
X-75955Y81037D01*
X-76042Y81033D01*
X-76093Y81010D01*
X-78980D01*
X-79033Y81033D01*
X-79166Y81037D01*
X-79263Y81046D01*
X-79323Y81055D01*
Y82754D01*
X-83276D01*
Y77817D01*
X-79323D01*
Y79142D01*
X-79263Y79152D01*
X-79166Y79160D01*
X-79033Y79164D01*
X-78980Y79188D01*
X-76093D01*
X-76042Y79164D01*
X-75955Y79161D01*
X-75892Y79153D01*
X-75833Y79141D01*
X-75775Y79124D01*
X-75718Y79101D01*
X-75662Y79074D01*
X-75605Y79039D01*
X-75547Y78998D01*
X-75489Y78950D01*
X-75416Y78881D01*
X-75382Y78867D01*
X-75260Y78786D01*
X-75217Y78710D01*
X-75145Y78654D01*
X-75100Y78612D01*
X-75063Y78571D01*
X-75033Y78530D01*
X-75009Y78489D01*
X-74989Y78447D01*
X-74973Y78401D01*
X-74962Y78350D01*
X-74954Y78292D01*
X-74950Y78205D01*
X-74935Y78173D01*
X-74943Y78139D01*
X-74927Y78113D01*
Y76364D01*
X-74951Y76310D01*
X-74954Y76107D01*
X-74964Y75940D01*
X-74980Y75804D01*
X-74992Y75740D01*
X-75086Y75676D01*
X-75165Y75559D01*
X-75176Y75554D01*
X-75189Y75522D01*
X-75196Y75511D01*
X-75230Y75491D01*
X-75242Y75444D01*
X-75313Y75337D01*
X-75360Y75321D01*
X-75821D01*
X-75868Y75337D01*
X-76095Y75676D01*
X-76586Y76004D01*
X-77166Y76120D01*
X-77745Y76004D01*
X-78236Y75676D01*
X-78564Y75185D01*
X-78679Y74606D01*
Y68701D01*
X-78564Y68122D01*
X-78391Y67864D01*
X-78380Y67816D01*
X-78346Y67796D01*
X-78339Y67785D01*
X-78326Y67753D01*
X-78314Y67748D01*
X-78236Y67631D01*
X-78141Y67568D01*
X-78131Y67511D01*
X-78104Y67194D01*
X-78100Y66997D01*
X-78077Y66943D01*
Y63315D01*
X-78090Y63295D01*
X-78077Y63228D01*
Y63149D01*
X-78090Y63083D01*
X-78077Y63063D01*
Y59041D01*
X-78100Y58987D01*
X-78104Y58784D01*
X-78114Y58618D01*
X-78129Y58481D01*
X-78141Y58417D01*
X-78236Y58354D01*
X-78314Y58236D01*
X-78326Y58231D01*
X-78339Y58199D01*
X-78346Y58188D01*
X-78380Y58168D01*
X-78391Y58121D01*
X-78564Y57863D01*
X-78679Y57284D01*
Y51378D01*
X-78564Y50799D01*
X-78236Y50308D01*
X-77745Y49980D01*
X-77166Y49865D01*
X-76586Y49980D01*
X-76095Y50308D01*
X-75868Y50647D01*
X-75822Y50663D01*
X-75360D01*
X-75313Y50647D01*
X-75242Y50541D01*
X-75230Y50493D01*
X-75196Y50473D01*
X-75189Y50463D01*
X-75176Y50430D01*
X-75165Y50426D01*
X-75086Y50308D01*
X-74992Y50245D01*
X-74981Y50188D01*
X-74954Y49871D01*
X-74951Y49675D01*
X-74927Y49620D01*
Y38173D01*
X-74858Y37824D01*
X-74660Y37528D01*
X-74199Y37067D01*
X-73903Y36869D01*
X-73555Y36800D01*
X-67759D01*
X-67706Y36777D01*
X-67573Y36773D01*
X-67477Y36765D01*
X-67417Y36755D01*
Y35196D01*
X-63464D01*
Y40133D01*
X-67417D01*
Y38668D01*
X-67477Y38658D01*
X-67573Y38649D01*
X-67706Y38646D01*
X-67759Y38622D01*
X-73105D01*
Y49620D01*
X-73081Y49675D01*
X-73077Y49878D01*
X-73067Y50044D01*
X-73052Y50181D01*
X-73040Y50245D01*
X-72946Y50308D01*
X-72867Y50426D01*
X-72856Y50430D01*
X-72842Y50463D01*
X-72835Y50473D01*
X-72802Y50493D01*
X-72790Y50541D01*
X-72719Y50647D01*
X-72672Y50663D01*
X-72210D01*
X-72163Y50647D01*
X-72092Y50541D01*
X-72080Y50493D01*
X-72047Y50473D01*
X-72040Y50463D01*
X-72026Y50430D01*
X-72015Y50426D01*
X-71936Y50308D01*
X-71842Y50245D01*
X-71832Y50188D01*
X-71805Y49871D01*
X-71801Y49675D01*
X-71777Y49620D01*
Y44783D01*
X-71708Y44435D01*
X-71511Y44139D01*
X-71016Y43644D01*
X-70720Y43447D01*
X-70372Y43378D01*
X-67772D01*
X-67719Y43354D01*
X-67586Y43351D01*
X-67489Y43342D01*
X-67429Y43332D01*
Y41820D01*
X-63476D01*
Y46757D01*
X-63592D01*
X-63883Y47221D01*
X-63878Y47257D01*
X-63355Y47607D01*
X-63249Y47765D01*
X-62749D01*
X-62629Y47586D01*
X-62073Y47214D01*
X-61772Y47154D01*
X-61524Y46757D01*
X-61524Y46595D01*
Y41820D01*
X-57571D01*
Y43333D01*
X-57516Y43342D01*
X-57417Y43351D01*
X-57281Y43354D01*
X-57229Y43378D01*
X-48941D01*
X-48891Y43354D01*
X-48803Y43351D01*
X-48740Y43343D01*
X-48680Y43331D01*
X-48621Y43314D01*
X-48563Y43291D01*
X-48505Y43263D01*
X-48447Y43229D01*
X-48387Y43188D01*
X-48327Y43139D01*
X-48253Y43070D01*
X-48200Y43051D01*
X-47710Y42724D01*
X-47054Y42593D01*
X-46398Y42724D01*
X-45842Y43095D01*
X-45471Y43651D01*
X-45340Y44307D01*
X-45353Y44370D01*
X-44892Y44616D01*
X-42357Y42081D01*
X-42061Y41884D01*
X-41712Y41814D01*
X-9374D01*
X-9324Y41791D01*
X-9236Y41787D01*
X-9174Y41780D01*
X-9114Y41767D01*
X-9057Y41750D01*
X-9000Y41728D01*
X-8943Y41700D01*
X-8886Y41666D01*
X-8829Y41625D01*
X-8770Y41576D01*
X-8698Y41507D01*
X-8663Y41494D01*
X-8136Y41142D01*
X-7480Y41011D01*
X-6825Y41142D01*
X-6268Y41513D01*
X-5897Y42070D01*
X-5766Y42725D01*
X-5897Y43381D01*
X-6268Y43937D01*
X-6794Y44289D01*
X-6800Y44326D01*
X-6540Y44789D01*
X-3469D01*
X-3418Y44765D01*
X-3331Y44762D01*
X-3268Y44754D01*
X-3209Y44742D01*
X-3151Y44725D01*
X-3094Y44703D01*
X-3038Y44675D01*
X-2981Y44641D01*
X-2923Y44600D01*
X-2864Y44551D01*
X-2792Y44482D01*
X-2757Y44468D01*
X-2231Y44116D01*
X-1575Y43986D01*
X-919Y44116D01*
X-363Y44488D01*
X9Y45044D01*
X139Y45700D01*
X9Y46356D01*
X-363Y46912D01*
X-919Y47284D01*
X-1575Y47414D01*
X-2231Y47284D01*
X-2757Y46932D01*
X-2792Y46918D01*
X-2864Y46849D01*
X-2923Y46800D01*
X-2981Y46759D01*
X-3038Y46725D01*
X-3094Y46697D01*
X-3151Y46675D01*
X-3209Y46658D01*
X-3268Y46646D01*
X-3331Y46638D01*
X-3418Y46635D01*
X-3469Y46611D01*
X-29952D01*
X-30188Y47052D01*
X-30143Y47119D01*
X-30013Y47775D01*
X-30143Y48431D01*
X-30515Y48987D01*
X-31071Y49358D01*
X-31678Y49479D01*
X-31753Y49511D01*
X-32051Y49765D01*
X-32125Y49926D01*
X-32129Y49941D01*
X-32122Y50044D01*
X-32107Y50181D01*
X-32095Y50245D01*
X-32001Y50308D01*
X-31922Y50426D01*
X-31911Y50430D01*
X-31898Y50463D01*
X-31891Y50473D01*
X-31857Y50493D01*
X-31845Y50541D01*
X-31774Y50647D01*
X-31727Y50663D01*
X-31265D01*
X-31218Y50647D01*
X-30991Y50308D01*
X-30501Y49980D01*
X-29921Y49865D01*
X-29342Y49980D01*
X-28851Y50308D01*
X-28624Y50647D01*
X-28577Y50663D01*
X-28116D01*
X-28069Y50647D01*
X-27842Y50308D01*
X-27351Y49980D01*
X-26772Y49865D01*
X-26193Y49980D01*
X-25702Y50308D01*
X-25475Y50647D01*
X-25428Y50663D01*
X-24966D01*
X-24919Y50647D01*
X-24692Y50308D01*
X-24201Y49980D01*
X-23622Y49865D01*
X-23043Y49980D01*
X-22552Y50308D01*
X-22521Y50355D01*
X-21919D01*
X-21750Y50101D01*
X-21164Y49709D01*
X-21063Y49689D01*
Y54331D01*
Y58972D01*
X-21164Y58952D01*
X-21750Y58561D01*
X-21919Y58307D01*
X-22521D01*
X-22552Y58354D01*
X-23043Y58682D01*
X-23622Y58797D01*
X-24201Y58682D01*
X-24692Y58354D01*
X-24919Y58014D01*
X-24966Y57998D01*
X-25428D01*
X-25475Y58014D01*
X-25702Y58354D01*
X-26193Y58682D01*
X-26772Y58797D01*
X-27351Y58682D01*
X-27842Y58354D01*
X-28069Y58014D01*
X-28116Y57998D01*
X-28577D01*
X-28624Y58014D01*
X-28851Y58354D01*
X-29342Y58682D01*
X-29636Y58740D01*
X-29675Y58765D01*
X-29717Y58756D01*
X-29718Y58756D01*
X-29757Y58774D01*
X-29773Y58767D01*
X-29921Y58797D01*
X-30032Y58775D01*
X-30083Y58811D01*
X-30325Y59014D01*
X-30465Y59149D01*
X-30466Y59249D01*
X-30013Y59734D01*
X35391D01*
X35441Y59711D01*
X35529Y59708D01*
X35591Y59700D01*
X35650Y59688D01*
X35706Y59671D01*
X35762Y59649D01*
X35817Y59621D01*
X35873Y59587D01*
X35929Y59546D01*
X35986Y59497D01*
X36057Y59428D01*
X36115Y59254D01*
X35813Y58716D01*
X35641Y58682D01*
X35150Y58354D01*
X34923Y58014D01*
X34876Y57998D01*
X34415D01*
X34368Y58014D01*
X34141Y58354D01*
X33650Y58682D01*
X33071Y58797D01*
X32492Y58682D01*
X32001Y58354D01*
X31774Y58014D01*
X31727Y57998D01*
X31265D01*
X31218Y58014D01*
X30991Y58354D01*
X30500Y58682D01*
X29921Y58797D01*
X29342Y58682D01*
X28851Y58354D01*
X28820Y58307D01*
X28219D01*
X28049Y58561D01*
X27463Y58952D01*
X27362Y58972D01*
Y54331D01*
Y49689D01*
X27463Y49709D01*
X28049Y50101D01*
X28219Y50355D01*
X28820D01*
X28851Y50308D01*
X29342Y49980D01*
X29921Y49865D01*
X30500Y49980D01*
X30991Y50308D01*
X31218Y50647D01*
X31265Y50663D01*
X31727D01*
X31774Y50647D01*
X32001Y50308D01*
X32492Y49980D01*
X33071Y49865D01*
X33650Y49980D01*
X34141Y50308D01*
X34368Y50647D01*
X34415Y50663D01*
X34876D01*
X34923Y50647D01*
X35150Y50308D01*
X35641Y49980D01*
X36220Y49865D01*
X36800Y49980D01*
X37291Y50308D01*
X37517Y50647D01*
X37565Y50663D01*
X38026D01*
X38073Y50647D01*
X38300Y50308D01*
X38791Y49980D01*
X39370Y49865D01*
X39949Y49980D01*
X40440Y50308D01*
X40471Y50355D01*
X41073D01*
X41242Y50101D01*
X41828Y49709D01*
X41929Y49689D01*
Y54331D01*
Y58972D01*
X41828Y58952D01*
X41242Y58561D01*
X41073Y58307D01*
X40471D01*
X40440Y58354D01*
X39949Y58682D01*
X39370Y58797D01*
X38791Y58682D01*
X38300Y58354D01*
X38073Y58014D01*
X38026Y57998D01*
X37565D01*
X37517Y58014D01*
X37291Y58354D01*
X37179Y58428D01*
X37261Y58788D01*
X37336Y58925D01*
X37947Y59046D01*
X38503Y59418D01*
X38874Y59974D01*
X39005Y60630D01*
X38874Y61286D01*
X38503Y61842D01*
X38397Y61912D01*
X38549Y62412D01*
X41317D01*
X41367Y62389D01*
X41455Y62386D01*
X41517Y62378D01*
X41577Y62366D01*
X41635Y62349D01*
X41692Y62326D01*
X41748Y62298D01*
X41805Y62264D01*
X41863Y62223D01*
X41921Y62175D01*
X41994Y62105D01*
X42028Y62092D01*
X42555Y61740D01*
X43211Y61610D01*
X43867Y61740D01*
X44423Y62112D01*
X44794Y62668D01*
X44925Y63324D01*
X44794Y63980D01*
X44423Y64536D01*
X44463Y65110D01*
X46117Y66765D01*
X46315Y67061D01*
X46381Y67391D01*
X46739Y67631D01*
X46966Y67970D01*
X47013Y67986D01*
X47475D01*
X47522Y67970D01*
X47749Y67631D01*
X48240Y67303D01*
X48819Y67188D01*
X49398Y67303D01*
X49889Y67631D01*
X50116Y67970D01*
X50163Y67986D01*
X50625D01*
X50671Y67970D01*
X50898Y67631D01*
X51389Y67303D01*
X51969Y67188D01*
X52548Y67303D01*
X53039Y67631D01*
X53266Y67970D01*
X53313Y67986D01*
X53774D01*
X53821Y67970D01*
X54048Y67631D01*
X54539Y67303D01*
X55118Y67188D01*
X55697Y67303D01*
X56188Y67631D01*
X56220Y67677D01*
X56821D01*
X56990Y67423D01*
X57577Y67032D01*
X57677Y67012D01*
Y71653D01*
Y76295D01*
X57577Y76275D01*
X56990Y75884D01*
X56821Y75630D01*
X56220D01*
X56188Y75676D01*
X55697Y76004D01*
X55118Y76120D01*
X54539Y76004D01*
X54048Y75676D01*
X53821Y75337D01*
X53774Y75321D01*
X53313D01*
X53266Y75337D01*
X53039Y75676D01*
X52548Y76004D01*
X51969Y76120D01*
X51389Y76004D01*
X50898Y75676D01*
X50671Y75337D01*
X50625Y75321D01*
X50163D01*
X50116Y75337D01*
X49889Y75676D01*
X49398Y76004D01*
X48819Y76120D01*
X48240Y76004D01*
X47749Y75676D01*
X47522Y75337D01*
X47475Y75321D01*
X47013D01*
X46966Y75337D01*
X46739Y75676D01*
X46248Y76004D01*
X45669Y76120D01*
X45090Y76004D01*
X44599Y75676D01*
X44568Y75630D01*
X43967D01*
X43797Y75884D01*
X43211Y76275D01*
X43110Y76295D01*
Y71653D01*
X41929D01*
Y76295D01*
X41829Y76275D01*
X41242Y75884D01*
X41073Y75630D01*
X40471D01*
X40440Y75676D01*
X39949Y76004D01*
X39370Y76120D01*
X38791Y76004D01*
X38300Y75676D01*
X38073Y75337D01*
X38026Y75321D01*
X37565D01*
X37517Y75337D01*
X37291Y75676D01*
X36800Y76004D01*
X36220Y76120D01*
X35641Y76004D01*
X35150Y75676D01*
X34923Y75337D01*
X34876Y75321D01*
X34415D01*
X34368Y75337D01*
X34141Y75676D01*
X33650Y76004D01*
X33071Y76120D01*
X32492Y76004D01*
X32001Y75676D01*
X31774Y75337D01*
X31727Y75321D01*
X31265D01*
X31218Y75337D01*
X30991Y75676D01*
X30500Y76004D01*
X29921Y76120D01*
X29342Y76004D01*
X28851Y75676D01*
X28820Y75630D01*
X28219D01*
X28049Y75884D01*
X27463Y76275D01*
X27362Y76295D01*
Y71653D01*
Y67012D01*
X27463Y67032D01*
X28049Y67423D01*
X28219Y67677D01*
X28820D01*
X28851Y67631D01*
X29342Y67303D01*
X29921Y67188D01*
X30500Y67303D01*
X30991Y67631D01*
X31218Y67970D01*
X31265Y67986D01*
X31727D01*
X31774Y67970D01*
X32001Y67631D01*
X32492Y67303D01*
X33071Y67188D01*
X33650Y67303D01*
X34141Y67631D01*
X34368Y67970D01*
X34415Y67986D01*
X34876D01*
X34923Y67970D01*
X35150Y67631D01*
X35641Y67303D01*
X35792Y67273D01*
X35914Y66753D01*
X35542Y66197D01*
X35412Y65541D01*
X35542Y64885D01*
X35642Y64735D01*
X35375Y64235D01*
X-41609D01*
Y66943D01*
X-41585Y66997D01*
X-41581Y67200D01*
X-41571Y67367D01*
X-41556Y67504D01*
X-41544Y67568D01*
X-41450Y67631D01*
X-41371Y67748D01*
X-41360Y67753D01*
X-41346Y67785D01*
X-41339Y67796D01*
X-41306Y67816D01*
X-41294Y67864D01*
X-41223Y67970D01*
X-41176Y67986D01*
X-40714D01*
X-40667Y67970D01*
X-40596Y67864D01*
X-40584Y67816D01*
X-40551Y67796D01*
X-40544Y67785D01*
X-40530Y67753D01*
X-40519Y67748D01*
X-40440Y67631D01*
X-40346Y67568D01*
X-40335Y67511D01*
X-40308Y67194D01*
X-40305Y66997D01*
X-40281Y66943D01*
Y66561D01*
X-40212Y66212D01*
X-40014Y65916D01*
X-39280Y65182D01*
X-38985Y64985D01*
X-38636Y64915D01*
X-30383D01*
X-30034Y64985D01*
X-29738Y65182D01*
X-29277Y65643D01*
X-29079Y65939D01*
X-29010Y66288D01*
Y66943D01*
X-28986Y66997D01*
X-28983Y67200D01*
X-28973Y67367D01*
X-28957Y67504D01*
X-28946Y67568D01*
X-28851Y67631D01*
X-28773Y67748D01*
X-28761Y67753D01*
X-28748Y67785D01*
X-28741Y67796D01*
X-28707Y67816D01*
X-28696Y67864D01*
X-28624Y67970D01*
X-28577Y67986D01*
X-28116D01*
X-28069Y67970D01*
X-27842Y67631D01*
X-27351Y67303D01*
X-26772Y67188D01*
X-26193Y67303D01*
X-25702Y67631D01*
X-25475Y67970D01*
X-25428Y67986D01*
X-24966D01*
X-24919Y67970D01*
X-24692Y67631D01*
X-24201Y67303D01*
X-23622Y67188D01*
X-23043Y67303D01*
X-22552Y67631D01*
X-22521Y67677D01*
X-21919D01*
X-21750Y67423D01*
X-21164Y67032D01*
X-21063Y67012D01*
Y71653D01*
Y76295D01*
X-21164Y76275D01*
X-21750Y75884D01*
X-21919Y75630D01*
X-22521D01*
X-22552Y75676D01*
X-23043Y76004D01*
X-23622Y76120D01*
X-24201Y76004D01*
X-24692Y75676D01*
X-24919Y75337D01*
X-24966Y75321D01*
X-25428D01*
X-25475Y75337D01*
X-25702Y75676D01*
X-26193Y76004D01*
X-26772Y76120D01*
X-27351Y76004D01*
X-27842Y75676D01*
X-28069Y75337D01*
X-28116Y75321D01*
X-28577D01*
X-28624Y75337D01*
X-28851Y75676D01*
X-29342Y76004D01*
X-29921Y76120D01*
X-30500Y76004D01*
X-30991Y75676D01*
X-31218Y75337D01*
X-31265Y75321D01*
X-31727D01*
X-31774Y75337D01*
X-31845Y75444D01*
X-31857Y75491D01*
X-31891Y75511D01*
X-31898Y75522D01*
X-31911Y75554D01*
X-31922Y75559D01*
X-32001Y75676D01*
X-32095Y75740D01*
X-32106Y75796D01*
X-32133Y76113D01*
X-32136Y76310D01*
X-32160Y76364D01*
Y77460D01*
X-32067Y77536D01*
X-31411Y77666D01*
X-30855Y78038D01*
X-30483Y78594D01*
X-30353Y79250D01*
X-30483Y79905D01*
X-30855Y80462D01*
X-31411Y80833D01*
X-32067Y80964D01*
X-32723Y80833D01*
X-33279Y80462D01*
X-33651Y79905D01*
X-33781Y79250D01*
X-33676Y78722D01*
X-33694Y78701D01*
X-33737Y78657D01*
X-33781Y78547D01*
X-33913Y78350D01*
X-33982Y78001D01*
Y76364D01*
X-34006Y76310D01*
X-34009Y76107D01*
X-34019Y75940D01*
X-34035Y75804D01*
X-34047Y75740D01*
X-34141Y75676D01*
X-34220Y75559D01*
X-34231Y75554D01*
X-34244Y75522D01*
X-34251Y75511D01*
X-34285Y75491D01*
X-34297Y75444D01*
X-34354Y75358D01*
X-34530Y75327D01*
X-34904Y75366D01*
X-34905Y75367D01*
X-34950Y75450D01*
X-34990Y75533D01*
X-35024Y75619D01*
X-35053Y75707D01*
X-35076Y75797D01*
X-35095Y75890D01*
X-35108Y75986D01*
X-35117Y76086D01*
X-35120Y76204D01*
X-35143Y76256D01*
Y80719D01*
X-35098Y80743D01*
X-35044Y80766D01*
X-34986Y80785D01*
X-34924Y80799D01*
X-34856Y80810D01*
X-34782Y80815D01*
X-34683Y80815D01*
X-34658Y80826D01*
X-34646Y80823D01*
X-33990Y80954D01*
X-33434Y81325D01*
X-33062Y81881D01*
X-32932Y82537D01*
X-33062Y83193D01*
X-33434Y83749D01*
X-33990Y84121D01*
X-34646Y84251D01*
D02*
G37*
G36*
X74606Y76295D02*
Y71653D01*
Y67012D01*
X74707Y67032D01*
X75293Y67423D01*
X75463Y67677D01*
X76064D01*
X76095Y67631D01*
X76586Y67303D01*
X77165Y67188D01*
X77745Y67303D01*
X78236Y67631D01*
X78462Y67970D01*
X78509Y67986D01*
X78971D01*
X79018Y67970D01*
X79245Y67631D01*
X79736Y67303D01*
X80315Y67188D01*
X80894Y67303D01*
X81385Y67631D01*
X81416Y67677D01*
X82018D01*
X82187Y67423D01*
X82773Y67032D01*
X82874Y67012D01*
Y71653D01*
Y76295D01*
X82773Y76275D01*
X82187Y75884D01*
X82018Y75630D01*
X81416D01*
X81385Y75676D01*
X80894Y76004D01*
X80315Y76120D01*
X79736Y76004D01*
X79245Y75676D01*
X79018Y75337D01*
X78971Y75321D01*
X78509D01*
X78462Y75337D01*
X78236Y75676D01*
X77745Y76004D01*
X77165Y76120D01*
X76586Y76004D01*
X76095Y75676D01*
X76064Y75630D01*
X75463D01*
X75293Y75884D01*
X74707Y76275D01*
X74606Y76295D01*
D02*
G37*
G36*
X-19882D02*
Y71653D01*
Y67012D01*
X-19781Y67032D01*
X-19195Y67423D01*
X-19026Y67677D01*
X-18424D01*
X-18393Y67631D01*
X-17902Y67303D01*
X-17323Y67188D01*
X-16744Y67303D01*
X-16253Y67631D01*
X-16026Y67970D01*
X-15979Y67986D01*
X-15517D01*
X-15470Y67970D01*
X-15243Y67631D01*
X-14752Y67303D01*
X-14173Y67188D01*
X-13594Y67303D01*
X-13103Y67631D01*
X-12876Y67970D01*
X-12829Y67986D01*
X-12368D01*
X-12321Y67970D01*
X-12094Y67631D01*
X-11603Y67303D01*
X-11024Y67188D01*
X-10445Y67303D01*
X-9954Y67631D01*
X-9727Y67970D01*
X-9680Y67986D01*
X-9218D01*
X-9171Y67970D01*
X-8944Y67631D01*
X-8453Y67303D01*
X-7874Y67188D01*
X-7295Y67303D01*
X-6804Y67631D01*
X-6773Y67677D01*
X-6171D01*
X-6002Y67423D01*
X-5416Y67032D01*
X-5315Y67012D01*
Y71653D01*
Y76295D01*
X-5416Y76275D01*
X-6002Y75884D01*
X-6171Y75630D01*
X-6773D01*
X-6804Y75676D01*
X-7295Y76004D01*
X-7874Y76120D01*
X-8453Y76004D01*
X-8944Y75676D01*
X-9171Y75337D01*
X-9218Y75321D01*
X-9680D01*
X-9727Y75337D01*
X-9954Y75676D01*
X-10445Y76004D01*
X-11024Y76120D01*
X-11603Y76004D01*
X-12094Y75676D01*
X-12321Y75337D01*
X-12368Y75321D01*
X-12829D01*
X-12876Y75337D01*
X-13103Y75676D01*
X-13594Y76004D01*
X-14173Y76120D01*
X-14752Y76004D01*
X-15243Y75676D01*
X-15470Y75337D01*
X-15517Y75321D01*
X-15979D01*
X-16026Y75337D01*
X-16253Y75676D01*
X-16744Y76004D01*
X-17323Y76120D01*
X-17902Y76004D01*
X-18393Y75676D01*
X-18424Y75630D01*
X-19026D01*
X-19195Y75884D01*
X-19781Y76275D01*
X-19882Y76295D01*
D02*
G37*
G36*
X-4134Y76295D02*
Y71653D01*
Y67012D01*
X-4033Y67032D01*
X-3447Y67423D01*
X-3277Y67677D01*
X-2676D01*
X-2645Y67631D01*
X-2154Y67303D01*
X-1575Y67188D01*
X-996Y67303D01*
X-505Y67631D01*
X-278Y67970D01*
X-231Y67986D01*
X231D01*
X278Y67970D01*
X505Y67631D01*
X996Y67303D01*
X1575Y67188D01*
X2154Y67303D01*
X2645Y67631D01*
X2872Y67970D01*
X2919Y67986D01*
X3380D01*
X3427Y67970D01*
X3654Y67631D01*
X4145Y67303D01*
X4724Y67188D01*
X5303Y67303D01*
X5794Y67631D01*
X6021Y67970D01*
X6068Y67986D01*
X6530D01*
X6577Y67970D01*
X6804Y67631D01*
X7295Y67303D01*
X7874Y67188D01*
X8453Y67303D01*
X8944Y67631D01*
X8975Y67677D01*
X9577D01*
X9746Y67423D01*
X10332Y67032D01*
X10433Y67012D01*
Y71653D01*
Y76295D01*
X10332Y76275D01*
X9746Y75884D01*
X9577Y75630D01*
X8975D01*
X8944Y75676D01*
X8453Y76004D01*
X7874Y76120D01*
X7295Y76004D01*
X6804Y75676D01*
X6577Y75337D01*
X6530Y75321D01*
X6068D01*
X6021Y75337D01*
X5794Y75676D01*
X5303Y76004D01*
X4724Y76120D01*
X4145Y76004D01*
X3654Y75676D01*
X3427Y75337D01*
X3380Y75321D01*
X2919D01*
X2872Y75337D01*
X2645Y75676D01*
X2154Y76004D01*
X1575Y76120D01*
X996Y76004D01*
X505Y75676D01*
X278Y75337D01*
X231Y75321D01*
X-231D01*
X-278Y75337D01*
X-505Y75676D01*
X-996Y76004D01*
X-1575Y76120D01*
X-2154Y76004D01*
X-2645Y75676D01*
X-2676Y75630D01*
X-3277D01*
X-3447Y75884D01*
X-4033Y76275D01*
X-4134Y76295D01*
D02*
G37*
G36*
X11614Y76295D02*
Y71653D01*
Y67012D01*
X11715Y67032D01*
X12301Y67423D01*
X12471Y67677D01*
X13072D01*
X13103Y67631D01*
X13594Y67303D01*
X14173Y67188D01*
X14752Y67303D01*
X15243Y67631D01*
X15470Y67970D01*
X15517Y67986D01*
X15979D01*
X16026Y67970D01*
X16253Y67631D01*
X16744Y67303D01*
X17323Y67188D01*
X17902Y67303D01*
X18393Y67631D01*
X18620Y67970D01*
X18667Y67986D01*
X19128D01*
X19175Y67970D01*
X19402Y67631D01*
X19893Y67303D01*
X20472Y67188D01*
X21052Y67303D01*
X21542Y67631D01*
X21769Y67970D01*
X21816Y67986D01*
X22278D01*
X22325Y67970D01*
X22552Y67631D01*
X23043Y67303D01*
X23622Y67188D01*
X24201Y67303D01*
X24692Y67631D01*
X24723Y67677D01*
X25325D01*
X25494Y67423D01*
X26080Y67032D01*
X26181Y67012D01*
Y71653D01*
Y76295D01*
X26080Y76275D01*
X25494Y75884D01*
X25325Y75630D01*
X24723D01*
X24692Y75676D01*
X24201Y76004D01*
X23622Y76120D01*
X23043Y76004D01*
X22552Y75676D01*
X22325Y75337D01*
X22278Y75321D01*
X21816D01*
X21769Y75337D01*
X21542Y75676D01*
X21052Y76004D01*
X20472Y76120D01*
X19893Y76004D01*
X19402Y75676D01*
X19175Y75337D01*
X19128Y75321D01*
X18667D01*
X18620Y75337D01*
X18393Y75676D01*
X17902Y76004D01*
X17323Y76120D01*
X16744Y76004D01*
X16253Y75676D01*
X16026Y75337D01*
X15979Y75321D01*
X15517D01*
X15470Y75337D01*
X15243Y75676D01*
X14752Y76004D01*
X14173Y76120D01*
X13594Y76004D01*
X13103Y75676D01*
X13072Y75630D01*
X12471D01*
X12301Y75884D01*
X11715Y76275D01*
X11614Y76295D01*
D02*
G37*
G36*
X-107677Y74596D02*
Y63583D01*
X-96664D01*
X-96761Y64815D01*
X-97188Y66592D01*
X-97887Y68281D01*
X-98843Y69840D01*
X-100030Y71230D01*
X-101420Y72417D01*
X-102979Y73372D01*
X-104668Y74072D01*
X-106445Y74499D01*
X-107677Y74596D01*
D02*
G37*
G36*
X-108858D02*
X-110090Y74499D01*
X-111868Y74072D01*
X-113557Y73372D01*
X-115115Y72417D01*
X-116506Y71230D01*
X-117693Y69840D01*
X-118648Y68281D01*
X-119348Y66592D01*
X-119774Y64815D01*
X-119871Y63583D01*
X-108858D01*
Y74596D01*
D02*
G37*
G36*
X108071Y58972D02*
X107970Y58952D01*
X107384Y58561D01*
X107337Y58490D01*
X106837D01*
X106789Y58561D01*
X106203Y58952D01*
X106103Y58972D01*
Y54331D01*
Y49689D01*
X106203Y49709D01*
X106789Y50101D01*
X106837Y50172D01*
X107337D01*
X107384Y50101D01*
X107970Y49709D01*
X108071Y49689D01*
Y54331D01*
Y58972D01*
D02*
G37*
G36*
X104921Y58972D02*
X104821Y58952D01*
X104235Y58561D01*
X104187Y58490D01*
X103687D01*
X103640Y58561D01*
X103054Y58952D01*
X102953Y58972D01*
Y54331D01*
Y49689D01*
X103054Y49709D01*
X103640Y50101D01*
X103687Y50172D01*
X104187D01*
X104235Y50101D01*
X104821Y49709D01*
X104921Y49689D01*
Y54331D01*
Y58972D01*
D02*
G37*
G36*
X101772Y58972D02*
X101671Y58952D01*
X101085Y58561D01*
X100915Y58307D01*
X100314D01*
X100283Y58354D01*
X99792Y58682D01*
X99213Y58797D01*
X98634Y58682D01*
X98143Y58354D01*
X97916Y58014D01*
X97869Y57998D01*
X97407D01*
X97360Y58014D01*
X97133Y58354D01*
X96642Y58682D01*
X96063Y58797D01*
X95484Y58682D01*
X94993Y58354D01*
X94962Y58307D01*
X94360D01*
X94191Y58561D01*
X93605Y58952D01*
X93504Y58972D01*
Y54331D01*
Y49689D01*
X93605Y49709D01*
X94191Y50101D01*
X94360Y50355D01*
X94962D01*
X94993Y50308D01*
X95484Y49980D01*
X96063Y49865D01*
X96642Y49980D01*
X97133Y50308D01*
X97360Y50647D01*
X97407Y50663D01*
X97869D01*
X97916Y50647D01*
X98143Y50308D01*
X98634Y49980D01*
X99213Y49865D01*
X99792Y49980D01*
X100283Y50308D01*
X100314Y50355D01*
X100915D01*
X101085Y50101D01*
X101671Y49709D01*
X101772Y49689D01*
Y54331D01*
Y58972D01*
D02*
G37*
G36*
X92323Y58972D02*
X92222Y58952D01*
X91636Y58561D01*
X91466Y58307D01*
X90865D01*
X90834Y58354D01*
X90343Y58682D01*
X89764Y58797D01*
X89185Y58682D01*
X88694Y58354D01*
X88467Y58014D01*
X88420Y57998D01*
X87958D01*
X87911Y58014D01*
X87684Y58354D01*
X87193Y58682D01*
X86614Y58797D01*
X86035Y58682D01*
X85544Y58354D01*
X85513Y58307D01*
X84912D01*
X84742Y58561D01*
X84156Y58952D01*
X84055Y58972D01*
Y54331D01*
Y49689D01*
X84156Y49709D01*
X84742Y50101D01*
X84912Y50355D01*
X85513D01*
X85544Y50308D01*
X86035Y49980D01*
X86614Y49865D01*
X87193Y49980D01*
X87684Y50308D01*
X87911Y50647D01*
X87958Y50663D01*
X88420D01*
X88467Y50647D01*
X88694Y50308D01*
X89185Y49980D01*
X89764Y49865D01*
X90343Y49980D01*
X90834Y50308D01*
X90865Y50355D01*
X91466D01*
X91636Y50101D01*
X92222Y49709D01*
X92323Y49689D01*
Y54331D01*
Y58972D01*
D02*
G37*
G36*
X82874Y58972D02*
X82773Y58952D01*
X82187Y58561D01*
X82018Y58307D01*
X81416D01*
X81385Y58354D01*
X80894Y58682D01*
X80315Y58797D01*
X79736Y58682D01*
X79245Y58354D01*
X79018Y58014D01*
X78971Y57998D01*
X78509D01*
X78462Y58014D01*
X78236Y58354D01*
X77745Y58682D01*
X77165Y58797D01*
X76586Y58682D01*
X76095Y58354D01*
X76064Y58307D01*
X75463D01*
X75293Y58561D01*
X74707Y58952D01*
X74606Y58972D01*
Y54331D01*
Y49689D01*
X74707Y49709D01*
X75293Y50101D01*
X75463Y50355D01*
X76064D01*
X76095Y50308D01*
X76586Y49980D01*
X77165Y49865D01*
X77745Y49980D01*
X78236Y50308D01*
X78462Y50647D01*
X78509Y50663D01*
X78971D01*
X79018Y50647D01*
X79245Y50308D01*
X79736Y49980D01*
X80315Y49865D01*
X80894Y49980D01*
X81385Y50308D01*
X81416Y50355D01*
X82018D01*
X82187Y50101D01*
X82773Y49709D01*
X82874Y49689D01*
Y54331D01*
Y58972D01*
D02*
G37*
G36*
X73425D02*
X73325Y58952D01*
X72738Y58561D01*
X72569Y58307D01*
X71968D01*
X71936Y58354D01*
X71445Y58682D01*
X70866Y58797D01*
X70287Y58682D01*
X69796Y58354D01*
X69569Y58014D01*
X69522Y57998D01*
X69061D01*
X69014Y58014D01*
X68787Y58354D01*
X68296Y58682D01*
X67717Y58797D01*
X67137Y58682D01*
X66646Y58354D01*
X66420Y58014D01*
X66373Y57998D01*
X65911D01*
X65864Y58014D01*
X65637Y58354D01*
X65146Y58682D01*
X64567Y58797D01*
X63988Y58682D01*
X63497Y58354D01*
X63270Y58014D01*
X63223Y57998D01*
X62761D01*
X62714Y58014D01*
X62488Y58354D01*
X61997Y58682D01*
X61417Y58797D01*
X60838Y58682D01*
X60347Y58354D01*
X60316Y58307D01*
X59715D01*
X59545Y58561D01*
X58959Y58952D01*
X58858Y58972D01*
Y54331D01*
Y49689D01*
X58959Y49709D01*
X59545Y50101D01*
X59715Y50355D01*
X60316D01*
X60347Y50308D01*
X60838Y49980D01*
X61417Y49865D01*
X61997Y49980D01*
X62488Y50308D01*
X62714Y50647D01*
X62761Y50663D01*
X63223D01*
X63270Y50647D01*
X63497Y50308D01*
X63988Y49980D01*
X64567Y49865D01*
X65146Y49980D01*
X65637Y50308D01*
X65864Y50647D01*
X65911Y50663D01*
X66373D01*
X66420Y50647D01*
X66646Y50308D01*
X67137Y49980D01*
X67717Y49865D01*
X68296Y49980D01*
X68787Y50308D01*
X69014Y50647D01*
X69061Y50663D01*
X69522D01*
X69569Y50647D01*
X69796Y50308D01*
X70287Y49980D01*
X70866Y49865D01*
X71445Y49980D01*
X71936Y50308D01*
X71968Y50355D01*
X72569D01*
X72738Y50101D01*
X73325Y49709D01*
X73425Y49689D01*
Y54331D01*
Y58972D01*
D02*
G37*
G36*
X57677D02*
X57577Y58952D01*
X56990Y58561D01*
X56821Y58307D01*
X56220D01*
X56188Y58354D01*
X55697Y58682D01*
X55118Y58797D01*
X54539Y58682D01*
X54048Y58354D01*
X53821Y58014D01*
X53774Y57998D01*
X53313D01*
X53266Y58014D01*
X53039Y58354D01*
X52548Y58682D01*
X51968Y58797D01*
X51389Y58682D01*
X50898Y58354D01*
X50671Y58014D01*
X50625Y57998D01*
X50163D01*
X50116Y58014D01*
X49889Y58354D01*
X49398Y58682D01*
X48819Y58797D01*
X48240Y58682D01*
X47749Y58354D01*
X47522Y58014D01*
X47475Y57998D01*
X47013D01*
X46966Y58014D01*
X46739Y58354D01*
X46248Y58682D01*
X45669Y58797D01*
X45090Y58682D01*
X44599Y58354D01*
X44568Y58307D01*
X43967D01*
X43797Y58561D01*
X43211Y58952D01*
X43110Y58972D01*
Y54331D01*
Y49689D01*
X43211Y49709D01*
X43797Y50101D01*
X43967Y50355D01*
X44568D01*
X44599Y50308D01*
X45090Y49980D01*
X45669Y49865D01*
X46248Y49980D01*
X46739Y50308D01*
X46966Y50647D01*
X47013Y50663D01*
X47475D01*
X47522Y50647D01*
X47749Y50308D01*
X48240Y49980D01*
X48819Y49865D01*
X49398Y49980D01*
X49889Y50308D01*
X50116Y50647D01*
X50163Y50663D01*
X50625D01*
X50671Y50647D01*
X50898Y50308D01*
X51389Y49980D01*
X51968Y49865D01*
X52548Y49980D01*
X53039Y50308D01*
X53266Y50647D01*
X53313Y50663D01*
X53774D01*
X53821Y50647D01*
X54048Y50308D01*
X54539Y49980D01*
X55118Y49865D01*
X55697Y49980D01*
X56188Y50308D01*
X56220Y50355D01*
X56821D01*
X56990Y50101D01*
X57577Y49709D01*
X57677Y49689D01*
Y54331D01*
Y58972D01*
D02*
G37*
G36*
X26181D02*
X26080Y58952D01*
X25494Y58561D01*
X25325Y58307D01*
X24723D01*
X24692Y58354D01*
X24201Y58682D01*
X23622Y58797D01*
X23043Y58682D01*
X22552Y58354D01*
X22325Y58014D01*
X22278Y57998D01*
X21816D01*
X21769Y58014D01*
X21542Y58354D01*
X21052Y58682D01*
X20472Y58797D01*
X19893Y58682D01*
X19402Y58354D01*
X19175Y58014D01*
X19128Y57998D01*
X18667D01*
X18620Y58014D01*
X18393Y58354D01*
X17902Y58682D01*
X17323Y58797D01*
X16744Y58682D01*
X16253Y58354D01*
X16026Y58014D01*
X15979Y57998D01*
X15517D01*
X15470Y58014D01*
X15243Y58354D01*
X14752Y58682D01*
X14173Y58797D01*
X13594Y58682D01*
X13103Y58354D01*
X13072Y58307D01*
X12471D01*
X12301Y58561D01*
X11715Y58952D01*
X11614Y58972D01*
Y54331D01*
Y49689D01*
X11715Y49709D01*
X12301Y50101D01*
X12471Y50355D01*
X13072D01*
X13103Y50308D01*
X13594Y49980D01*
X14173Y49865D01*
X14752Y49980D01*
X15243Y50308D01*
X15470Y50647D01*
X15517Y50663D01*
X15979D01*
X16026Y50647D01*
X16253Y50308D01*
X16744Y49980D01*
X17323Y49865D01*
X17902Y49980D01*
X18393Y50308D01*
X18620Y50647D01*
X18667Y50663D01*
X19128D01*
X19175Y50647D01*
X19402Y50308D01*
X19893Y49980D01*
X20472Y49865D01*
X21052Y49980D01*
X21542Y50308D01*
X21769Y50647D01*
X21816Y50663D01*
X22278D01*
X22325Y50647D01*
X22552Y50308D01*
X23043Y49980D01*
X23622Y49865D01*
X24201Y49980D01*
X24692Y50308D01*
X24723Y50355D01*
X25325D01*
X25494Y50101D01*
X26080Y49709D01*
X26181Y49689D01*
Y54331D01*
Y58972D01*
D02*
G37*
G36*
X10433D02*
X10332Y58952D01*
X9746Y58561D01*
X9577Y58307D01*
X8975D01*
X8944Y58354D01*
X8453Y58682D01*
X7874Y58797D01*
X7295Y58682D01*
X6804Y58354D01*
X6577Y58014D01*
X6530Y57998D01*
X6068D01*
X6021Y58014D01*
X5794Y58354D01*
X5303Y58682D01*
X4724Y58797D01*
X4145Y58682D01*
X3654Y58354D01*
X3427Y58014D01*
X3380Y57998D01*
X2919D01*
X2872Y58014D01*
X2645Y58354D01*
X2154Y58682D01*
X1575Y58797D01*
X996Y58682D01*
X505Y58354D01*
X278Y58014D01*
X231Y57998D01*
X-231D01*
X-278Y58014D01*
X-505Y58354D01*
X-996Y58682D01*
X-1575Y58797D01*
X-2154Y58682D01*
X-2645Y58354D01*
X-2676Y58307D01*
X-3277D01*
X-3447Y58561D01*
X-4033Y58952D01*
X-4134Y58972D01*
Y54331D01*
Y49689D01*
X-4033Y49709D01*
X-3447Y50101D01*
X-3277Y50355D01*
X-2676D01*
X-2645Y50308D01*
X-2154Y49980D01*
X-1575Y49865D01*
X-996Y49980D01*
X-505Y50308D01*
X-278Y50647D01*
X-231Y50663D01*
X231D01*
X278Y50647D01*
X505Y50308D01*
X996Y49980D01*
X1575Y49865D01*
X2154Y49980D01*
X2645Y50308D01*
X2872Y50647D01*
X2919Y50663D01*
X3380D01*
X3427Y50647D01*
X3654Y50308D01*
X4145Y49980D01*
X4724Y49865D01*
X5303Y49980D01*
X5794Y50308D01*
X6021Y50647D01*
X6068Y50663D01*
X6530D01*
X6577Y50647D01*
X6804Y50308D01*
X7295Y49980D01*
X7874Y49865D01*
X8453Y49980D01*
X8944Y50308D01*
X8975Y50355D01*
X9577D01*
X9746Y50101D01*
X10332Y49709D01*
X10433Y49689D01*
Y54331D01*
Y58972D01*
D02*
G37*
G36*
X-5315D02*
X-5416Y58952D01*
X-6002Y58561D01*
X-6171Y58307D01*
X-6773D01*
X-6804Y58354D01*
X-7295Y58682D01*
X-7874Y58797D01*
X-8453Y58682D01*
X-8944Y58354D01*
X-9171Y58014D01*
X-9218Y57998D01*
X-9680D01*
X-9727Y58014D01*
X-9954Y58354D01*
X-10445Y58682D01*
X-11024Y58797D01*
X-11603Y58682D01*
X-12094Y58354D01*
X-12321Y58014D01*
X-12368Y57998D01*
X-12829D01*
X-12876Y58014D01*
X-13103Y58354D01*
X-13594Y58682D01*
X-14173Y58797D01*
X-14752Y58682D01*
X-15243Y58354D01*
X-15470Y58014D01*
X-15517Y57998D01*
X-15979D01*
X-16026Y58014D01*
X-16253Y58354D01*
X-16744Y58682D01*
X-17323Y58797D01*
X-17902Y58682D01*
X-18393Y58354D01*
X-18424Y58307D01*
X-19026D01*
X-19195Y58561D01*
X-19781Y58952D01*
X-19882Y58972D01*
Y54331D01*
Y49689D01*
X-19781Y49709D01*
X-19195Y50101D01*
X-19026Y50355D01*
X-18424D01*
X-18393Y50308D01*
X-17902Y49980D01*
X-17323Y49865D01*
X-16744Y49980D01*
X-16253Y50308D01*
X-16026Y50647D01*
X-15979Y50663D01*
X-15517D01*
X-15470Y50647D01*
X-15243Y50308D01*
X-14752Y49980D01*
X-14173Y49865D01*
X-13594Y49980D01*
X-13103Y50308D01*
X-12876Y50647D01*
X-12829Y50663D01*
X-12368D01*
X-12321Y50647D01*
X-12094Y50308D01*
X-11603Y49980D01*
X-11024Y49865D01*
X-10445Y49980D01*
X-9954Y50308D01*
X-9727Y50647D01*
X-9680Y50663D01*
X-9218D01*
X-9171Y50647D01*
X-8944Y50308D01*
X-8453Y49980D01*
X-7874Y49865D01*
X-7295Y49980D01*
X-6804Y50308D01*
X-6773Y50355D01*
X-6171D01*
X-6002Y50101D01*
X-5416Y49709D01*
X-5315Y49689D01*
Y54331D01*
Y58972D01*
D02*
G37*
G36*
X109252D02*
Y54921D01*
X110468D01*
Y57284D01*
X110330Y57975D01*
X109939Y58561D01*
X109353Y58952D01*
X109252Y58972D01*
D02*
G37*
G36*
X-85228Y82754D02*
X-89181D01*
Y77817D01*
X-88377D01*
X-88368Y77763D01*
X-88359Y77663D01*
X-88356Y77528D01*
X-88332Y77475D01*
Y60557D01*
X-88313Y60460D01*
Y56322D01*
X-88336Y56272D01*
X-88340Y56184D01*
X-88347Y56122D01*
X-88359Y56062D01*
X-88377Y56004D01*
X-88399Y55948D01*
X-88427Y55891D01*
X-88461Y55834D01*
X-88502Y55777D01*
X-88551Y55718D01*
X-88620Y55645D01*
X-88633Y55611D01*
X-88985Y55084D01*
X-89116Y54428D01*
X-88985Y53772D01*
X-88614Y53216D01*
X-88058Y52845D01*
X-87402Y52714D01*
X-86746Y52845D01*
X-86190Y53216D01*
X-85818Y53772D01*
X-85688Y54428D01*
X-85818Y55084D01*
X-86170Y55611D01*
X-86183Y55645D01*
X-86252Y55718D01*
X-86301Y55777D01*
X-86342Y55834D01*
X-86376Y55891D01*
X-86404Y55948D01*
X-86427Y56004D01*
X-86444Y56062D01*
X-86456Y56122D01*
X-86464Y56184D01*
X-86467Y56272D01*
X-86490Y56322D01*
Y60538D01*
X-86510Y60635D01*
Y77475D01*
X-86486Y77528D01*
X-86483Y77663D01*
X-86474Y77763D01*
X-86465Y77817D01*
X-85228D01*
Y82754D01*
D02*
G37*
G36*
X-96664Y62402D02*
X-107677D01*
Y51389D01*
X-106445Y51486D01*
X-104668Y51912D01*
X-102979Y52612D01*
X-101420Y53567D01*
X-100030Y54754D01*
X-98843Y56144D01*
X-97887Y57703D01*
X-97188Y59392D01*
X-96761Y61170D01*
X-96664Y62402D01*
D02*
G37*
G36*
X-108858D02*
X-119871D01*
X-119774Y61170D01*
X-119348Y59392D01*
X-118648Y57703D01*
X-117693Y56144D01*
X-116506Y54754D01*
X-115115Y53567D01*
X-113557Y52612D01*
X-111868Y51912D01*
X-110090Y51486D01*
X-108858Y51389D01*
Y62402D01*
D02*
G37*
G36*
X110468Y53740D02*
X109252D01*
Y49689D01*
X109353Y49709D01*
X109939Y50101D01*
X110330Y50687D01*
X110468Y51378D01*
Y53740D01*
D02*
G37*
G36*
X-82073Y64805D02*
X-82730Y64674D01*
X-83285Y64302D01*
X-83657Y63747D01*
X-83788Y63090D01*
X-83657Y62435D01*
X-83305Y61908D01*
X-83292Y61873D01*
X-83223Y61801D01*
X-83174Y61742D01*
X-83133Y61684D01*
X-83099Y61628D01*
X-83071Y61571D01*
X-83049Y61514D01*
X-83031Y61457D01*
X-83019Y61397D01*
X-83012Y61335D01*
X-83008Y61247D01*
X-82985Y61197D01*
Y46995D01*
X-83008Y46942D01*
X-83012Y46806D01*
X-83020Y46707D01*
X-83029Y46652D01*
X-84123D01*
Y41715D01*
X-80170D01*
Y46652D01*
X-81118D01*
X-81127Y46707D01*
X-81135Y46806D01*
X-81139Y46942D01*
X-81162Y46995D01*
Y61197D01*
X-81139Y61247D01*
X-81136Y61335D01*
X-81128Y61397D01*
X-81116Y61457D01*
X-81099Y61514D01*
X-81076Y61571D01*
X-81048Y61628D01*
X-81014Y61685D01*
X-80973Y61742D01*
X-80924Y61801D01*
X-80855Y61873D01*
X-80842Y61908D01*
X-80490Y62435D01*
X-80360Y63090D01*
X-80490Y63747D01*
X-80862Y64302D01*
X-81418Y64674D01*
X-82073Y64805D01*
D02*
G37*
G36*
X-92673Y67068D02*
X-93329Y66938D01*
X-93885Y66566D01*
X-94256Y66010D01*
X-94387Y65354D01*
X-94256Y64698D01*
X-93904Y64172D01*
X-93891Y64137D01*
X-93822Y64065D01*
X-93773Y64006D01*
X-93732Y63948D01*
X-93698Y63891D01*
X-93670Y63835D01*
X-93648Y63778D01*
X-93631Y63721D01*
X-93618Y63661D01*
X-93611Y63598D01*
X-93607Y63511D01*
X-93584Y63460D01*
Y48805D01*
X-93515Y48456D01*
X-93317Y48160D01*
X-90271Y45114D01*
X-90028Y44952D01*
Y41715D01*
X-86076D01*
Y46652D01*
X-89047D01*
X-89135Y46670D01*
X-89249D01*
X-91762Y49182D01*
Y63460D01*
X-91738Y63511D01*
X-91735Y63598D01*
X-91727Y63661D01*
X-91715Y63721D01*
X-91698Y63778D01*
X-91675Y63835D01*
X-91648Y63891D01*
X-91614Y63948D01*
X-91572Y64006D01*
X-91524Y64065D01*
X-91455Y64137D01*
X-91441Y64172D01*
X-91089Y64698D01*
X-90959Y65354D01*
X-91089Y66010D01*
X-91461Y66566D01*
X-92017Y66938D01*
X-92673Y67068D01*
D02*
G37*
G36*
X-12598Y40690D02*
X-13254Y40560D01*
X-13781Y40208D01*
X-13816Y40195D01*
X-13888Y40126D01*
X-13947Y40077D01*
X-14005Y40036D01*
X-14062Y40001D01*
X-14118Y39974D01*
X-14175Y39952D01*
X-14232Y39934D01*
X-14292Y39922D01*
X-14354Y39914D01*
X-14442Y39911D01*
X-14492Y39888D01*
X-29833D01*
X-29883Y39911D01*
X-29971Y39914D01*
X-30033Y39922D01*
X-30093Y39934D01*
X-30151Y39952D01*
X-30207Y39974D01*
X-30264Y40002D01*
X-30321Y40036D01*
X-30378Y40077D01*
X-30437Y40125D01*
X-30510Y40195D01*
X-30544Y40208D01*
X-31071Y40560D01*
X-31727Y40690D01*
X-32383Y40560D01*
X-32939Y40188D01*
X-33310Y39632D01*
X-33441Y38976D01*
X-33310Y38320D01*
X-32939Y37764D01*
X-32789Y37664D01*
X-32941Y37164D01*
X-35005D01*
X-35056Y37188D01*
X-35143Y37191D01*
X-35206Y37199D01*
X-35265Y37211D01*
X-35323Y37228D01*
X-35380Y37251D01*
X-35436Y37278D01*
X-35493Y37312D01*
X-35551Y37353D01*
X-35609Y37402D01*
X-35682Y37471D01*
X-35717Y37485D01*
X-36243Y37837D01*
X-36899Y37967D01*
X-37555Y37837D01*
X-38111Y37465D01*
X-38483Y36909D01*
X-38613Y36253D01*
X-38483Y35597D01*
X-38111Y35041D01*
X-37555Y34670D01*
X-36899Y34539D01*
X-36243Y34670D01*
X-35717Y35021D01*
X-35682Y35035D01*
X-35609Y35104D01*
X-35551Y35153D01*
X-35493Y35194D01*
X-35436Y35228D01*
X-35380Y35256D01*
X-35323Y35278D01*
X-35265Y35295D01*
X-35206Y35308D01*
X-35143Y35315D01*
X-35056Y35319D01*
X-35005Y35342D01*
X-20218D01*
X-20167Y35319D01*
X-20080Y35315D01*
X-20017Y35308D01*
X-19958Y35295D01*
X-19900Y35278D01*
X-19843Y35256D01*
X-19787Y35228D01*
X-19730Y35194D01*
X-19672Y35153D01*
X-19613Y35104D01*
X-19541Y35035D01*
X-19507Y35021D01*
X-18980Y34670D01*
X-18324Y34539D01*
X-17668Y34670D01*
X-17112Y35041D01*
X-16740Y35597D01*
X-16610Y36253D01*
X-16740Y36909D01*
X-17112Y37465D01*
X-17262Y37565D01*
X-17110Y38065D01*
X-14492D01*
X-14442Y38042D01*
X-14354Y38038D01*
X-14292Y38031D01*
X-14232Y38018D01*
X-14175Y38001D01*
X-14118Y37979D01*
X-14062Y37951D01*
X-14005Y37917D01*
X-13947Y37876D01*
X-13888Y37827D01*
X-13816Y37758D01*
X-13781Y37745D01*
X-13254Y37393D01*
X-12598Y37262D01*
X-11942Y37393D01*
X-11386Y37764D01*
X-11015Y38320D01*
X-10884Y38976D01*
X-11015Y39632D01*
X-11386Y40188D01*
X-11942Y40560D01*
X-12598Y40690D01*
D02*
G37*
G36*
X-57558Y40133D02*
X-61511D01*
Y35196D01*
X-57558D01*
Y36709D01*
X-57503Y36718D01*
X-57404Y36726D01*
X-57269Y36730D01*
X-57216Y36753D01*
X-48930D01*
X-48880Y36730D01*
X-48792Y36726D01*
X-48729Y36719D01*
X-48670Y36706D01*
X-48612Y36689D01*
X-48555Y36667D01*
X-48499Y36639D01*
X-48442Y36605D01*
X-48384Y36564D01*
X-48325Y36515D01*
X-48253Y36446D01*
X-48219Y36433D01*
X-47692Y36081D01*
X-47036Y35950D01*
X-46380Y36081D01*
X-45824Y36452D01*
X-45452Y37008D01*
X-45322Y37664D01*
X-45452Y38320D01*
X-45824Y38876D01*
X-46380Y39248D01*
X-47036Y39378D01*
X-47692Y39248D01*
X-48219Y38896D01*
X-48253Y38883D01*
X-48325Y38813D01*
X-48384Y38765D01*
X-48442Y38724D01*
X-48499Y38690D01*
X-48555Y38662D01*
X-48612Y38639D01*
X-48670Y38622D01*
X-48729Y38610D01*
X-48792Y38602D01*
X-48880Y38599D01*
X-48930Y38576D01*
X-57216D01*
X-57269Y38599D01*
X-57404Y38603D01*
X-57503Y38611D01*
X-57558Y38620D01*
Y40133D01*
D02*
G37*
G36*
X-42311Y33360D02*
X-46264D01*
Y31848D01*
X-46324Y31838D01*
X-46421Y31829D01*
X-46554Y31826D01*
X-46606Y31802D01*
X-48222D01*
X-48272Y31826D01*
X-48360Y31829D01*
X-48423Y31837D01*
X-48482Y31849D01*
X-48540Y31866D01*
X-48597Y31888D01*
X-48653Y31916D01*
X-48710Y31950D01*
X-48768Y31991D01*
X-48826Y32040D01*
X-48899Y32109D01*
X-48933Y32123D01*
X-49460Y32475D01*
X-50116Y32605D01*
X-50772Y32475D01*
X-51328Y32103D01*
X-51700Y31547D01*
X-51830Y30891D01*
X-51700Y30235D01*
X-51328Y29679D01*
X-50772Y29307D01*
X-50116Y29177D01*
X-49460Y29307D01*
X-48933Y29659D01*
X-48899Y29673D01*
X-48826Y29742D01*
X-48768Y29791D01*
X-48710Y29832D01*
X-48653Y29866D01*
X-48597Y29894D01*
X-48540Y29916D01*
X-48482Y29933D01*
X-48423Y29945D01*
X-48360Y29953D01*
X-48272Y29956D01*
X-48222Y29980D01*
X-46606D01*
X-46554Y29956D01*
X-46421Y29953D01*
X-46324Y29944D01*
X-46264Y29934D01*
Y28422D01*
X-42311D01*
Y33360D01*
D02*
G37*
G36*
X-63220Y33004D02*
X-65090D01*
Y31036D01*
X-63220D01*
Y33004D01*
D02*
G37*
G36*
X-66271D02*
X-68141D01*
Y31036D01*
X-66271D01*
Y33004D01*
D02*
G37*
G36*
X-36406Y33360D02*
X-40358D01*
Y28422D01*
X-36406D01*
Y29935D01*
X-36351Y29944D01*
X-36252Y29953D01*
X-36116Y29956D01*
X-36063Y29980D01*
X-28666D01*
X-28615Y29956D01*
X-28528Y29953D01*
X-28465Y29945D01*
X-28405Y29933D01*
X-28348Y29916D01*
X-28291Y29894D01*
X-28235Y29866D01*
X-28178Y29832D01*
X-28120Y29791D01*
X-28061Y29742D01*
X-27989Y29673D01*
X-27954Y29659D01*
X-27428Y29307D01*
X-26772Y29177D01*
X-26116Y29307D01*
X-25560Y29679D01*
X-25188Y30235D01*
X-25058Y30891D01*
X-25188Y31547D01*
X-25560Y32103D01*
X-26116Y32475D01*
X-26772Y32605D01*
X-27428Y32475D01*
X-27954Y32123D01*
X-27989Y32109D01*
X-28061Y32040D01*
X-28120Y31991D01*
X-28178Y31950D01*
X-28235Y31916D01*
X-28291Y31888D01*
X-28348Y31866D01*
X-28405Y31849D01*
X-28465Y31837D01*
X-28528Y31829D01*
X-28615Y31826D01*
X-28666Y31802D01*
X-36063D01*
X-36116Y31826D01*
X-36252Y31829D01*
X-36351Y31838D01*
X-36406Y31847D01*
Y33360D01*
D02*
G37*
G36*
X-63220Y29855D02*
X-65090D01*
Y27886D01*
X-63220D01*
Y29855D01*
D02*
G37*
G36*
X-66271D02*
X-68141D01*
Y27886D01*
X-66271D01*
Y29855D01*
D02*
G37*
G36*
X-57405Y32717D02*
X-61751D01*
Y28174D01*
X-60534D01*
X-60525Y28119D01*
X-60516Y28020D01*
X-60513Y27884D01*
X-60489Y27831D01*
Y26507D01*
X-60420Y26158D01*
X-60262Y25921D01*
X-60230Y25837D01*
X-60164Y25767D01*
X-60119Y25711D01*
X-60082Y25657D01*
X-60052Y25606D01*
X-60029Y25556D01*
X-60012Y25507D01*
X-59999Y25458D01*
X-59990Y25408D01*
X-59987Y25355D01*
X-59988Y25276D01*
X-59986Y25272D01*
X-59988Y25267D01*
X-59974Y25234D01*
X-59982Y25197D01*
X-59851Y24541D01*
X-59480Y23985D01*
X-58924Y23613D01*
X-58268Y23483D01*
X-57612Y23613D01*
X-57056Y23985D01*
X-56684Y24541D01*
X-56554Y25197D01*
X-56684Y25853D01*
X-57056Y26409D01*
X-57612Y26780D01*
X-58268Y26911D01*
X-58462Y27060D01*
X-58667Y27315D01*
Y27831D01*
X-58643Y27884D01*
X-58640Y28020D01*
X-58631Y28119D01*
X-58622Y28174D01*
X-57405D01*
Y32717D01*
D02*
G37*
G36*
X-42152Y24516D02*
X-46105D01*
Y23004D01*
X-46165Y22994D01*
X-46262Y22985D01*
X-46395Y22982D01*
X-46447Y22958D01*
X-48292D01*
X-48342Y22982D01*
X-48430Y22985D01*
X-48492Y22993D01*
X-48552Y23005D01*
X-48609Y23022D01*
X-48666Y23045D01*
X-48722Y23072D01*
X-48779Y23107D01*
X-48837Y23148D01*
X-48896Y23196D01*
X-48968Y23266D01*
X-49003Y23279D01*
X-49530Y23631D01*
X-50186Y23761D01*
X-50841Y23631D01*
X-51398Y23259D01*
X-51769Y22703D01*
X-51899Y22047D01*
X-51769Y21391D01*
X-51398Y20835D01*
X-50841Y20464D01*
X-50186Y20333D01*
X-49530Y20464D01*
X-49003Y20816D01*
X-48968Y20829D01*
X-48896Y20898D01*
X-48837Y20947D01*
X-48779Y20988D01*
X-48722Y21022D01*
X-48666Y21050D01*
X-48609Y21072D01*
X-48552Y21089D01*
X-48492Y21102D01*
X-48430Y21109D01*
X-48342Y21113D01*
X-48292Y21136D01*
X-46447D01*
X-46395Y21113D01*
X-46262Y21109D01*
X-46165Y21101D01*
X-46105Y21091D01*
Y19579D01*
X-42152D01*
Y24516D01*
D02*
G37*
G36*
X-36247D02*
X-40199D01*
Y19579D01*
X-36247D01*
Y21091D01*
X-36192Y21100D01*
X-36093Y21109D01*
X-35957Y21113D01*
X-35904Y21136D01*
X-23947D01*
X-23897Y21113D01*
X-23809Y21109D01*
X-23747Y21102D01*
X-23687Y21089D01*
X-23629Y21072D01*
X-23573Y21050D01*
X-23516Y21022D01*
X-23459Y20988D01*
X-23402Y20947D01*
X-23343Y20898D01*
X-23270Y20829D01*
X-23236Y20816D01*
X-22709Y20464D01*
X-22053Y20333D01*
X-21397Y20464D01*
X-20841Y20835D01*
X-20470Y21391D01*
X-20339Y22047D01*
X-20470Y22703D01*
X-20841Y23259D01*
X-21397Y23631D01*
X-22053Y23761D01*
X-22709Y23631D01*
X-23236Y23279D01*
X-23270Y23266D01*
X-23343Y23196D01*
X-23402Y23148D01*
X-23459Y23107D01*
X-23516Y23073D01*
X-23573Y23045D01*
X-23629Y23022D01*
X-23687Y23005D01*
X-23747Y22993D01*
X-23809Y22985D01*
X-23897Y22982D01*
X-23947Y22958D01*
X-35904D01*
X-35957Y22982D01*
X-36093Y22986D01*
X-36192Y22994D01*
X-36247Y23003D01*
Y24516D01*
D02*
G37*
G36*
X-109252Y-49689D02*
X-109353Y-49709D01*
X-109362Y-49715D01*
X-109252Y-49822D01*
Y-49689D01*
D02*
G37*
G36*
X60827D02*
X60726Y-49709D01*
X60140Y-50101D01*
X59970Y-50355D01*
X59369D01*
X59338Y-50308D01*
X58847Y-49980D01*
X58268Y-49865D01*
X57689Y-49980D01*
X57198Y-50308D01*
X56971Y-50647D01*
X56924Y-50663D01*
X56462D01*
X56415Y-50647D01*
X56188Y-50308D01*
X55697Y-49980D01*
X55118Y-49865D01*
X54539Y-49980D01*
X54048Y-50308D01*
X54017Y-50355D01*
X53416D01*
X53246Y-50101D01*
X52660Y-49709D01*
X52559Y-49689D01*
Y-54331D01*
Y-58972D01*
X52660Y-58952D01*
X53246Y-58561D01*
X53416Y-58307D01*
X54017D01*
X54048Y-58354D01*
X54539Y-58682D01*
X55118Y-58797D01*
X55697Y-58682D01*
X56188Y-58354D01*
X56415Y-58014D01*
X56462Y-57998D01*
X56924D01*
X56971Y-58014D01*
X57198Y-58354D01*
X57689Y-58682D01*
X58268Y-58797D01*
X58847Y-58682D01*
X59338Y-58354D01*
X59369Y-58307D01*
X59970D01*
X60140Y-58561D01*
X60726Y-58952D01*
X60827Y-58972D01*
Y-54331D01*
Y-49689D01*
D02*
G37*
G36*
X51378D02*
X51277Y-49709D01*
X50691Y-50101D01*
X50522Y-50355D01*
X49920D01*
X49889Y-50308D01*
X49398Y-49980D01*
X48819Y-49865D01*
X48240Y-49980D01*
X47749Y-50308D01*
X47522Y-50647D01*
X47475Y-50663D01*
X47013D01*
X46966Y-50647D01*
X46740Y-50308D01*
X46248Y-49980D01*
X45669Y-49865D01*
X45090Y-49980D01*
X44599Y-50308D01*
X44568Y-50355D01*
X43967D01*
X43797Y-50101D01*
X43211Y-49709D01*
X43110Y-49689D01*
Y-54331D01*
Y-58972D01*
X43211Y-58952D01*
X43797Y-58561D01*
X43967Y-58307D01*
X44568D01*
X44599Y-58354D01*
X45090Y-58682D01*
X45669Y-58797D01*
X46248Y-58682D01*
X46740Y-58354D01*
X46966Y-58014D01*
X47013Y-57998D01*
X47475D01*
X47522Y-58014D01*
X47749Y-58354D01*
X48240Y-58682D01*
X48819Y-58797D01*
X49398Y-58682D01*
X49889Y-58354D01*
X49920Y-58307D01*
X50522D01*
X50691Y-58561D01*
X51277Y-58952D01*
X51378Y-58972D01*
Y-54331D01*
Y-49689D01*
D02*
G37*
G36*
X-110113Y-50361D02*
X-110330Y-50687D01*
X-110468Y-51378D01*
Y-53740D01*
X-109252D01*
Y-51212D01*
X-109641Y-51512D01*
X-109577Y-51446D01*
X-109541Y-51366D01*
X-109532Y-51272D01*
X-109550Y-51165D01*
X-109595Y-51045D01*
X-109668Y-50911D01*
X-109768Y-50763D01*
X-109895Y-50602D01*
X-110049Y-50427D01*
X-110113Y-50361D01*
D02*
G37*
G36*
X-4134Y-49689D02*
Y-54331D01*
X-5315D01*
Y-49689D01*
X-5416Y-49709D01*
X-6002Y-50101D01*
X-6171Y-50355D01*
X-6773D01*
X-6804Y-50308D01*
X-7295Y-49980D01*
X-7874Y-49865D01*
X-8453Y-49980D01*
X-8944Y-50308D01*
X-9171Y-50647D01*
X-9218Y-50663D01*
X-9680D01*
X-9727Y-50647D01*
X-9954Y-50308D01*
X-10445Y-49980D01*
X-11024Y-49865D01*
X-11603Y-49980D01*
X-12094Y-50308D01*
X-12321Y-50647D01*
X-12368Y-50663D01*
X-12829D01*
X-12876Y-50647D01*
X-13103Y-50308D01*
X-13594Y-49980D01*
X-14173Y-49865D01*
X-14752Y-49980D01*
X-15243Y-50308D01*
X-15470Y-50647D01*
X-15517Y-50663D01*
X-15979D01*
X-16026Y-50647D01*
X-16253Y-50308D01*
X-16744Y-49980D01*
X-17323Y-49865D01*
X-17902Y-49980D01*
X-18393Y-50308D01*
X-18424Y-50355D01*
X-19026D01*
X-19195Y-50101D01*
X-19781Y-49709D01*
X-19882Y-49689D01*
Y-54331D01*
X-21063D01*
Y-49689D01*
X-21164Y-49709D01*
X-21750Y-50101D01*
X-21919Y-50355D01*
X-22521D01*
X-22552Y-50308D01*
X-23043Y-49980D01*
X-23622Y-49865D01*
X-24201Y-49980D01*
X-24692Y-50308D01*
X-24919Y-50647D01*
X-24966Y-50663D01*
X-25428D01*
X-25475Y-50647D01*
X-25702Y-50308D01*
X-26193Y-49980D01*
X-26772Y-49865D01*
X-27351Y-49980D01*
X-27842Y-50308D01*
X-28069Y-50647D01*
X-28116Y-50663D01*
X-28577D01*
X-28624Y-50647D01*
X-28851Y-50308D01*
X-29342Y-49980D01*
X-29921Y-49865D01*
X-30500Y-49980D01*
X-30991Y-50308D01*
X-31218Y-50647D01*
X-31265Y-50663D01*
X-31727D01*
X-31774Y-50647D01*
X-32001Y-50308D01*
X-32492Y-49980D01*
X-33071Y-49865D01*
X-33650Y-49980D01*
X-34141Y-50308D01*
X-34172Y-50355D01*
X-34773D01*
X-34943Y-50101D01*
X-35529Y-49709D01*
X-35630Y-49689D01*
Y-54331D01*
X-36811D01*
Y-49689D01*
X-36912Y-49709D01*
X-37498Y-50101D01*
X-37668Y-50355D01*
X-38269D01*
X-38300Y-50308D01*
X-38791Y-49980D01*
X-39370Y-49865D01*
X-39949Y-49980D01*
X-40440Y-50308D01*
X-40667Y-50647D01*
X-40714Y-50663D01*
X-41176D01*
X-41223Y-50647D01*
X-41450Y-50308D01*
X-41941Y-49980D01*
X-42520Y-49865D01*
X-43099Y-49980D01*
X-43590Y-50308D01*
X-43817Y-50647D01*
X-43864Y-50663D01*
X-44325D01*
X-44372Y-50647D01*
X-44599Y-50308D01*
X-45090Y-49980D01*
X-45669Y-49865D01*
X-46248Y-49980D01*
X-46739Y-50308D01*
X-46966Y-50647D01*
X-47013Y-50663D01*
X-47475D01*
X-47522Y-50647D01*
X-47749Y-50308D01*
X-48240Y-49980D01*
X-48819Y-49865D01*
X-49398Y-49980D01*
X-49889Y-50308D01*
X-49920Y-50355D01*
X-50522D01*
X-50691Y-50101D01*
X-51277Y-49709D01*
X-51378Y-49689D01*
Y-54331D01*
X-52559D01*
Y-49689D01*
X-52660Y-49709D01*
X-53246Y-50101D01*
X-53416Y-50355D01*
X-54017D01*
X-54048Y-50308D01*
X-54539Y-49980D01*
X-55118Y-49865D01*
X-55697Y-49980D01*
X-56188Y-50308D01*
X-56415Y-50647D01*
X-56462Y-50663D01*
X-56924D01*
X-56971Y-50647D01*
X-57198Y-50308D01*
X-57689Y-49980D01*
X-58268Y-49865D01*
X-58847Y-49980D01*
X-59338Y-50308D01*
X-59369Y-50355D01*
X-59970D01*
X-60140Y-50101D01*
X-60726Y-49709D01*
X-60827Y-49689D01*
Y-54331D01*
X-62008D01*
Y-49689D01*
X-62109Y-49709D01*
X-62695Y-50101D01*
X-62864Y-50355D01*
X-63466D01*
X-63497Y-50308D01*
X-63988Y-49980D01*
X-64567Y-49865D01*
X-65146Y-49980D01*
X-65637Y-50308D01*
X-65864Y-50647D01*
X-65911Y-50663D01*
X-66373D01*
X-66420Y-50647D01*
X-66646Y-50308D01*
X-67137Y-49980D01*
X-67717Y-49865D01*
X-68296Y-49980D01*
X-68787Y-50308D01*
X-68818Y-50355D01*
X-69419D01*
X-69589Y-50101D01*
X-70175Y-49709D01*
X-70276Y-49689D01*
Y-54331D01*
X-71457D01*
Y-49689D01*
X-71557Y-49709D01*
X-72144Y-50101D01*
X-72313Y-50355D01*
X-72914D01*
X-72946Y-50308D01*
X-73437Y-49980D01*
X-74016Y-49865D01*
X-74595Y-49980D01*
X-75086Y-50308D01*
X-75313Y-50647D01*
X-75360Y-50663D01*
X-75821D01*
X-75868Y-50647D01*
X-76095Y-50308D01*
X-76586Y-49980D01*
X-77165Y-49865D01*
X-77745Y-49980D01*
X-78236Y-50308D01*
X-78267Y-50355D01*
X-78868D01*
X-79038Y-50101D01*
X-79624Y-49709D01*
X-79725Y-49689D01*
Y-54331D01*
Y-58972D01*
X-79624Y-58952D01*
X-79038Y-58561D01*
X-78868Y-58307D01*
X-78267D01*
X-78236Y-58354D01*
X-77808Y-58639D01*
X-77781Y-58773D01*
X-77584Y-59068D01*
X-72702Y-63950D01*
X-72682Y-64003D01*
X-72622Y-64068D01*
X-72575Y-64123D01*
X-72531Y-64183D01*
X-72490Y-64247D01*
X-72451Y-64316D01*
X-72414Y-64390D01*
X-72383Y-64463D01*
X-72318Y-64649D01*
X-72291Y-64750D01*
X-72238Y-64819D01*
X-72205Y-64983D01*
X-71834Y-65539D01*
X-71277Y-65911D01*
X-70622Y-66041D01*
X-69966Y-65911D01*
X-69410Y-65539D01*
X-69038Y-64983D01*
X-68908Y-64328D01*
X-69015Y-63786D01*
X-68604Y-63492D01*
X-68603Y-63491D01*
X-67095Y-65000D01*
X-66799Y-65197D01*
X-66450Y-65266D01*
X-62327D01*
X-62277Y-65290D01*
X-62189Y-65293D01*
X-62126Y-65301D01*
X-62067Y-65313D01*
X-62009Y-65330D01*
X-61952Y-65352D01*
X-61896Y-65380D01*
X-61839Y-65415D01*
X-61781Y-65456D01*
X-61723Y-65504D01*
X-61650Y-65573D01*
X-61616Y-65587D01*
X-61089Y-65939D01*
X-60433Y-66069D01*
X-59777Y-65939D01*
X-59221Y-65567D01*
X-58849Y-65011D01*
X-58719Y-64355D01*
X-58242Y-64188D01*
X-12859D01*
X-12385Y-64367D01*
X-12254Y-65023D01*
X-11883Y-65579D01*
X-11327Y-65951D01*
X-10671Y-66081D01*
X-10015Y-65951D01*
X-9459Y-65579D01*
X-9087Y-65023D01*
X-9008Y-64626D01*
X-8932Y-64355D01*
X-8491Y-64143D01*
X-2684D01*
X-2680Y-64146D01*
X-2652Y-64143D01*
X-2606D01*
X-2557Y-64166D01*
X-2469Y-64170D01*
X-2414Y-64178D01*
X-2369Y-64189D01*
X-2331Y-64202D01*
X-2298Y-64219D01*
X-2267Y-64239D01*
X-2238Y-64263D01*
X-2207Y-64295D01*
X-2176Y-64335D01*
X-2131Y-64406D01*
X-2045Y-64467D01*
X-1859Y-64745D01*
X-1303Y-65117D01*
X-647Y-65247D01*
X9Y-65117D01*
X565Y-64745D01*
X937Y-64189D01*
X1067Y-63533D01*
X937Y-62877D01*
X565Y-62321D01*
X353Y-62180D01*
X505Y-61680D01*
X17832D01*
X17855Y-61700D01*
X17999Y-61986D01*
X18025Y-62161D01*
X17654Y-62717D01*
X17523Y-63373D01*
X17654Y-64029D01*
X18025Y-64585D01*
X18582Y-64956D01*
X19237Y-65087D01*
X19893Y-64956D01*
X20449Y-64585D01*
X20821Y-64029D01*
X20952Y-63373D01*
X20821Y-62717D01*
X20449Y-62161D01*
X20246Y-62024D01*
X20221Y-61969D01*
X20189Y-61957D01*
X20184Y-61945D01*
X20175Y-61936D01*
X20170Y-61925D01*
X20162Y-61896D01*
X20154Y-61861D01*
X20139Y-61717D01*
X20137Y-61629D01*
X20090Y-61522D01*
X20044Y-61293D01*
X19847Y-60998D01*
X19703Y-60854D01*
X19895Y-60392D01*
X27366D01*
X28582Y-61608D01*
X28609Y-61639D01*
X28623Y-61662D01*
X28709Y-62161D01*
X28338Y-62717D01*
X28207Y-63373D01*
X28338Y-64029D01*
X28709Y-64585D01*
X29265Y-64956D01*
X29921Y-65087D01*
X30577Y-64956D01*
X31133Y-64585D01*
X31505Y-64029D01*
X31635Y-63373D01*
X31505Y-62717D01*
X31133Y-62161D01*
X30950Y-62038D01*
X30926Y-61983D01*
X30893Y-61970D01*
X30893Y-61969D01*
X30888Y-61957D01*
X30882Y-61952D01*
X30876Y-61940D01*
X30870Y-61936D01*
X30865Y-61924D01*
X30856Y-61893D01*
X30846Y-61847D01*
X30838Y-61789D01*
X30832Y-61717D01*
X30830Y-61620D01*
X30783Y-61513D01*
X30737Y-61284D01*
X30540Y-60988D01*
X28388Y-58837D01*
X28351Y-58807D01*
X28421Y-58610D01*
X28526Y-58548D01*
X28999Y-58452D01*
X29342Y-58682D01*
X29921Y-58797D01*
X30501Y-58682D01*
X30991Y-58354D01*
X31218Y-58014D01*
X31265Y-57998D01*
X31727D01*
X31774Y-58014D01*
X32001Y-58354D01*
X32492Y-58682D01*
X33071Y-58797D01*
X33650Y-58682D01*
X34141Y-58354D01*
X34368Y-58014D01*
X34415Y-57998D01*
X34876D01*
X34923Y-58014D01*
X35151Y-58354D01*
X35641Y-58682D01*
X36220Y-58797D01*
X36800Y-58682D01*
X37291Y-58354D01*
X37518Y-58014D01*
X37565Y-57998D01*
X38026D01*
X38073Y-58014D01*
X38300Y-58354D01*
X38791Y-58682D01*
X39370Y-58797D01*
X39949Y-58682D01*
X40440Y-58354D01*
X40472Y-58307D01*
X41073D01*
X41243Y-58561D01*
X41829Y-58952D01*
X41929Y-58972D01*
Y-54331D01*
Y-49689D01*
X41829Y-49709D01*
X41243Y-50101D01*
X41073Y-50355D01*
X40472D01*
X40440Y-50308D01*
X39949Y-49980D01*
X39370Y-49865D01*
X38791Y-49980D01*
X38300Y-50308D01*
X38073Y-50647D01*
X38026Y-50663D01*
X37565D01*
X37518Y-50647D01*
X37291Y-50308D01*
X36800Y-49980D01*
X36220Y-49865D01*
X35641Y-49980D01*
X35151Y-50308D01*
X34923Y-50647D01*
X34876Y-50663D01*
X34415D01*
X34368Y-50647D01*
X34141Y-50308D01*
X33650Y-49980D01*
X33071Y-49865D01*
X32492Y-49980D01*
X32001Y-50308D01*
X31774Y-50647D01*
X31727Y-50663D01*
X31265D01*
X31218Y-50647D01*
X30991Y-50308D01*
X30501Y-49980D01*
X29921Y-49865D01*
X29342Y-49980D01*
X28851Y-50308D01*
X28820Y-50355D01*
X28219D01*
X28049Y-50101D01*
X27463Y-49709D01*
X27362Y-49689D01*
Y-54331D01*
X26181D01*
Y-49689D01*
X26081Y-49709D01*
X25494Y-50101D01*
X25325Y-50355D01*
X24723D01*
X24692Y-50308D01*
X24201Y-49980D01*
X23622Y-49865D01*
X23043Y-49980D01*
X22552Y-50308D01*
X22325Y-50647D01*
X22278Y-50663D01*
X21816D01*
X21769Y-50647D01*
X21543Y-50308D01*
X21052Y-49980D01*
X20472Y-49865D01*
X19893Y-49980D01*
X19402Y-50308D01*
X19175Y-50647D01*
X19128Y-50663D01*
X18667D01*
X18620Y-50647D01*
X18393Y-50308D01*
X17902Y-49980D01*
X17323Y-49865D01*
X16744Y-49980D01*
X16253Y-50308D01*
X16026Y-50647D01*
X15979Y-50663D01*
X15517D01*
X15470Y-50647D01*
X15243Y-50308D01*
X14752Y-49980D01*
X14173Y-49865D01*
X13594Y-49980D01*
X13103Y-50308D01*
X13072Y-50355D01*
X12471D01*
X12301Y-50101D01*
X11715Y-49709D01*
X11614Y-49689D01*
Y-54331D01*
X10433D01*
Y-49689D01*
X10332Y-49709D01*
X9746Y-50101D01*
X9577Y-50355D01*
X8975D01*
X8944Y-50308D01*
X8453Y-49980D01*
X7874Y-49865D01*
X7295Y-49980D01*
X6804Y-50308D01*
X6577Y-50647D01*
X6530Y-50663D01*
X6069D01*
X6022Y-50647D01*
X5794Y-50308D01*
X5304Y-49980D01*
X4724Y-49865D01*
X4145Y-49980D01*
X3654Y-50308D01*
X3427Y-50647D01*
X3380Y-50663D01*
X2919D01*
X2872Y-50647D01*
X2645Y-50308D01*
X2154Y-49980D01*
X1575Y-49865D01*
X996Y-49980D01*
X505Y-50308D01*
X278Y-50647D01*
X231Y-50663D01*
X-231D01*
X-278Y-50647D01*
X-505Y-50308D01*
X-996Y-49980D01*
X-1575Y-49865D01*
X-2154Y-49980D01*
X-2645Y-50308D01*
X-2676Y-50355D01*
X-3277D01*
X-3447Y-50101D01*
X-4033Y-49709D01*
X-4134Y-49689D01*
D02*
G37*
G36*
X-89173D02*
Y-54331D01*
Y-58972D01*
X-89073Y-58952D01*
X-88487Y-58561D01*
X-88317Y-58307D01*
X-88293Y-58292D01*
X-88156Y-58249D01*
X-87716Y-58307D01*
X-87684Y-58354D01*
X-87616Y-58399D01*
X-87604Y-58465D01*
X-87577Y-58778D01*
X-87576Y-58850D01*
X-87577Y-58874D01*
X-87585Y-58936D01*
X-87597Y-58996D01*
X-87614Y-59054D01*
X-87636Y-59110D01*
X-87664Y-59167D01*
X-87698Y-59224D01*
X-87739Y-59281D01*
X-87788Y-59340D01*
X-87857Y-59413D01*
X-87871Y-59447D01*
X-88223Y-59974D01*
X-88353Y-60630D01*
X-88223Y-61286D01*
X-87851Y-61842D01*
X-87295Y-62213D01*
X-86639Y-62344D01*
X-85983Y-62213D01*
X-85427Y-61842D01*
X-85255Y-61585D01*
X-84654Y-61585D01*
X-84467Y-61864D01*
X-83911Y-62236D01*
X-83255Y-62366D01*
X-82600Y-62236D01*
X-82043Y-61864D01*
X-81672Y-61308D01*
X-81541Y-60652D01*
X-81672Y-59996D01*
X-82001Y-59504D01*
X-82020Y-59452D01*
X-82089Y-59378D01*
X-82138Y-59318D01*
X-82179Y-59259D01*
X-82213Y-59201D01*
X-82241Y-59143D01*
X-82263Y-59085D01*
X-82281Y-59026D01*
X-82293Y-58966D01*
X-82301Y-58903D01*
X-82304Y-58828D01*
X-82301Y-58714D01*
X-82281Y-58488D01*
X-82273Y-58441D01*
X-82145Y-58367D01*
X-81965Y-58321D01*
X-81815Y-58328D01*
X-81735Y-58347D01*
X-81592Y-58561D01*
X-81006Y-58952D01*
X-80906Y-58972D01*
Y-54331D01*
Y-49689D01*
X-81006Y-49709D01*
X-81592Y-50101D01*
X-81762Y-50355D01*
X-82363D01*
X-82395Y-50308D01*
X-82885Y-49980D01*
X-83465Y-49865D01*
X-84044Y-49980D01*
X-84535Y-50308D01*
X-84762Y-50647D01*
X-84809Y-50663D01*
X-85270D01*
X-85317Y-50647D01*
X-85544Y-50308D01*
X-86035Y-49980D01*
X-86614Y-49865D01*
X-87193Y-49980D01*
X-87684Y-50308D01*
X-87716Y-50355D01*
X-88317D01*
X-88487Y-50101D01*
X-89073Y-49709D01*
X-89173Y-49689D01*
D02*
G37*
G36*
X108858Y-51389D02*
Y-62402D01*
X119871D01*
X119774Y-61170D01*
X119348Y-59392D01*
X118648Y-57703D01*
X117693Y-56144D01*
X116506Y-54754D01*
X115115Y-53567D01*
X113557Y-52612D01*
X111868Y-51912D01*
X110090Y-51486D01*
X108858Y-51389D01*
D02*
G37*
G36*
X107677D02*
X106445Y-51486D01*
X104668Y-51912D01*
X102979Y-52612D01*
X101420Y-53567D01*
X100030Y-54754D01*
X98843Y-56144D01*
X97887Y-57703D01*
X97188Y-59392D01*
X96761Y-61170D01*
X96664Y-62402D01*
X107677D01*
Y-51389D01*
D02*
G37*
G36*
X77756Y-67012D02*
Y-71063D01*
X78972D01*
Y-68701D01*
X78834Y-68010D01*
X78443Y-67423D01*
X77857Y-67032D01*
X77756Y-67012D01*
D02*
G37*
G36*
X-109252D02*
X-109353Y-67032D01*
X-109939Y-67423D01*
X-110330Y-68010D01*
X-110468Y-68701D01*
Y-71063D01*
X-109252D01*
Y-67012D01*
D02*
G37*
G36*
X119871Y-63583D02*
X108858D01*
Y-74596D01*
X110090Y-74499D01*
X111868Y-74072D01*
X113557Y-73372D01*
X115115Y-72417D01*
X116506Y-71230D01*
X117693Y-69840D01*
X118648Y-68281D01*
X119348Y-66592D01*
X119774Y-64815D01*
X119871Y-63583D01*
D02*
G37*
G36*
X107677D02*
X96664D01*
X96761Y-64815D01*
X97188Y-66592D01*
X97887Y-68281D01*
X98843Y-69840D01*
X100030Y-71230D01*
X101420Y-72417D01*
X102979Y-73372D01*
X104668Y-74072D01*
X106445Y-74499D01*
X107677Y-74596D01*
Y-63583D01*
D02*
G37*
G36*
X71457Y-67012D02*
Y-71653D01*
Y-76295D01*
X71557Y-76275D01*
X72139Y-75886D01*
X72256Y-75813D01*
X72626D01*
X72743Y-75886D01*
X73325Y-76275D01*
X73425Y-76295D01*
Y-71654D01*
Y-67012D01*
X73325Y-67032D01*
X72743Y-67421D01*
X72626Y-67495D01*
X72256D01*
X72139Y-67421D01*
X71557Y-67032D01*
X71457Y-67012D01*
D02*
G37*
G36*
X78972Y-72244D02*
X77756D01*
Y-76295D01*
X77857Y-76275D01*
X78443Y-75884D01*
X78834Y-75298D01*
X78972Y-74606D01*
Y-72244D01*
D02*
G37*
G36*
X74606Y-67012D02*
Y-71654D01*
Y-76295D01*
X74707Y-76275D01*
X75289Y-75886D01*
X75406Y-75813D01*
X75775D01*
X75893Y-75886D01*
X76474Y-76275D01*
X76575Y-76295D01*
Y-71653D01*
Y-67012D01*
X76474Y-67032D01*
X75893Y-67421D01*
X75775Y-67495D01*
X75406D01*
X75289Y-67421D01*
X74707Y-67032D01*
X74606Y-67012D01*
D02*
G37*
G36*
X52559D02*
Y-71653D01*
Y-76295D01*
X52660Y-76275D01*
X53246Y-75884D01*
X53416Y-75630D01*
X54017D01*
X54048Y-75676D01*
X54539Y-76004D01*
X55118Y-76120D01*
X55697Y-76004D01*
X56188Y-75676D01*
X56415Y-75337D01*
X56462Y-75321D01*
X56924D01*
X56971Y-75337D01*
X57198Y-75676D01*
X57689Y-76004D01*
X58268Y-76120D01*
X58847Y-76004D01*
X59338Y-75676D01*
X59565Y-75337D01*
X59612Y-75321D01*
X60073D01*
X60120Y-75337D01*
X60347Y-75676D01*
X60838Y-76004D01*
X61417Y-76120D01*
X61997Y-76004D01*
X62488Y-75676D01*
X62714Y-75337D01*
X62761Y-75321D01*
X63223D01*
X63270Y-75337D01*
X63497Y-75676D01*
X63988Y-76004D01*
X64567Y-76120D01*
X65146Y-76004D01*
X65637Y-75676D01*
X65864Y-75337D01*
X65911Y-75321D01*
X66373D01*
X66420Y-75337D01*
X66646Y-75676D01*
X67137Y-76004D01*
X67717Y-76120D01*
X68296Y-76004D01*
X68787Y-75676D01*
X68818Y-75630D01*
X69419D01*
X69589Y-75884D01*
X70175Y-76275D01*
X70276Y-76295D01*
Y-71653D01*
Y-67012D01*
X70175Y-67032D01*
X69589Y-67423D01*
X69419Y-67677D01*
X68818D01*
X68787Y-67631D01*
X68296Y-67303D01*
X67717Y-67188D01*
X67137Y-67303D01*
X66646Y-67631D01*
X66420Y-67970D01*
X66373Y-67986D01*
X65911D01*
X65864Y-67970D01*
X65637Y-67631D01*
X65146Y-67303D01*
X64567Y-67188D01*
X63988Y-67303D01*
X63497Y-67631D01*
X63270Y-67970D01*
X63223Y-67986D01*
X62761D01*
X62714Y-67970D01*
X62488Y-67631D01*
X61997Y-67303D01*
X61417Y-67188D01*
X60838Y-67303D01*
X60347Y-67631D01*
X60120Y-67970D01*
X60073Y-67986D01*
X59612D01*
X59565Y-67970D01*
X59338Y-67631D01*
X58847Y-67303D01*
X58268Y-67188D01*
X57689Y-67303D01*
X57198Y-67631D01*
X56971Y-67970D01*
X56924Y-67986D01*
X56462D01*
X56415Y-67970D01*
X56188Y-67631D01*
X55697Y-67303D01*
X55118Y-67188D01*
X54539Y-67303D01*
X54048Y-67631D01*
X54017Y-67677D01*
X53416D01*
X53246Y-67423D01*
X52660Y-67032D01*
X52559Y-67012D01*
D02*
G37*
G36*
X-109252Y-72244D02*
X-110468D01*
Y-74606D01*
X-110330Y-75298D01*
X-109939Y-75884D01*
X-109353Y-76275D01*
X-109252Y-76295D01*
Y-72244D01*
D02*
G37*
G36*
X-121653Y-77935D02*
X-122310Y-78066D01*
X-122865Y-78437D01*
X-123237Y-78993D01*
X-123368Y-79649D01*
X-123237Y-80305D01*
X-122865Y-80861D01*
X-122310Y-81233D01*
X-121653Y-81363D01*
X-120998Y-81233D01*
X-120441Y-80861D01*
X-120070Y-80305D01*
X-119939Y-79649D01*
X-120070Y-78993D01*
X-120441Y-78437D01*
X-120998Y-78066D01*
X-121653Y-77935D01*
D02*
G37*
%LPD*%
G36*
X88341Y77962D02*
X88255Y78044D01*
X88166Y78118D01*
X88075Y78183D01*
X87981Y78239D01*
X87884Y78286D01*
X87785Y78325D01*
X87683Y78356D01*
X87579Y78377D01*
X87472Y78390D01*
X87362Y78395D01*
Y79182D01*
X87472Y79186D01*
X87579Y79199D01*
X87683Y79221D01*
X87785Y79251D01*
X87884Y79290D01*
X87981Y79338D01*
X88075Y79394D01*
X88166Y79459D01*
X88255Y79533D01*
X88341Y79615D01*
Y77962D01*
D02*
G37*
G36*
X65126Y76190D02*
X65130Y76057D01*
X65140Y75927D01*
X65158Y75800D01*
X65183Y75675D01*
X65215Y75554D01*
X65254Y75435D01*
X65301Y75318D01*
X65354Y75205D01*
X65415Y75094D01*
X65483Y74986D01*
X63951Y75350D01*
X64025Y75343D01*
X64091Y75360D01*
X64149Y75400D01*
X64199Y75464D01*
X64242Y75551D01*
X64277Y75662D01*
X64304Y75796D01*
X64323Y75954D01*
X64335Y76135D01*
X64339Y76340D01*
X65126Y76190D01*
D02*
G37*
G36*
X104533Y70866D02*
X104525Y70941D01*
X104501Y71008D01*
X104461Y71067D01*
X104405Y71118D01*
X104333Y71161D01*
X104245Y71197D01*
X104141Y71224D01*
X104021Y71244D01*
X103937Y71251D01*
X103853Y71244D01*
X103733Y71224D01*
X103629Y71197D01*
X103542Y71161D01*
X103470Y71118D01*
X103414Y71067D01*
X103374Y71008D01*
X103350Y70941D01*
X103342Y70866D01*
Y72441D01*
X103350Y72366D01*
X103374Y72299D01*
X103414Y72240D01*
X103470Y72189D01*
X103542Y72146D01*
X103629Y72110D01*
X103733Y72083D01*
X103853Y72063D01*
X103937Y72056D01*
X104021Y72063D01*
X104141Y72083D01*
X104245Y72110D01*
X104333Y72146D01*
X104405Y72189D01*
X104461Y72240D01*
X104501Y72299D01*
X104525Y72366D01*
X104533Y72441D01*
Y70866D01*
D02*
G37*
G36*
X107701D02*
X107693Y70941D01*
X107669Y71008D01*
X107629Y71067D01*
X107573Y71118D01*
X107501Y71161D01*
X107413Y71197D01*
X107310Y71224D01*
X107190Y71244D01*
X107096Y71252D01*
X107003Y71244D01*
X106883Y71224D01*
X106779Y71197D01*
X106691Y71161D01*
X106619Y71118D01*
X106563Y71067D01*
X106523Y71008D01*
X106499Y70941D01*
X106491Y70866D01*
Y72441D01*
X106499Y72366D01*
X106523Y72299D01*
X106563Y72240D01*
X106619Y72189D01*
X106691Y72146D01*
X106779Y72110D01*
X106883Y72083D01*
X107003Y72063D01*
X107096Y72055D01*
X107190Y72063D01*
X107310Y72083D01*
X107413Y72110D01*
X107501Y72146D01*
X107573Y72189D01*
X107629Y72240D01*
X107669Y72299D01*
X107693Y72366D01*
X107701Y72441D01*
Y70866D01*
D02*
G37*
G36*
X109642Y72366D02*
X109665Y72299D01*
X109705Y72240D01*
X109760Y72189D01*
X109831Y72146D01*
X109917Y72110D01*
X110020Y72083D01*
X110138Y72063D01*
X110272Y72051D01*
X110421Y72047D01*
Y71260D01*
X110272Y71256D01*
X110138Y71244D01*
X110020Y71224D01*
X109917Y71197D01*
X109831Y71161D01*
X109760Y71118D01*
X109705Y71067D01*
X109665Y71008D01*
X109642Y70941D01*
X109634Y70866D01*
Y72441D01*
X109642Y72366D01*
D02*
G37*
G36*
X62122Y68125D02*
X62057Y68091D01*
X61999Y68034D01*
X61949Y67955D01*
X61907Y67854D01*
X61873Y67730D01*
X61846Y67583D01*
X61826Y67414D01*
X61815Y67222D01*
X61811Y67007D01*
X61024D01*
X61020Y67222D01*
X60989Y67583D01*
X60962Y67730D01*
X60928Y67854D01*
X60886Y67955D01*
X60836Y68034D01*
X60778Y68091D01*
X60713Y68125D01*
X60640Y68136D01*
X62195D01*
X62122Y68125D01*
D02*
G37*
G36*
X-86564Y15478D02*
X-86652Y15402D01*
X-86731Y15322D01*
X-86800Y15238D01*
X-86861Y15150D01*
X-86911Y15059D01*
X-86953Y14964D01*
X-86985Y14864D01*
X-87009Y14761D01*
X-87023Y14654D01*
X-87027Y14543D01*
X-87815Y14628D01*
X-87818Y14736D01*
X-87830Y14842D01*
X-87850Y14947D01*
X-87878Y15051D01*
X-87913Y15153D01*
X-87957Y15254D01*
X-88008Y15354D01*
X-88067Y15452D01*
X-88134Y15549D01*
X-88209Y15645D01*
X-86564Y15478D01*
D02*
G37*
G36*
X121849Y10562D02*
X121763Y10644D01*
X121674Y10718D01*
X121582Y10783D01*
X121488Y10839D01*
X121392Y10886D01*
X121293Y10925D01*
X121191Y10956D01*
X121087Y10977D01*
X120979Y10990D01*
X120870Y10995D01*
Y11782D01*
X120979Y11786D01*
X121087Y11799D01*
X121191Y11821D01*
X121293Y11851D01*
X121392Y11890D01*
X121488Y11938D01*
X121582Y11994D01*
X121674Y12059D01*
X121763Y12133D01*
X121849Y12215D01*
Y10562D01*
D02*
G37*
G36*
X116904Y-14057D02*
X116917Y-14164D01*
X116939Y-14268D01*
X116969Y-14370D01*
X117008Y-14469D01*
X117056Y-14566D01*
X117112Y-14660D01*
X117177Y-14751D01*
X117251Y-14840D01*
X117333Y-14926D01*
X115680D01*
X115762Y-14840D01*
X115835Y-14751D01*
X115901Y-14660D01*
X115957Y-14566D01*
X116004Y-14469D01*
X116043Y-14370D01*
X116074Y-14268D01*
X116095Y-14164D01*
X116108Y-14057D01*
X116113Y-13947D01*
X116900D01*
X116904Y-14057D01*
D02*
G37*
G36*
X115663Y-16596D02*
X115577Y-16514D01*
X115488Y-16441D01*
X115396Y-16376D01*
X115303Y-16319D01*
X115206Y-16272D01*
X115107Y-16233D01*
X115005Y-16202D01*
X114901Y-16181D01*
X114794Y-16168D01*
X114684Y-16163D01*
Y-15376D01*
X114794Y-15372D01*
X114901Y-15359D01*
X115005Y-15337D01*
X115107Y-15307D01*
X115206Y-15268D01*
X115303Y-15220D01*
X115396Y-15164D01*
X115488Y-15099D01*
X115577Y-15025D01*
X115663Y-14943D01*
Y-16596D01*
D02*
G37*
G36*
X99863Y-19265D02*
X99776Y-19183D01*
X99688Y-19109D01*
X99596Y-19044D01*
X99502Y-18988D01*
X99406Y-18940D01*
X99306Y-18901D01*
X99205Y-18871D01*
X99100Y-18849D01*
X98993Y-18836D01*
X98884Y-18832D01*
Y-18045D01*
X98993Y-18040D01*
X99100Y-18027D01*
X99205Y-18006D01*
X99306Y-17975D01*
X99406Y-17936D01*
X99502Y-17889D01*
X99596Y-17832D01*
X99688Y-17767D01*
X99776Y-17694D01*
X99863Y-17611D01*
Y-19265D01*
D02*
G37*
G36*
X77563Y-49770D02*
X77575Y-49906D01*
X77595Y-50026D01*
X77622Y-50130D01*
X77658Y-50218D01*
X77701Y-50290D01*
X77752Y-50346D01*
X77811Y-50386D01*
X77878Y-50410D01*
X77953Y-50418D01*
X76378D01*
X76453Y-50410D01*
X76520Y-50386D01*
X76579Y-50346D01*
X76630Y-50290D01*
X76673Y-50218D01*
X76709Y-50130D01*
X76736Y-50026D01*
X76756Y-49906D01*
X76768Y-49770D01*
X76772Y-49618D01*
X77559D01*
X77563Y-49770D01*
D02*
G37*
G36*
X73037Y-55118D02*
X73029Y-55043D01*
X73005Y-54976D01*
X72965Y-54917D01*
X72909Y-54866D01*
X72837Y-54823D01*
X72749Y-54787D01*
X72645Y-54760D01*
X72525Y-54740D01*
X72441Y-54733D01*
X72357Y-54740D01*
X72237Y-54760D01*
X72133Y-54787D01*
X72045Y-54823D01*
X71974Y-54866D01*
X71917Y-54917D01*
X71877Y-54976D01*
X71854Y-55043D01*
X71846Y-55118D01*
Y-53543D01*
X71854Y-53618D01*
X71877Y-53685D01*
X71917Y-53744D01*
X71974Y-53795D01*
X72045Y-53839D01*
X72133Y-53874D01*
X72237Y-53902D01*
X72357Y-53921D01*
X72441Y-53929D01*
X72525Y-53921D01*
X72645Y-53902D01*
X72749Y-53874D01*
X72837Y-53839D01*
X72909Y-53795D01*
X72965Y-53744D01*
X73005Y-53685D01*
X73029Y-53618D01*
X73037Y-53543D01*
Y-55118D01*
D02*
G37*
G36*
X76205D02*
X76197Y-55043D01*
X76173Y-54976D01*
X76133Y-54917D01*
X76077Y-54866D01*
X76005Y-54823D01*
X75917Y-54787D01*
X75814Y-54760D01*
X75694Y-54740D01*
X75600Y-54732D01*
X75507Y-54740D01*
X75387Y-54760D01*
X75283Y-54787D01*
X75195Y-54823D01*
X75123Y-54866D01*
X75067Y-54917D01*
X75027Y-54976D01*
X75003Y-55043D01*
X74995Y-55118D01*
Y-53543D01*
X75003Y-53618D01*
X75027Y-53685D01*
X75067Y-53744D01*
X75123Y-53795D01*
X75195Y-53839D01*
X75283Y-53874D01*
X75387Y-53902D01*
X75507Y-53921D01*
X75600Y-53929D01*
X75694Y-53921D01*
X75814Y-53902D01*
X75917Y-53874D01*
X76005Y-53839D01*
X76077Y-53795D01*
X76133Y-53744D01*
X76173Y-53685D01*
X76197Y-53618D01*
X76205Y-53543D01*
Y-55118D01*
D02*
G37*
G36*
X-34684Y81357D02*
X-34802Y81356D01*
X-34917Y81348D01*
X-35027Y81331D01*
X-35133Y81306D01*
X-35235Y81273D01*
X-35332Y81231D01*
X-35426Y81181D01*
X-35515Y81123D01*
X-35600Y81057D01*
X-35681Y80982D01*
X-36224Y81552D01*
X-36150Y81633D01*
X-36084Y81717D01*
X-36025Y81806D01*
X-35973Y81899D01*
X-35930Y81997D01*
X-35894Y82099D01*
X-35866Y82206D01*
X-35845Y82317D01*
X-35832Y82432D01*
X-35827Y82551D01*
X-34684Y81357D01*
D02*
G37*
G36*
X-63823Y81070D02*
X-63896Y80981D01*
X-63961Y80890D01*
X-64017Y80796D01*
X-64065Y80700D01*
X-64104Y80600D01*
X-64134Y80499D01*
X-64156Y80394D01*
X-64169Y80287D01*
X-64173Y80178D01*
X-64961D01*
X-64965Y80287D01*
X-64978Y80394D01*
X-65000Y80499D01*
X-65030Y80600D01*
X-65069Y80700D01*
X-65117Y80796D01*
X-65173Y80890D01*
X-65238Y80981D01*
X-65311Y81070D01*
X-65394Y81156D01*
X-63740D01*
X-63823Y81070D01*
D02*
G37*
G36*
X-49139Y80947D02*
X-49115Y80880D01*
X-49075Y80821D01*
X-49019Y80769D01*
X-48947Y80726D01*
X-48859Y80691D01*
X-48755Y80663D01*
X-48635Y80643D01*
X-48499Y80632D01*
X-48348Y80628D01*
Y79840D01*
X-48499Y79836D01*
X-48635Y79825D01*
X-48755Y79805D01*
X-48859Y79777D01*
X-48947Y79742D01*
X-49019Y79699D01*
X-49075Y79647D01*
X-49115Y79588D01*
X-49139Y79522D01*
X-49147Y79447D01*
Y81021D01*
X-49139Y80947D01*
D02*
G37*
G36*
X-42757Y79361D02*
X-42825Y79452D01*
X-42898Y79534D01*
X-42976Y79606D01*
X-43059Y79668D01*
X-43146Y79721D01*
X-43239Y79764D01*
X-43336Y79797D01*
X-43438Y79821D01*
X-43545Y79836D01*
X-43657Y79840D01*
X-43510Y80628D01*
X-43403Y80631D01*
X-43297Y80642D01*
X-43192Y80660D01*
X-43087Y80686D01*
X-42983Y80718D01*
X-42879Y80758D01*
X-42776Y80805D01*
X-42674Y80860D01*
X-42572Y80921D01*
X-42470Y80990D01*
X-42757Y79361D01*
D02*
G37*
G36*
X-79827Y80811D02*
X-79803Y80744D01*
X-79764Y80685D01*
X-79709Y80634D01*
X-79638Y80591D01*
X-79551Y80555D01*
X-79449Y80528D01*
X-79331Y80508D01*
X-79197Y80496D01*
X-79047Y80492D01*
Y79705D01*
X-79197Y79701D01*
X-79331Y79689D01*
X-79449Y79670D01*
X-79551Y79642D01*
X-79638Y79607D01*
X-79709Y79563D01*
X-79764Y79512D01*
X-79803Y79453D01*
X-79827Y79386D01*
X-79835Y79311D01*
Y80886D01*
X-79827Y80811D01*
D02*
G37*
G36*
X-57969Y79278D02*
X-57977Y79352D01*
X-58001Y79419D01*
X-58040Y79477D01*
X-58095Y79528D01*
X-58165Y79571D01*
X-58252Y79606D01*
X-58354Y79634D01*
X-58472Y79653D01*
X-58605Y79665D01*
X-58754Y79669D01*
Y80456D01*
X-58605Y80460D01*
X-58472Y80472D01*
X-58354Y80492D01*
X-58252Y80519D01*
X-58165Y80554D01*
X-58095Y80597D01*
X-58040Y80648D01*
X-58001Y80707D01*
X-57977Y80773D01*
X-57969Y80848D01*
Y79278D01*
D02*
G37*
G36*
X-75042Y79272D02*
X-75129Y79354D01*
X-75217Y79428D01*
X-75309Y79493D01*
X-75403Y79549D01*
X-75499Y79597D01*
X-75599Y79636D01*
X-75700Y79666D01*
X-75805Y79688D01*
X-75912Y79701D01*
X-76021Y79705D01*
Y80492D01*
X-75912Y80497D01*
X-75805Y80510D01*
X-75700Y80531D01*
X-75599Y80562D01*
X-75499Y80601D01*
X-75403Y80648D01*
X-75309Y80705D01*
X-75217Y80770D01*
X-75129Y80843D01*
X-75042Y80926D01*
Y79272D01*
D02*
G37*
G36*
X-73322Y79294D02*
X-73385Y79193D01*
X-73440Y79091D01*
X-73489Y78989D01*
X-73529Y78886D01*
X-73563Y78782D01*
X-73589Y78678D01*
X-73607Y78572D01*
X-73618Y78466D01*
X-73622Y78359D01*
X-74410Y78228D01*
X-74414Y78340D01*
X-74429Y78447D01*
X-74452Y78549D01*
X-74486Y78647D01*
X-74528Y78740D01*
X-74581Y78829D01*
X-74642Y78913D01*
X-74714Y78992D01*
X-74795Y79067D01*
X-74885Y79137D01*
X-73251Y79394D01*
X-73322Y79294D01*
D02*
G37*
G36*
X-32308Y78093D02*
X-32330Y78093D01*
X-32358Y78085D01*
X-32391Y78068D01*
X-32431Y78044D01*
X-32476Y78010D01*
X-32585Y77920D01*
X-32717Y77797D01*
X-32792Y77723D01*
X-33349Y78279D01*
X-33292Y78338D01*
X-33165Y78489D01*
X-33137Y78531D01*
X-33116Y78570D01*
X-33102Y78604D01*
X-33095Y78635D01*
X-33096Y78661D01*
X-33104Y78684D01*
X-32308Y78093D01*
D02*
G37*
G36*
X-59866Y78394D02*
X-59941Y78313D01*
X-60007Y78228D01*
X-60065Y78139D01*
X-60115Y78045D01*
X-60156Y77948D01*
X-60189Y77846D01*
X-60213Y77740D01*
X-60230Y77630D01*
X-60237Y77516D01*
X-60237Y77397D01*
X-61439Y78533D01*
X-61319Y78539D01*
X-61204Y78553D01*
X-61093Y78574D01*
X-60986Y78603D01*
X-60884Y78639D01*
X-60786Y78683D01*
X-60693Y78734D01*
X-60604Y78793D01*
X-60520Y78860D01*
X-60439Y78934D01*
X-59866Y78394D01*
D02*
G37*
G36*
X-47007Y76784D02*
X-47162Y76779D01*
X-47313Y76762D01*
X-47459Y76734D01*
X-47600Y76695D01*
X-47737Y76645D01*
X-47869Y76584D01*
X-47996Y76512D01*
X-48119Y76428D01*
X-48237Y76333D01*
X-48351Y76228D01*
X-48425Y76264D01*
X-48422Y76148D01*
X-48398Y75880D01*
X-48376Y75763D01*
X-48349Y75658D01*
X-48315Y75565D01*
X-48275Y75483D01*
X-48229Y75413D01*
X-48176Y75354D01*
X-48118Y75307D01*
X-49520D01*
X-49461Y75354D01*
X-49409Y75413D01*
X-49363Y75483D01*
X-49323Y75565D01*
X-49290Y75658D01*
X-49262Y75763D01*
X-49240Y75880D01*
X-49225Y76008D01*
X-49216Y76148D01*
X-49213Y76300D01*
X-48498D01*
X-49097Y76595D01*
X-49069Y76631D01*
X-49061Y76663D01*
X-49072Y76692D01*
X-49102Y76716D01*
X-49152Y76737D01*
X-49222Y76754D01*
X-49547Y76783D01*
X-49695Y76784D01*
X-47957Y77572D01*
X-47007Y76784D01*
D02*
G37*
G36*
X-35661Y76189D02*
X-35657Y76056D01*
X-35647Y75926D01*
X-35629Y75799D01*
X-35604Y75675D01*
X-35572Y75553D01*
X-35533Y75434D01*
X-35486Y75318D01*
X-35433Y75204D01*
X-35372Y75094D01*
X-35305Y74986D01*
X-36835Y75350D01*
X-36762Y75344D01*
X-36696Y75361D01*
X-36638Y75401D01*
X-36588Y75464D01*
X-36545Y75552D01*
X-36510Y75662D01*
X-36483Y75797D01*
X-36464Y75954D01*
X-36452Y76135D01*
X-36448Y76340D01*
X-35661Y76189D01*
D02*
G37*
G36*
X-32673Y76086D02*
X-32643Y75724D01*
X-32616Y75578D01*
X-32581Y75453D01*
X-32539Y75352D01*
X-32489Y75273D01*
X-32432Y75216D01*
X-32366Y75182D01*
X-32293Y75171D01*
X-33848D01*
X-33775Y75182D01*
X-33710Y75216D01*
X-33653Y75273D01*
X-33603Y75352D01*
X-33561Y75453D01*
X-33526Y75578D01*
X-33499Y75724D01*
X-33480Y75894D01*
X-33468Y76086D01*
X-33465Y76300D01*
X-32677D01*
X-32673Y76086D01*
D02*
G37*
G36*
X-38973D02*
X-38942Y75724D01*
X-38915Y75578D01*
X-38881Y75453D01*
X-38838Y75352D01*
X-38788Y75273D01*
X-38731Y75216D01*
X-38666Y75182D01*
X-38593Y75171D01*
X-40148D01*
X-40075Y75182D01*
X-40009Y75216D01*
X-39952Y75273D01*
X-39902Y75352D01*
X-39860Y75453D01*
X-39825Y75578D01*
X-39798Y75724D01*
X-39779Y75894D01*
X-39768Y76086D01*
X-39764Y76300D01*
X-38976D01*
X-38973Y76086D01*
D02*
G37*
G36*
X-57870D02*
X-57840Y75724D01*
X-57813Y75578D01*
X-57778Y75453D01*
X-57736Y75352D01*
X-57686Y75273D01*
X-57629Y75216D01*
X-57563Y75182D01*
X-57490Y75171D01*
X-59045D01*
X-58972Y75182D01*
X-58907Y75216D01*
X-58850Y75273D01*
X-58800Y75352D01*
X-58757Y75453D01*
X-58723Y75578D01*
X-58696Y75724D01*
X-58677Y75894D01*
X-58665Y76086D01*
X-58662Y76300D01*
X-57874D01*
X-57870Y76086D01*
D02*
G37*
G36*
X-60591Y76509D02*
X-60673Y76423D01*
X-60747Y76334D01*
X-60812Y76242D01*
X-60868Y76148D01*
X-60915Y76052D01*
X-60954Y75953D01*
X-60985Y75851D01*
X-60996Y75799D01*
X-60989Y75724D01*
X-60962Y75578D01*
X-60928Y75453D01*
X-60886Y75352D01*
X-60836Y75273D01*
X-60778Y75216D01*
X-60713Y75182D01*
X-60640Y75171D01*
X-62195D01*
X-62122Y75182D01*
X-62057Y75216D01*
X-61999Y75273D01*
X-61949Y75352D01*
X-61907Y75453D01*
X-61873Y75578D01*
X-61846Y75724D01*
X-61838Y75792D01*
X-61850Y75851D01*
X-61880Y75953D01*
X-61919Y76052D01*
X-61967Y76148D01*
X-62023Y76243D01*
X-62088Y76334D01*
X-62162Y76423D01*
X-62244Y76509D01*
X-60591Y76509D01*
D02*
G37*
G36*
X-64170Y76086D02*
X-64139Y75724D01*
X-64112Y75578D01*
X-64077Y75453D01*
X-64035Y75352D01*
X-63985Y75273D01*
X-63928Y75216D01*
X-63863Y75182D01*
X-63790Y75171D01*
X-65344D01*
X-65272Y75182D01*
X-65206Y75216D01*
X-65149Y75273D01*
X-65099Y75352D01*
X-65057Y75453D01*
X-65022Y75578D01*
X-64995Y75724D01*
X-64976Y75894D01*
X-64965Y76086D01*
X-64961Y76300D01*
X-64173D01*
X-64170Y76086D01*
D02*
G37*
G36*
X-73618D02*
X-73588Y75724D01*
X-73561Y75578D01*
X-73526Y75453D01*
X-73484Y75352D01*
X-73434Y75273D01*
X-73377Y75216D01*
X-73311Y75182D01*
X-73238Y75171D01*
X-74793D01*
X-74720Y75182D01*
X-74655Y75216D01*
X-74598Y75273D01*
X-74548Y75352D01*
X-74506Y75453D01*
X-74471Y75578D01*
X-74444Y75724D01*
X-74425Y75894D01*
X-74413Y76086D01*
X-74410Y76300D01*
X-73622D01*
X-73618Y76086D01*
D02*
G37*
G36*
X-24601Y70866D02*
X-24609Y70941D01*
X-24633Y71008D01*
X-24673Y71067D01*
X-24729Y71118D01*
X-24801Y71161D01*
X-24889Y71197D01*
X-24993Y71224D01*
X-25113Y71244D01*
X-25197Y71251D01*
X-25281Y71244D01*
X-25401Y71224D01*
X-25505Y71197D01*
X-25592Y71161D01*
X-25664Y71118D01*
X-25720Y71067D01*
X-25760Y71008D01*
X-25784Y70941D01*
X-25792Y70866D01*
Y72441D01*
X-25784Y72366D01*
X-25760Y72299D01*
X-25720Y72240D01*
X-25664Y72189D01*
X-25592Y72146D01*
X-25505Y72110D01*
X-25401Y72083D01*
X-25281Y72063D01*
X-25197Y72056D01*
X-25113Y72063D01*
X-24993Y72083D01*
X-24889Y72110D01*
X-24801Y72146D01*
X-24729Y72189D01*
X-24673Y72240D01*
X-24633Y72299D01*
X-24609Y72366D01*
X-24601Y72441D01*
Y70866D01*
D02*
G37*
G36*
X-70235Y67968D02*
X-70309Y67974D01*
X-70375Y67956D01*
X-70433Y67915D01*
X-70483Y67851D01*
X-70525Y67763D01*
X-70560Y67651D01*
X-70587Y67516D01*
X-70607Y67358D01*
X-70618Y67176D01*
X-70620Y67105D01*
X-70618Y67059D01*
X-70605Y66952D01*
X-70583Y66848D01*
X-70553Y66746D01*
X-70514Y66647D01*
X-70466Y66550D01*
X-70410Y66456D01*
X-70345Y66365D01*
X-70271Y66276D01*
X-70189Y66190D01*
X-71843D01*
X-71760Y66276D01*
X-71687Y66365D01*
X-71622Y66456D01*
X-71566Y66550D01*
X-71518Y66647D01*
X-71479Y66746D01*
X-71449Y66848D01*
X-71427Y66952D01*
X-71414Y67059D01*
X-71411Y67143D01*
X-71413Y67238D01*
X-71425Y67366D01*
X-71443Y67492D01*
X-71469Y67617D01*
X-71503Y67739D01*
X-71544Y67860D01*
X-71592Y67978D01*
X-71648Y68094D01*
X-71711Y68209D01*
X-71782Y68321D01*
X-70235Y67968D01*
D02*
G37*
G36*
X-54520Y67945D02*
X-54594Y67953D01*
X-54660Y67937D01*
X-54718Y67897D01*
X-54768Y67835D01*
X-54811Y67748D01*
X-54845Y67638D01*
X-54873Y67505D01*
X-54892Y67348D01*
X-54904Y67168D01*
X-54907Y66964D01*
X-55695Y67129D01*
X-55698Y67264D01*
X-55725Y67524D01*
X-55749Y67649D01*
X-55780Y67770D01*
X-55817Y67887D01*
X-55861Y68001D01*
X-55912Y68111D01*
X-55970Y68218D01*
X-56034Y68321D01*
X-54520Y67945D01*
D02*
G37*
G36*
X-29217Y68125D02*
X-29282Y68091D01*
X-29340Y68034D01*
X-29390Y67955D01*
X-29432Y67854D01*
X-29466Y67730D01*
X-29493Y67583D01*
X-29512Y67414D01*
X-29524Y67222D01*
X-29528Y67007D01*
X-30315D01*
X-30319Y67222D01*
X-30349Y67583D01*
X-30376Y67730D01*
X-30411Y67854D01*
X-30453Y67955D01*
X-30503Y68034D01*
X-30561Y68091D01*
X-30626Y68125D01*
X-30699Y68136D01*
X-29144D01*
X-29217Y68125D01*
D02*
G37*
G36*
X-38666D02*
X-38731Y68091D01*
X-38788Y68034D01*
X-38838Y67955D01*
X-38881Y67854D01*
X-38915Y67730D01*
X-38942Y67583D01*
X-38961Y67414D01*
X-38973Y67222D01*
X-38976Y67007D01*
X-39764D01*
X-39768Y67222D01*
X-39798Y67583D01*
X-39825Y67730D01*
X-39860Y67854D01*
X-39902Y67955D01*
X-39952Y68034D01*
X-40009Y68091D01*
X-40075Y68125D01*
X-40148Y68136D01*
X-38593D01*
X-38666Y68125D01*
D02*
G37*
G36*
X-41815D02*
X-41881Y68091D01*
X-41938Y68034D01*
X-41988Y67955D01*
X-42030Y67854D01*
X-42065Y67730D01*
X-42092Y67583D01*
X-42111Y67414D01*
X-42122Y67222D01*
X-42126Y67007D01*
X-42913D01*
X-42917Y67222D01*
X-42948Y67583D01*
X-42975Y67730D01*
X-43009Y67854D01*
X-43052Y67955D01*
X-43102Y68034D01*
X-43159Y68091D01*
X-43224Y68125D01*
X-43297Y68136D01*
X-41742D01*
X-41815Y68125D01*
D02*
G37*
G36*
X-44965D02*
X-45030Y68091D01*
X-45088Y68034D01*
X-45138Y67955D01*
X-45180Y67854D01*
X-45214Y67730D01*
X-45241Y67583D01*
X-45260Y67414D01*
X-45272Y67222D01*
X-45276Y67007D01*
X-46063D01*
X-46067Y67222D01*
X-46098Y67583D01*
X-46125Y67730D01*
X-46159Y67854D01*
X-46201Y67955D01*
X-46251Y68034D01*
X-46309Y68091D01*
X-46374Y68125D01*
X-46447Y68136D01*
X-44892D01*
X-44965Y68125D01*
D02*
G37*
G36*
X-48114D02*
X-48180Y68091D01*
X-48237Y68034D01*
X-48287Y67955D01*
X-48329Y67854D01*
X-48364Y67730D01*
X-48391Y67583D01*
X-48410Y67414D01*
X-48421Y67222D01*
X-48425Y67007D01*
X-49213D01*
X-49216Y67222D01*
X-49247Y67583D01*
X-49274Y67730D01*
X-49309Y67854D01*
X-49351Y67955D01*
X-49401Y68034D01*
X-49458Y68091D01*
X-49523Y68125D01*
X-49596Y68136D01*
X-48042D01*
X-48114Y68125D01*
D02*
G37*
G36*
X-51264D02*
X-51329Y68091D01*
X-51387Y68034D01*
X-51437Y67955D01*
X-51479Y67854D01*
X-51513Y67730D01*
X-51540Y67583D01*
X-51560Y67414D01*
X-51571Y67222D01*
X-51575Y67007D01*
X-52362D01*
X-52366Y67222D01*
X-52397Y67583D01*
X-52424Y67730D01*
X-52458Y67854D01*
X-52500Y67955D01*
X-52550Y68034D01*
X-52608Y68091D01*
X-52673Y68125D01*
X-52746Y68136D01*
X-51191D01*
X-51264Y68125D01*
D02*
G37*
G36*
X-76461D02*
X-76526Y68091D01*
X-76584Y68034D01*
X-76634Y67955D01*
X-76676Y67854D01*
X-76710Y67730D01*
X-76737Y67583D01*
X-76756Y67414D01*
X-76768Y67222D01*
X-76772Y67007D01*
X-77559D01*
X-77563Y67222D01*
X-77594Y67583D01*
X-77621Y67730D01*
X-77655Y67854D01*
X-77697Y67955D01*
X-77747Y68034D01*
X-77805Y68091D01*
X-77870Y68125D01*
X-77943Y68136D01*
X-76388D01*
X-76461Y68125D01*
D02*
G37*
G36*
X-67016Y68000D02*
X-67085Y67946D01*
X-67147Y67882D01*
X-67201Y67807D01*
X-67248Y67721D01*
X-67288Y67626D01*
X-67321Y67519D01*
X-67347Y67403D01*
X-67365Y67275D01*
X-67376Y67137D01*
X-67379Y66989D01*
X-68167Y67045D01*
X-68170Y67258D01*
X-68201Y67621D01*
X-68228Y67771D01*
X-68263Y67899D01*
X-68305Y68006D01*
X-68355Y68091D01*
X-68412Y68155D01*
X-68477Y68199D01*
X-68550Y68220D01*
X-67016Y68000D01*
D02*
G37*
G36*
X-60375Y66745D02*
X-60157Y66655D01*
X-60049Y66618D01*
X-59835Y66561D01*
X-59729Y66541D01*
X-59521Y66519D01*
X-59417Y66516D01*
X-59134Y65728D01*
X-59248Y65723D01*
X-59354Y65709D01*
X-59454Y65684D01*
X-59547Y65649D01*
X-59634Y65604D01*
X-59713Y65549D01*
X-59785Y65485D01*
X-59851Y65410D01*
X-59910Y65325D01*
X-59962Y65231D01*
X-60485Y66799D01*
X-60375Y66745D01*
D02*
G37*
G36*
X38055Y66285D02*
X38144Y66211D01*
X38236Y66147D01*
X38329Y66090D01*
X38426Y66043D01*
X38525Y66004D01*
X38627Y65973D01*
X38731Y65952D01*
X38838Y65939D01*
X38948Y65934D01*
Y65147D01*
X38838Y65143D01*
X38731Y65130D01*
X38627Y65108D01*
X38525Y65078D01*
X38426Y65039D01*
X38329Y64991D01*
X38236Y64935D01*
X38144Y64870D01*
X38055Y64796D01*
X37969Y64714D01*
Y66367D01*
X38055Y66285D01*
D02*
G37*
G36*
X-63022Y65617D02*
X-63012Y65502D01*
X-62993Y65392D01*
X-62966Y65285D01*
X-62932Y65183D01*
X-62889Y65086D01*
X-62839Y64992D01*
X-62780Y64903D01*
X-62714Y64818D01*
X-62639Y64738D01*
X-63196Y64181D01*
X-63277Y64255D01*
X-63361Y64322D01*
X-63450Y64380D01*
X-63544Y64431D01*
X-63642Y64473D01*
X-63744Y64508D01*
X-63850Y64535D01*
X-63960Y64553D01*
X-64075Y64564D01*
X-64194Y64567D01*
X-63025Y65736D01*
X-63022Y65617D01*
D02*
G37*
G36*
X42368Y62497D02*
X42281Y62579D01*
X42193Y62653D01*
X42101Y62718D01*
X42007Y62774D01*
X41911Y62822D01*
X41811Y62861D01*
X41710Y62891D01*
X41605Y62913D01*
X41498Y62926D01*
X41389Y62930D01*
Y63717D01*
X41498Y63722D01*
X41605Y63735D01*
X41710Y63756D01*
X41811Y63787D01*
X41911Y63826D01*
X42007Y63873D01*
X42101Y63929D01*
X42193Y63994D01*
X42281Y64068D01*
X42368Y64150D01*
Y62497D01*
D02*
G37*
G36*
X-76764Y64220D02*
X-76740Y64087D01*
X-76701Y63968D01*
X-76646Y63866D01*
X-76575Y63779D01*
X-76488Y63709D01*
X-76386Y63653D01*
X-76268Y63614D01*
X-76134Y63591D01*
X-75984Y63583D01*
Y62795D01*
X-76134Y62787D01*
X-76268Y62764D01*
X-76386Y62724D01*
X-76488Y62669D01*
X-76575Y62598D01*
X-76646Y62512D01*
X-76701Y62409D01*
X-76740Y62291D01*
X-76764Y62157D01*
X-76772Y62008D01*
X-77559Y63189D01*
X-76772Y64370D01*
X-76764Y64220D01*
D02*
G37*
G36*
X-43817Y67970D02*
X-43745Y67864D01*
X-43734Y67816D01*
X-43700Y67796D01*
X-43693Y67785D01*
X-43680Y67753D01*
X-43669Y67748D01*
X-43590Y67631D01*
X-43495Y67568D01*
X-43485Y67511D01*
X-43458Y67194D01*
X-43455Y66997D01*
X-43431Y66943D01*
Y63785D01*
X-43362Y63436D01*
X-43164Y63140D01*
X-42703Y62679D01*
X-42407Y62482D01*
X-42059Y62412D01*
X36033D01*
X36184Y61912D01*
X36140Y61883D01*
X36090Y61864D01*
X36016Y61795D01*
X35956Y61747D01*
X35897Y61705D01*
X35838Y61671D01*
X35781Y61643D01*
X35723Y61621D01*
X35664Y61603D01*
X35604Y61591D01*
X35541Y61584D01*
X35453Y61580D01*
X35402Y61557D01*
X-44276D01*
X-44758Y62040D01*
Y66943D01*
X-44735Y66997D01*
X-44731Y67200D01*
X-44721Y67367D01*
X-44705Y67504D01*
X-44694Y67568D01*
X-44599Y67631D01*
X-44521Y67748D01*
X-44509Y67753D01*
X-44496Y67785D01*
X-44489Y67796D01*
X-44455Y67816D01*
X-44444Y67864D01*
X-44372Y67970D01*
X-44325Y67986D01*
X-43864D01*
X-43817Y67970D01*
D02*
G37*
G36*
X-57874Y61631D02*
X-58662Y60450D01*
X-58669Y60599D01*
X-58693Y60733D01*
X-58732Y60851D01*
X-58788Y60954D01*
X-58858Y61040D01*
X-58945Y61111D01*
X-59047Y61166D01*
X-59165Y61206D01*
X-59299Y61229D01*
X-59449Y61237D01*
Y62025D01*
X-59299Y62033D01*
X-59165Y62056D01*
X-59047Y62095D01*
X-58945Y62151D01*
X-58858Y62221D01*
X-58788Y62308D01*
X-58732Y62410D01*
X-58693Y62529D01*
X-58669Y62662D01*
X-58662Y62812D01*
X-57874Y61631D01*
D02*
G37*
G36*
X-67315Y62662D02*
X-67291Y62529D01*
X-67252Y62410D01*
X-67197Y62308D01*
X-67126Y62221D01*
X-67040Y62151D01*
X-66937Y62095D01*
X-66819Y62056D01*
X-66685Y62033D01*
X-66536Y62025D01*
Y61237D01*
X-66685Y61229D01*
X-66819Y61206D01*
X-66937Y61166D01*
X-67040Y61111D01*
X-67126Y61040D01*
X-67197Y60954D01*
X-67252Y60851D01*
X-67291Y60733D01*
X-67315Y60599D01*
X-67323Y60450D01*
X-68110Y61631D01*
X-67323Y62812D01*
X-67315Y62662D01*
D02*
G37*
G36*
X36436Y59814D02*
X36351Y59898D01*
X36263Y59972D01*
X36173Y60038D01*
X36080Y60094D01*
X35984Y60143D01*
X35885Y60182D01*
X35784Y60213D01*
X35680Y60234D01*
X35573Y60248D01*
X35463Y60252D01*
X35474Y61039D01*
X35583Y61044D01*
X35690Y61057D01*
X35795Y61078D01*
X35897Y61108D01*
X35997Y61146D01*
X36094Y61194D01*
X36189Y61249D01*
X36281Y61314D01*
X36371Y61386D01*
X36458Y61468D01*
X36436Y59814D01*
D02*
G37*
G36*
X-37894Y58203D02*
X-38039Y58052D01*
X-38265Y57783D01*
X-38346Y57663D01*
X-38407Y57554D01*
X-38446Y57455D01*
X-38464Y57366D01*
X-38460Y57288D01*
X-38436Y57219D01*
X-38391Y57161D01*
X-39370Y58090D01*
X-40350Y57161D01*
X-40304Y57219D01*
X-40280Y57288D01*
X-40277Y57366D01*
X-40295Y57455D01*
X-40334Y57554D01*
X-40394Y57663D01*
X-40475Y57783D01*
X-40578Y57913D01*
X-40701Y58052D01*
X-40846Y58203D01*
X-40289Y58759D01*
X-40136Y58612D01*
X-39861Y58380D01*
X-39739Y58296D01*
X-39627Y58232D01*
X-39525Y58190D01*
X-39460Y58175D01*
X-39520Y58233D01*
X-39460Y58190D01*
X-39388Y58169D01*
X-39370Y58169D01*
X-39352Y58169D01*
X-39281Y58190D01*
X-39220Y58233D01*
X-39280Y58175D01*
X-39216Y58190D01*
X-39114Y58232D01*
X-39002Y58296D01*
X-38879Y58380D01*
X-38747Y58485D01*
X-38604Y58612D01*
X-38451Y58759D01*
X-37894Y58203D01*
D02*
G37*
G36*
X-48419Y58171D02*
X-49219D01*
X-49218Y58176D01*
X-49217Y58191D01*
X-49214Y58355D01*
X-49213Y58682D01*
X-48425D01*
X-48419Y58171D01*
D02*
G37*
G36*
X-49730Y58740D02*
X-49754Y58683D01*
X-49755Y58443D01*
X-49889Y58354D01*
X-50116Y58014D01*
X-50163Y57998D01*
X-50625D01*
X-50672Y58014D01*
X-50898Y58354D01*
X-51389Y58682D01*
X-51969Y58797D01*
X-52548Y58682D01*
X-53039Y58354D01*
X-53266Y58014D01*
X-53313Y57998D01*
X-53774D01*
X-53821Y58014D01*
X-54048Y58354D01*
X-54539Y58682D01*
X-55118Y58797D01*
X-55697Y58682D01*
X-56188Y58354D01*
X-56415Y58014D01*
X-56462Y57998D01*
X-56924D01*
X-56971Y58014D01*
X-57042Y58121D01*
X-57054Y58168D01*
X-57087Y58188D01*
X-57094Y58199D01*
X-57108Y58231D01*
X-57119Y58236D01*
X-57198Y58354D01*
X-57292Y58417D01*
X-57302Y58473D01*
X-57329Y58791D01*
X-57333Y58987D01*
X-57357Y59041D01*
Y61505D01*
X-57343Y61525D01*
X-57357Y61591D01*
Y61670D01*
X-57343Y61737D01*
X-57084Y62130D01*
X-51435D01*
X-51087Y62199D01*
X-50969Y62278D01*
X-49730D01*
Y58740D01*
D02*
G37*
G36*
X-68628Y61757D02*
X-68641Y61737D01*
X-68628Y61670D01*
Y61591D01*
X-68641Y61525D01*
X-68628Y61505D01*
Y59041D01*
X-68651Y58987D01*
X-68655Y58784D01*
X-68665Y58618D01*
X-68681Y58481D01*
X-68692Y58417D01*
X-68787Y58354D01*
X-68865Y58236D01*
X-68877Y58231D01*
X-68890Y58199D01*
X-68897Y58188D01*
X-68931Y58168D01*
X-68942Y58121D01*
X-69014Y58014D01*
X-69061Y57998D01*
X-69522D01*
X-69569Y58014D01*
X-69796Y58354D01*
X-70287Y58682D01*
X-70866Y58797D01*
X-71445Y58682D01*
X-71936Y58354D01*
X-72163Y58014D01*
X-72210Y57998D01*
X-72672D01*
X-72719Y58014D01*
X-72946Y58354D01*
X-73437Y58682D01*
X-74016Y58797D01*
X-74595Y58682D01*
X-75086Y58354D01*
X-75313Y58014D01*
X-75360Y57998D01*
X-75822D01*
X-75868Y58014D01*
X-75940Y58121D01*
X-75951Y58168D01*
X-75985Y58188D01*
X-75992Y58199D01*
X-76005Y58231D01*
X-76017Y58236D01*
X-76095Y58354D01*
X-76190Y58417D01*
X-76200Y58473D01*
X-76227Y58791D01*
X-76231Y58987D01*
X-76254Y59041D01*
Y61882D01*
X-76241Y61902D01*
X-75956Y62255D01*
X-75908Y62278D01*
X-68628D01*
Y61757D01*
D02*
G37*
G36*
X-57870Y58763D02*
X-57840Y58402D01*
X-57813Y58255D01*
X-57778Y58131D01*
X-57736Y58029D01*
X-57686Y57950D01*
X-57629Y57894D01*
X-57563Y57860D01*
X-57490Y57848D01*
X-59045D01*
X-58972Y57860D01*
X-58907Y57894D01*
X-58850Y57950D01*
X-58800Y58029D01*
X-58757Y58131D01*
X-58723Y58255D01*
X-58696Y58402D01*
X-58677Y58571D01*
X-58665Y58763D01*
X-58662Y58977D01*
X-57874D01*
X-57870Y58763D01*
D02*
G37*
G36*
X-67319D02*
X-67288Y58402D01*
X-67261Y58255D01*
X-67227Y58131D01*
X-67185Y58029D01*
X-67135Y57950D01*
X-67077Y57894D01*
X-67012Y57860D01*
X-66939Y57848D01*
X-68494D01*
X-68421Y57860D01*
X-68356Y57894D01*
X-68298Y57950D01*
X-68248Y58029D01*
X-68206Y58131D01*
X-68172Y58255D01*
X-68145Y58402D01*
X-68126Y58571D01*
X-68114Y58763D01*
X-68110Y58977D01*
X-67323D01*
X-67319Y58763D01*
D02*
G37*
G36*
X-76768D02*
X-76737Y58402D01*
X-76710Y58255D01*
X-76676Y58131D01*
X-76634Y58029D01*
X-76584Y57950D01*
X-76526Y57894D01*
X-76461Y57860D01*
X-76388Y57848D01*
X-77943D01*
X-77870Y57860D01*
X-77805Y57894D01*
X-77747Y57950D01*
X-77697Y58029D01*
X-77655Y58131D01*
X-77621Y58255D01*
X-77594Y58402D01*
X-77574Y58571D01*
X-77563Y58763D01*
X-77559Y58977D01*
X-76772D01*
X-76768Y58763D01*
D02*
G37*
G36*
X-30687Y58612D02*
X-30412Y58380D01*
X-30290Y58296D01*
X-30178Y58232D01*
X-30076Y58190D01*
X-29984Y58169D01*
X-29903Y58169D01*
X-29832Y58190D01*
X-29771Y58233D01*
X-30901Y57161D01*
X-30855Y57219D01*
X-30831Y57288D01*
X-30828Y57366D01*
X-30846Y57455D01*
X-30885Y57554D01*
X-30945Y57663D01*
X-31027Y57783D01*
X-31129Y57913D01*
X-31253Y58052D01*
X-31397Y58203D01*
X-30841Y58759D01*
X-30687Y58612D01*
D02*
G37*
G36*
X-24601Y53543D02*
X-24609Y53618D01*
X-24633Y53685D01*
X-24673Y53744D01*
X-24729Y53795D01*
X-24801Y53839D01*
X-24889Y53874D01*
X-24993Y53902D01*
X-25113Y53921D01*
X-25197Y53929D01*
X-25281Y53921D01*
X-25401Y53902D01*
X-25505Y53874D01*
X-25593Y53839D01*
X-25664Y53795D01*
X-25721Y53744D01*
X-25760Y53685D01*
X-25784Y53618D01*
X-25792Y53543D01*
Y55118D01*
X-25784Y55043D01*
X-25760Y54976D01*
X-25721Y54917D01*
X-25664Y54866D01*
X-25593Y54823D01*
X-25505Y54787D01*
X-25401Y54760D01*
X-25281Y54740D01*
X-25197Y54733D01*
X-25113Y54740D01*
X-24993Y54760D01*
X-24889Y54787D01*
X-24801Y54823D01*
X-24729Y54866D01*
X-24673Y54917D01*
X-24633Y54976D01*
X-24609Y55043D01*
X-24601Y55118D01*
Y53543D01*
D02*
G37*
G36*
X-27751D02*
X-27759Y53618D01*
X-27783Y53685D01*
X-27823Y53744D01*
X-27879Y53795D01*
X-27951Y53839D01*
X-28039Y53874D01*
X-28143Y53902D01*
X-28263Y53921D01*
X-28346Y53929D01*
X-28430Y53921D01*
X-28550Y53902D01*
X-28654Y53874D01*
X-28742Y53839D01*
X-28814Y53795D01*
X-28870Y53744D01*
X-28910Y53685D01*
X-28934Y53618D01*
X-28942Y53543D01*
Y55118D01*
X-28934Y55043D01*
X-28910Y54976D01*
X-28870Y54917D01*
X-28814Y54866D01*
X-28742Y54823D01*
X-28654Y54787D01*
X-28550Y54760D01*
X-28430Y54740D01*
X-28346Y54733D01*
X-28263Y54740D01*
X-28143Y54760D01*
X-28039Y54787D01*
X-27951Y54823D01*
X-27879Y54866D01*
X-27823Y54917D01*
X-27783Y54976D01*
X-27759Y55043D01*
X-27751Y55118D01*
Y53543D01*
D02*
G37*
G36*
X-32366Y50802D02*
X-32432Y50768D01*
X-32489Y50712D01*
X-32539Y50633D01*
X-32581Y50531D01*
X-32616Y50407D01*
X-32643Y50260D01*
X-32662Y50091D01*
X-32673Y49899D01*
X-32677Y49684D01*
X-33465D01*
X-33468Y49899D01*
X-33499Y50260D01*
X-33526Y50407D01*
X-33561Y50531D01*
X-33603Y50633D01*
X-33653Y50712D01*
X-33710Y50768D01*
X-33775Y50802D01*
X-33848Y50813D01*
X-32293D01*
X-32366Y50802D01*
D02*
G37*
G36*
X-35516D02*
X-35581Y50768D01*
X-35639Y50712D01*
X-35689Y50633D01*
X-35731Y50531D01*
X-35765Y50407D01*
X-35792Y50260D01*
X-35811Y50091D01*
X-35823Y49899D01*
X-35827Y49684D01*
X-36614D01*
X-36618Y49899D01*
X-36649Y50260D01*
X-36676Y50407D01*
X-36710Y50531D01*
X-36752Y50633D01*
X-36802Y50712D01*
X-36860Y50768D01*
X-36925Y50802D01*
X-36998Y50813D01*
X-35443D01*
X-35516Y50802D01*
D02*
G37*
G36*
X-41815D02*
X-41881Y50768D01*
X-41938Y50712D01*
X-41988Y50633D01*
X-42030Y50531D01*
X-42065Y50407D01*
X-42092Y50260D01*
X-42111Y50091D01*
X-42122Y49899D01*
X-42126Y49684D01*
X-42913D01*
X-42917Y49899D01*
X-42948Y50260D01*
X-42975Y50407D01*
X-43009Y50531D01*
X-43052Y50633D01*
X-43102Y50712D01*
X-43159Y50768D01*
X-43224Y50802D01*
X-43297Y50813D01*
X-41742D01*
X-41815Y50802D01*
D02*
G37*
G36*
X-44965D02*
X-45030Y50768D01*
X-45088Y50712D01*
X-45138Y50633D01*
X-45180Y50531D01*
X-45214Y50407D01*
X-45241Y50260D01*
X-45260Y50091D01*
X-45272Y49899D01*
X-45276Y49684D01*
X-46063D01*
X-46067Y49899D01*
X-46098Y50260D01*
X-46125Y50407D01*
X-46159Y50531D01*
X-46201Y50633D01*
X-46251Y50712D01*
X-46309Y50768D01*
X-46374Y50802D01*
X-46447Y50813D01*
X-44892D01*
X-44965Y50802D01*
D02*
G37*
G36*
X-54414D02*
X-54479Y50768D01*
X-54536Y50712D01*
X-54586Y50633D01*
X-54629Y50531D01*
X-54663Y50407D01*
X-54690Y50260D01*
X-54709Y50091D01*
X-54721Y49899D01*
X-54725Y49684D01*
X-55512D01*
X-55516Y49899D01*
X-55546Y50260D01*
X-55573Y50407D01*
X-55608Y50531D01*
X-55650Y50633D01*
X-55700Y50712D01*
X-55757Y50768D01*
X-55823Y50802D01*
X-55896Y50813D01*
X-54341D01*
X-54414Y50802D01*
D02*
G37*
G36*
X-70162D02*
X-70227Y50768D01*
X-70284Y50712D01*
X-70334Y50633D01*
X-70377Y50531D01*
X-70411Y50407D01*
X-70438Y50260D01*
X-70457Y50091D01*
X-70469Y49899D01*
X-70473Y49684D01*
X-71260D01*
X-71264Y49899D01*
X-71294Y50260D01*
X-71321Y50407D01*
X-71356Y50531D01*
X-71398Y50633D01*
X-71448Y50712D01*
X-71505Y50768D01*
X-71571Y50802D01*
X-71644Y50813D01*
X-70089D01*
X-70162Y50802D01*
D02*
G37*
G36*
X-73311D02*
X-73377Y50768D01*
X-73434Y50712D01*
X-73484Y50633D01*
X-73526Y50531D01*
X-73561Y50407D01*
X-73588Y50260D01*
X-73607Y50091D01*
X-73618Y49899D01*
X-73622Y49684D01*
X-74410D01*
X-74413Y49899D01*
X-74444Y50260D01*
X-74471Y50407D01*
X-74506Y50531D01*
X-74548Y50633D01*
X-74598Y50712D01*
X-74655Y50768D01*
X-74720Y50802D01*
X-74793Y50813D01*
X-73238D01*
X-73311Y50802D01*
D02*
G37*
G36*
X-63863D02*
X-63928Y50768D01*
X-63985Y50712D01*
X-64035Y50633D01*
X-64077Y50531D01*
X-64112Y50407D01*
X-64130Y50306D01*
X-64104Y50218D01*
X-64065Y50119D01*
X-64017Y50023D01*
X-63961Y49929D01*
X-63896Y49837D01*
X-63823Y49749D01*
X-63740Y49662D01*
X-65394Y49662D01*
X-65311Y49748D01*
X-65238Y49837D01*
X-65173Y49929D01*
X-65117Y50023D01*
X-65069Y50119D01*
X-65030Y50218D01*
X-65004Y50306D01*
X-65022Y50407D01*
X-65057Y50531D01*
X-65099Y50633D01*
X-65149Y50712D01*
X-65206Y50768D01*
X-65272Y50802D01*
X-65344Y50813D01*
X-63790D01*
X-63863Y50802D01*
D02*
G37*
G36*
X-57563D02*
X-57629Y50768D01*
X-57686Y50712D01*
X-57736Y50633D01*
X-57778Y50531D01*
X-57813Y50407D01*
X-57833Y50293D01*
X-57805Y50197D01*
X-57766Y50098D01*
X-57718Y50002D01*
X-57662Y49907D01*
X-57597Y49816D01*
X-57523Y49727D01*
X-57441Y49641D01*
X-59095D01*
X-59012Y49727D01*
X-58939Y49816D01*
X-58874Y49907D01*
X-58817Y50002D01*
X-58770Y50098D01*
X-58731Y50197D01*
X-58702Y50293D01*
X-58723Y50407D01*
X-58757Y50531D01*
X-58800Y50633D01*
X-58850Y50712D01*
X-58907Y50768D01*
X-58972Y50802D01*
X-59045Y50813D01*
X-57490D01*
X-57563Y50802D01*
D02*
G37*
G36*
X-60713D02*
X-60778Y50768D01*
X-60836Y50712D01*
X-60886Y50633D01*
X-60928Y50531D01*
X-60962Y50407D01*
X-60983Y50293D01*
X-60954Y50197D01*
X-60915Y50098D01*
X-60868Y50002D01*
X-60812Y49907D01*
X-60747Y49816D01*
X-60673Y49727D01*
X-60591Y49641D01*
X-62244Y49641D01*
X-62162Y49727D01*
X-62088Y49816D01*
X-62023Y49907D01*
X-61967Y50001D01*
X-61919Y50098D01*
X-61880Y50197D01*
X-61852Y50293D01*
X-61873Y50407D01*
X-61907Y50531D01*
X-61949Y50633D01*
X-61999Y50712D01*
X-62057Y50768D01*
X-62122Y50802D01*
X-62195Y50813D01*
X-60640D01*
X-60713Y50802D01*
D02*
G37*
G36*
X-51264D02*
X-51329Y50768D01*
X-51387Y50712D01*
X-51437Y50633D01*
X-51479Y50531D01*
X-51513Y50407D01*
X-51540Y50260D01*
X-51560Y50091D01*
X-51571Y49899D01*
X-51571Y49877D01*
X-51571Y49854D01*
X-51558Y49747D01*
X-51536Y49643D01*
X-51506Y49541D01*
X-51467Y49442D01*
X-51419Y49346D01*
X-51363Y49252D01*
X-51298Y49160D01*
X-51224Y49071D01*
X-51142Y48985D01*
X-52795Y48985D01*
X-52713Y49071D01*
X-52639Y49160D01*
X-52574Y49251D01*
X-52518Y49345D01*
X-52471Y49442D01*
X-52432Y49541D01*
X-52401Y49643D01*
X-52380Y49747D01*
X-52367Y49854D01*
X-52366Y49877D01*
X-52366Y49899D01*
X-52397Y50260D01*
X-52424Y50407D01*
X-52458Y50531D01*
X-52500Y50633D01*
X-52550Y50712D01*
X-52608Y50768D01*
X-52673Y50802D01*
X-52746Y50813D01*
X-51191D01*
X-51264Y50802D01*
D02*
G37*
G36*
X-32707Y49222D02*
X-32621Y49152D01*
X-32533Y49091D01*
X-32445Y49041D01*
X-32355Y49000D01*
X-32264Y48969D01*
X-32173Y48948D01*
X-32080Y48937D01*
X-31986Y48936D01*
X-31892Y48944D01*
X-32908Y47805D01*
X-32910Y47902D01*
X-32920Y47997D01*
X-32940Y48091D01*
X-32968Y48184D01*
X-33005Y48276D01*
X-33051Y48367D01*
X-33106Y48457D01*
X-33169Y48545D01*
X-33242Y48632D01*
X-33323Y48719D01*
X-32792Y49302D01*
X-32707Y49222D01*
D02*
G37*
G36*
X-54720Y48076D02*
X-54707Y47969D01*
X-54685Y47865D01*
X-54655Y47763D01*
X-54616Y47664D01*
X-54568Y47567D01*
X-54512Y47473D01*
X-54447Y47382D01*
X-54374Y47293D01*
X-54291Y47207D01*
X-55945Y47207D01*
X-55863Y47293D01*
X-55789Y47382D01*
X-55724Y47473D01*
X-55668Y47567D01*
X-55620Y47664D01*
X-55581Y47763D01*
X-55551Y47865D01*
X-55529Y47969D01*
X-55516Y48076D01*
X-55512Y48186D01*
X-54724Y48186D01*
X-54720Y48076D01*
D02*
G37*
G36*
X-2418Y44873D02*
X-2505Y44956D01*
X-2593Y45029D01*
X-2685Y45094D01*
X-2779Y45150D01*
X-2875Y45198D01*
X-2974Y45237D01*
X-3076Y45267D01*
X-3181Y45289D01*
X-3288Y45302D01*
X-3397Y45306D01*
Y46094D01*
X-3288Y46098D01*
X-3181Y46111D01*
X-3076Y46133D01*
X-2974Y46163D01*
X-2875Y46202D01*
X-2779Y46250D01*
X-2685Y46306D01*
X-2593Y46371D01*
X-2505Y46444D01*
X-2418Y46527D01*
Y44873D01*
D02*
G37*
G36*
X-43817Y50647D02*
X-43745Y50541D01*
X-43734Y50493D01*
X-43700Y50473D01*
X-43693Y50463D01*
X-43680Y50430D01*
X-43669Y50426D01*
X-43590Y50308D01*
X-43495Y50245D01*
X-43485Y50188D01*
X-43458Y49871D01*
X-43455Y49675D01*
X-43431Y49620D01*
Y47326D01*
X-43362Y46977D01*
X-43164Y46681D01*
X-41539Y45056D01*
X-41243Y44858D01*
X-40894Y44789D01*
X-8421D01*
X-8161Y44326D01*
X-8167Y44289D01*
X-8663Y43957D01*
X-8698Y43944D01*
X-8770Y43874D01*
X-8829Y43826D01*
X-8886Y43785D01*
X-8943Y43751D01*
X-9000Y43723D01*
X-9057Y43701D01*
X-9114Y43683D01*
X-9174Y43671D01*
X-9236Y43663D01*
X-9324Y43660D01*
X-9374Y43637D01*
X-41335D01*
X-44758Y47060D01*
Y49620D01*
X-44735Y49675D01*
X-44731Y49878D01*
X-44721Y50044D01*
X-44705Y50181D01*
X-44694Y50245D01*
X-44599Y50308D01*
X-44521Y50426D01*
X-44509Y50430D01*
X-44496Y50463D01*
X-44489Y50473D01*
X-44455Y50493D01*
X-44444Y50541D01*
X-44372Y50647D01*
X-44325Y50663D01*
X-43864D01*
X-43817Y50647D01*
D02*
G37*
G36*
X-58087Y45001D02*
X-58063Y44934D01*
X-58023Y44875D01*
X-57967Y44824D01*
X-57895Y44781D01*
X-57807Y44745D01*
X-57703Y44718D01*
X-57583Y44698D01*
X-57447Y44686D01*
X-57296Y44682D01*
Y43895D01*
X-57447Y43891D01*
X-57583Y43879D01*
X-57703Y43860D01*
X-57807Y43832D01*
X-57895Y43797D01*
X-57967Y43753D01*
X-58023Y43702D01*
X-58063Y43643D01*
X-58087Y43576D01*
X-58095Y43501D01*
Y45076D01*
X-58087Y45001D01*
D02*
G37*
G36*
X-66917Y43501D02*
X-66925Y43576D01*
X-66949Y43643D01*
X-66988Y43702D01*
X-67043Y43753D01*
X-67114Y43797D01*
X-67201Y43832D01*
X-67303Y43860D01*
X-67421Y43879D01*
X-67555Y43891D01*
X-67704Y43895D01*
Y44682D01*
X-67555Y44686D01*
X-67421Y44698D01*
X-67303Y44718D01*
X-67201Y44745D01*
X-67114Y44781D01*
X-67043Y44824D01*
X-66988Y44875D01*
X-66949Y44934D01*
X-66925Y45001D01*
X-66917Y45076D01*
Y43501D01*
D02*
G37*
G36*
X-47885Y43467D02*
X-47973Y43549D01*
X-48063Y43621D01*
X-48155Y43685D01*
X-48250Y43741D01*
X-48347Y43788D01*
X-48447Y43827D01*
X-48549Y43857D01*
X-48654Y43878D01*
X-48761Y43891D01*
X-48870Y43895D01*
X-48883Y44682D01*
X-48773Y44687D01*
X-48666Y44700D01*
X-48562Y44722D01*
X-48460Y44753D01*
X-48362Y44792D01*
X-48266Y44840D01*
X-48173Y44897D01*
X-48083Y44963D01*
X-47995Y45037D01*
X-47910Y45121D01*
X-47885Y43467D01*
D02*
G37*
G36*
X-8324Y41899D02*
X-8410Y41981D01*
X-8499Y42055D01*
X-8590Y42120D01*
X-8684Y42176D01*
X-8781Y42223D01*
X-8880Y42262D01*
X-8982Y42293D01*
X-9086Y42314D01*
X-9193Y42327D01*
X-9303Y42332D01*
Y43119D01*
X-9193Y43123D01*
X-9086Y43136D01*
X-8982Y43158D01*
X-8880Y43188D01*
X-8781Y43227D01*
X-8684Y43275D01*
X-8590Y43331D01*
X-8499Y43396D01*
X-8410Y43470D01*
X-8324Y43552D01*
Y41899D01*
D02*
G37*
G36*
X-66905Y36924D02*
X-66913Y36999D01*
X-66936Y37066D01*
X-66975Y37125D01*
X-67031Y37176D01*
X-67102Y37219D01*
X-67188Y37255D01*
X-67291Y37282D01*
X-67409Y37302D01*
X-67542Y37314D01*
X-67692Y37318D01*
Y38105D01*
X-67542Y38109D01*
X-67409Y38121D01*
X-67291Y38140D01*
X-67188Y38168D01*
X-67102Y38203D01*
X-67031Y38247D01*
X-66975Y38298D01*
X-66936Y38357D01*
X-66913Y38424D01*
X-66905Y38499D01*
Y36924D01*
D02*
G37*
G36*
X-86708Y78333D02*
X-86775Y78310D01*
X-86834Y78269D01*
X-86885Y78214D01*
X-86929Y78142D01*
X-86964Y78054D01*
X-86992Y77950D01*
X-87011Y77830D01*
X-87023Y77694D01*
X-87027Y77542D01*
X-87815D01*
X-87818Y77694D01*
X-87830Y77830D01*
X-87850Y77950D01*
X-87878Y78054D01*
X-87913Y78142D01*
X-87956Y78214D01*
X-88007Y78269D01*
X-88067Y78310D01*
X-88134Y78333D01*
X-88208Y78342D01*
X-86633D01*
X-86708Y78333D01*
D02*
G37*
G36*
X-87003Y56141D02*
X-86991Y56034D01*
X-86969Y55929D01*
X-86939Y55828D01*
X-86900Y55729D01*
X-86852Y55632D01*
X-86796Y55538D01*
X-86731Y55446D01*
X-86657Y55358D01*
X-86575Y55272D01*
X-88228D01*
X-88146Y55358D01*
X-88072Y55446D01*
X-88007Y55538D01*
X-87951Y55632D01*
X-87903Y55729D01*
X-87865Y55828D01*
X-87834Y55929D01*
X-87813Y56034D01*
X-87800Y56141D01*
X-87795Y56250D01*
X-87008D01*
X-87003Y56141D01*
D02*
G37*
G36*
X-81329Y62161D02*
X-81403Y62072D01*
X-81468Y61981D01*
X-81524Y61887D01*
X-81572Y61790D01*
X-81611Y61691D01*
X-81641Y61589D01*
X-81662Y61485D01*
X-81675Y61378D01*
X-81680Y61268D01*
X-82467D01*
X-82472Y61378D01*
X-82485Y61485D01*
X-82506Y61589D01*
X-82537Y61691D01*
X-82576Y61790D01*
X-82623Y61887D01*
X-82679Y61981D01*
X-82744Y62072D01*
X-82818Y62161D01*
X-82900Y62247D01*
X-81247D01*
X-81329Y62161D01*
D02*
G37*
G36*
X-81676Y46776D02*
X-81664Y46640D01*
X-81644Y46520D01*
X-81617Y46416D01*
X-81581Y46328D01*
X-81538Y46256D01*
X-81487Y46200D01*
X-81428Y46160D01*
X-81361Y46136D01*
X-81286Y46128D01*
X-82861D01*
X-82786Y46136D01*
X-82719Y46160D01*
X-82660Y46200D01*
X-82609Y46256D01*
X-82566Y46328D01*
X-82530Y46416D01*
X-82503Y46520D01*
X-82483Y46640D01*
X-82471Y46776D01*
X-82467Y46928D01*
X-81680D01*
X-81676Y46776D01*
D02*
G37*
G36*
X-91928Y64425D02*
X-92002Y64336D01*
X-92067Y64245D01*
X-92123Y64151D01*
X-92171Y64054D01*
X-92210Y63955D01*
X-92240Y63853D01*
X-92262Y63749D01*
X-92275Y63642D01*
X-92279Y63532D01*
X-93067D01*
X-93071Y63642D01*
X-93084Y63749D01*
X-93106Y63853D01*
X-93136Y63955D01*
X-93175Y64054D01*
X-93222Y64151D01*
X-93279Y64245D01*
X-93344Y64336D01*
X-93417Y64425D01*
X-93500Y64511D01*
X-91846D01*
X-91928Y64425D01*
D02*
G37*
G36*
X-13442Y38150D02*
X-13528Y38232D01*
X-13617Y38306D01*
X-13708Y38370D01*
X-13802Y38427D01*
X-13899Y38474D01*
X-13998Y38513D01*
X-14100Y38544D01*
X-14204Y38565D01*
X-14311Y38578D01*
X-14421Y38583D01*
X-14421Y39370D01*
X-14311Y39374D01*
X-14204Y39387D01*
X-14100Y39409D01*
X-13998Y39439D01*
X-13899Y39478D01*
X-13802Y39526D01*
X-13708Y39582D01*
X-13617Y39647D01*
X-13528Y39721D01*
X-13442Y39803D01*
X-13442Y38150D01*
D02*
G37*
G36*
X-30797Y39721D02*
X-30708Y39647D01*
X-30617Y39582D01*
X-30523Y39526D01*
X-30426Y39478D01*
X-30327Y39439D01*
X-30226Y39409D01*
X-30121Y39387D01*
X-30014Y39374D01*
X-29905Y39370D01*
Y38583D01*
X-30014Y38578D01*
X-30121Y38565D01*
X-30226Y38544D01*
X-30327Y38513D01*
X-30426Y38474D01*
X-30523Y38427D01*
X-30617Y38370D01*
X-30708Y38306D01*
X-30797Y38232D01*
X-30883Y38150D01*
Y39803D01*
X-30797Y39721D01*
D02*
G37*
G36*
X-19167Y35426D02*
X-19253Y35509D01*
X-19342Y35582D01*
X-19434Y35647D01*
X-19528Y35704D01*
X-19624Y35751D01*
X-19723Y35790D01*
X-19825Y35820D01*
X-19929Y35842D01*
X-20037Y35855D01*
X-20146Y35859D01*
Y36647D01*
X-20037Y36651D01*
X-19929Y36664D01*
X-19825Y36686D01*
X-19723Y36716D01*
X-19624Y36755D01*
X-19528Y36803D01*
X-19434Y36859D01*
X-19342Y36924D01*
X-19253Y36998D01*
X-19167Y37080D01*
Y35426D01*
D02*
G37*
G36*
X-35969Y36998D02*
X-35881Y36924D01*
X-35789Y36859D01*
X-35695Y36803D01*
X-35599Y36755D01*
X-35500Y36716D01*
X-35398Y36686D01*
X-35293Y36664D01*
X-35186Y36651D01*
X-35077Y36647D01*
Y35859D01*
X-35186Y35855D01*
X-35293Y35842D01*
X-35398Y35820D01*
X-35500Y35790D01*
X-35599Y35751D01*
X-35695Y35704D01*
X-35789Y35647D01*
X-35881Y35582D01*
X-35969Y35509D01*
X-36056Y35426D01*
Y37080D01*
X-35969Y36998D01*
D02*
G37*
G36*
X-58074Y38377D02*
X-58050Y38310D01*
X-58010Y38251D01*
X-57955Y38200D01*
X-57882Y38157D01*
X-57795Y38121D01*
X-57691Y38094D01*
X-57571Y38074D01*
X-57435Y38062D01*
X-57283Y38058D01*
Y37271D01*
X-57435Y37267D01*
X-57571Y37255D01*
X-57691Y37235D01*
X-57795Y37208D01*
X-57882Y37172D01*
X-57955Y37129D01*
X-58010Y37078D01*
X-58050Y37019D01*
X-58074Y36952D01*
X-58082Y36877D01*
Y38452D01*
X-58074Y38377D01*
D02*
G37*
G36*
X-47879Y36838D02*
X-47966Y36920D01*
X-48054Y36994D01*
X-48146Y37058D01*
X-48240Y37115D01*
X-48336Y37162D01*
X-48436Y37201D01*
X-48537Y37232D01*
X-48642Y37253D01*
X-48749Y37266D01*
X-48858Y37271D01*
Y38058D01*
X-48749Y38062D01*
X-48642Y38075D01*
X-48537Y38097D01*
X-48436Y38127D01*
X-48336Y38166D01*
X-48240Y38214D01*
X-48146Y38270D01*
X-48054Y38335D01*
X-47966Y38409D01*
X-47879Y38491D01*
Y36838D01*
D02*
G37*
G36*
X-45752Y30104D02*
X-45760Y30178D01*
X-45783Y30245D01*
X-45823Y30304D01*
X-45878Y30356D01*
X-45949Y30399D01*
X-46035Y30434D01*
X-46138Y30462D01*
X-46256Y30481D01*
X-46390Y30493D01*
X-46539Y30497D01*
Y31285D01*
X-46390Y31289D01*
X-46256Y31301D01*
X-46138Y31320D01*
X-46035Y31348D01*
X-45949Y31383D01*
X-45878Y31426D01*
X-45823Y31478D01*
X-45783Y31537D01*
X-45760Y31604D01*
X-45752Y31678D01*
Y30104D01*
D02*
G37*
G36*
X-49186Y31635D02*
X-49097Y31562D01*
X-49006Y31497D01*
X-48912Y31441D01*
X-48816Y31393D01*
X-48716Y31354D01*
X-48615Y31324D01*
X-48510Y31302D01*
X-48403Y31289D01*
X-48294Y31285D01*
X-48294Y30497D01*
X-48403Y30493D01*
X-48510Y30480D01*
X-48615Y30458D01*
X-48716Y30428D01*
X-48816Y30389D01*
X-48912Y30341D01*
X-49006Y30285D01*
X-49098Y30220D01*
X-49186Y30147D01*
X-49273Y30064D01*
X-49273Y31718D01*
X-49186Y31635D01*
D02*
G37*
G36*
X-36922Y31604D02*
X-36898Y31537D01*
X-36858Y31478D01*
X-36802Y31426D01*
X-36730Y31383D01*
X-36642Y31348D01*
X-36538Y31320D01*
X-36418Y31301D01*
X-36282Y31289D01*
X-36130Y31285D01*
Y30497D01*
X-36282Y30493D01*
X-36418Y30481D01*
X-36538Y30462D01*
X-36642Y30434D01*
X-36730Y30399D01*
X-36802Y30356D01*
X-36858Y30304D01*
X-36898Y30245D01*
X-36922Y30178D01*
X-36930Y30104D01*
Y31678D01*
X-36922Y31604D01*
D02*
G37*
G36*
X-27615Y30064D02*
X-27701Y30147D01*
X-27790Y30220D01*
X-27882Y30285D01*
X-27975Y30341D01*
X-28072Y30389D01*
X-28171Y30428D01*
X-28273Y30458D01*
X-28377Y30480D01*
X-28484Y30493D01*
X-28594Y30497D01*
X-28594Y31285D01*
X-28484Y31289D01*
X-28377Y31302D01*
X-28273Y31324D01*
X-28171Y31354D01*
X-28072Y31393D01*
X-27975Y31441D01*
X-27882Y31497D01*
X-27790Y31562D01*
X-27701Y31635D01*
X-27615Y31718D01*
X-27615Y30064D01*
D02*
G37*
G36*
X-58866Y28690D02*
X-58933Y28666D01*
X-58991Y28626D01*
X-59043Y28570D01*
X-59086Y28498D01*
X-59122Y28410D01*
X-59149Y28306D01*
X-59169Y28186D01*
X-59180Y28050D01*
X-59184Y27898D01*
X-59972D01*
X-59976Y28050D01*
X-59988Y28186D01*
X-60007Y28306D01*
X-60035Y28410D01*
X-60070Y28498D01*
X-60114Y28570D01*
X-60165Y28626D01*
X-60224Y28666D01*
X-60291Y28690D01*
X-60366Y28698D01*
X-58791D01*
X-58866Y28690D01*
D02*
G37*
G36*
X-59193Y26684D02*
X-59106Y26614D01*
X-59017Y26553D01*
X-58926Y26501D01*
X-58833Y26457D01*
X-58738Y26423D01*
X-58641Y26398D01*
X-58542Y26381D01*
X-58441Y26374D01*
X-58338Y26376D01*
X-59447Y25267D01*
X-59445Y25370D01*
X-59452Y25471D01*
X-59469Y25570D01*
X-59494Y25668D01*
X-59528Y25763D01*
X-59572Y25855D01*
X-59624Y25946D01*
X-59685Y26035D01*
X-59755Y26122D01*
X-59835Y26207D01*
X-59278Y26764D01*
X-59193Y26684D01*
D02*
G37*
G36*
X-45593Y21260D02*
X-45601Y21335D01*
X-45624Y21402D01*
X-45664Y21461D01*
X-45719Y21512D01*
X-45790Y21555D01*
X-45876Y21590D01*
X-45979Y21618D01*
X-46097Y21638D01*
X-46231Y21650D01*
X-46380Y21654D01*
Y22441D01*
X-46231Y22445D01*
X-46097Y22457D01*
X-45979Y22476D01*
X-45876Y22504D01*
X-45790Y22539D01*
X-45719Y22583D01*
X-45664Y22634D01*
X-45624Y22693D01*
X-45601Y22760D01*
X-45593Y22835D01*
Y21260D01*
D02*
G37*
G36*
X-49256Y22792D02*
X-49167Y22718D01*
X-49076Y22653D01*
X-48982Y22597D01*
X-48885Y22549D01*
X-48786Y22510D01*
X-48684Y22480D01*
X-48580Y22458D01*
X-48473Y22445D01*
X-48363Y22441D01*
Y21654D01*
X-48473Y21649D01*
X-48580Y21636D01*
X-48684Y21614D01*
X-48786Y21584D01*
X-48885Y21545D01*
X-48982Y21498D01*
X-49076Y21441D01*
X-49167Y21376D01*
X-49256Y21303D01*
X-49342Y21220D01*
Y22874D01*
X-49256Y22792D01*
D02*
G37*
G36*
X-36763Y22760D02*
X-36739Y22693D01*
X-36699Y22634D01*
X-36643Y22583D01*
X-36571Y22539D01*
X-36483Y22504D01*
X-36379Y22476D01*
X-36259Y22457D01*
X-36123Y22445D01*
X-35971Y22441D01*
Y21654D01*
X-36123Y21650D01*
X-36259Y21638D01*
X-36379Y21618D01*
X-36483Y21590D01*
X-36571Y21555D01*
X-36643Y21512D01*
X-36699Y21461D01*
X-36739Y21402D01*
X-36763Y21335D01*
X-36771Y21260D01*
Y22835D01*
X-36763Y22760D01*
D02*
G37*
G36*
X-22897Y21220D02*
X-22983Y21303D01*
X-23072Y21376D01*
X-23163Y21441D01*
X-23257Y21498D01*
X-23354Y21545D01*
X-23453Y21584D01*
X-23554Y21615D01*
X-23659Y21636D01*
X-23766Y21649D01*
X-23875Y21654D01*
Y22441D01*
X-23766Y22445D01*
X-23659Y22458D01*
X-23554Y22480D01*
X-23453Y22510D01*
X-23354Y22549D01*
X-23257Y22597D01*
X-23163Y22653D01*
X-23072Y22718D01*
X-22983Y22792D01*
X-22897Y22874D01*
Y21220D01*
D02*
G37*
G36*
X-66825Y-57474D02*
X-66861Y-57531D01*
X-66875Y-57599D01*
X-66867Y-57678D01*
X-66837Y-57768D01*
X-66785Y-57870D01*
X-66711Y-57982D01*
X-66614Y-58106D01*
X-66496Y-58240D01*
X-66355Y-58386D01*
X-67046Y-58809D01*
X-67147Y-58713D01*
X-67351Y-58544D01*
X-67454Y-58471D01*
X-67559Y-58406D01*
X-67664Y-58349D01*
X-67771Y-58300D01*
X-67878Y-58259D01*
X-67987Y-58225D01*
X-68096Y-58199D01*
X-66766Y-57428D01*
X-66825Y-57474D01*
D02*
G37*
G36*
X-63982Y-58027D02*
X-64022Y-58053D01*
X-64058Y-58098D01*
X-64088Y-58161D01*
X-64114Y-58241D01*
X-64136Y-58339D01*
X-64152Y-58455D01*
X-64164Y-58589D01*
X-64173Y-58911D01*
X-64961D01*
X-64963Y-58741D01*
X-64998Y-58339D01*
X-65020Y-58241D01*
X-65046Y-58161D01*
X-65076Y-58098D01*
X-65112Y-58053D01*
X-65152Y-58027D01*
X-65197Y-58018D01*
X-63937D01*
X-63982Y-58027D01*
D02*
G37*
G36*
X-54499Y-57999D02*
X-54546Y-58028D01*
X-54588Y-58076D01*
X-54624Y-58144D01*
X-54655Y-58230D01*
X-54680Y-58336D01*
X-54699Y-58462D01*
X-54713Y-58606D01*
X-54725Y-58953D01*
X-55512D01*
X-55515Y-58770D01*
X-55537Y-58462D01*
X-55556Y-58336D01*
X-55581Y-58230D01*
X-55612Y-58144D01*
X-55648Y-58076D01*
X-55690Y-58028D01*
X-55737Y-57999D01*
X-55790Y-57989D01*
X-54446D01*
X-54499Y-57999D01*
D02*
G37*
G36*
X-57563Y-57860D02*
X-57629Y-57894D01*
X-57686Y-57950D01*
X-57736Y-58029D01*
X-57778Y-58131D01*
X-57813Y-58255D01*
X-57840Y-58402D01*
X-57859Y-58571D01*
X-57870Y-58763D01*
X-57874Y-58977D01*
X-58662D01*
X-58665Y-58763D01*
X-58696Y-58402D01*
X-58723Y-58255D01*
X-58757Y-58131D01*
X-58800Y-58029D01*
X-58850Y-57950D01*
X-58907Y-57894D01*
X-58972Y-57860D01*
X-59045Y-57848D01*
X-57490D01*
X-57563Y-57860D01*
D02*
G37*
G36*
X19599Y-61751D02*
X19619Y-61945D01*
X19637Y-62029D01*
X19659Y-62106D01*
X19687Y-62173D01*
X19720Y-62233D01*
X19758Y-62284D01*
X19801Y-62328D01*
X19850Y-62362D01*
X18566Y-62401D01*
X18612Y-62363D01*
X18654Y-62317D01*
X18690Y-62262D01*
X18721Y-62199D01*
X18748Y-62127D01*
X18770Y-62047D01*
X18787Y-61959D01*
X18799Y-61861D01*
X18806Y-61756D01*
X18809Y-61642D01*
X19596D01*
X19599Y-61751D01*
D02*
G37*
G36*
X30292Y-61744D02*
X30300Y-61846D01*
X30313Y-61941D01*
X30331Y-62027D01*
X30355Y-62106D01*
X30384Y-62176D01*
X30418Y-62238D01*
X30457Y-62291D01*
X30502Y-62337D01*
X30552Y-62374D01*
X29248Y-62402D01*
X29296Y-62363D01*
X29339Y-62315D01*
X29377Y-62259D01*
X29410Y-62195D01*
X29438Y-62122D01*
X29461Y-62041D01*
X29479Y-61951D01*
X29491Y-61853D01*
X29499Y-61747D01*
X29502Y-61633D01*
X30289D01*
X30292Y-61744D01*
D02*
G37*
G36*
X-1674Y-64117D02*
X-1732Y-64024D01*
X-1797Y-63940D01*
X-1868Y-63867D01*
X-1945Y-63803D01*
X-2028Y-63749D01*
X-2117Y-63704D01*
X-2212Y-63670D01*
X-2313Y-63645D01*
X-2420Y-63630D01*
X-2533Y-63626D01*
X-2311Y-62838D01*
X-2206Y-62835D01*
X-2101Y-62825D01*
X-1996Y-62809D01*
X-1890Y-62787D01*
X-1784Y-62758D01*
X-1678Y-62723D01*
X-1572Y-62682D01*
X-1359Y-62579D01*
X-1252Y-62519D01*
X-1674Y-64117D01*
D02*
G37*
G36*
X-11573Y-63064D02*
X-11448Y-63169D01*
X-11391Y-63209D01*
X-11337Y-63241D01*
X-11286Y-63264D01*
X-11239Y-63279D01*
X-11195Y-63286D01*
X-11155Y-63284D01*
X-11118Y-63274D01*
X-11829Y-64134D01*
X-11826Y-64097D01*
X-11832Y-64055D01*
X-11847Y-64009D01*
X-11871Y-63958D01*
X-11903Y-63902D01*
X-11945Y-63842D01*
X-11995Y-63777D01*
X-12121Y-63634D01*
X-12198Y-63555D01*
X-11641Y-62998D01*
X-11573Y-63064D01*
D02*
G37*
G36*
X-71800Y-62999D02*
X-71714Y-63065D01*
X-71625Y-63119D01*
X-71534Y-63162D01*
X-71439Y-63194D01*
X-71342Y-63214D01*
X-71242Y-63224D01*
X-71140Y-63223D01*
X-71034Y-63210D01*
X-70926Y-63186D01*
X-71769Y-64609D01*
X-71801Y-64490D01*
X-71878Y-64267D01*
X-71923Y-64162D01*
X-71973Y-64062D01*
X-72027Y-63967D01*
X-72085Y-63876D01*
X-72149Y-63790D01*
X-72216Y-63709D01*
X-72288Y-63633D01*
X-71884Y-62923D01*
X-71800Y-62999D01*
D02*
G37*
G36*
X-61276Y-65182D02*
X-61363Y-65100D01*
X-61451Y-65026D01*
X-61543Y-64961D01*
X-61637Y-64905D01*
X-61733Y-64857D01*
X-61832Y-64818D01*
X-61934Y-64788D01*
X-62039Y-64766D01*
X-62146Y-64753D01*
X-62255Y-64749D01*
Y-63961D01*
X-62146Y-63957D01*
X-62039Y-63944D01*
X-61934Y-63923D01*
X-61832Y-63892D01*
X-61733Y-63853D01*
X-61637Y-63806D01*
X-61543Y-63749D01*
X-61451Y-63684D01*
X-61363Y-63611D01*
X-61276Y-63528D01*
Y-65182D01*
D02*
G37*
G36*
X-85913Y-57984D02*
X-85976Y-58034D01*
X-86033Y-58096D01*
X-86083Y-58168D01*
X-86126Y-58252D01*
X-86162Y-58346D01*
X-86192Y-58452D01*
X-86216Y-58570D01*
X-86232Y-58698D01*
X-86242Y-58838D01*
X-86243Y-58872D01*
X-86241Y-58917D01*
X-86228Y-59024D01*
X-86206Y-59129D01*
X-86176Y-59230D01*
X-86137Y-59329D01*
X-86089Y-59426D01*
X-86033Y-59520D01*
X-85968Y-59611D01*
X-85895Y-59700D01*
X-85812Y-59786D01*
X-87466D01*
X-87384Y-59700D01*
X-87310Y-59611D01*
X-87245Y-59520D01*
X-87189Y-59426D01*
X-87141Y-59329D01*
X-87102Y-59230D01*
X-87072Y-59129D01*
X-87050Y-59024D01*
X-87037Y-58917D01*
X-87035Y-58856D01*
X-87037Y-58750D01*
X-87067Y-58393D01*
X-87094Y-58246D01*
X-87129Y-58121D01*
X-87171Y-58016D01*
X-87221Y-57933D01*
X-87278Y-57871D01*
X-87344Y-57831D01*
X-87416Y-57811D01*
X-85913Y-57984D01*
D02*
G37*
G36*
X-82605Y-57754D02*
X-82655Y-57851D01*
X-82700Y-57954D01*
X-82738Y-58062D01*
X-82771Y-58175D01*
X-82798Y-58294D01*
X-82818Y-58419D01*
X-82842Y-58685D01*
X-82845Y-58826D01*
X-82882Y-58836D01*
X-82845Y-58836D01*
X-82841Y-58946D01*
X-82828Y-59052D01*
X-82806Y-59157D01*
X-82776Y-59259D01*
X-82738Y-59359D01*
X-82691Y-59456D01*
X-82635Y-59551D01*
X-82571Y-59643D01*
X-82498Y-59733D01*
X-82417Y-59821D01*
X-84070Y-59797D01*
X-83987Y-59712D01*
X-83912Y-59625D01*
X-83847Y-59535D01*
X-83790Y-59441D01*
X-83742Y-59346D01*
X-83702Y-59247D01*
X-83672Y-59145D01*
X-83650Y-59041D01*
X-83637Y-58934D01*
X-83635Y-58891D01*
X-83636Y-58827D01*
X-83667Y-58494D01*
X-83694Y-58363D01*
X-83729Y-58255D01*
X-83772Y-58170D01*
X-83822Y-58109D01*
X-83880Y-58072D01*
X-83946Y-58058D01*
X-84019Y-58068D01*
X-82549Y-57663D01*
X-82605Y-57754D01*
D02*
G37*
D13*
X-115444Y-28716D02*
X-113926Y-27197D01*
X-115444Y-61305D02*
X-114983Y-61766D01*
X-115444Y-61305D02*
Y-28716D01*
X-114983Y-61766D02*
X-100184D01*
X-117147Y-22587D02*
X-116685Y-22126D01*
X-117147Y-81539D02*
Y-22587D01*
X-113926Y-27197D02*
X5339D01*
X-102452Y-71653D02*
Y-64478D01*
Y-71653D02*
X-102407Y-71698D01*
X-105512Y-54331D02*
Y-41897D01*
X-103706Y-40091D02*
X-70287D01*
X-105512Y-41897D02*
X-103706Y-40091D01*
X-113557Y-59480D02*
X-113095Y-59942D01*
X-96063Y-71653D02*
Y-65887D01*
X-98616Y-59942D02*
X-92914Y-65645D01*
X-100184Y-61766D02*
X-96063Y-65887D01*
X-113095Y-59942D02*
X-98616D01*
X-105808Y-32580D02*
X-47177D01*
X-46521Y-33236D01*
X-46220Y-32934D01*
X-102452Y-71743D02*
X-102407Y-71698D01*
X-105851Y-64502D02*
X-105738Y-64615D01*
Y-71880D02*
Y-64615D01*
X-113557Y-59480D02*
Y-30833D01*
X-92914Y-71653D02*
Y-65645D01*
X-95976Y-59648D02*
Y-54418D01*
Y-59648D02*
X-95682Y-59942D01*
X-46220Y-32934D02*
X-46180Y-32974D01*
X-46140Y-32934D01*
X-112026Y-67524D02*
X-111894D01*
X-66450Y-64355D02*
X-60433D01*
X-73025Y-57780D02*
X-66450Y-64355D01*
X-67717Y-57582D02*
Y-54331D01*
Y-57582D02*
X-63018Y-62280D01*
X-59574D01*
X-64567Y-58911D02*
X-62485Y-60993D01*
X-59040D01*
X-64567Y-58911D02*
Y-54331D01*
X-58044Y-61989D02*
X-11386D01*
X-59040Y-60993D02*
X-58044Y-61989D01*
X-58577Y-63277D02*
X-11919D01*
X-59574Y-62280D02*
X-58577Y-63277D01*
X-10161Y-59415D02*
X-10095Y-59481D01*
X-10829Y-64367D02*
X-10671D01*
X-55118Y-58953D02*
X-54657Y-59415D01*
X-10048Y-62056D02*
X-8872Y-63232D01*
X-54657Y-59415D02*
X-10161D01*
X-55118Y-58953D02*
Y-54331D01*
X-11386Y-61989D02*
X-11320Y-62056D01*
X-10628Y-60769D02*
X18329D01*
X-57437Y-60702D02*
X-10695D01*
X18329Y-60769D02*
X19202Y-61642D01*
X-8872Y-63232D02*
X-948D01*
X-11320Y-62056D02*
X-10048D01*
X-11919Y-63277D02*
X-10829Y-64367D01*
X-58268Y-59871D02*
X-57437Y-60702D01*
X-10095Y-59481D02*
X27744D01*
X-10695Y-60702D02*
X-10628Y-60769D01*
X-74016Y-56964D02*
Y-54331D01*
Y-56964D02*
X-73199Y-57780D01*
X-73025D01*
X-76939Y-58424D02*
X-71036Y-64328D01*
X-70622D01*
X-77165Y-54331D02*
X-76939Y-54557D01*
Y-58424D02*
Y-54557D01*
X-83631Y-81695D02*
X-81474Y-83851D01*
X59565D01*
X-64106Y-79942D02*
X3625D01*
X-64567Y-79481D02*
Y-71653D01*
X3865Y-79702D02*
X12900D01*
X-64567Y-79481D02*
X-64106Y-79942D01*
X3625D02*
X3865Y-79702D01*
X4573Y-81928D02*
X4724Y-81776D01*
X-57806Y-78246D02*
X41189D01*
X12900Y-79702D02*
X13338Y-80140D01*
X41189Y-78246D02*
X44359Y-81416D01*
X-53857Y-76484D02*
X49597D01*
X-116685Y-22126D02*
X49730D01*
X-113095Y-30372D02*
X15243D01*
X-113557Y-30833D02*
X-113095Y-30372D01*
X-83239Y-60636D02*
Y-54557D01*
X-83255Y-60652D02*
X-83239Y-60636D01*
X-86639Y-60630D02*
Y-54356D01*
X-92782Y-60307D02*
Y-54462D01*
Y-60307D02*
X-92652Y-60437D01*
X-100041Y-44391D02*
X-59982D01*
X-102362Y-46712D02*
X-100041Y-44391D01*
X-102362Y-54331D02*
Y-46712D01*
X-83465Y-54331D02*
X-83239Y-54557D01*
X-86639Y-54356D02*
X-86614Y-54331D01*
X-92914D02*
X-92782Y-54462D01*
X-96063Y-54331D02*
X-95976Y-54418D01*
X-86464Y-72105D02*
X-86313Y-71955D01*
X29895Y-63347D02*
X29921Y-63373D01*
X27744Y-59481D02*
X29895Y-61633D01*
Y-63347D02*
Y-61633D01*
X-86614Y-83491D02*
X-86464Y-83641D01*
Y-72105D01*
X-86614Y-71653D02*
X-86313Y-71955D01*
X44359Y-81416D02*
X44599D01*
X-83631Y-81043D02*
X-83465Y-80877D01*
Y-71653D01*
X-83631Y-81695D02*
Y-81043D01*
X3361Y-81369D02*
X3920Y-81928D01*
X4573D01*
X-73908Y-81776D02*
Y-71761D01*
X-67255Y-81369D02*
X3361D01*
X-67717Y-80908D02*
Y-71653D01*
Y-80908D02*
X-67255Y-81369D01*
X14265Y-80140D02*
X14566Y-80441D01*
X13338Y-80140D02*
X14265D01*
X-58268Y-77785D02*
Y-71653D01*
Y-77785D02*
X-57806Y-78246D01*
X49613Y-76468D02*
X52885Y-79740D01*
X-54892Y-75449D02*
X-53857Y-76484D01*
X49597D02*
X49613Y-76468D01*
X-55118Y-71653D02*
X-54892Y-71880D01*
Y-75449D02*
Y-71880D01*
X-74016Y-71653D02*
X-73908Y-71761D01*
X-77423Y-79785D02*
Y-72271D01*
X-76985Y-71834D01*
X-77165Y-71653D02*
X-76985Y-71834D01*
X-61023Y-77559D02*
Y-74410D01*
X-70640Y-76147D02*
Y-71880D01*
X-70276Y-76938D02*
Y-76512D01*
X-61417Y-74016D02*
X-61023Y-74410D01*
X-70640Y-76147D02*
X-70276Y-76512D01*
X-80315Y-76938D02*
Y-71653D01*
X19202Y-63337D02*
Y-61642D01*
Y-63337D02*
X19237Y-63373D01*
X-948Y-63232D02*
X-647Y-63533D01*
X-58268Y-59871D02*
Y-54331D01*
X54558Y-79740D02*
X54604Y-79786D01*
X52885Y-79740D02*
X54558D01*
X-89764Y-71653D02*
Y-68701D01*
X-50599Y80234D02*
X-41988D01*
X-41783Y80029D01*
X-47957Y77178D02*
X-39831D01*
X-57807D02*
X-47957D01*
X-39370Y71653D02*
Y76717D01*
Y66561D02*
Y71653D01*
X-67717Y61631D02*
X-58268D01*
X-67717D02*
Y63189D01*
Y54331D02*
Y61631D01*
X-58268Y54331D02*
Y61631D01*
Y63041D01*
X-39831Y77178D02*
X-39370Y76717D01*
X-30383Y65826D02*
X-29921Y66288D01*
X-39370Y66561D02*
X-38636Y65826D01*
X-29921Y66288D02*
Y71653D01*
X-38636Y65826D02*
X-30383D01*
X-42059Y63324D02*
X43211D01*
X-42520Y63785D02*
Y71653D01*
Y63785D02*
X-42059Y63324D01*
X-44653Y60646D02*
X37275D01*
X-45669Y61662D02*
Y74287D01*
Y61662D02*
X-44653Y60646D01*
X-58268Y71653D02*
Y76717D01*
X-57807Y77178D01*
X-48819Y76316D02*
X-47957Y77178D01*
X-48819Y71653D02*
Y76316D01*
X-48819Y71653D02*
X-48819Y71653D01*
X-61417Y77399D02*
X-58754Y80063D01*
X-56676D02*
X-56505Y80234D01*
X-58754Y80063D02*
X-56676D01*
X-61417Y71653D02*
Y77399D01*
Y77352D02*
X-61417D01*
X-64567Y48819D02*
Y54331D01*
Y48819D02*
X-64567Y48819D01*
X-64206Y65748D02*
X-62131Y63673D01*
X-60164D01*
X-55118Y71653D02*
X-55118Y71654D01*
X-60164Y63673D02*
X-59509Y64329D01*
X-61063Y66122D02*
X-55762D01*
X-59509Y64329D02*
X-52430D01*
X-55301Y66583D02*
Y71471D01*
X-55762Y66122D02*
X-55301Y66583D01*
Y71471D02*
X-55118Y71653D01*
X-67773Y71597D02*
X-67717Y71653D01*
X-67773Y63245D02*
Y71597D01*
Y63245D02*
X-67717Y63189D01*
X-58268Y48987D02*
Y54331D01*
Y63041D02*
X-51435D01*
X-52430Y64329D02*
X-51969Y64790D01*
Y71653D01*
X-51435Y63041D02*
X-51288Y63189D01*
X-48987D01*
X-71016Y65346D02*
Y71504D01*
X-70866Y71653D01*
X-48987Y63189D02*
X-48819Y63021D01*
X-61417Y48798D02*
Y54331D01*
Y48798D02*
X-61417Y48798D01*
X45473Y71457D02*
X45669Y71653D01*
X45473Y67410D02*
Y71457D01*
X43604Y65541D02*
X45473Y67410D01*
X37126Y65541D02*
X43604D01*
X-77166Y63189D02*
Y71653D01*
Y54331D02*
Y63189D01*
X-67717D01*
X-48819Y63021D02*
Y71653D01*
Y58682D02*
Y63021D01*
X-51969Y47128D02*
Y54331D01*
X-59534Y37664D02*
X-47036D01*
X-59578Y26507D02*
Y30445D01*
Y26507D02*
X-58268Y25197D01*
X-55118Y45576D02*
Y46363D01*
X-55118Y46364D01*
X-55118D02*
X-55118Y46364D01*
X-58268Y48987D02*
X-58268Y48987D01*
X-33071Y71653D02*
Y78001D01*
X-32067Y79005D02*
Y79250D01*
X-33071Y78001D02*
X-32067Y79005D01*
X-36055Y81165D02*
X-34683Y82537D01*
X-36220Y71653D02*
X-36055Y71820D01*
Y81165D01*
X-34683Y82537D02*
X-34646D01*
X-92673Y48805D02*
Y65354D01*
X-88052Y44184D02*
Y44676D01*
X-89135Y45759D02*
X-88052Y44676D01*
X-89627Y45759D02*
X-89135D01*
X-92673Y48805D02*
X-89627Y45759D01*
X-81112Y80099D02*
X-74199D01*
X-77166Y71653D02*
X-77166Y71653D01*
X-82147Y44184D02*
X-82073Y44257D01*
Y63090D01*
X-47054Y44307D02*
X-47036Y44326D01*
X-47073Y44289D02*
X-47054Y44307D01*
X-55118Y54331D02*
X-55118Y54331D01*
X-59547Y44289D02*
X-47073D01*
X-55118Y46364D02*
Y54331D01*
X-70372Y44289D02*
X-65453D01*
X-70866Y44783D02*
X-70372Y44289D01*
X-70866Y44783D02*
Y54331D01*
X-87421Y60557D02*
X-87402Y60538D01*
X-87421Y80070D02*
X-87205Y80286D01*
X-87421Y60557D02*
Y80070D01*
X-87402Y54428D02*
Y60538D01*
X-81299Y80286D02*
X-81112Y80099D01*
X-59535Y37665D02*
X-59534Y37664D01*
X-65487Y37711D02*
X-65440Y37665D01*
X-73555Y37711D02*
X-65487D01*
X-38223Y22047D02*
X-22053D01*
X-21870Y21864D01*
X-50186Y22047D02*
X-44129D01*
X-44129Y22047D01*
X-38382Y30891D02*
X-26772D01*
X-26772Y30891D01*
X-50116Y30891D02*
X-44287D01*
X-50116Y30891D02*
X-50116Y30891D01*
X-29921Y54331D02*
Y57284D01*
X-31898Y59260D02*
X-29921Y57284D01*
X-37394Y59260D02*
X-31898D01*
X-39370Y57284D02*
X-37394Y59260D01*
X37275Y60646D02*
X37291Y60630D01*
X-48819Y54331D02*
Y58682D01*
X-48339Y59161D01*
X-41248D01*
X-39370Y57284D01*
Y54331D02*
Y57284D01*
X-36899Y36253D02*
X-18324D01*
X-70866Y-71653D02*
X-70640Y-71880D01*
X105512Y71653D02*
X108661D01*
X118240Y13930D02*
Y70267D01*
X108661Y71653D02*
X116854D01*
X118240Y70267D01*
X-33071Y49024D02*
Y54331D01*
X-37073Y47949D02*
X-36899Y47775D01*
X-37073Y47949D02*
Y47965D01*
X-40894Y45700D02*
X-1575D01*
X-33071Y49024D02*
X-31822Y47775D01*
X-31727D01*
X-42520Y47326D02*
X-40894Y45700D01*
X-26772Y54331D02*
X-23622D01*
X-29921D02*
X-26772D01*
X-26772Y71653D02*
X-23622D01*
X77166Y-20508D02*
X79235Y-18438D01*
X100706D01*
X77166Y-54331D02*
Y-20508D01*
X74016Y-54331D02*
X77166D01*
X70866D02*
X74016D01*
X-74016Y71653D02*
Y79085D01*
X120782Y11388D02*
X122692D01*
X118240Y13930D02*
X120782Y11388D01*
X116506Y-15770D02*
Y61988D01*
X63839Y62992D02*
X115502D01*
X116506Y61988D01*
X102362Y71653D02*
X105512D01*
X-87421Y-14112D02*
Y16281D01*
X-87301Y16400D01*
X-87421Y-14112D02*
X-85763Y-15770D01*
X116506D01*
X61417Y65413D02*
X63839Y62992D01*
X61417Y65413D02*
Y71653D01*
X49398Y-62383D02*
X49730Y-62051D01*
X49398Y-65723D02*
Y-62383D01*
X48819Y-71653D02*
Y-66302D01*
X49398Y-65723D01*
X64567Y71653D02*
X64732Y71819D01*
Y77979D01*
X65542Y78788D02*
X89185D01*
X64732Y77979D02*
X65542Y78788D01*
X-74016Y38173D02*
Y54331D01*
Y38173D02*
X-73555Y37711D01*
X-41712Y42725D02*
X-7480D01*
X-45669Y46683D02*
X-41712Y42725D01*
X-36220Y48817D02*
Y54331D01*
X-37073Y47965D02*
X-36220Y48817D01*
X-31727Y38976D02*
X-12598D01*
X-12598Y38976D01*
X-64567Y71653D02*
Y82000D01*
X-45669Y46683D02*
Y54331D01*
X-42520Y47326D02*
Y54331D01*
D18*
X-65453Y44289D02*
D03*
X-59547D02*
D03*
X-82147Y44184D02*
D03*
X-88052D02*
D03*
X-87205Y80286D02*
D03*
X-81299D02*
D03*
X-50599Y80234D02*
D03*
X-56505D02*
D03*
X-38382Y30891D02*
D03*
X-44287D02*
D03*
X-38223Y22047D02*
D03*
X-44129D02*
D03*
X-59535Y37665D02*
D03*
X-65440D02*
D03*
D40*
X108268Y-62992D02*
D03*
X-108268Y62992D02*
D03*
D41*
X-90886Y-48373D02*
D03*
X112754Y66321D02*
D03*
X109211Y80495D02*
D03*
X109055Y21949D02*
D03*
X93307D02*
D03*
Y-9547D02*
D03*
X101181Y-25295D02*
D03*
X93307Y-41043D02*
D03*
Y-72539D02*
D03*
X85433Y37697D02*
D03*
X77559Y21949D02*
D03*
X85433Y6201D02*
D03*
Y-25295D02*
D03*
Y-56791D02*
D03*
X61811Y21949D02*
D03*
X69685Y6201D02*
D03*
Y-25295D02*
D03*
X46063Y21949D02*
D03*
X53937Y-25295D02*
D03*
X38189Y6201D02*
D03*
Y-25295D02*
D03*
X14567Y21949D02*
D03*
Y-9547D02*
D03*
X22441Y-25295D02*
D03*
X-1181Y21949D02*
D03*
X6693Y6201D02*
D03*
X-1181Y-9547D02*
D03*
Y-41043D02*
D03*
X-16929Y21949D02*
D03*
X-9055Y6201D02*
D03*
X-16929Y-9547D02*
D03*
X-24803Y6201D02*
D03*
X-40551D02*
D03*
X-64173Y21949D02*
D03*
Y-9547D02*
D03*
X-72047Y6201D02*
D03*
X-79921Y-9547D02*
D03*
X-95669Y53445D02*
D03*
Y21949D02*
D03*
Y-9547D02*
D03*
X-111417Y21949D02*
D03*
X-103543Y6201D02*
D03*
X-111417Y-9547D02*
D03*
Y-41043D02*
D03*
X-102509Y-64422D02*
D03*
X-105808Y-32580D02*
D03*
X-105851Y-64502D02*
D03*
X-95682Y-59942D02*
D03*
X-112026Y-67524D02*
D03*
X-60433Y-64355D02*
D03*
X-10671Y-64367D02*
D03*
X44599Y-81416D02*
D03*
X29921Y-63373D02*
D03*
X19237D02*
D03*
X-70579Y-40089D02*
D03*
X14566Y-80441D02*
D03*
X59565Y-83851D02*
D03*
X-647Y-63533D02*
D03*
X-92652Y-60437D02*
D03*
X-73908Y-81776D02*
D03*
X-86464Y-83641D02*
D03*
X4724Y-81776D02*
D03*
X54530Y-79786D02*
D03*
X15243Y-30372D02*
D03*
X-86639Y-60630D02*
D03*
X-77423Y-79785D02*
D03*
X-70622Y-64328D02*
D03*
X-45590Y-32808D02*
D03*
X-83255Y-60652D02*
D03*
X5339Y-27197D02*
D03*
X-60547Y-44388D02*
D03*
X-117153Y-81795D02*
D03*
X-70276Y-76938D02*
D03*
X-61023Y-77559D02*
D03*
X-80315Y-76938D02*
D03*
X-41783Y80029D02*
D03*
X-61417Y77352D02*
D03*
X-64567Y48819D02*
D03*
X-61417Y48798D02*
D03*
X-61023Y65748D02*
D03*
X-64206D02*
D03*
X-71016Y65346D02*
D03*
X-64567Y82000D02*
D03*
X-121653Y-79649D02*
D03*
X37126Y65541D02*
D03*
X-51968Y48142D02*
D03*
X-47036Y37664D02*
D03*
X-58268Y25197D02*
D03*
X-55118Y46364D02*
D03*
X-58268Y48798D02*
D03*
X-34646Y82537D02*
D03*
X-32067Y79250D02*
D03*
X-92673Y65354D02*
D03*
X-74199Y80099D02*
D03*
X-82073Y63090D02*
D03*
X-47054Y44307D02*
D03*
X-87402Y54428D02*
D03*
X-22053Y22047D02*
D03*
X-50186Y22047D02*
D03*
X-26772Y30891D02*
D03*
X-50116D02*
D03*
X-36899Y36253D02*
D03*
X37291Y60630D02*
D03*
X-31727Y47775D02*
D03*
X-36899D02*
D03*
X100706Y-18438D02*
D03*
X122692Y11388D02*
D03*
X43211Y63324D02*
D03*
X-87301Y16400D02*
D03*
X116506Y-15770D02*
D03*
X49730Y-22126D02*
D03*
Y-62051D02*
D03*
X89185Y78788D02*
D03*
X-12598Y38976D02*
D03*
X-7480Y42725D02*
D03*
X-18324Y36253D02*
D03*
X-1575Y45700D02*
D03*
X-31727Y38976D02*
D03*
D42*
X-65680Y30445D02*
D03*
X-59578D02*
D03*
D43*
X77166Y-71653D02*
D03*
X74016D02*
D03*
X70866D02*
D03*
X67717D02*
D03*
X64567D02*
D03*
X61417D02*
D03*
X58268D02*
D03*
X55118D02*
D03*
X51969D02*
D03*
X48819D02*
D03*
X45669D02*
D03*
X42520D02*
D03*
X26772D02*
D03*
X11024D02*
D03*
X-4724D02*
D03*
X-20472D02*
D03*
X-36220D02*
D03*
X-39370D02*
D03*
X-51969D02*
D03*
X-55118D02*
D03*
X-58268D02*
D03*
X-61417D02*
D03*
X-64567D02*
D03*
X-67717D02*
D03*
X-70866D02*
D03*
X-74016D02*
D03*
X-77165D02*
D03*
X-80315D02*
D03*
X-83465D02*
D03*
X-86614D02*
D03*
X-89764D02*
D03*
X-92914D02*
D03*
X-96063D02*
D03*
X-99213D02*
D03*
X-102362D02*
D03*
X-105512D02*
D03*
X-108661D02*
D03*
X-108661Y-54331D02*
D03*
X-105512D02*
D03*
X-102362D02*
D03*
X-99213D02*
D03*
X-96063D02*
D03*
X-92914D02*
D03*
X-89764D02*
D03*
X-86614D02*
D03*
X-83465D02*
D03*
X-80315D02*
D03*
X-77165D02*
D03*
X-74016D02*
D03*
X-70866D02*
D03*
X-67717D02*
D03*
X-64567D02*
D03*
X-61417D02*
D03*
X-58268D02*
D03*
X-55118D02*
D03*
X-51968D02*
D03*
X-36220D02*
D03*
X-33071D02*
D03*
X-29921D02*
D03*
X-26772D02*
D03*
X-23622D02*
D03*
X-20472D02*
D03*
X-4724D02*
D03*
X11024D02*
D03*
X14173D02*
D03*
X17323D02*
D03*
X20472D02*
D03*
X23622D02*
D03*
X26772D02*
D03*
X29921D02*
D03*
X33071D02*
D03*
X36220D02*
D03*
X39370D02*
D03*
X42520D02*
D03*
X45669D02*
D03*
X48819D02*
D03*
X51969D02*
D03*
X55118D02*
D03*
X58268D02*
D03*
X61417D02*
D03*
X64567D02*
D03*
X70866D02*
D03*
X74016D02*
D03*
X29921Y-71653D02*
D03*
X7874D02*
D03*
X4724D02*
D03*
X1575D02*
D03*
X-1575D02*
D03*
X-7874D02*
D03*
X-11024D02*
D03*
X-14173D02*
D03*
X-17323D02*
D03*
X14173D02*
D03*
X17323D02*
D03*
X20472D02*
D03*
X23622D02*
D03*
X33071D02*
D03*
X36220D02*
D03*
X39370D02*
D03*
X7874Y-54331D02*
D03*
X-7874D02*
D03*
X-11024D02*
D03*
X-14173D02*
D03*
X-17323D02*
D03*
X-1575D02*
D03*
X1575D02*
D03*
X4724D02*
D03*
X-39370D02*
D03*
X-45669D02*
D03*
X-48819D02*
D03*
X-42520D02*
D03*
X-45669Y-71653D02*
D03*
X-48819D02*
D03*
X-42520D02*
D03*
X-23622D02*
D03*
X-29921D02*
D03*
X-33071D02*
D03*
X-26772D02*
D03*
X67717Y-54331D02*
D03*
X-33071Y71653D02*
D03*
X-36220D02*
D03*
X-42520D02*
D03*
X-45669D02*
D03*
X-61417D02*
D03*
X-64567D02*
D03*
X-70866D02*
D03*
X-74016D02*
D03*
X-33071Y54331D02*
D03*
X-36220D02*
D03*
X-42520D02*
D03*
X-45669D02*
D03*
X-51969D02*
D03*
X-55118D02*
D03*
X-70866D02*
D03*
X-74016D02*
D03*
X108661D02*
D03*
X105512D02*
D03*
X102362D02*
D03*
X92914D02*
D03*
X83465D02*
D03*
X80315D02*
D03*
X77165D02*
D03*
X74016D02*
D03*
X70866D02*
D03*
X67717D02*
D03*
X64567D02*
D03*
X61417D02*
D03*
X58268D02*
D03*
X55118D02*
D03*
X51968D02*
D03*
X48819D02*
D03*
X45669D02*
D03*
X42520D02*
D03*
X26772D02*
D03*
X11024D02*
D03*
X-4724D02*
D03*
X-20472D02*
D03*
X-23622D02*
D03*
X-26772D02*
D03*
X-29921D02*
D03*
X-39370D02*
D03*
X-48819D02*
D03*
X-58268D02*
D03*
X-61417D02*
D03*
X-64567D02*
D03*
X-67717D02*
D03*
X-77166D02*
D03*
X-77166Y71653D02*
D03*
X-67717D02*
D03*
X-58268D02*
D03*
X-55118D02*
D03*
X-51969D02*
D03*
X-48819D02*
D03*
X-39370D02*
D03*
X-29921D02*
D03*
X-26772D02*
D03*
X-23622D02*
D03*
X-20472D02*
D03*
X-4724D02*
D03*
X11024D02*
D03*
X26772D02*
D03*
X42520D02*
D03*
X58268D02*
D03*
X61417D02*
D03*
X64567D02*
D03*
X67717D02*
D03*
X70866D02*
D03*
X74016D02*
D03*
X77165D02*
D03*
X80315D02*
D03*
X83465D02*
D03*
X86614D02*
D03*
X92914D02*
D03*
X102362D02*
D03*
X105512D02*
D03*
X89764Y54331D02*
D03*
X86614D02*
D03*
X99213D02*
D03*
X96063D02*
D03*
X89764Y71653D02*
D03*
X99213D02*
D03*
X96063D02*
D03*
X39370Y54331D02*
D03*
X36220D02*
D03*
X17323D02*
D03*
X7874D02*
D03*
X4724D02*
D03*
X1575D02*
D03*
X-1575D02*
D03*
X14173D02*
D03*
X20472D02*
D03*
X23622D02*
D03*
X-11024D02*
D03*
X-14173D02*
D03*
X-17323D02*
D03*
X-7874D02*
D03*
X29921Y71653D02*
D03*
X17323D02*
D03*
X14173D02*
D03*
X7874D02*
D03*
X4724D02*
D03*
X1575D02*
D03*
X-1575D02*
D03*
X-7874D02*
D03*
X-11024D02*
D03*
X-14173D02*
D03*
X-17323D02*
D03*
X20472D02*
D03*
X23622D02*
D03*
X33071D02*
D03*
X36220D02*
D03*
X39370D02*
D03*
X51969D02*
D03*
X55118D02*
D03*
X29921Y54331D02*
D03*
X33071D02*
D03*
X48819Y71653D02*
D03*
X45669D02*
D03*
D44*
X77166Y-54331D02*
D03*
X108661Y71653D02*
D03*
D45*
X-89952Y-54142D02*
Y-49679D01*
X-90886Y-48746D02*
Y-48373D01*
X-89952Y-54142D02*
X-89764Y-54331D01*
X-90886Y-48746D02*
X-89952Y-49679D01*
X-110906Y-48868D02*
X-108661Y-51112D01*
X-110906Y-48868D02*
Y-48524D01*
X-108661Y-54331D02*
Y-51112D01*
M02*
